<?xml version="1.0" encoding="utf-8" standalone="no"?>
<!DOCTYPE svg PUBLIC "-//W3C//DTD SVG 1.1//EN"
  "http://www.w3.org/Graphics/SVG/1.1/DTD/svg11.dtd">
<!-- Created with matplotlib (https://matplotlib.org/) -->
<svg height="345.6pt" version="1.1" viewBox="0 0 460.8 345.6" width="460.8pt" xmlns="http://www.w3.org/2000/svg" xmlns:xlink="http://www.w3.org/1999/xlink">
 <metadata>
  <rdf:RDF xmlns:cc="http://creativecommons.org/ns#" xmlns:dc="http://purl.org/dc/elements/1.1/" xmlns:rdf="http://www.w3.org/1999/02/22-rdf-syntax-ns#">
   <cc:Work>
    <dc:type rdf:resource="http://purl.org/dc/dcmitype/StillImage"/>
    <dc:date>2020-12-15T23:33:33.378620</dc:date>
    <dc:format>image/svg+xml</dc:format>
    <dc:creator>
     <cc:Agent>
      <dc:title>Matplotlib v3.3.3, https://matplotlib.org/</dc:title>
     </cc:Agent>
    </dc:creator>
   </cc:Work>
  </rdf:RDF>
 </metadata>
 <defs>
  <style type="text/css">*{stroke-linecap:butt;stroke-linejoin:round;}</style>
 </defs>
 <g id="figure_1">
  <g id="patch_1">
   <path d="M 0 345.6 
L 460.8 345.6 
L 460.8 0 
L 0 0 
z
" style="fill:#ffffff;"/>
  </g>
  <g id="axes_1">
   <g id="patch_2">
    <path d="M 57.6 307.584 
L 219.927273 307.584 
L 219.927273 41.472 
L 57.6 41.472 
z
" style="fill:#ffffff;"/>
   </g>
   <g id="matplotlib.axis_1">
    <g id="xtick_1">
     <g id="line2d_1">
      <defs>
       <path d="M 0 0 
L 0 3.5 
" id="m44892f7f34" style="stroke:#000000;stroke-width:0.8;"/>
      </defs>
      <g>
       <use style="stroke:#000000;stroke-width:0.8;" x="64.978512" xlink:href="#m44892f7f34" y="307.584"/>
      </g>
     </g>
     <g id="text_1">
      <!-- −40 -->
      <g transform="translate(54.426169 322.182437)scale(0.1 -0.1)">
       <defs>
        <path d="M 10.59375 35.5 
L 73.1875 35.5 
L 73.1875 27.203125 
L 10.59375 27.203125 
z
" id="DejaVuSans-8722"/>
        <path d="M 37.796875 64.3125 
L 12.890625 25.390625 
L 37.796875 25.390625 
z
M 35.203125 72.90625 
L 47.609375 72.90625 
L 47.609375 25.390625 
L 58.015625 25.390625 
L 58.015625 17.1875 
L 47.609375 17.1875 
L 47.609375 0 
L 37.796875 0 
L 37.796875 17.1875 
L 4.890625 17.1875 
L 4.890625 26.703125 
z
" id="DejaVuSans-52"/>
        <path d="M 31.78125 66.40625 
Q 24.171875 66.40625 20.328125 58.90625 
Q 16.5 51.421875 16.5 36.375 
Q 16.5 21.390625 20.328125 13.890625 
Q 24.171875 6.390625 31.78125 6.390625 
Q 39.453125 6.390625 43.28125 13.890625 
Q 47.125 21.390625 47.125 36.375 
Q 47.125 51.421875 43.28125 58.90625 
Q 39.453125 66.40625 31.78125 66.40625 
z
M 31.78125 74.21875 
Q 44.046875 74.21875 50.515625 64.515625 
Q 56.984375 54.828125 56.984375 36.375 
Q 56.984375 17.96875 50.515625 8.265625 
Q 44.046875 -1.421875 31.78125 -1.421875 
Q 19.53125 -1.421875 13.0625 8.265625 
Q 6.59375 17.96875 6.59375 36.375 
Q 6.59375 54.828125 13.0625 64.515625 
Q 19.53125 74.21875 31.78125 74.21875 
z
" id="DejaVuSans-48"/>
       </defs>
       <use xlink:href="#DejaVuSans-8722"/>
       <use x="83.789062" xlink:href="#DejaVuSans-52"/>
       <use x="147.412109" xlink:href="#DejaVuSans-48"/>
      </g>
     </g>
    </g>
    <g id="xtick_2">
     <g id="line2d_2">
      <g>
       <use style="stroke:#000000;stroke-width:0.8;" x="101.871074" xlink:href="#m44892f7f34" y="307.584"/>
      </g>
     </g>
     <g id="text_2">
      <!-- −20 -->
      <g transform="translate(91.318731 322.182437)scale(0.1 -0.1)">
       <defs>
        <path d="M 19.1875 8.296875 
L 53.609375 8.296875 
L 53.609375 0 
L 7.328125 0 
L 7.328125 8.296875 
Q 12.9375 14.109375 22.625 23.890625 
Q 32.328125 33.6875 34.8125 36.53125 
Q 39.546875 41.84375 41.421875 45.53125 
Q 43.3125 49.21875 43.3125 52.78125 
Q 43.3125 58.59375 39.234375 62.25 
Q 35.15625 65.921875 28.609375 65.921875 
Q 23.96875 65.921875 18.8125 64.3125 
Q 13.671875 62.703125 7.8125 59.421875 
L 7.8125 69.390625 
Q 13.765625 71.78125 18.9375 73 
Q 24.125 74.21875 28.421875 74.21875 
Q 39.75 74.21875 46.484375 68.546875 
Q 53.21875 62.890625 53.21875 53.421875 
Q 53.21875 48.921875 51.53125 44.890625 
Q 49.859375 40.875 45.40625 35.40625 
Q 44.1875 33.984375 37.640625 27.21875 
Q 31.109375 20.453125 19.1875 8.296875 
z
" id="DejaVuSans-50"/>
       </defs>
       <use xlink:href="#DejaVuSans-8722"/>
       <use x="83.789062" xlink:href="#DejaVuSans-50"/>
       <use x="147.412109" xlink:href="#DejaVuSans-48"/>
      </g>
     </g>
    </g>
    <g id="xtick_3">
     <g id="line2d_3">
      <g>
       <use style="stroke:#000000;stroke-width:0.8;" x="138.763636" xlink:href="#m44892f7f34" y="307.584"/>
      </g>
     </g>
     <g id="text_3">
      <!-- 0 -->
      <g transform="translate(135.582386 322.182437)scale(0.1 -0.1)">
       <use xlink:href="#DejaVuSans-48"/>
      </g>
     </g>
    </g>
    <g id="xtick_4">
     <g id="line2d_4">
      <g>
       <use style="stroke:#000000;stroke-width:0.8;" x="175.656198" xlink:href="#m44892f7f34" y="307.584"/>
      </g>
     </g>
     <g id="text_4">
      <!-- 20 -->
      <g transform="translate(169.293698 322.182437)scale(0.1 -0.1)">
       <use xlink:href="#DejaVuSans-50"/>
       <use x="63.623047" xlink:href="#DejaVuSans-48"/>
      </g>
     </g>
    </g>
    <g id="xtick_5">
     <g id="line2d_5">
      <g>
       <use style="stroke:#000000;stroke-width:0.8;" x="212.54876" xlink:href="#m44892f7f34" y="307.584"/>
      </g>
     </g>
     <g id="text_5">
      <!-- 40 -->
      <g transform="translate(206.18626 322.182437)scale(0.1 -0.1)">
       <use xlink:href="#DejaVuSans-52"/>
       <use x="63.623047" xlink:href="#DejaVuSans-48"/>
      </g>
     </g>
    </g>
   </g>
   <g id="matplotlib.axis_2">
    <g id="ytick_1">
     <g id="line2d_6">
      <defs>
       <path d="M 0 0 
L -3.5 0 
" id="mb94b2aa45c" style="stroke:#000000;stroke-width:0.8;"/>
      </defs>
      <g>
       <use style="stroke:#000000;stroke-width:0.8;" x="57.6" xlink:href="#mb94b2aa45c" y="271.296"/>
      </g>
     </g>
     <g id="text_6">
      <!-- −0.04 -->
      <g transform="translate(19.954687 275.095219)scale(0.1 -0.1)">
       <defs>
        <path d="M 10.6875 12.40625 
L 21 12.40625 
L 21 0 
L 10.6875 0 
z
" id="DejaVuSans-46"/>
       </defs>
       <use xlink:href="#DejaVuSans-8722"/>
       <use x="83.789062" xlink:href="#DejaVuSans-48"/>
       <use x="147.412109" xlink:href="#DejaVuSans-46"/>
       <use x="179.199219" xlink:href="#DejaVuSans-48"/>
       <use x="242.822266" xlink:href="#DejaVuSans-52"/>
      </g>
     </g>
    </g>
    <g id="ytick_2">
     <g id="line2d_7">
      <g>
       <use style="stroke:#000000;stroke-width:0.8;" x="57.6" xlink:href="#mb94b2aa45c" y="222.912"/>
      </g>
     </g>
     <g id="text_7">
      <!-- −0.02 -->
      <g transform="translate(19.954687 226.711219)scale(0.1 -0.1)">
       <use xlink:href="#DejaVuSans-8722"/>
       <use x="83.789062" xlink:href="#DejaVuSans-48"/>
       <use x="147.412109" xlink:href="#DejaVuSans-46"/>
       <use x="179.199219" xlink:href="#DejaVuSans-48"/>
       <use x="242.822266" xlink:href="#DejaVuSans-50"/>
      </g>
     </g>
    </g>
    <g id="ytick_3">
     <g id="line2d_8">
      <g>
       <use style="stroke:#000000;stroke-width:0.8;" x="57.6" xlink:href="#mb94b2aa45c" y="174.528"/>
      </g>
     </g>
     <g id="text_8">
      <!-- 0.00 -->
      <g transform="translate(28.334375 178.327219)scale(0.1 -0.1)">
       <use xlink:href="#DejaVuSans-48"/>
       <use x="63.623047" xlink:href="#DejaVuSans-46"/>
       <use x="95.410156" xlink:href="#DejaVuSans-48"/>
       <use x="159.033203" xlink:href="#DejaVuSans-48"/>
      </g>
     </g>
    </g>
    <g id="ytick_4">
     <g id="line2d_9">
      <g>
       <use style="stroke:#000000;stroke-width:0.8;" x="57.6" xlink:href="#mb94b2aa45c" y="126.144"/>
      </g>
     </g>
     <g id="text_9">
      <!-- 0.02 -->
      <g transform="translate(28.334375 129.943219)scale(0.1 -0.1)">
       <use xlink:href="#DejaVuSans-48"/>
       <use x="63.623047" xlink:href="#DejaVuSans-46"/>
       <use x="95.410156" xlink:href="#DejaVuSans-48"/>
       <use x="159.033203" xlink:href="#DejaVuSans-50"/>
      </g>
     </g>
    </g>
    <g id="ytick_5">
     <g id="line2d_10">
      <g>
       <use style="stroke:#000000;stroke-width:0.8;" x="57.6" xlink:href="#mb94b2aa45c" y="77.76"/>
      </g>
     </g>
     <g id="text_10">
      <!-- 0.04 -->
      <g transform="translate(28.334375 81.559219)scale(0.1 -0.1)">
       <use xlink:href="#DejaVuSans-48"/>
       <use x="63.623047" xlink:href="#DejaVuSans-46"/>
       <use x="95.410156" xlink:href="#DejaVuSans-48"/>
       <use x="159.033203" xlink:href="#DejaVuSans-52"/>
      </g>
     </g>
    </g>
   </g>
   <g id="line2d_11">
    <path clip-path="url(#p7ea5eab36d)" d="M 64.978512 174.528 
L 66.469121 174.528 
L 67.95973 174.528 
L 69.450338 174.528 
L 70.940947 174.528 
L 72.431555 174.528 
L 73.922164 174.528 
L 75.412772 174.528 
L 76.903381 174.528 
L 78.393989 174.528 
L 79.884598 174.528 
L 81.375207 174.528 
L 82.865815 174.528 
L 84.356424 174.528 
L 85.847032 174.528 
L 87.337641 174.528 
L 88.828249 174.528 
L 90.318858 174.528 
L 91.809467 174.528 
L 93.300075 174.528 
L 94.790684 174.528 
L 96.281292 174.528 
L 97.771901 174.528 
L 99.262509 174.528 
L 100.753118 174.528 
L 102.243727 174.528 
L 103.734335 174.528 
L 105.224944 174.528 
L 106.715552 174.528 
L 108.206161 174.528 
L 109.696769 174.528 
L 111.187378 174.528 
L 112.677986 174.528 
L 114.168595 174.528 
L 115.659204 174.528 
L 117.149812 174.528 
L 118.640421 174.528 
L 120.131029 174.528 
L 121.621638 174.528 
L 123.112246 174.528 
L 124.602855 174.528 
L 126.093464 174.528 
L 127.584072 174.528 
L 129.074681 174.528 
L 130.565289 174.528 
L 132.055898 174.528 
L 133.546506 174.528 
L 135.037115 174.528 
L 136.527724 174.528 
L 138.018332 174.528 
L 139.508941 174.528 
L 140.999549 174.528 
L 142.490158 174.528 
L 143.980766 174.528 
L 145.471375 174.528 
L 146.961983 174.528 
L 148.452592 174.528 
L 149.943201 174.528 
L 151.433809 174.528 
L 152.924418 174.528 
L 154.415026 174.528 
L 155.905635 174.528 
L 157.396243 174.528 
L 158.886852 174.528 
L 160.377461 174.528 
L 161.868069 174.528 
L 163.358678 174.528 
L 164.849286 174.528 
L 166.339895 174.528 
L 167.830503 174.528 
L 169.321112 174.528 
L 170.811721 174.528 
L 172.302329 174.528 
L 173.792938 174.528 
L 175.283546 174.528 
L 176.774155 174.528 
L 178.264763 174.528 
L 179.755372 174.528 
L 181.24598 174.528 
L 182.736589 174.528 
L 184.227198 174.528 
L 185.717806 174.528 
L 187.208415 174.528 
L 188.699023 174.528 
L 190.189632 174.528 
L 191.68024 174.528 
L 193.170849 174.528 
L 194.661458 174.528 
L 196.152066 174.528 
L 197.642675 174.528 
L 199.133283 174.528 
L 200.623892 174.528 
L 202.1145 174.528 
L 203.605109 174.528 
L 205.095718 174.528 
L 206.586326 174.528 
L 208.076935 174.528 
L 209.567543 174.528 
L 211.058152 174.528 
L 212.54876 174.528 
" style="fill:none;stroke:#1f77b4;stroke-linecap:square;stroke-width:1.5;"/>
   </g>
   <g id="patch_3">
    <path d="M 57.6 307.584 
L 57.6 41.472 
" style="fill:none;stroke:#000000;stroke-linecap:square;stroke-linejoin:miter;stroke-width:0.8;"/>
   </g>
   <g id="patch_4">
    <path d="M 219.927273 307.584 
L 219.927273 41.472 
" style="fill:none;stroke:#000000;stroke-linecap:square;stroke-linejoin:miter;stroke-width:0.8;"/>
   </g>
   <g id="patch_5">
    <path d="M 57.6 307.584 
L 219.927273 307.584 
" style="fill:none;stroke:#000000;stroke-linecap:square;stroke-linejoin:miter;stroke-width:0.8;"/>
   </g>
   <g id="patch_6">
    <path d="M 57.6 41.472 
L 219.927273 41.472 
" style="fill:none;stroke:#000000;stroke-linecap:square;stroke-linejoin:miter;stroke-width:0.8;"/>
   </g>
  </g>
  <g id="axes_2">
   <g id="patch_7">
    <path d="M 252.392727 307.584 
L 382.254545 307.584 
L 382.254545 41.472 
L 252.392727 41.472 
z
" style="fill:#ffffff;"/>
   </g>
   <g id="matplotlib.axis_3">
    <g id="xtick_6">
     <g id="line2d_12">
      <g>
       <use style="stroke:#000000;stroke-width:0.8;" x="252.392727" xlink:href="#m44892f7f34" y="307.584"/>
      </g>
     </g>
     <g id="text_11">
      <!-- −40 -->
      <g transform="translate(241.840384 322.182437)scale(0.1 -0.1)">
       <use xlink:href="#DejaVuSans-8722"/>
       <use x="83.789062" xlink:href="#DejaVuSans-52"/>
       <use x="147.412109" xlink:href="#DejaVuSans-48"/>
      </g>
     </g>
    </g>
    <g id="xtick_7">
     <g id="line2d_13">
      <g>
       <use style="stroke:#000000;stroke-width:0.8;" x="284.858182" xlink:href="#m44892f7f34" y="307.584"/>
      </g>
     </g>
     <g id="text_12">
      <!-- −20 -->
      <g transform="translate(274.305838 322.182437)scale(0.1 -0.1)">
       <use xlink:href="#DejaVuSans-8722"/>
       <use x="83.789062" xlink:href="#DejaVuSans-50"/>
       <use x="147.412109" xlink:href="#DejaVuSans-48"/>
      </g>
     </g>
    </g>
    <g id="xtick_8">
     <g id="line2d_14">
      <g>
       <use style="stroke:#000000;stroke-width:0.8;" x="317.323636" xlink:href="#m44892f7f34" y="307.584"/>
      </g>
     </g>
     <g id="text_13">
      <!-- 0 -->
      <g transform="translate(314.142386 322.182437)scale(0.1 -0.1)">
       <use xlink:href="#DejaVuSans-48"/>
      </g>
     </g>
    </g>
    <g id="xtick_9">
     <g id="line2d_15">
      <g>
       <use style="stroke:#000000;stroke-width:0.8;" x="349.789091" xlink:href="#m44892f7f34" y="307.584"/>
      </g>
     </g>
     <g id="text_14">
      <!-- 20 -->
      <g transform="translate(343.426591 322.182437)scale(0.1 -0.1)">
       <use xlink:href="#DejaVuSans-50"/>
       <use x="63.623047" xlink:href="#DejaVuSans-48"/>
      </g>
     </g>
    </g>
    <g id="xtick_10">
     <g id="line2d_16">
      <g>
       <use style="stroke:#000000;stroke-width:0.8;" x="382.254545" xlink:href="#m44892f7f34" y="307.584"/>
      </g>
     </g>
     <g id="text_15">
      <!-- 40 -->
      <g transform="translate(375.892045 322.182437)scale(0.1 -0.1)">
       <use xlink:href="#DejaVuSans-52"/>
       <use x="63.623047" xlink:href="#DejaVuSans-48"/>
      </g>
     </g>
    </g>
   </g>
   <g id="matplotlib.axis_4">
    <g id="ytick_6">
     <g id="line2d_17">
      <g>
       <use style="stroke:#000000;stroke-width:0.8;" x="252.392727" xlink:href="#mb94b2aa45c" y="307.584"/>
      </g>
     </g>
     <g id="text_16">
      <!-- −40 -->
      <g transform="translate(224.28804 311.383219)scale(0.1 -0.1)">
       <use xlink:href="#DejaVuSans-8722"/>
       <use x="83.789062" xlink:href="#DejaVuSans-52"/>
       <use x="147.412109" xlink:href="#DejaVuSans-48"/>
      </g>
     </g>
    </g>
    <g id="ytick_7">
     <g id="line2d_18">
      <g>
       <use style="stroke:#000000;stroke-width:0.8;" x="252.392727" xlink:href="#mb94b2aa45c" y="274.32"/>
      </g>
     </g>
     <g id="text_17">
      <!-- −30 -->
      <g transform="translate(224.28804 278.119219)scale(0.1 -0.1)">
       <defs>
        <path d="M 40.578125 39.3125 
Q 47.65625 37.796875 51.625 33 
Q 55.609375 28.21875 55.609375 21.1875 
Q 55.609375 10.40625 48.1875 4.484375 
Q 40.765625 -1.421875 27.09375 -1.421875 
Q 22.515625 -1.421875 17.65625 -0.515625 
Q 12.796875 0.390625 7.625 2.203125 
L 7.625 11.71875 
Q 11.71875 9.328125 16.59375 8.109375 
Q 21.484375 6.890625 26.8125 6.890625 
Q 36.078125 6.890625 40.9375 10.546875 
Q 45.796875 14.203125 45.796875 21.1875 
Q 45.796875 27.640625 41.28125 31.265625 
Q 36.765625 34.90625 28.71875 34.90625 
L 20.21875 34.90625 
L 20.21875 43.015625 
L 29.109375 43.015625 
Q 36.375 43.015625 40.234375 45.921875 
Q 44.09375 48.828125 44.09375 54.296875 
Q 44.09375 59.90625 40.109375 62.90625 
Q 36.140625 65.921875 28.71875 65.921875 
Q 24.65625 65.921875 20.015625 65.03125 
Q 15.375 64.15625 9.8125 62.3125 
L 9.8125 71.09375 
Q 15.4375 72.65625 20.34375 73.4375 
Q 25.25 74.21875 29.59375 74.21875 
Q 40.828125 74.21875 47.359375 69.109375 
Q 53.90625 64.015625 53.90625 55.328125 
Q 53.90625 49.265625 50.4375 45.09375 
Q 46.96875 40.921875 40.578125 39.3125 
z
" id="DejaVuSans-51"/>
       </defs>
       <use xlink:href="#DejaVuSans-8722"/>
       <use x="83.789062" xlink:href="#DejaVuSans-51"/>
       <use x="147.412109" xlink:href="#DejaVuSans-48"/>
      </g>
     </g>
    </g>
    <g id="ytick_8">
     <g id="line2d_19">
      <g>
       <use style="stroke:#000000;stroke-width:0.8;" x="252.392727" xlink:href="#mb94b2aa45c" y="241.056"/>
      </g>
     </g>
     <g id="text_18">
      <!-- −20 -->
      <g transform="translate(224.28804 244.855219)scale(0.1 -0.1)">
       <use xlink:href="#DejaVuSans-8722"/>
       <use x="83.789062" xlink:href="#DejaVuSans-50"/>
       <use x="147.412109" xlink:href="#DejaVuSans-48"/>
      </g>
     </g>
    </g>
    <g id="ytick_9">
     <g id="line2d_20">
      <g>
       <use style="stroke:#000000;stroke-width:0.8;" x="252.392727" xlink:href="#mb94b2aa45c" y="207.792"/>
      </g>
     </g>
     <g id="text_19">
      <!-- −10 -->
      <g transform="translate(224.28804 211.591219)scale(0.1 -0.1)">
       <defs>
        <path d="M 12.40625 8.296875 
L 28.515625 8.296875 
L 28.515625 63.921875 
L 10.984375 60.40625 
L 10.984375 69.390625 
L 28.421875 72.90625 
L 38.28125 72.90625 
L 38.28125 8.296875 
L 54.390625 8.296875 
L 54.390625 0 
L 12.40625 0 
z
" id="DejaVuSans-49"/>
       </defs>
       <use xlink:href="#DejaVuSans-8722"/>
       <use x="83.789062" xlink:href="#DejaVuSans-49"/>
       <use x="147.412109" xlink:href="#DejaVuSans-48"/>
      </g>
     </g>
    </g>
    <g id="ytick_10">
     <g id="line2d_21">
      <g>
       <use style="stroke:#000000;stroke-width:0.8;" x="252.392727" xlink:href="#mb94b2aa45c" y="174.528"/>
      </g>
     </g>
     <g id="text_20">
      <!-- 0 -->
      <g transform="translate(239.030227 178.327219)scale(0.1 -0.1)">
       <use xlink:href="#DejaVuSans-48"/>
      </g>
     </g>
    </g>
    <g id="ytick_11">
     <g id="line2d_22">
      <g>
       <use style="stroke:#000000;stroke-width:0.8;" x="252.392727" xlink:href="#mb94b2aa45c" y="141.264"/>
      </g>
     </g>
     <g id="text_21">
      <!-- 10 -->
      <g transform="translate(232.667727 145.063219)scale(0.1 -0.1)">
       <use xlink:href="#DejaVuSans-49"/>
       <use x="63.623047" xlink:href="#DejaVuSans-48"/>
      </g>
     </g>
    </g>
    <g id="ytick_12">
     <g id="line2d_23">
      <g>
       <use style="stroke:#000000;stroke-width:0.8;" x="252.392727" xlink:href="#mb94b2aa45c" y="108"/>
      </g>
     </g>
     <g id="text_22">
      <!-- 20 -->
      <g transform="translate(232.667727 111.799219)scale(0.1 -0.1)">
       <use xlink:href="#DejaVuSans-50"/>
       <use x="63.623047" xlink:href="#DejaVuSans-48"/>
      </g>
     </g>
    </g>
    <g id="ytick_13">
     <g id="line2d_24">
      <g>
       <use style="stroke:#000000;stroke-width:0.8;" x="252.392727" xlink:href="#mb94b2aa45c" y="74.736"/>
      </g>
     </g>
     <g id="text_23">
      <!-- 30 -->
      <g transform="translate(232.667727 78.535219)scale(0.1 -0.1)">
       <use xlink:href="#DejaVuSans-51"/>
       <use x="63.623047" xlink:href="#DejaVuSans-48"/>
      </g>
     </g>
    </g>
    <g id="ytick_14">
     <g id="line2d_25">
      <g>
       <use style="stroke:#000000;stroke-width:0.8;" x="252.392727" xlink:href="#mb94b2aa45c" y="41.472"/>
      </g>
     </g>
     <g id="text_24">
      <!-- 40 -->
      <g transform="translate(232.667727 45.271219)scale(0.1 -0.1)">
       <use xlink:href="#DejaVuSans-52"/>
       <use x="63.623047" xlink:href="#DejaVuSans-48"/>
      </g>
     </g>
    </g>
   </g>
   <g id="LineCollection_1"/>
   <g id="LineCollection_2">
    <path clip-path="url(#p402508bc53)" d="M 382.254545 260.755181 
L 380.94281 260.702968 
L 379.631074 260.650823 
L 378.319339 260.598745 
L 377.007603 260.546734 
L 375.695868 260.494789 
L 374.384132 260.44291 
L 373.072397 260.391098 
L 371.760661 260.339351 
L 370.448926 260.287669 
L 369.13719 260.236053 
L 367.825455 260.184501 
L 366.513719 260.133014 
L 365.201983 260.081592 
L 363.890248 260.030234 
L 362.578512 259.97894 
L 361.266777 259.92771 
L 359.955041 259.876543 
L 358.643306 259.825439 
L 357.33157 259.774399 
L 356.019835 259.723421 
L 354.708099 259.672505 
L 353.396364 259.621652 
L 352.084628 259.570862 
L 350.772893 259.520133 
L 349.461157 259.469465 
L 348.149421 259.418859 
L 346.837686 259.368314 
L 345.52595 259.31783 
L 344.214215 259.267407 
L 342.902479 259.217044 
L 342.458392 259.2 
L 341.590744 259.163363 
L 340.279008 259.108026 
L 338.967273 259.052763 
L 337.655537 258.997575 
L 336.343802 258.942462 
L 335.032066 258.887422 
L 333.720331 258.832456 
L 332.408595 258.777564 
L 331.09686 258.722746 
L 329.785124 258.668 
L 328.473388 258.613327 
L 327.161653 258.558726 
L 325.849917 258.504197 
L 324.538182 258.44974 
L 323.226446 258.395355 
L 321.914711 258.341041 
L 320.602975 258.286798 
L 319.29124 258.232626 
L 317.979504 258.178524 
L 316.667769 258.124493 
L 315.356033 258.070531 
L 314.044298 258.016639 
L 312.732562 257.962816 
L 311.420826 257.909063 
L 310.109091 257.855378 
L 308.797355 257.801762 
L 307.48562 257.748214 
L 306.173884 257.694734 
L 304.862149 257.641322 
L 303.550413 257.587978 
L 302.238678 257.534701 
L 300.926942 257.481491 
L 299.615207 257.428347 
L 298.303471 257.37527 
L 296.991736 257.32226 
L 295.68 257.269315 
L 294.368264 257.216437 
L 293.056529 257.163623 
L 291.744793 257.110875 
L 290.433058 257.058192 
L 289.121322 257.005574 
L 287.809587 256.953021 
L 286.497851 256.900531 
L 285.186116 256.848106 
L 283.87438 256.795745 
L 282.562645 256.743447 
L 281.250909 256.691212 
L 279.939174 256.639041 
L 278.627438 256.586932 
L 277.315702 256.534886 
L 276.738595 256.512 
L 276.003967 256.47998 
L 274.692231 256.422851 
L 273.380496 256.365799 
L 272.06876 256.308824 
L 270.757025 256.251925 
L 269.445289 256.195103 
L 268.133554 256.138357 
L 266.821818 256.081687 
L 265.510083 256.025092 
L 264.198347 255.968573 
L 262.886612 255.912128 
L 261.574876 255.855758 
L 260.26314 255.799463 
L 258.951405 255.743241 
L 257.639669 255.687093 
L 256.327934 255.631019 
L 255.016198 255.575018 
L 253.704463 255.519089 
L 252.392727 255.463234 
" style="fill:none;stroke:#46327e;stroke-width:1.5;"/>
    <path clip-path="url(#p402508bc53)" d="M 252.392727 93.592713 
L 253.704463 93.536857 
L 255.016198 93.480929 
L 256.327934 93.424928 
L 257.639669 93.368853 
L 258.951405 93.312705 
L 260.26314 93.256483 
L 261.574876 93.200188 
L 262.886612 93.143818 
L 264.198347 93.087373 
L 265.510083 93.030853 
L 266.821818 92.974259 
L 268.133554 92.917588 
L 269.445289 92.860842 
L 270.757025 92.80402 
L 272.06876 92.747122 
L 273.380496 92.690146 
L 274.692231 92.633094 
L 276.003967 92.575965 
L 276.73733 92.544 
L 277.315702 92.521063 
L 278.627438 92.469017 
L 279.939174 92.416909 
L 281.250909 92.364737 
L 282.562645 92.312503 
L 283.87438 92.260205 
L 285.186116 92.207843 
L 286.497851 92.155418 
L 287.809587 92.102928 
L 289.121322 92.050375 
L 290.433058 91.997756 
L 291.744793 91.945073 
L 293.056529 91.892325 
L 294.368264 91.839512 
L 295.68 91.786633 
L 296.991736 91.733688 
L 298.303471 91.680678 
L 299.615207 91.627601 
L 300.926942 91.574457 
L 302.238678 91.521247 
L 303.550413 91.46797 
L 304.862149 91.414626 
L 306.173884 91.361213 
L 307.48562 91.307734 
L 308.797355 91.254186 
L 310.109091 91.200569 
L 311.420826 91.146885 
L 312.732562 91.093131 
L 314.044298 91.039308 
L 315.356033 90.985416 
L 316.667769 90.931454 
L 317.979504 90.877423 
L 319.29124 90.823321 
L 320.602975 90.769148 
L 321.914711 90.714905 
L 323.226446 90.660591 
L 324.538182 90.606206 
L 325.849917 90.551749 
L 327.161653 90.49722 
L 328.473388 90.442619 
L 329.785124 90.387946 
L 331.09686 90.3332 
L 332.408595 90.278381 
L 333.720331 90.223489 
L 335.032066 90.168523 
L 336.343802 90.113484 
L 337.655537 90.05837 
L 338.967273 90.003182 
L 340.279008 89.947919 
L 341.590744 89.892581 
L 342.457086 89.856 
L 342.902479 89.838906 
L 344.214215 89.788543 
L 345.52595 89.73812 
L 346.837686 89.687636 
L 348.149421 89.637091 
L 349.461157 89.586484 
L 350.772893 89.535817 
L 352.084628 89.485088 
L 353.396364 89.434297 
L 354.708099 89.383444 
L 356.019835 89.332528 
L 357.33157 89.28155 
L 358.643306 89.23051 
L 359.955041 89.179406 
L 361.266777 89.128239 
L 362.578512 89.077008 
L 363.890248 89.025714 
L 365.201983 88.974356 
L 366.513719 88.922934 
L 367.825455 88.871447 
L 369.13719 88.819895 
L 370.448926 88.768279 
L 371.760661 88.716597 
L 373.072397 88.66485 
L 374.384132 88.613037 
L 375.695868 88.561158 
L 377.007603 88.509213 
L 378.319339 88.457202 
L 379.631074 88.405124 
L 380.94281 88.352979 
L 382.254545 88.300766 
" style="fill:none;stroke:#46327e;stroke-width:1.5;"/>
   </g>
   <g id="LineCollection_3">
    <path clip-path="url(#p402508bc53)" d="M 382.254545 276.186417 
L 380.94281 276.143103 
L 379.631074 276.099827 
L 378.319339 276.056589 
L 377.007603 276.013389 
L 375.695868 275.970227 
L 374.384132 275.927103 
L 373.072397 275.884016 
L 371.760661 275.840968 
L 370.448926 275.797956 
L 369.13719 275.754983 
L 367.825455 275.712047 
L 366.513719 275.669148 
L 365.201983 275.626286 
L 363.890248 275.583461 
L 362.578512 275.540673 
L 361.266777 275.497923 
L 359.955041 275.455208 
L 358.643306 275.412531 
L 357.33157 275.36989 
L 356.041837 275.328 
L 356.019835 275.327225 
L 354.708099 275.281049 
L 353.396364 275.234917 
L 352.084628 275.188828 
L 350.772893 275.142783 
L 349.461157 275.096782 
L 348.149421 275.050824 
L 346.837686 275.00491 
L 345.52595 274.959038 
L 344.214215 274.91321 
L 342.902479 274.867425 
L 341.590744 274.821682 
L 340.279008 274.775983 
L 338.967273 274.730326 
L 337.655537 274.684711 
L 336.343802 274.639139 
L 335.032066 274.593609 
L 333.720331 274.548121 
L 332.408595 274.502675 
L 331.09686 274.457271 
L 329.785124 274.411909 
L 328.473388 274.366589 
L 327.161653 274.32131 
L 325.849917 274.276073 
L 324.538182 274.230877 
L 323.226446 274.185722 
L 321.914711 274.140609 
L 320.602975 274.095536 
L 319.29124 274.050504 
L 317.979504 274.005514 
L 316.667769 273.960563 
L 315.356033 273.915654 
L 314.044298 273.870784 
L 312.732562 273.825956 
L 311.420826 273.781167 
L 310.109091 273.736419 
L 308.797355 273.69171 
L 307.48562 273.647042 
L 306.173884 273.602413 
L 304.862149 273.557824 
L 303.550413 273.513274 
L 302.238678 273.468764 
L 300.926942 273.424294 
L 299.615207 273.379863 
L 298.303471 273.335471 
L 296.991736 273.291118 
L 295.68 273.246803 
L 294.368264 273.202528 
L 293.056529 273.158292 
L 291.744793 273.114094 
L 290.433058 273.069935 
L 289.121322 273.025814 
L 287.809587 272.981731 
L 286.497851 272.937687 
L 285.186116 272.893681 
L 283.87438 272.849713 
L 282.562645 272.805783 
L 281.250909 272.761891 
L 279.939174 272.718036 
L 278.627438 272.674219 
L 277.60234 272.64 
L 277.315702 272.629637 
L 276.003967 272.582222 
L 274.692231 272.534853 
L 273.380496 272.487529 
L 272.06876 272.440249 
L 270.757025 272.393014 
L 269.445289 272.345824 
L 268.133554 272.298678 
L 266.821818 272.251576 
L 265.510083 272.204518 
L 264.198347 272.157505 
L 262.886612 272.110535 
L 261.574876 272.063609 
L 260.26314 272.016727 
L 258.951405 271.969889 
L 257.639669 271.923093 
L 256.327934 271.876342 
L 255.016198 271.829633 
L 253.704463 271.782967 
L 252.392727 271.736345 
" style="fill:none;stroke:#365c8d;stroke-width:1.5;"/>
    <path clip-path="url(#p402508bc53)" d="M 252.392727 77.319617 
L 253.704463 77.272995 
L 255.016198 77.226329 
L 256.327934 77.179621 
L 257.639669 77.132869 
L 258.951405 77.086073 
L 260.26314 77.039235 
L 261.574876 76.992353 
L 262.886612 76.945427 
L 264.198347 76.898457 
L 265.510083 76.851443 
L 266.821818 76.804386 
L 268.133554 76.757284 
L 269.445289 76.710138 
L 270.757025 76.662947 
L 272.06876 76.615712 
L 273.380496 76.568433 
L 274.692231 76.521108 
L 276.003967 76.473739 
L 277.315702 76.426325 
L 277.601269 76.416 
L 278.627438 76.381745 
L 279.939174 76.337928 
L 281.250909 76.294073 
L 282.562645 76.250181 
L 283.87438 76.206251 
L 285.186116 76.162283 
L 286.497851 76.118277 
L 287.809587 76.074232 
L 289.121322 76.03015 
L 290.433058 75.986029 
L 291.744793 75.94187 
L 293.056529 75.897672 
L 294.368264 75.853435 
L 295.68 75.80916 
L 296.991736 75.764846 
L 298.303471 75.720493 
L 299.615207 75.676101 
L 300.926942 75.631669 
L 302.238678 75.587199 
L 303.550413 75.542689 
L 304.862149 75.498139 
L 306.173884 75.45355 
L 307.48562 75.408922 
L 308.797355 75.364253 
L 310.109091 75.319545 
L 311.420826 75.274796 
L 312.732562 75.230007 
L 314.044298 75.185178 
L 315.356033 75.140309 
L 316.667769 75.095399 
L 317.979504 75.050449 
L 319.29124 75.005458 
L 320.602975 74.960427 
L 321.914711 74.915354 
L 323.226446 74.87024 
L 324.538182 74.825085 
L 325.849917 74.779889 
L 327.161653 74.734652 
L 328.473388 74.689373 
L 329.785124 74.644053 
L 331.09686 74.598691 
L 332.408595 74.553287 
L 333.720331 74.507841 
L 335.032066 74.462353 
L 336.343802 74.416823 
L 337.655537 74.371251 
L 338.967273 74.325636 
L 340.279008 74.279979 
L 341.590744 74.234279 
L 342.902479 74.188537 
L 344.214215 74.142752 
L 345.52595 74.096923 
L 346.837686 74.051052 
L 348.149421 74.005137 
L 349.461157 73.95918 
L 350.772893 73.913178 
L 352.084628 73.867133 
L 353.396364 73.821045 
L 354.708099 73.774912 
L 356.019835 73.728736 
L 356.040737 73.728 
L 357.33157 73.686074 
L 358.643306 73.643433 
L 359.955041 73.600756 
L 361.266777 73.558042 
L 362.578512 73.515291 
L 363.890248 73.472503 
L 365.201983 73.429678 
L 366.513719 73.386816 
L 367.825455 73.343917 
L 369.13719 73.300981 
L 370.448926 73.258007 
L 371.760661 73.214996 
L 373.072397 73.171947 
L 374.384132 73.128861 
L 375.695868 73.085737 
L 377.007603 73.042575 
L 378.319339 72.999375 
L 379.631074 72.956137 
L 380.94281 72.912861 
L 382.254545 72.869546 
" style="fill:none;stroke:#365c8d;stroke-width:1.5;"/>
   </g>
   <g id="LineCollection_4">
    <path clip-path="url(#p402508bc53)" d="M 382.254545 286.599722 
L 380.94281 286.560735 
L 379.631074 286.521776 
L 378.319339 286.482844 
L 377.007603 286.443941 
L 375.695868 286.405065 
L 374.384132 286.366217 
L 373.072397 286.327396 
L 371.760661 286.288603 
L 370.448926 286.249837 
L 369.13719 286.211098 
L 367.825455 286.172387 
L 366.513719 286.133703 
L 365.201983 286.095046 
L 364.691281 286.08 
L 363.890248 286.054617 
L 362.578512 286.013071 
L 361.266777 285.971557 
L 359.955041 285.930075 
L 358.643306 285.888624 
L 357.33157 285.847206 
L 356.019835 285.80582 
L 354.708099 285.764465 
L 353.396364 285.723142 
L 352.084628 285.68185 
L 350.772893 285.64059 
L 349.461157 285.599362 
L 348.149421 285.558165 
L 346.837686 285.516999 
L 345.52595 285.475864 
L 344.214215 285.434761 
L 342.902479 285.393689 
L 341.590744 285.352647 
L 340.279008 285.311637 
L 338.967273 285.270658 
L 337.655537 285.229709 
L 336.343802 285.188791 
L 335.032066 285.147904 
L 333.720331 285.107047 
L 332.408595 285.066221 
L 331.09686 285.025426 
L 329.785124 284.98466 
L 328.473388 284.943926 
L 327.161653 284.903221 
L 325.849917 284.862547 
L 324.538182 284.821903 
L 323.226446 284.781288 
L 321.914711 284.740704 
L 320.602975 284.70015 
L 319.29124 284.659626 
L 317.979504 284.619131 
L 316.667769 284.578667 
L 315.356033 284.538231 
L 314.044298 284.497826 
L 312.732562 284.45745 
L 311.420826 284.417104 
L 310.109091 284.376787 
L 308.797355 284.336499 
L 307.48562 284.296241 
L 306.173884 284.256011 
L 304.862149 284.215811 
L 303.550413 284.175641 
L 302.238678 284.135499 
L 300.926942 284.095386 
L 299.615207 284.055302 
L 298.303471 284.015247 
L 296.991736 283.97522 
L 295.68 283.935223 
L 294.368264 283.895254 
L 293.056529 283.855313 
L 291.744793 283.815401 
L 290.433058 283.775518 
L 289.121322 283.735663 
L 287.809587 283.695836 
L 286.497851 283.656038 
L 285.186116 283.616268 
L 283.87438 283.576526 
L 282.562645 283.536812 
L 281.250909 283.497126 
L 279.939174 283.457468 
L 278.627438 283.417838 
L 277.771825 283.392 
L 277.315702 283.377194 
L 276.003967 283.334627 
L 274.692231 283.292092 
L 273.380496 283.24959 
L 272.06876 283.207121 
L 270.757025 283.164684 
L 269.445289 283.12228 
L 268.133554 283.079909 
L 266.821818 283.03757 
L 265.510083 282.995263 
L 264.198347 282.952988 
L 262.886612 282.910746 
L 261.574876 282.868536 
L 260.26314 282.826358 
L 258.951405 282.784212 
L 257.639669 282.742097 
L 256.327934 282.700015 
L 255.016198 282.657964 
L 253.704463 282.615945 
L 252.392727 282.573958 
" style="fill:none;stroke:#277f8e;stroke-width:1.5;"/>
    <path clip-path="url(#p402508bc53)" d="M 252.392727 66.482011 
L 253.704463 66.440024 
L 255.016198 66.398005 
L 256.327934 66.355954 
L 257.639669 66.313872 
L 258.951405 66.271757 
L 260.26314 66.229611 
L 261.574876 66.187433 
L 262.886612 66.145223 
L 264.198347 66.102981 
L 265.510083 66.060706 
L 266.821818 66.018399 
L 268.133554 65.97606 
L 269.445289 65.933689 
L 270.757025 65.891285 
L 272.06876 65.848848 
L 273.380496 65.806379 
L 274.692231 65.763877 
L 276.003967 65.721342 
L 277.315702 65.678774 
L 277.770855 65.664 
L 278.627438 65.638133 
L 279.939174 65.598503 
L 281.250909 65.558845 
L 282.562645 65.519159 
L 283.87438 65.479445 
L 285.186116 65.439703 
L 286.497851 65.399933 
L 287.809587 65.360134 
L 289.121322 65.320308 
L 290.433058 65.280453 
L 291.744793 65.240569 
L 293.056529 65.200657 
L 294.368264 65.160717 
L 295.68 65.120748 
L 296.991736 65.08075 
L 298.303471 65.040724 
L 299.615207 65.000668 
L 300.926942 64.960584 
L 302.238678 64.920471 
L 303.550413 64.88033 
L 304.862149 64.840159 
L 306.173884 64.799959 
L 307.48562 64.759729 
L 308.797355 64.719471 
L 310.109091 64.679183 
L 311.420826 64.638866 
L 312.732562 64.59852 
L 314.044298 64.558144 
L 315.356033 64.517738 
L 316.667769 64.477303 
L 317.979504 64.436838 
L 319.29124 64.396344 
L 320.602975 64.35582 
L 321.914711 64.315265 
L 323.226446 64.274681 
L 324.538182 64.234067 
L 325.849917 64.193423 
L 327.161653 64.152748 
L 328.473388 64.112044 
L 329.785124 64.071309 
L 331.09686 64.030544 
L 332.408595 63.989748 
L 333.720331 63.948922 
L 335.032066 63.908066 
L 336.343802 63.867178 
L 337.655537 63.82626 
L 338.967273 63.785312 
L 340.279008 63.744332 
L 341.590744 63.703322 
L 342.902479 63.66228 
L 344.214215 63.621208 
L 345.52595 63.580105 
L 346.837686 63.53897 
L 348.149421 63.497804 
L 349.461157 63.456607 
L 350.772893 63.415378 
L 352.084628 63.374118 
L 353.396364 63.332827 
L 354.708099 63.291504 
L 356.019835 63.250149 
L 357.33157 63.208763 
L 358.643306 63.167344 
L 359.955041 63.125894 
L 361.266777 63.084412 
L 362.578512 63.042898 
L 363.890248 63.001352 
L 364.690287 62.976 
L 365.201983 62.960924 
L 366.513719 62.922268 
L 367.825455 62.883584 
L 369.13719 62.844872 
L 370.448926 62.806134 
L 371.760661 62.767368 
L 373.072397 62.728575 
L 374.384132 62.689754 
L 375.695868 62.650906 
L 377.007603 62.61203 
L 378.319339 62.573126 
L 379.631074 62.534195 
L 380.94281 62.495236 
L 382.254545 62.456249 
" style="fill:none;stroke:#277f8e;stroke-width:1.5;"/>
   </g>
   <g id="LineCollection_5">
    <path clip-path="url(#p402508bc53)" d="M 382.254545 294.674415 
L 380.94281 294.637979 
L 379.631074 294.601566 
L 378.319339 294.565175 
L 377.007603 294.528807 
L 375.695868 294.492461 
L 374.384132 294.456138 
L 373.072397 294.419837 
L 371.760661 294.383558 
L 370.448926 294.347302 
L 369.13719 294.311068 
L 367.825455 294.274856 
L 366.513719 294.238666 
L 365.201983 294.202499 
L 363.890248 294.166354 
L 363.078724 294.144 
L 362.578512 294.129255 
L 361.266777 294.0906 
L 359.955041 294.05197 
L 358.643306 294.013366 
L 357.33157 293.974787 
L 356.019835 293.936235 
L 354.708099 293.897707 
L 353.396364 293.859206 
L 352.084628 293.820729 
L 350.772893 293.782279 
L 349.461157 293.743853 
L 348.149421 293.705453 
L 346.837686 293.667079 
L 345.52595 293.628729 
L 344.214215 293.590405 
L 342.902479 293.552106 
L 341.590744 293.513832 
L 340.279008 293.475583 
L 338.967273 293.437359 
L 337.655537 293.39916 
L 336.343802 293.360985 
L 335.032066 293.322836 
L 333.720331 293.284712 
L 332.408595 293.246612 
L 331.09686 293.208537 
L 329.785124 293.170486 
L 328.473388 293.132461 
L 327.161653 293.094459 
L 325.849917 293.056483 
L 324.538182 293.01853 
L 323.226446 292.980603 
L 321.914711 292.942699 
L 320.602975 292.90482 
L 319.29124 292.866965 
L 317.979504 292.829135 
L 316.667769 292.791328 
L 315.356033 292.753546 
L 314.044298 292.715788 
L 312.732562 292.678054 
L 311.420826 292.640344 
L 310.109091 292.602658 
L 308.797355 292.564995 
L 307.48562 292.527357 
L 306.173884 292.489743 
L 304.862149 292.452152 
L 303.550413 292.414585 
L 302.238678 292.377041 
L 300.926942 292.339522 
L 299.615207 292.302026 
L 298.303471 292.264553 
L 296.991736 292.227104 
L 295.68 292.189679 
L 294.368264 292.152276 
L 293.056529 292.114898 
L 291.744793 292.077542 
L 290.433058 292.04021 
L 289.121322 292.002901 
L 287.809587 291.965615 
L 286.497851 291.928353 
L 285.186116 291.891113 
L 283.87438 291.853897 
L 282.562645 291.816704 
L 281.250909 291.779533 
L 279.939174 291.742386 
L 278.627438 291.705261 
L 277.315702 291.66816 
L 276.003967 291.631081 
L 274.692231 291.594024 
L 273.380496 291.556991 
L 272.06876 291.51998 
L 270.757025 291.482992 
L 269.799357 291.456 
L 269.445289 291.445326 
L 268.133554 291.405789 
L 266.821818 291.366279 
L 265.510083 291.326795 
L 264.198347 291.287337 
L 262.886612 291.247906 
L 261.574876 291.2085 
L 260.26314 291.169121 
L 258.951405 291.129768 
L 257.639669 291.09044 
L 256.327934 291.051139 
L 255.016198 291.011863 
L 253.704463 290.972614 
L 252.392727 290.93339 
" style="fill:none;stroke:#1fa187;stroke-width:1.5;"/>
    <path clip-path="url(#p402508bc53)" d="M 252.392727 58.122583 
L 253.704463 58.083359 
L 255.016198 58.04411 
L 256.327934 58.004834 
L 257.639669 57.965533 
L 258.951405 57.926205 
L 260.26314 57.886852 
L 261.574876 57.847473 
L 262.886612 57.808067 
L 264.198347 57.768636 
L 265.510083 57.729178 
L 266.821818 57.689694 
L 268.133554 57.650183 
L 269.445289 57.610647 
L 269.798455 57.6 
L 270.757025 57.572982 
L 272.06876 57.535994 
L 273.380496 57.498983 
L 274.692231 57.46195 
L 276.003967 57.424894 
L 277.315702 57.387815 
L 278.627438 57.350713 
L 279.939174 57.313589 
L 281.250909 57.276441 
L 282.562645 57.239271 
L 283.87438 57.202077 
L 285.186116 57.164861 
L 286.497851 57.127621 
L 287.809587 57.090359 
L 289.121322 57.053073 
L 290.433058 57.015764 
L 291.744793 56.978432 
L 293.056529 56.941077 
L 294.368264 56.903698 
L 295.68 56.866296 
L 296.991736 56.82887 
L 298.303471 56.791421 
L 299.615207 56.753948 
L 300.926942 56.716452 
L 302.238678 56.678932 
L 303.550413 56.641389 
L 304.862149 56.603822 
L 306.173884 56.566231 
L 307.48562 56.528617 
L 308.797355 56.490978 
L 310.109091 56.453316 
L 311.420826 56.41563 
L 312.732562 56.37792 
L 314.044298 56.340186 
L 315.356033 56.302428 
L 316.667769 56.264645 
L 317.979504 56.226839 
L 319.29124 56.189008 
L 320.602975 56.151154 
L 321.914711 56.113274 
L 323.226446 56.075371 
L 324.538182 56.037443 
L 325.849917 55.999491 
L 327.161653 55.961514 
L 328.473388 55.923513 
L 329.785124 55.885487 
L 331.09686 55.847437 
L 332.408595 55.809362 
L 333.720331 55.771262 
L 335.032066 55.733137 
L 336.343802 55.694988 
L 337.655537 55.656814 
L 338.967273 55.618615 
L 340.279008 55.580391 
L 341.590744 55.542142 
L 342.902479 55.503867 
L 344.214215 55.465568 
L 345.52595 55.427244 
L 346.837686 55.388894 
L 348.149421 55.35052 
L 349.461157 55.31212 
L 350.772893 55.273694 
L 352.084628 55.235244 
L 353.396364 55.196767 
L 354.708099 55.158266 
L 356.019835 55.119738 
L 357.33157 55.081186 
L 358.643306 55.042607 
L 359.955041 55.004003 
L 361.266777 54.965373 
L 362.578512 54.926717 
L 363.077801 54.912 
L 363.890248 54.889621 
L 365.201983 54.853476 
L 366.513719 54.817308 
L 367.825455 54.781118 
L 369.13719 54.744907 
L 370.448926 54.708672 
L 371.760661 54.672416 
L 373.072397 54.636138 
L 374.384132 54.599837 
L 375.695868 54.563513 
L 377.007603 54.527167 
L 378.319339 54.490799 
L 379.631074 54.454408 
L 380.94281 54.417995 
L 382.254545 54.381559 
" style="fill:none;stroke:#1fa187;stroke-width:1.5;"/>
   </g>
   <g id="LineCollection_6">
    <path clip-path="url(#p402508bc53)" d="M 382.254545 301.35849 
L 380.94281 301.322829 
L 379.631074 301.287188 
L 378.319339 301.251568 
L 377.007603 301.215968 
L 375.695868 301.180389 
L 374.384132 301.14483 
L 373.072397 301.109292 
L 371.760661 301.073774 
L 370.448926 301.038277 
L 369.13719 301.0028 
L 367.825455 300.967344 
L 366.513719 300.931908 
L 365.201983 300.896492 
L 363.890248 300.861096 
L 362.578512 300.825721 
L 361.266777 300.790366 
L 359.955041 300.755031 
L 358.643306 300.719716 
L 357.33157 300.684421 
L 356.019835 300.649147 
L 354.708099 300.613892 
L 353.396364 300.578657 
L 352.084628 300.543442 
L 350.772893 300.508247 
L 349.461157 300.473072 
L 348.149421 300.437917 
L 346.837686 300.402782 
L 345.52595 300.367666 
L 344.214215 300.33257 
L 342.902479 300.297494 
L 341.590744 300.262438 
L 340.279008 300.227401 
L 338.967273 300.192384 
L 337.655537 300.157386 
L 336.343802 300.122408 
L 335.032066 300.08745 
L 333.720331 300.052511 
L 332.408595 300.017591 
L 331.09686 299.982691 
L 329.785124 299.94781 
L 328.473388 299.912948 
L 327.161653 299.878106 
L 325.849917 299.843283 
L 324.538182 299.80848 
L 323.226446 299.773695 
L 321.914711 299.73893 
L 320.602975 299.704184 
L 319.29124 299.669457 
L 317.979504 299.634749 
L 316.667769 299.60006 
L 315.356033 299.56539 
L 314.044298 299.530739 
L 313.63768 299.52 
L 312.732562 299.494518 
L 311.420826 299.457603 
L 310.109091 299.42071 
L 308.797355 299.383839 
L 307.48562 299.34699 
L 306.173884 299.310163 
L 304.862149 299.273357 
L 303.550413 299.236574 
L 302.238678 299.199812 
L 300.926942 299.163071 
L 299.615207 299.126353 
L 298.303471 299.089656 
L 296.991736 299.05298 
L 295.68 299.016327 
L 294.368264 298.979694 
L 293.056529 298.943083 
L 291.744793 298.906494 
L 290.433058 298.869926 
L 289.121322 298.833379 
L 287.809587 298.796854 
L 286.497851 298.76035 
L 285.186116 298.723867 
L 283.87438 298.687405 
L 282.562645 298.650965 
L 281.250909 298.614546 
L 279.939174 298.578147 
L 278.627438 298.54177 
L 277.315702 298.505414 
L 276.003967 298.469079 
L 274.692231 298.432765 
L 273.380496 298.396471 
L 272.06876 298.360199 
L 270.757025 298.323947 
L 269.445289 298.287717 
L 268.133554 298.251507 
L 266.821818 298.215317 
L 265.510083 298.179149 
L 264.198347 298.143001 
L 262.886612 298.106874 
L 261.574876 298.070767 
L 260.26314 298.034681 
L 258.951405 297.998616 
L 257.639669 297.962571 
L 256.327934 297.926546 
L 255.016198 297.890542 
L 253.704463 297.854558 
L 252.392727 297.818595 
" style="fill:none;stroke:#4ac16d;stroke-width:1.5;"/>
    <path clip-path="url(#p402508bc53)" d="M 252.392727 51.237382 
L 253.704463 51.201419 
L 255.016198 51.165435 
L 256.327934 51.129431 
L 257.639669 51.093406 
L 258.951405 51.057361 
L 260.26314 51.021295 
L 261.574876 50.985209 
L 262.886612 50.949103 
L 264.198347 50.912975 
L 265.510083 50.876828 
L 266.821818 50.840659 
L 268.133554 50.80447 
L 269.445289 50.76826 
L 270.757025 50.732029 
L 272.06876 50.695777 
L 273.380496 50.659505 
L 274.692231 50.623212 
L 276.003967 50.586897 
L 277.315702 50.550562 
L 278.627438 50.514206 
L 279.939174 50.477829 
L 281.250909 50.441431 
L 282.562645 50.405011 
L 283.87438 50.368571 
L 285.186116 50.332109 
L 286.497851 50.295626 
L 287.809587 50.259122 
L 289.121322 50.222597 
L 290.433058 50.18605 
L 291.744793 50.149482 
L 293.056529 50.112893 
L 294.368264 50.076282 
L 295.68 50.039649 
L 296.991736 50.002995 
L 298.303471 49.96632 
L 299.615207 49.929623 
L 300.926942 49.892904 
L 302.238678 49.856164 
L 303.550413 49.819402 
L 304.862149 49.782619 
L 306.173884 49.745813 
L 307.48562 49.708986 
L 308.797355 49.672137 
L 310.109091 49.635266 
L 311.420826 49.598373 
L 312.732562 49.561458 
L 313.636818 49.536 
L 314.044298 49.525238 
L 315.356033 49.490587 
L 316.667769 49.455917 
L 317.979504 49.421228 
L 319.29124 49.38652 
L 320.602975 49.351793 
L 321.914711 49.317047 
L 323.226446 49.282282 
L 324.538182 49.247497 
L 325.849917 49.212694 
L 327.161653 49.177871 
L 328.473388 49.143029 
L 329.785124 49.108167 
L 331.09686 49.073286 
L 332.408595 49.038386 
L 333.720331 49.003466 
L 335.032066 48.968527 
L 336.343802 48.933569 
L 337.655537 48.898591 
L 338.967273 48.863593 
L 340.279008 48.828576 
L 341.590744 48.793539 
L 342.902479 48.758482 
L 344.214215 48.723406 
L 345.52595 48.68831 
L 346.837686 48.653195 
L 348.149421 48.61806 
L 349.461157 48.582904 
L 350.772893 48.547729 
L 352.084628 48.512534 
L 353.396364 48.47732 
L 354.708099 48.442085 
L 356.019835 48.40683 
L 357.33157 48.371555 
L 358.643306 48.33626 
L 359.955041 48.300946 
L 361.266777 48.265611 
L 362.578512 48.230255 
L 363.890248 48.19488 
L 365.201983 48.159484 
L 366.513719 48.124069 
L 367.825455 48.088632 
L 369.13719 48.053176 
L 370.448926 48.017699 
L 371.760661 47.982202 
L 373.072397 47.946684 
L 374.384132 47.911146 
L 375.695868 47.875588 
L 377.007603 47.840008 
L 378.319339 47.804409 
L 379.631074 47.768788 
L 380.94281 47.733147 
L 382.254545 47.697486 
" style="fill:none;stroke:#4ac16d;stroke-width:1.5;"/>
   </g>
   <g id="LineCollection_7">
    <path clip-path="url(#p402508bc53)" d="M 382.254545 307.121944 
L 380.94281 307.087544 
L 379.631074 307.053163 
L 378.319339 307.0188 
L 377.007603 306.984455 
L 375.695868 306.950128 
L 374.384132 306.91582 
L 373.072397 306.88153 
L 371.760661 306.847259 
L 370.448926 306.813005 
L 369.13719 306.77877 
L 367.825455 306.744553 
L 366.513719 306.710354 
L 365.201983 306.676173 
L 363.890248 306.64201 
L 362.578512 306.607866 
L 361.266777 306.573739 
L 359.955041 306.53963 
L 358.643306 306.505539 
L 357.33157 306.471466 
L 356.019835 306.437411 
L 354.708099 306.403374 
L 353.396364 306.369355 
L 352.084628 306.335353 
L 350.772893 306.30137 
L 349.461157 306.267404 
L 348.149421 306.233456 
L 346.837686 306.199525 
L 345.52595 306.165612 
L 344.214215 306.131717 
L 342.902479 306.09784 
L 341.590744 306.06398 
L 340.279008 306.030137 
L 338.967273 305.996312 
L 337.655537 305.962505 
L 336.343802 305.928715 
L 335.032066 305.894943 
L 333.720331 305.861188 
L 332.408595 305.82745 
L 331.09686 305.79373 
L 329.785124 305.760027 
L 328.473388 305.726342 
L 327.161653 305.692674 
L 325.849917 305.659023 
L 324.538182 305.625389 
L 323.226446 305.591772 
L 321.914711 305.558173 
L 320.602975 305.524591 
L 319.29124 305.491026 
L 317.979504 305.457478 
L 316.667769 305.423947 
L 315.356033 305.390433 
L 314.044298 305.356937 
L 312.732562 305.323457 
L 311.420826 305.289994 
L 310.109091 305.256548 
L 308.797355 305.223119 
L 307.48562 305.189707 
L 306.173884 305.156312 
L 304.862149 305.122934 
L 303.550413 305.089573 
L 302.238678 305.056228 
L 300.926942 305.0229 
L 299.615207 304.989589 
L 298.303471 304.956294 
L 296.991736 304.923017 
L 295.926365 304.896 
L 295.68 304.88936 
L 294.368264 304.854007 
L 293.056529 304.818674 
L 291.744793 304.78336 
L 290.433058 304.748066 
L 289.121322 304.71279 
L 287.809587 304.677533 
L 286.497851 304.642296 
L 285.186116 304.607077 
L 283.87438 304.571877 
L 282.562645 304.536697 
L 281.250909 304.501535 
L 279.939174 304.466392 
L 278.627438 304.431268 
L 277.315702 304.396162 
L 276.003967 304.361076 
L 274.692231 304.326008 
L 273.380496 304.290959 
L 272.06876 304.255928 
L 270.757025 304.220917 
L 269.445289 304.185924 
L 268.133554 304.150949 
L 266.821818 304.115993 
L 265.510083 304.081056 
L 264.198347 304.046137 
L 262.886612 304.011237 
L 261.574876 303.976355 
L 260.26314 303.941491 
L 258.951405 303.906646 
L 257.639669 303.871819 
L 256.327934 303.837011 
L 255.016198 303.802221 
L 253.704463 303.767449 
L 252.392727 303.732696 
" style="fill:none;stroke:#a0da39;stroke-width:1.5;"/>
    <path clip-path="url(#p402508bc53)" d="M 252.392727 45.323283 
L 253.704463 45.288529 
L 255.016198 45.253757 
L 256.327934 45.218967 
L 257.639669 45.184159 
L 258.951405 45.149332 
L 260.26314 45.114487 
L 261.574876 45.079624 
L 262.886612 45.044742 
L 264.198347 45.009841 
L 265.510083 44.974922 
L 266.821818 44.939985 
L 268.133554 44.905029 
L 269.445289 44.870055 
L 270.757025 44.835061 
L 272.06876 44.80005 
L 273.380496 44.765019 
L 274.692231 44.72997 
L 276.003967 44.694902 
L 277.315702 44.659816 
L 278.627438 44.62471 
L 279.939174 44.589586 
L 281.250909 44.554443 
L 282.562645 44.519281 
L 283.87438 44.484101 
L 285.186116 44.448901 
L 286.497851 44.413682 
L 287.809587 44.378445 
L 289.121322 44.343188 
L 290.433058 44.307912 
L 291.744793 44.272617 
L 293.056529 44.237304 
L 294.368264 44.201971 
L 295.68 44.166618 
L 295.925544 44.16 
L 296.991736 44.132962 
L 298.303471 44.099685 
L 299.615207 44.06639 
L 300.926942 44.033079 
L 302.238678 43.999751 
L 303.550413 43.966406 
L 304.862149 43.933045 
L 306.173884 43.899667 
L 307.48562 43.866272 
L 308.797355 43.83286 
L 310.109091 43.799431 
L 311.420826 43.765985 
L 312.732562 43.732522 
L 314.044298 43.699042 
L 315.356033 43.665545 
L 316.667769 43.632032 
L 317.979504 43.598501 
L 319.29124 43.564953 
L 320.602975 43.531388 
L 321.914711 43.497806 
L 323.226446 43.464206 
L 324.538182 43.43059 
L 325.849917 43.396956 
L 327.161653 43.363305 
L 328.473388 43.329637 
L 329.785124 43.295951 
L 331.09686 43.262249 
L 332.408595 43.228528 
L 333.720331 43.194791 
L 335.032066 43.161036 
L 336.343802 43.127263 
L 337.655537 43.093474 
L 338.967273 43.059666 
L 340.279008 43.025841 
L 341.590744 42.991999 
L 342.902479 42.958139 
L 344.214215 42.924261 
L 345.52595 42.890366 
L 346.837686 42.856453 
L 348.149421 42.822523 
L 349.461157 42.788575 
L 350.772893 42.754609 
L 352.084628 42.720625 
L 353.396364 42.686624 
L 354.708099 42.652604 
L 356.019835 42.618567 
L 357.33157 42.584512 
L 358.643306 42.550439 
L 359.955041 42.516348 
L 361.266777 42.48224 
L 362.578512 42.448113 
L 363.890248 42.413968 
L 365.201983 42.379805 
L 366.513719 42.345624 
L 367.825455 42.311425 
L 369.13719 42.277208 
L 370.448926 42.242973 
L 371.760661 42.208719 
L 373.072397 42.174448 
L 374.384132 42.140158 
L 375.695868 42.10585 
L 377.007603 42.071523 
L 378.319339 42.037178 
L 379.631074 42.002815 
L 380.94281 41.968434 
L 382.254545 41.934034 
" style="fill:none;stroke:#a0da39;stroke-width:1.5;"/>
   </g>
   <g id="LineCollection_8"/>
   <g id="patch_8">
    <path d="M 252.392727 307.584 
L 252.392727 41.472 
" style="fill:none;stroke:#000000;stroke-linecap:square;stroke-linejoin:miter;stroke-width:0.8;"/>
   </g>
   <g id="patch_9">
    <path d="M 382.254545 307.584 
L 382.254545 41.472 
" style="fill:none;stroke:#000000;stroke-linecap:square;stroke-linejoin:miter;stroke-width:0.8;"/>
   </g>
   <g id="patch_10">
    <path d="M 252.392727 307.584 
L 382.254545 307.584 
" style="fill:none;stroke:#000000;stroke-linecap:square;stroke-linejoin:miter;stroke-width:0.8;"/>
   </g>
   <g id="patch_11">
    <path d="M 252.392727 41.472 
L 382.254545 41.472 
" style="fill:none;stroke:#000000;stroke-linecap:square;stroke-linejoin:miter;stroke-width:0.8;"/>
   </g>
  </g>
  <g id="axes_3">
   <g id="patch_12">
    <path clip-path="url(#pc364fc1546)" d="M 390.370909 307.584 
L 390.370909 269.568 
L 390.370909 79.488 
L 390.370909 41.472 
L 403.676509 41.472 
L 403.676509 79.488 
L 403.676509 269.568 
L 403.676509 307.584 
z
" style="fill:#ffffff;stroke:#ffffff;stroke-linejoin:miter;stroke-width:0.01;"/>
   </g>
   <g id="matplotlib.axis_5"/>
   <g id="matplotlib.axis_6">
    <g id="ytick_15">
     <g id="line2d_26">
      <defs>
       <path d="M 0 0 
L 3.5 0 
" id="m6fae606db2" style="stroke:#000000;stroke-width:0.8;"/>
      </defs>
      <g>
       <use style="stroke:#000000;stroke-width:0.8;" x="403.676509" xlink:href="#m6fae606db2" y="307.584"/>
      </g>
     </g>
     <g id="text_25">
      <!-- 0.0 -->
      <g transform="translate(410.676509 311.383219)scale(0.1 -0.1)">
       <use xlink:href="#DejaVuSans-48"/>
       <use x="63.623047" xlink:href="#DejaVuSans-46"/>
       <use x="95.410156" xlink:href="#DejaVuSans-48"/>
      </g>
     </g>
    </g>
    <g id="ytick_16">
     <g id="line2d_27">
      <g>
       <use style="stroke:#000000;stroke-width:0.8;" x="403.676509" xlink:href="#m6fae606db2" y="269.568"/>
      </g>
     </g>
     <g id="text_26">
      <!-- 0.4 -->
      <g transform="translate(410.676509 273.367219)scale(0.1 -0.1)">
       <use xlink:href="#DejaVuSans-48"/>
       <use x="63.623047" xlink:href="#DejaVuSans-46"/>
       <use x="95.410156" xlink:href="#DejaVuSans-52"/>
      </g>
     </g>
    </g>
    <g id="ytick_17">
     <g id="line2d_28">
      <g>
       <use style="stroke:#000000;stroke-width:0.8;" x="403.676509" xlink:href="#m6fae606db2" y="231.552"/>
      </g>
     </g>
     <g id="text_27">
      <!-- 0.8 -->
      <g transform="translate(410.676509 235.351219)scale(0.1 -0.1)">
       <defs>
        <path d="M 31.78125 34.625 
Q 24.75 34.625 20.71875 30.859375 
Q 16.703125 27.09375 16.703125 20.515625 
Q 16.703125 13.921875 20.71875 10.15625 
Q 24.75 6.390625 31.78125 6.390625 
Q 38.8125 6.390625 42.859375 10.171875 
Q 46.921875 13.96875 46.921875 20.515625 
Q 46.921875 27.09375 42.890625 30.859375 
Q 38.875 34.625 31.78125 34.625 
z
M 21.921875 38.8125 
Q 15.578125 40.375 12.03125 44.71875 
Q 8.5 49.078125 8.5 55.328125 
Q 8.5 64.0625 14.71875 69.140625 
Q 20.953125 74.21875 31.78125 74.21875 
Q 42.671875 74.21875 48.875 69.140625 
Q 55.078125 64.0625 55.078125 55.328125 
Q 55.078125 49.078125 51.53125 44.71875 
Q 48 40.375 41.703125 38.8125 
Q 48.828125 37.15625 52.796875 32.3125 
Q 56.78125 27.484375 56.78125 20.515625 
Q 56.78125 9.90625 50.3125 4.234375 
Q 43.84375 -1.421875 31.78125 -1.421875 
Q 19.734375 -1.421875 13.25 4.234375 
Q 6.78125 9.90625 6.78125 20.515625 
Q 6.78125 27.484375 10.78125 32.3125 
Q 14.796875 37.15625 21.921875 38.8125 
z
M 18.3125 54.390625 
Q 18.3125 48.734375 21.84375 45.5625 
Q 25.390625 42.390625 31.78125 42.390625 
Q 38.140625 42.390625 41.71875 45.5625 
Q 45.3125 48.734375 45.3125 54.390625 
Q 45.3125 60.0625 41.71875 63.234375 
Q 38.140625 66.40625 31.78125 66.40625 
Q 25.390625 66.40625 21.84375 63.234375 
Q 18.3125 60.0625 18.3125 54.390625 
z
" id="DejaVuSans-56"/>
       </defs>
       <use xlink:href="#DejaVuSans-48"/>
       <use x="63.623047" xlink:href="#DejaVuSans-46"/>
       <use x="95.410156" xlink:href="#DejaVuSans-56"/>
      </g>
     </g>
    </g>
    <g id="ytick_18">
     <g id="line2d_29">
      <g>
       <use style="stroke:#000000;stroke-width:0.8;" x="403.676509" xlink:href="#m6fae606db2" y="193.536"/>
      </g>
     </g>
     <g id="text_28">
      <!-- 1.2 -->
      <g transform="translate(410.676509 197.335219)scale(0.1 -0.1)">
       <use xlink:href="#DejaVuSans-49"/>
       <use x="63.623047" xlink:href="#DejaVuSans-46"/>
       <use x="95.410156" xlink:href="#DejaVuSans-50"/>
      </g>
     </g>
    </g>
    <g id="ytick_19">
     <g id="line2d_30">
      <g>
       <use style="stroke:#000000;stroke-width:0.8;" x="403.676509" xlink:href="#m6fae606db2" y="155.52"/>
      </g>
     </g>
     <g id="text_29">
      <!-- 1.6 -->
      <g transform="translate(410.676509 159.319219)scale(0.1 -0.1)">
       <defs>
        <path d="M 33.015625 40.375 
Q 26.375 40.375 22.484375 35.828125 
Q 18.609375 31.296875 18.609375 23.390625 
Q 18.609375 15.53125 22.484375 10.953125 
Q 26.375 6.390625 33.015625 6.390625 
Q 39.65625 6.390625 43.53125 10.953125 
Q 47.40625 15.53125 47.40625 23.390625 
Q 47.40625 31.296875 43.53125 35.828125 
Q 39.65625 40.375 33.015625 40.375 
z
M 52.59375 71.296875 
L 52.59375 62.3125 
Q 48.875 64.0625 45.09375 64.984375 
Q 41.3125 65.921875 37.59375 65.921875 
Q 27.828125 65.921875 22.671875 59.328125 
Q 17.53125 52.734375 16.796875 39.40625 
Q 19.671875 43.65625 24.015625 45.921875 
Q 28.375 48.1875 33.59375 48.1875 
Q 44.578125 48.1875 50.953125 41.515625 
Q 57.328125 34.859375 57.328125 23.390625 
Q 57.328125 12.15625 50.6875 5.359375 
Q 44.046875 -1.421875 33.015625 -1.421875 
Q 20.359375 -1.421875 13.671875 8.265625 
Q 6.984375 17.96875 6.984375 36.375 
Q 6.984375 53.65625 15.1875 63.9375 
Q 23.390625 74.21875 37.203125 74.21875 
Q 40.921875 74.21875 44.703125 73.484375 
Q 48.484375 72.75 52.59375 71.296875 
z
" id="DejaVuSans-54"/>
       </defs>
       <use xlink:href="#DejaVuSans-49"/>
       <use x="63.623047" xlink:href="#DejaVuSans-46"/>
       <use x="95.410156" xlink:href="#DejaVuSans-54"/>
      </g>
     </g>
    </g>
    <g id="ytick_20">
     <g id="line2d_31">
      <g>
       <use style="stroke:#000000;stroke-width:0.8;" x="403.676509" xlink:href="#m6fae606db2" y="117.504"/>
      </g>
     </g>
     <g id="text_30">
      <!-- 2.0 -->
      <g transform="translate(410.676509 121.303219)scale(0.1 -0.1)">
       <use xlink:href="#DejaVuSans-50"/>
       <use x="63.623047" xlink:href="#DejaVuSans-46"/>
       <use x="95.410156" xlink:href="#DejaVuSans-48"/>
      </g>
     </g>
    </g>
    <g id="ytick_21">
     <g id="line2d_32">
      <g>
       <use style="stroke:#000000;stroke-width:0.8;" x="403.676509" xlink:href="#m6fae606db2" y="79.488"/>
      </g>
     </g>
     <g id="text_31">
      <!-- 2.4 -->
      <g transform="translate(410.676509 83.287219)scale(0.1 -0.1)">
       <use xlink:href="#DejaVuSans-50"/>
       <use x="63.623047" xlink:href="#DejaVuSans-46"/>
       <use x="95.410156" xlink:href="#DejaVuSans-52"/>
      </g>
     </g>
    </g>
    <g id="ytick_22">
     <g id="line2d_33">
      <g>
       <use style="stroke:#000000;stroke-width:0.8;" x="403.676509" xlink:href="#m6fae606db2" y="41.472"/>
      </g>
     </g>
     <g id="text_32">
      <!-- 2.8 -->
      <g transform="translate(410.676509 45.271219)scale(0.1 -0.1)">
       <use xlink:href="#DejaVuSans-50"/>
       <use x="63.623047" xlink:href="#DejaVuSans-46"/>
       <use x="95.410156" xlink:href="#DejaVuSans-56"/>
      </g>
     </g>
    </g>
    <g id="text_33">
     <!-- 1e8 -->
     <g transform="translate(384.798384 38.472)scale(0.1 -0.1)">
      <defs>
       <path d="M 56.203125 29.59375 
L 56.203125 25.203125 
L 14.890625 25.203125 
Q 15.484375 15.921875 20.484375 11.0625 
Q 25.484375 6.203125 34.421875 6.203125 
Q 39.59375 6.203125 44.453125 7.46875 
Q 49.3125 8.734375 54.109375 11.28125 
L 54.109375 2.78125 
Q 49.265625 0.734375 44.1875 -0.34375 
Q 39.109375 -1.421875 33.890625 -1.421875 
Q 20.796875 -1.421875 13.15625 6.1875 
Q 5.515625 13.8125 5.515625 26.8125 
Q 5.515625 40.234375 12.765625 48.109375 
Q 20.015625 56 32.328125 56 
Q 43.359375 56 49.78125 48.890625 
Q 56.203125 41.796875 56.203125 29.59375 
z
M 47.21875 32.234375 
Q 47.125 39.59375 43.09375 43.984375 
Q 39.0625 48.390625 32.421875 48.390625 
Q 24.90625 48.390625 20.390625 44.140625 
Q 15.875 39.890625 15.1875 32.171875 
z
" id="DejaVuSans-101"/>
      </defs>
      <use xlink:href="#DejaVuSans-49"/>
      <use x="63.623047" xlink:href="#DejaVuSans-101"/>
      <use x="125.146484" xlink:href="#DejaVuSans-56"/>
     </g>
    </g>
   </g>
   <g id="LineCollection_9">
    <path clip-path="url(#pc364fc1546)" d="M 390.370909 307.584 
L 403.676509 307.584 
" style="fill:none;stroke:#440154;stroke-width:1.5;"/>
    <path clip-path="url(#pc364fc1546)" d="M 390.370909 269.568 
L 403.676509 269.568 
" style="fill:none;stroke:#46327e;stroke-width:1.5;"/>
    <path clip-path="url(#pc364fc1546)" d="M 390.370909 231.552 
L 403.676509 231.552 
" style="fill:none;stroke:#365c8d;stroke-width:1.5;"/>
    <path clip-path="url(#pc364fc1546)" d="M 390.370909 193.536 
L 403.676509 193.536 
" style="fill:none;stroke:#277f8e;stroke-width:1.5;"/>
    <path clip-path="url(#pc364fc1546)" d="M 390.370909 155.52 
L 403.676509 155.52 
" style="fill:none;stroke:#1fa187;stroke-width:1.5;"/>
    <path clip-path="url(#pc364fc1546)" d="M 390.370909 117.504 
L 403.676509 117.504 
" style="fill:none;stroke:#4ac16d;stroke-width:1.5;"/>
    <path clip-path="url(#pc364fc1546)" d="M 390.370909 79.488 
L 403.676509 79.488 
" style="fill:none;stroke:#a0da39;stroke-width:1.5;"/>
    <path clip-path="url(#pc364fc1546)" d="M 390.370909 41.472 
L 403.676509 41.472 
" style="fill:none;stroke:#fde725;stroke-width:1.5;"/>
   </g>
   <g id="patch_13">
    <path d="M 390.370909 307.584 
L 390.370909 269.568 
L 390.370909 79.488 
L 390.370909 41.472 
L 403.676509 41.472 
L 403.676509 79.488 
L 403.676509 269.568 
L 403.676509 307.584 
z
" style="fill:none;stroke:#000000;stroke-linejoin:miter;stroke-width:0.8;"/>
   </g>
  </g>
 </g>
 <defs>
  <clipPath id="p7ea5eab36d">
   <rect height="266.112" width="162.327273" x="57.6" y="41.472"/>
  </clipPath>
  <clipPath id="p402508bc53">
   <rect height="266.112" width="129.861818" x="252.392727" y="41.472"/>
  </clipPath>
  <clipPath id="pc364fc1546">
   <rect height="266.112" width="13.3056" x="390.370909" y="41.472"/>
  </clipPath>
 </defs>
</svg>
