<?xml version="1.0" encoding="utf-8" standalone="no"?>
<!DOCTYPE svg PUBLIC "-//W3C//DTD SVG 1.1//EN"
  "http://www.w3.org/Graphics/SVG/1.1/DTD/svg11.dtd">
<!-- Created with matplotlib (https://matplotlib.org/) -->
<svg height="345.6pt" version="1.1" viewBox="0 0 460.8 345.6" width="460.8pt" xmlns="http://www.w3.org/2000/svg" xmlns:xlink="http://www.w3.org/1999/xlink">
 <metadata>
  <rdf:RDF xmlns:cc="http://creativecommons.org/ns#" xmlns:dc="http://purl.org/dc/elements/1.1/" xmlns:rdf="http://www.w3.org/1999/02/22-rdf-syntax-ns#">
   <cc:Work>
    <dc:type rdf:resource="http://purl.org/dc/dcmitype/StillImage"/>
    <dc:date>2020-12-15T23:26:17.981085</dc:date>
    <dc:format>image/svg+xml</dc:format>
    <dc:creator>
     <cc:Agent>
      <dc:title>Matplotlib v3.3.3, https://matplotlib.org/</dc:title>
     </cc:Agent>
    </dc:creator>
   </cc:Work>
  </rdf:RDF>
 </metadata>
 <defs>
  <style type="text/css">*{stroke-linecap:butt;stroke-linejoin:round;}</style>
 </defs>
 <g id="figure_1">
  <g id="patch_1">
   <path d="M 0 345.6 
L 460.8 345.6 
L 460.8 0 
L 0 0 
z
" style="fill:#ffffff;"/>
  </g>
  <g id="axes_1">
   <g id="patch_2">
    <path d="M 57.6 307.584 
L 343.296 307.584 
L 343.296 41.472 
L 57.6 41.472 
z
" style="fill:#ffffff;"/>
   </g>
   <g id="matplotlib.axis_1">
    <g id="xtick_1">
     <g id="line2d_1">
      <defs>
       <path d="M 0 0 
L 0 3.5 
" id="mfa8e875dd5" style="stroke:#000000;stroke-width:0.8;"/>
      </defs>
      <g>
       <use style="stroke:#000000;stroke-width:0.8;" x="57.6" xlink:href="#mfa8e875dd5" y="307.584"/>
      </g>
     </g>
     <g id="text_1">
      <!-- −2.0 -->
      <g transform="translate(45.458594 322.182437)scale(0.1 -0.1)">
       <defs>
        <path d="M 10.59375 35.5 
L 73.1875 35.5 
L 73.1875 27.203125 
L 10.59375 27.203125 
z
" id="DejaVuSans-8722"/>
        <path d="M 19.1875 8.296875 
L 53.609375 8.296875 
L 53.609375 0 
L 7.328125 0 
L 7.328125 8.296875 
Q 12.9375 14.109375 22.625 23.890625 
Q 32.328125 33.6875 34.8125 36.53125 
Q 39.546875 41.84375 41.421875 45.53125 
Q 43.3125 49.21875 43.3125 52.78125 
Q 43.3125 58.59375 39.234375 62.25 
Q 35.15625 65.921875 28.609375 65.921875 
Q 23.96875 65.921875 18.8125 64.3125 
Q 13.671875 62.703125 7.8125 59.421875 
L 7.8125 69.390625 
Q 13.765625 71.78125 18.9375 73 
Q 24.125 74.21875 28.421875 74.21875 
Q 39.75 74.21875 46.484375 68.546875 
Q 53.21875 62.890625 53.21875 53.421875 
Q 53.21875 48.921875 51.53125 44.890625 
Q 49.859375 40.875 45.40625 35.40625 
Q 44.1875 33.984375 37.640625 27.21875 
Q 31.109375 20.453125 19.1875 8.296875 
z
" id="DejaVuSans-50"/>
        <path d="M 10.6875 12.40625 
L 21 12.40625 
L 21 0 
L 10.6875 0 
z
" id="DejaVuSans-46"/>
        <path d="M 31.78125 66.40625 
Q 24.171875 66.40625 20.328125 58.90625 
Q 16.5 51.421875 16.5 36.375 
Q 16.5 21.390625 20.328125 13.890625 
Q 24.171875 6.390625 31.78125 6.390625 
Q 39.453125 6.390625 43.28125 13.890625 
Q 47.125 21.390625 47.125 36.375 
Q 47.125 51.421875 43.28125 58.90625 
Q 39.453125 66.40625 31.78125 66.40625 
z
M 31.78125 74.21875 
Q 44.046875 74.21875 50.515625 64.515625 
Q 56.984375 54.828125 56.984375 36.375 
Q 56.984375 17.96875 50.515625 8.265625 
Q 44.046875 -1.421875 31.78125 -1.421875 
Q 19.53125 -1.421875 13.0625 8.265625 
Q 6.59375 17.96875 6.59375 36.375 
Q 6.59375 54.828125 13.0625 64.515625 
Q 19.53125 74.21875 31.78125 74.21875 
z
" id="DejaVuSans-48"/>
       </defs>
       <use xlink:href="#DejaVuSans-8722"/>
       <use x="83.789062" xlink:href="#DejaVuSans-50"/>
       <use x="147.412109" xlink:href="#DejaVuSans-46"/>
       <use x="179.199219" xlink:href="#DejaVuSans-48"/>
      </g>
     </g>
    </g>
    <g id="xtick_2">
     <g id="line2d_2">
      <g>
       <use style="stroke:#000000;stroke-width:0.8;" x="93.312" xlink:href="#mfa8e875dd5" y="307.584"/>
      </g>
     </g>
     <g id="text_2">
      <!-- −1.5 -->
      <g transform="translate(81.170594 322.182437)scale(0.1 -0.1)">
       <defs>
        <path d="M 12.40625 8.296875 
L 28.515625 8.296875 
L 28.515625 63.921875 
L 10.984375 60.40625 
L 10.984375 69.390625 
L 28.421875 72.90625 
L 38.28125 72.90625 
L 38.28125 8.296875 
L 54.390625 8.296875 
L 54.390625 0 
L 12.40625 0 
z
" id="DejaVuSans-49"/>
        <path d="M 10.796875 72.90625 
L 49.515625 72.90625 
L 49.515625 64.59375 
L 19.828125 64.59375 
L 19.828125 46.734375 
Q 21.96875 47.46875 24.109375 47.828125 
Q 26.265625 48.1875 28.421875 48.1875 
Q 40.625 48.1875 47.75 41.5 
Q 54.890625 34.8125 54.890625 23.390625 
Q 54.890625 11.625 47.5625 5.09375 
Q 40.234375 -1.421875 26.90625 -1.421875 
Q 22.3125 -1.421875 17.546875 -0.640625 
Q 12.796875 0.140625 7.71875 1.703125 
L 7.71875 11.625 
Q 12.109375 9.234375 16.796875 8.0625 
Q 21.484375 6.890625 26.703125 6.890625 
Q 35.15625 6.890625 40.078125 11.328125 
Q 45.015625 15.765625 45.015625 23.390625 
Q 45.015625 31 40.078125 35.4375 
Q 35.15625 39.890625 26.703125 39.890625 
Q 22.75 39.890625 18.8125 39.015625 
Q 14.890625 38.140625 10.796875 36.28125 
z
" id="DejaVuSans-53"/>
       </defs>
       <use xlink:href="#DejaVuSans-8722"/>
       <use x="83.789062" xlink:href="#DejaVuSans-49"/>
       <use x="147.412109" xlink:href="#DejaVuSans-46"/>
       <use x="179.199219" xlink:href="#DejaVuSans-53"/>
      </g>
     </g>
    </g>
    <g id="xtick_3">
     <g id="line2d_3">
      <g>
       <use style="stroke:#000000;stroke-width:0.8;" x="129.024" xlink:href="#mfa8e875dd5" y="307.584"/>
      </g>
     </g>
     <g id="text_3">
      <!-- −1.0 -->
      <g transform="translate(116.882594 322.182437)scale(0.1 -0.1)">
       <use xlink:href="#DejaVuSans-8722"/>
       <use x="83.789062" xlink:href="#DejaVuSans-49"/>
       <use x="147.412109" xlink:href="#DejaVuSans-46"/>
       <use x="179.199219" xlink:href="#DejaVuSans-48"/>
      </g>
     </g>
    </g>
    <g id="xtick_4">
     <g id="line2d_4">
      <g>
       <use style="stroke:#000000;stroke-width:0.8;" x="164.736" xlink:href="#mfa8e875dd5" y="307.584"/>
      </g>
     </g>
     <g id="text_4">
      <!-- −0.5 -->
      <g transform="translate(152.594594 322.182437)scale(0.1 -0.1)">
       <use xlink:href="#DejaVuSans-8722"/>
       <use x="83.789062" xlink:href="#DejaVuSans-48"/>
       <use x="147.412109" xlink:href="#DejaVuSans-46"/>
       <use x="179.199219" xlink:href="#DejaVuSans-53"/>
      </g>
     </g>
    </g>
    <g id="xtick_5">
     <g id="line2d_5">
      <g>
       <use style="stroke:#000000;stroke-width:0.8;" x="200.448" xlink:href="#mfa8e875dd5" y="307.584"/>
      </g>
     </g>
     <g id="text_5">
      <!-- 0.0 -->
      <g transform="translate(192.496438 322.182437)scale(0.1 -0.1)">
       <use xlink:href="#DejaVuSans-48"/>
       <use x="63.623047" xlink:href="#DejaVuSans-46"/>
       <use x="95.410156" xlink:href="#DejaVuSans-48"/>
      </g>
     </g>
    </g>
    <g id="xtick_6">
     <g id="line2d_6">
      <g>
       <use style="stroke:#000000;stroke-width:0.8;" x="236.16" xlink:href="#mfa8e875dd5" y="307.584"/>
      </g>
     </g>
     <g id="text_6">
      <!-- 0.5 -->
      <g transform="translate(228.208438 322.182437)scale(0.1 -0.1)">
       <use xlink:href="#DejaVuSans-48"/>
       <use x="63.623047" xlink:href="#DejaVuSans-46"/>
       <use x="95.410156" xlink:href="#DejaVuSans-53"/>
      </g>
     </g>
    </g>
    <g id="xtick_7">
     <g id="line2d_7">
      <g>
       <use style="stroke:#000000;stroke-width:0.8;" x="271.872" xlink:href="#mfa8e875dd5" y="307.584"/>
      </g>
     </g>
     <g id="text_7">
      <!-- 1.0 -->
      <g transform="translate(263.920437 322.182437)scale(0.1 -0.1)">
       <use xlink:href="#DejaVuSans-49"/>
       <use x="63.623047" xlink:href="#DejaVuSans-46"/>
       <use x="95.410156" xlink:href="#DejaVuSans-48"/>
      </g>
     </g>
    </g>
    <g id="xtick_8">
     <g id="line2d_8">
      <g>
       <use style="stroke:#000000;stroke-width:0.8;" x="307.584" xlink:href="#mfa8e875dd5" y="307.584"/>
      </g>
     </g>
     <g id="text_8">
      <!-- 1.5 -->
      <g transform="translate(299.632437 322.182437)scale(0.1 -0.1)">
       <use xlink:href="#DejaVuSans-49"/>
       <use x="63.623047" xlink:href="#DejaVuSans-46"/>
       <use x="95.410156" xlink:href="#DejaVuSans-53"/>
      </g>
     </g>
    </g>
    <g id="xtick_9">
     <g id="line2d_9">
      <g>
       <use style="stroke:#000000;stroke-width:0.8;" x="343.296" xlink:href="#mfa8e875dd5" y="307.584"/>
      </g>
     </g>
     <g id="text_9">
      <!-- 2.0 -->
      <g transform="translate(335.344438 322.182437)scale(0.1 -0.1)">
       <use xlink:href="#DejaVuSans-50"/>
       <use x="63.623047" xlink:href="#DejaVuSans-46"/>
       <use x="95.410156" xlink:href="#DejaVuSans-48"/>
      </g>
     </g>
    </g>
   </g>
   <g id="matplotlib.axis_2">
    <g id="ytick_1">
     <g id="line2d_10">
      <defs>
       <path d="M 0 0 
L -3.5 0 
" id="mab744050eb" style="stroke:#000000;stroke-width:0.8;"/>
      </defs>
      <g>
       <use style="stroke:#000000;stroke-width:0.8;" x="57.6" xlink:href="#mab744050eb" y="307.584"/>
      </g>
     </g>
     <g id="text_10">
      <!-- −2.0 -->
      <g transform="translate(26.317187 311.383219)scale(0.1 -0.1)">
       <use xlink:href="#DejaVuSans-8722"/>
       <use x="83.789062" xlink:href="#DejaVuSans-50"/>
       <use x="147.412109" xlink:href="#DejaVuSans-46"/>
       <use x="179.199219" xlink:href="#DejaVuSans-48"/>
      </g>
     </g>
    </g>
    <g id="ytick_2">
     <g id="line2d_11">
      <g>
       <use style="stroke:#000000;stroke-width:0.8;" x="57.6" xlink:href="#mab744050eb" y="274.32"/>
      </g>
     </g>
     <g id="text_11">
      <!-- −1.5 -->
      <g transform="translate(26.317187 278.119219)scale(0.1 -0.1)">
       <use xlink:href="#DejaVuSans-8722"/>
       <use x="83.789062" xlink:href="#DejaVuSans-49"/>
       <use x="147.412109" xlink:href="#DejaVuSans-46"/>
       <use x="179.199219" xlink:href="#DejaVuSans-53"/>
      </g>
     </g>
    </g>
    <g id="ytick_3">
     <g id="line2d_12">
      <g>
       <use style="stroke:#000000;stroke-width:0.8;" x="57.6" xlink:href="#mab744050eb" y="241.056"/>
      </g>
     </g>
     <g id="text_12">
      <!-- −1.0 -->
      <g transform="translate(26.317187 244.855219)scale(0.1 -0.1)">
       <use xlink:href="#DejaVuSans-8722"/>
       <use x="83.789062" xlink:href="#DejaVuSans-49"/>
       <use x="147.412109" xlink:href="#DejaVuSans-46"/>
       <use x="179.199219" xlink:href="#DejaVuSans-48"/>
      </g>
     </g>
    </g>
    <g id="ytick_4">
     <g id="line2d_13">
      <g>
       <use style="stroke:#000000;stroke-width:0.8;" x="57.6" xlink:href="#mab744050eb" y="207.792"/>
      </g>
     </g>
     <g id="text_13">
      <!-- −0.5 -->
      <g transform="translate(26.317187 211.591219)scale(0.1 -0.1)">
       <use xlink:href="#DejaVuSans-8722"/>
       <use x="83.789062" xlink:href="#DejaVuSans-48"/>
       <use x="147.412109" xlink:href="#DejaVuSans-46"/>
       <use x="179.199219" xlink:href="#DejaVuSans-53"/>
      </g>
     </g>
    </g>
    <g id="ytick_5">
     <g id="line2d_14">
      <g>
       <use style="stroke:#000000;stroke-width:0.8;" x="57.6" xlink:href="#mab744050eb" y="174.528"/>
      </g>
     </g>
     <g id="text_14">
      <!-- 0.0 -->
      <g transform="translate(34.696875 178.327219)scale(0.1 -0.1)">
       <use xlink:href="#DejaVuSans-48"/>
       <use x="63.623047" xlink:href="#DejaVuSans-46"/>
       <use x="95.410156" xlink:href="#DejaVuSans-48"/>
      </g>
     </g>
    </g>
    <g id="ytick_6">
     <g id="line2d_15">
      <g>
       <use style="stroke:#000000;stroke-width:0.8;" x="57.6" xlink:href="#mab744050eb" y="141.264"/>
      </g>
     </g>
     <g id="text_15">
      <!-- 0.5 -->
      <g transform="translate(34.696875 145.063219)scale(0.1 -0.1)">
       <use xlink:href="#DejaVuSans-48"/>
       <use x="63.623047" xlink:href="#DejaVuSans-46"/>
       <use x="95.410156" xlink:href="#DejaVuSans-53"/>
      </g>
     </g>
    </g>
    <g id="ytick_7">
     <g id="line2d_16">
      <g>
       <use style="stroke:#000000;stroke-width:0.8;" x="57.6" xlink:href="#mab744050eb" y="108"/>
      </g>
     </g>
     <g id="text_16">
      <!-- 1.0 -->
      <g transform="translate(34.696875 111.799219)scale(0.1 -0.1)">
       <use xlink:href="#DejaVuSans-49"/>
       <use x="63.623047" xlink:href="#DejaVuSans-46"/>
       <use x="95.410156" xlink:href="#DejaVuSans-48"/>
      </g>
     </g>
    </g>
    <g id="ytick_8">
     <g id="line2d_17">
      <g>
       <use style="stroke:#000000;stroke-width:0.8;" x="57.6" xlink:href="#mab744050eb" y="74.736"/>
      </g>
     </g>
     <g id="text_17">
      <!-- 1.5 -->
      <g transform="translate(34.696875 78.535219)scale(0.1 -0.1)">
       <use xlink:href="#DejaVuSans-49"/>
       <use x="63.623047" xlink:href="#DejaVuSans-46"/>
       <use x="95.410156" xlink:href="#DejaVuSans-53"/>
      </g>
     </g>
    </g>
    <g id="ytick_9">
     <g id="line2d_18">
      <g>
       <use style="stroke:#000000;stroke-width:0.8;" x="57.6" xlink:href="#mab744050eb" y="41.472"/>
      </g>
     </g>
     <g id="text_18">
      <!-- 2.0 -->
      <g transform="translate(34.696875 45.271219)scale(0.1 -0.1)">
       <use xlink:href="#DejaVuSans-50"/>
       <use x="63.623047" xlink:href="#DejaVuSans-46"/>
       <use x="95.410156" xlink:href="#DejaVuSans-48"/>
      </g>
     </g>
    </g>
   </g>
   <g id="LineCollection_1"/>
   <g id="LineCollection_2">
    <path clip-path="url(#p7518ae01b4)" d="M 327.884895 307.584 
L 279.808 295.889945 
L 259.607273 290.640798 
L 239.406545 285.13913 
L 222.091636 280.206384 
L 199.005091 273.231555 
L 190.347636 270.487983 
L 181.690182 267.665855 
L 173.032727 264.75873 
L 167.261091 262.746422 
L 158.603636 259.672514 
L 152.832 257.545295 
L 144.174545 254.273548 
L 138.402909 252.000528 
L 132.631273 249.664604 
L 123.973818 246.038614 
L 118.202182 243.499987 
L 112.430545 240.867651 
L 106.658909 238.12951 
L 100.887273 235.271858 
L 98.001455 233.77246 
L 92.229818 230.69025 
L 86.458182 227.43767 
L 83.572364 225.718789 
L 77.800727 222.127324 
L 74.914909 220.21196 
L 72.029091 218.230827 
L 69.143273 216.167599 
L 63.371636 211.628919 
L 60.485818 209.149195 
L 57.6 206.481718 
L 57.6 206.481718 
" style="fill:none;stroke:#472d7b;stroke-width:1.5;"/>
    <path clip-path="url(#p7518ae01b4)" d="M 57.6 142.278769 
L 60.485818 139.611411 
L 63.371636 137.133713 
L 66.257455 134.806735 
L 69.143273 132.600589 
L 74.914909 128.545451 
L 77.800727 126.637095 
L 83.572364 123.037458 
L 86.458182 121.32709 
L 92.229818 118.069538 
L 98.001455 114.983889 
L 103.773091 112.04932 
L 109.544727 109.248021 
L 115.316364 106.564563 
L 121.088 103.985434 
L 126.859636 101.498676 
L 132.631273 99.093616 
L 141.288727 95.606874 
L 147.060364 93.383665 
L 155.717818 90.132258 
L 161.489455 88.054104 
L 170.146909 85.001569 
L 178.804364 82.048868 
L 184.576 80.152699 
L 193.233455 77.353619 
L 201.890909 74.633764 
L 210.548364 71.987057 
L 222.091636 68.54229 
L 230.749091 66.049587 
L 239.406545 63.613522 
L 248.064 61.229047 
L 259.607273 58.110409 
L 268.264727 55.839844 
L 282.243303 52.224 
L 326.599263 41.472 
L 326.599263 41.472 
" style="fill:none;stroke:#472d7b;stroke-width:1.5;"/>
   </g>
   <g id="LineCollection_3">
    <path clip-path="url(#p7518ae01b4)" d="M 261.304645 307.584 
L 259.607273 307.177978 
L 256.721455 306.493046 
L 253.835636 305.816893 
L 250.949818 305.149189 
L 249.850537 304.896 
L 248.064 304.459987 
L 245.178182 303.76144 
L 242.292364 303.071829 
L 239.406545 302.390819 
L 238.629396 302.208 
L 236.520727 301.682718 
L 233.634909 300.970726 
L 230.749091 300.267805 
L 227.863273 299.573615 
L 227.640227 299.52 
L 224.977455 298.842663 
L 222.091636 298.117391 
L 219.205818 297.401304 
L 216.888559 296.832 
L 216.32 296.68422 
L 213.434182 295.936186 
L 210.548364 295.197791 
L 207.662545 294.468671 
L 206.370502 294.144 
L 204.776727 293.720592 
L 201.890909 292.959505 
L 199.005091 292.208125 
L 196.119273 291.466089 
L 196.080039 291.456 
L 193.233455 290.682661 
L 190.347636 289.908658 
L 187.461818 289.144407 
L 186.031853 288.768 
L 184.576 288.363256 
L 181.690182 287.566287 
L 178.804364 286.779471 
L 176.209913 286.08 
L 175.918545 285.997061 
L 173.032727 285.176799 
L 170.146909 284.367083 
L 167.261091 283.567515 
L 166.625985 283.392 
L 164.375273 282.735738 
L 161.489455 281.902794 
L 158.603636 281.080363 
L 157.275551 280.704 
L 155.717818 280.23839 
L 152.832 279.381893 
L 149.946182 278.536259 
L 148.15703 278.016 
L 147.060364 277.679756 
L 144.174545 276.799376 
L 141.288727 275.930195 
L 139.27185 275.328 
L 138.402909 275.054526 
L 135.517091 274.14992 
L 132.631273 273.25683 
L 130.620721 272.64 
L 129.745455 272.35704 
L 126.859636 271.42784 
L 123.973818 270.510454 
L 122.203623 269.952 
L 121.088 269.581242 
L 118.202182 268.627042 
L 115.316364 267.684935 
L 114.019808 267.264 
L 112.430545 266.720615 
L 109.544727 265.740958 
L 106.658909 264.773652 
L 106.067808 264.576 
L 103.773091 263.768108 
L 100.887273 262.762473 
L 98.349893 261.888 
L 98.001455 261.761556 
L 95.115636 260.716042 
L 92.229818 259.683822 
L 90.869239 259.2 
L 89.344 258.628996 
L 86.458182 257.555993 
L 83.615174 256.512 
L 83.572364 256.495447 
L 80.686545 255.379956 
L 77.800727 254.278651 
L 76.603231 253.824 
L 74.914909 253.149118 
L 72.029091 252.004212 
L 69.819469 251.136 
L 69.143273 250.8562 
L 66.257455 249.665736 
L 63.371636 248.490292 
L 63.267772 248.448 
L 60.485818 247.254969 
L 57.6 246.03253 
" style="fill:none;stroke:#3b528b;stroke-width:1.5;"/>
    <path clip-path="url(#p7518ae01b4)" d="M 57.6 102.818055 
L 60.485818 101.589425 
L 62.767703 100.608 
L 63.371636 100.361407 
L 66.257455 99.180062 
L 69.143273 97.983502 
L 69.296305 97.92 
L 72.029091 96.843336 
L 74.914909 95.69262 
L 76.064089 95.232 
L 77.800727 94.570948 
L 80.686545 93.464107 
L 83.060221 92.544 
L 83.572364 92.355436 
L 86.458182 91.290643 
L 89.344 90.212194 
L 90.293024 89.856 
L 92.229818 89.165606 
L 95.115636 88.128198 
L 97.755384 87.168 
L 98.001455 87.082983 
L 100.887273 86.084992 
L 103.773091 85.074261 
L 105.456984 84.48 
L 106.658909 84.077188 
L 109.544727 83.105032 
L 112.430545 82.120372 
L 113.388716 81.792 
L 115.316364 81.164792 
L 118.202182 80.217929 
L 121.088 79.258822 
L 121.552808 79.104 
L 123.973818 78.338582 
L 126.859636 77.416537 
L 129.745455 76.482529 
L 129.950791 76.416 
L 132.631273 75.591911 
L 135.517091 74.694261 
L 138.402909 73.784951 
L 138.583476 73.728 
L 141.288727 72.918621 
L 144.174545 72.044982 
L 147.060364 71.160004 
L 147.450941 71.04 
L 149.946182 70.312978 
L 152.832 69.462991 
L 155.717818 68.602006 
L 156.552528 68.352 
L 158.603636 67.769618 
L 161.489455 66.942942 
L 164.375273 66.105622 
L 165.886858 65.664 
L 167.261091 65.28351 
L 170.146909 64.479808 
L 173.032727 63.665831 
L 175.451846 62.976 
L 175.918545 62.849918 
L 178.804364 62.068855 
L 181.690182 61.277897 
L 184.576 60.476658 
L 185.253313 60.288 
L 187.461818 59.705615 
L 190.347636 58.937341 
L 193.233455 58.159194 
L 195.288003 57.6 
L 196.119273 57.385867 
L 199.005091 56.639929 
L 201.890909 55.884532 
L 204.776727 55.119304 
L 205.555642 54.912 
L 207.662545 54.381658 
L 210.548364 53.648649 
L 213.434182 52.906247 
L 216.054899 52.224 
L 216.32 52.158746 
L 219.205818 51.447739 
L 222.091636 50.727779 
L 224.977455 49.998518 
L 226.792585 49.536 
L 227.863273 49.27821 
L 230.749091 48.580282 
L 233.634909 47.873512 
L 236.520727 47.157555 
L 237.761287 46.848 
L 239.406545 46.460344 
L 242.292364 45.775625 
L 245.178182 45.082196 
L 248.064 44.379716 
L 248.962776 44.16 
L 250.949818 43.701621 
L 253.835636 43.030244 
L 256.721455 42.350309 
L 259.607273 41.661482 
L 260.398109 41.472 
" style="fill:none;stroke:#3b528b;stroke-width:1.5;"/>
   </g>
   <g id="LineCollection_4">
    <path clip-path="url(#p7518ae01b4)" d="M 210.352115 307.584 
L 207.662545 306.942667 
L 204.776727 306.261335 
L 201.890909 305.587075 
L 199.005091 304.919668 
L 198.902731 304.896 
L 196.119273 304.218753 
L 193.233455 303.523767 
L 190.347636 302.835981 
L 187.687863 302.208 
L 187.461818 302.151849 
L 184.576 301.435676 
L 181.690182 300.727055 
L 178.804364 300.025752 
L 176.707832 299.52 
L 175.918545 299.319767 
L 173.032727 298.589866 
L 170.146909 297.867622 
L 167.261091 297.152801 
L 165.96013 296.832 
L 164.375273 296.421202 
L 161.489455 295.677587 
L 158.603636 294.941721 
L 155.717818 294.213366 
L 155.442755 294.144 
L 152.832 293.452245 
L 149.946182 292.69491 
L 147.060364 291.945402 
L 145.163415 291.456 
L 144.174545 291.187994 
L 141.288727 290.40877 
L 138.402909 289.637687 
L 135.517091 288.874493 
L 135.113893 288.768 
L 132.631273 288.07948 
L 129.745455 287.2864 
L 126.859636 286.501508 
L 125.30139 286.08 
L 123.973818 285.702988 
L 121.088 284.887485 
L 118.202182 284.080464 
L 115.718516 283.392 
L 115.316364 283.274988 
L 112.430545 282.436628 
L 109.544727 281.607039 
L 106.658909 280.78595 
L 106.370628 280.704 
L 103.773091 279.929234 
L 100.887273 279.07662 
L 98.001455 278.232778 
L 97.258221 278.016 
L 95.115636 277.360398 
L 92.229818 276.484282 
L 89.344 275.6172 
L 88.378261 275.328 
L 86.458182 274.72487 
L 83.572364 273.824742 
L 80.686545 272.933903 
L 79.731309 272.64 
L 77.800727 272.017006 
L 74.914909 271.092318 
L 72.029091 270.177163 
L 71.317338 269.952 
L 69.143273 269.23072 
L 66.257455 268.280873 
L 63.371636 267.340791 
L 63.135734 267.264 
L 60.485818 266.359411 
L 57.6 265.383743 
" style="fill:none;stroke:#2c728e;stroke-width:1.5;"/>
    <path clip-path="url(#p7518ae01b4)" d="M 57.6 83.50219 
L 60.485818 82.522892 
L 62.62286 81.792 
L 63.371636 81.547817 
L 66.257455 80.604279 
L 69.143273 79.650886 
L 70.788653 79.104 
L 72.029091 78.710899 
L 74.914909 77.792369 
L 77.800727 76.864219 
L 79.187216 76.416 
L 80.686545 75.953905 
L 83.572364 75.059773 
L 86.458182 74.156266 
L 87.819202 73.728 
L 89.344 73.270624 
L 92.229818 72.400331 
L 95.115636 71.520921 
L 96.684678 71.04 
L 98.001455 70.655315 
L 100.887273 69.808343 
L 103.773091 68.95252 
L 105.783115 68.352 
L 106.658909 68.102645 
L 109.544727 67.278509 
L 112.430545 66.445795 
L 115.113406 65.664 
L 115.316364 65.607646 
L 118.202182 64.805884 
L 121.088 63.995824 
L 123.973818 63.177203 
L 124.681195 62.976 
L 126.859636 62.38584 
L 129.745455 61.597994 
L 132.631273 60.801885 
L 134.481359 60.288 
L 135.517091 60.01404 
L 138.402909 59.247978 
L 141.288727 58.473954 
L 144.174545 57.691715 
L 144.512436 57.6 
L 147.060364 56.941703 
L 149.946182 56.189343 
L 152.832 55.429083 
L 154.780665 54.912 
L 155.717818 54.675336 
L 158.603636 53.944217 
L 161.489455 53.205518 
L 164.375273 52.458997 
L 165.280587 52.224 
L 167.261091 51.734963 
L 170.146909 51.017399 
L 173.032727 50.292345 
L 175.918545 49.559563 
L 176.011295 49.536 
L 178.804364 48.861314 
L 181.690182 48.157294 
L 184.576 47.445889 
L 186.9799 46.848 
L 187.461818 46.734049 
L 190.347636 46.050619 
L 193.233455 45.360146 
L 196.119273 44.662404 
L 198.181355 44.16 
L 199.005091 43.969285 
L 201.890909 43.299285 
L 204.776727 42.622368 
L 207.662545 41.938315 
L 209.615555 41.472 
" style="fill:none;stroke:#2c728e;stroke-width:1.5;"/>
   </g>
   <g id="LineCollection_5">
    <path clip-path="url(#p7518ae01b4)" d="M 167.446447 307.584 
L 167.261091 307.539878 
L 164.375273 306.853419 
L 161.489455 306.173229 
L 158.603636 305.49914 
L 156.000873 304.896 
L 155.717818 304.827245 
L 152.832 304.12697 
L 149.946182 303.433081 
L 147.060364 302.745407 
L 144.789422 302.208 
L 144.174545 302.055527 
L 141.288727 301.34138 
L 138.402909 300.633727 
L 135.517091 299.932395 
L 133.811364 299.52 
L 132.631273 299.221128 
L 129.745455 298.493044 
L 126.859636 297.771551 
L 123.973818 297.056475 
L 123.065458 296.832 
L 121.088 296.320266 
L 118.202182 295.578163 
L 115.316364 294.84274 
L 112.551057 294.144 
L 112.430545 294.112115 
L 109.544727 293.348947 
L 106.658909 292.592724 
L 103.773091 291.843259 
L 102.275149 291.456 
L 100.887273 291.080417 
L 98.001455 290.302934 
L 95.115636 289.532464 
L 92.229818 288.768821 
L 92.226716 288.768 
L 89.344 287.969656 
L 86.458182 287.177711 
L 83.572364 286.392838 
L 82.418109 286.08 
L 80.686545 285.588935 
L 77.800727 284.77503 
L 74.914909 283.96844 
L 72.839345 283.392 
L 72.029091 283.156556 
L 69.143273 282.320188 
L 66.257455 281.491373 
L 63.492423 280.704 
L 63.371636 280.668015 
L 60.485818 279.808656 
L 57.6 278.957085 
" style="fill:none;stroke:#21918c;stroke-width:1.5;"/>
    <path clip-path="url(#p7518ae01b4)" d="M 57.6 69.951158 
L 60.485818 69.097029 
L 62.983187 68.352 
L 63.371636 68.241222 
L 66.257455 67.417326 
L 69.143273 66.586023 
L 72.029091 65.74711 
L 72.314705 65.664 
L 74.914909 64.940886 
L 77.800727 64.131877 
L 80.686545 63.3155 
L 81.882038 62.976 
L 83.572364 62.517274 
L 86.458182 61.730051 
L 89.344 60.935705 
L 91.679676 60.288 
L 92.229818 60.142221 
L 95.115636 59.376298 
L 98.001455 58.603497 
L 100.887273 57.823632 
L 101.712575 57.6 
L 103.773091 57.066637 
L 106.658909 56.314911 
L 109.544727 55.556378 
L 111.977345 54.912 
L 112.430545 54.797332 
L 115.316364 54.06622 
L 118.202182 53.328559 
L 121.088 52.584167 
L 122.478039 52.224 
L 123.973818 51.853922 
L 126.859636 51.136677 
L 129.745455 50.412969 
L 132.631273 49.682621 
L 133.209496 49.536 
L 135.517091 48.977441 
L 138.402909 48.273965 
L 141.288727 47.564122 
L 144.173493 46.848 
L 144.174545 46.847751 
L 147.060364 46.164054 
L 149.946182 45.474263 
L 152.832 44.77821 
L 155.374395 44.16 
L 155.717818 44.080319 
L 158.603636 43.410124 
L 161.489455 42.733946 
L 164.375273 42.051622 
L 166.807753 41.472 
" style="fill:none;stroke:#21918c;stroke-width:1.5;"/>
   </g>
   <g id="LineCollection_6">
    <path clip-path="url(#p7518ae01b4)" d="M 129.667702 307.584 
L 126.859636 306.91647 
L 123.973818 306.23591 
L 121.088 305.560822 
L 118.223579 304.896 
L 118.202182 304.890809 
L 115.316364 304.190786 
L 112.430545 303.496475 
L 109.544727 302.807738 
L 107.014283 302.208 
L 106.658909 302.11998 
L 103.773091 301.405986 
L 100.887273 300.697802 
L 98.001455 299.99529 
L 96.038523 299.52 
L 95.115636 299.286531 
L 92.229818 298.558439 
L 89.344 297.836248 
L 86.458182 297.119819 
L 85.295185 296.832 
L 83.572364 296.386644 
L 80.686545 295.644309 
L 77.800727 294.90796 
L 74.914909 294.177455 
L 74.78271 294.144 
L 72.029091 293.416269 
L 69.143273 292.659526 
L 66.257455 291.908846 
L 64.508243 291.456 
L 63.371636 291.148723 
L 60.485818 290.371098 
L 57.6 289.599755 
" style="fill:none;stroke:#28ae80;stroke-width:1.5;"/>
    <path clip-path="url(#p7518ae01b4)" d="M 57.6 59.324333 
L 60.485818 58.551029 
L 63.371636 57.771402 
L 64.004909 57.6 
L 66.257455 57.016197 
L 69.143273 56.263616 
L 72.029091 55.504932 
L 74.270111 54.912 
L 74.914909 54.748645 
L 77.800727 54.016297 
L 80.686545 53.278068 
L 83.572364 52.533816 
L 84.769526 52.224 
L 86.458182 51.805646 
L 89.344 51.087395 
L 92.229818 50.363348 
L 95.115636 49.633361 
L 95.50008 49.536 
L 98.001455 48.929703 
L 100.887273 48.225393 
L 103.773091 47.515377 
L 106.464933 46.848 
L 106.658909 46.801974 
L 109.544727 46.11694 
L 112.430545 45.426431 
L 115.316364 44.730312 
L 117.664868 44.16 
L 118.202182 44.035154 
L 121.088 43.363692 
L 123.973818 42.686856 
L 126.859636 42.004516 
L 129.097462 41.472 
" style="fill:none;stroke:#28ae80;stroke-width:1.5;"/>
   </g>
   <g id="LineCollection_7">
    <path clip-path="url(#p7518ae01b4)" d="M 95.527193 307.584 
L 95.115636 307.486249 
L 92.229818 306.801599 
L 89.344 306.122036 
L 86.458182 305.44745 
L 84.08505 304.896 
L 83.572364 304.771732 
L 80.686545 304.073217 
L 77.800727 303.379888 
L 74.914909 302.69163 
L 72.876718 302.208 
L 72.029091 301.998242 
L 69.143273 301.285706 
L 66.257455 300.578446 
L 63.371636 299.876346 
L 61.901595 299.52 
L 60.485818 299.162145 
L 57.6 298.435413 
" style="fill:none;stroke:#5ec962;stroke-width:1.5;"/>
    <path clip-path="url(#p7518ae01b4)" d="M 57.6 50.49842 
L 60.485818 49.770054 
L 61.410885 49.536 
L 63.371636 49.06025 
L 66.257455 48.356598 
L 69.143273 47.647757 
L 72.029091 46.933611 
L 72.374705 46.848 
L 74.914909 46.244688 
L 77.800727 45.5549 
L 80.686545 44.860013 
L 83.572011 44.16 
L 83.572364 44.159918 
L 86.458182 43.48872 
L 89.344 42.812627 
L 92.229818 42.131532 
L 95.004242 41.472 
" style="fill:none;stroke:#5ec962;stroke-width:1.5;"/>
   </g>
   <g id="LineCollection_8">
    <path clip-path="url(#p7518ae01b4)" d="M 64.139473 307.584 
L 63.371636 307.40176 
L 60.485818 306.718127 
L 57.6 306.039186 
" style="fill:none;stroke:#addc30;stroke-width:1.5;"/>
    <path clip-path="url(#p7518ae01b4)" d="M 57.6 42.904654 
L 60.485818 42.224359 
L 63.371636 41.53935 
L 63.655159 41.472 
" style="fill:none;stroke:#addc30;stroke-width:1.5;"/>
   </g>
   <g id="LineCollection_9"/>
   <g id="patch_3">
    <path d="M 57.6 307.584 
L 57.6 41.472 
" style="fill:none;stroke:#000000;stroke-linecap:square;stroke-linejoin:miter;stroke-width:0.8;"/>
   </g>
   <g id="patch_4">
    <path d="M 343.296 307.584 
L 343.296 41.472 
" style="fill:none;stroke:#000000;stroke-linecap:square;stroke-linejoin:miter;stroke-width:0.8;"/>
   </g>
   <g id="patch_5">
    <path d="M 57.6 307.584 
L 343.296 307.584 
" style="fill:none;stroke:#000000;stroke-linecap:square;stroke-linejoin:miter;stroke-width:0.8;"/>
   </g>
   <g id="patch_6">
    <path d="M 57.6 41.472 
L 343.296 41.472 
" style="fill:none;stroke:#000000;stroke-linecap:square;stroke-linejoin:miter;stroke-width:0.8;"/>
   </g>
  </g>
  <g id="axes_2">
   <g id="patch_7">
    <path clip-path="url(#p7e856de9db)" d="M 361.152 307.584 
L 361.152 274.32 
L 361.152 74.736 
L 361.152 41.472 
L 374.4576 41.472 
L 374.4576 74.736 
L 374.4576 274.32 
L 374.4576 307.584 
z
" style="fill:#ffffff;stroke:#ffffff;stroke-linejoin:miter;stroke-width:0.01;"/>
   </g>
   <g id="matplotlib.axis_3"/>
   <g id="matplotlib.axis_4">
    <g id="ytick_10">
     <g id="line2d_19">
      <defs>
       <path d="M 0 0 
L 3.5 0 
" id="m67ca8ea5ba" style="stroke:#000000;stroke-width:0.8;"/>
      </defs>
      <g>
       <use style="stroke:#000000;stroke-width:0.8;" x="374.4576" xlink:href="#m67ca8ea5ba" y="307.584"/>
      </g>
     </g>
     <g id="text_19">
      <!-- 0 -->
      <g transform="translate(381.4576 311.383219)scale(0.1 -0.1)">
       <use xlink:href="#DejaVuSans-48"/>
      </g>
     </g>
    </g>
    <g id="ytick_11">
     <g id="line2d_20">
      <g>
       <use style="stroke:#000000;stroke-width:0.8;" x="374.4576" xlink:href="#m67ca8ea5ba" y="274.32"/>
      </g>
     </g>
     <g id="text_20">
      <!-- 500 -->
      <g transform="translate(381.4576 278.119219)scale(0.1 -0.1)">
       <use xlink:href="#DejaVuSans-53"/>
       <use x="63.623047" xlink:href="#DejaVuSans-48"/>
       <use x="127.246094" xlink:href="#DejaVuSans-48"/>
      </g>
     </g>
    </g>
    <g id="ytick_12">
     <g id="line2d_21">
      <g>
       <use style="stroke:#000000;stroke-width:0.8;" x="374.4576" xlink:href="#m67ca8ea5ba" y="241.056"/>
      </g>
     </g>
     <g id="text_21">
      <!-- 1000 -->
      <g transform="translate(381.4576 244.855219)scale(0.1 -0.1)">
       <use xlink:href="#DejaVuSans-49"/>
       <use x="63.623047" xlink:href="#DejaVuSans-48"/>
       <use x="127.246094" xlink:href="#DejaVuSans-48"/>
       <use x="190.869141" xlink:href="#DejaVuSans-48"/>
      </g>
     </g>
    </g>
    <g id="ytick_13">
     <g id="line2d_22">
      <g>
       <use style="stroke:#000000;stroke-width:0.8;" x="374.4576" xlink:href="#m67ca8ea5ba" y="207.792"/>
      </g>
     </g>
     <g id="text_22">
      <!-- 1500 -->
      <g transform="translate(381.4576 211.591219)scale(0.1 -0.1)">
       <use xlink:href="#DejaVuSans-49"/>
       <use x="63.623047" xlink:href="#DejaVuSans-53"/>
       <use x="127.246094" xlink:href="#DejaVuSans-48"/>
       <use x="190.869141" xlink:href="#DejaVuSans-48"/>
      </g>
     </g>
    </g>
    <g id="ytick_14">
     <g id="line2d_23">
      <g>
       <use style="stroke:#000000;stroke-width:0.8;" x="374.4576" xlink:href="#m67ca8ea5ba" y="174.528"/>
      </g>
     </g>
     <g id="text_23">
      <!-- 2000 -->
      <g transform="translate(381.4576 178.327219)scale(0.1 -0.1)">
       <use xlink:href="#DejaVuSans-50"/>
       <use x="63.623047" xlink:href="#DejaVuSans-48"/>
       <use x="127.246094" xlink:href="#DejaVuSans-48"/>
       <use x="190.869141" xlink:href="#DejaVuSans-48"/>
      </g>
     </g>
    </g>
    <g id="ytick_15">
     <g id="line2d_24">
      <g>
       <use style="stroke:#000000;stroke-width:0.8;" x="374.4576" xlink:href="#m67ca8ea5ba" y="141.264"/>
      </g>
     </g>
     <g id="text_24">
      <!-- 2500 -->
      <g transform="translate(381.4576 145.063219)scale(0.1 -0.1)">
       <use xlink:href="#DejaVuSans-50"/>
       <use x="63.623047" xlink:href="#DejaVuSans-53"/>
       <use x="127.246094" xlink:href="#DejaVuSans-48"/>
       <use x="190.869141" xlink:href="#DejaVuSans-48"/>
      </g>
     </g>
    </g>
    <g id="ytick_16">
     <g id="line2d_25">
      <g>
       <use style="stroke:#000000;stroke-width:0.8;" x="374.4576" xlink:href="#m67ca8ea5ba" y="108"/>
      </g>
     </g>
     <g id="text_25">
      <!-- 3000 -->
      <g transform="translate(381.4576 111.799219)scale(0.1 -0.1)">
       <defs>
        <path d="M 40.578125 39.3125 
Q 47.65625 37.796875 51.625 33 
Q 55.609375 28.21875 55.609375 21.1875 
Q 55.609375 10.40625 48.1875 4.484375 
Q 40.765625 -1.421875 27.09375 -1.421875 
Q 22.515625 -1.421875 17.65625 -0.515625 
Q 12.796875 0.390625 7.625 2.203125 
L 7.625 11.71875 
Q 11.71875 9.328125 16.59375 8.109375 
Q 21.484375 6.890625 26.8125 6.890625 
Q 36.078125 6.890625 40.9375 10.546875 
Q 45.796875 14.203125 45.796875 21.1875 
Q 45.796875 27.640625 41.28125 31.265625 
Q 36.765625 34.90625 28.71875 34.90625 
L 20.21875 34.90625 
L 20.21875 43.015625 
L 29.109375 43.015625 
Q 36.375 43.015625 40.234375 45.921875 
Q 44.09375 48.828125 44.09375 54.296875 
Q 44.09375 59.90625 40.109375 62.90625 
Q 36.140625 65.921875 28.71875 65.921875 
Q 24.65625 65.921875 20.015625 65.03125 
Q 15.375 64.15625 9.8125 62.3125 
L 9.8125 71.09375 
Q 15.4375 72.65625 20.34375 73.4375 
Q 25.25 74.21875 29.59375 74.21875 
Q 40.828125 74.21875 47.359375 69.109375 
Q 53.90625 64.015625 53.90625 55.328125 
Q 53.90625 49.265625 50.4375 45.09375 
Q 46.96875 40.921875 40.578125 39.3125 
z
" id="DejaVuSans-51"/>
       </defs>
       <use xlink:href="#DejaVuSans-51"/>
       <use x="63.623047" xlink:href="#DejaVuSans-48"/>
       <use x="127.246094" xlink:href="#DejaVuSans-48"/>
       <use x="190.869141" xlink:href="#DejaVuSans-48"/>
      </g>
     </g>
    </g>
    <g id="ytick_17">
     <g id="line2d_26">
      <g>
       <use style="stroke:#000000;stroke-width:0.8;" x="374.4576" xlink:href="#m67ca8ea5ba" y="74.736"/>
      </g>
     </g>
     <g id="text_26">
      <!-- 3500 -->
      <g transform="translate(381.4576 78.535219)scale(0.1 -0.1)">
       <use xlink:href="#DejaVuSans-51"/>
       <use x="63.623047" xlink:href="#DejaVuSans-53"/>
       <use x="127.246094" xlink:href="#DejaVuSans-48"/>
       <use x="190.869141" xlink:href="#DejaVuSans-48"/>
      </g>
     </g>
    </g>
    <g id="ytick_18">
     <g id="line2d_27">
      <g>
       <use style="stroke:#000000;stroke-width:0.8;" x="374.4576" xlink:href="#m67ca8ea5ba" y="41.472"/>
      </g>
     </g>
     <g id="text_27">
      <!-- 4000 -->
      <g transform="translate(381.4576 45.271219)scale(0.1 -0.1)">
       <defs>
        <path d="M 37.796875 64.3125 
L 12.890625 25.390625 
L 37.796875 25.390625 
z
M 35.203125 72.90625 
L 47.609375 72.90625 
L 47.609375 25.390625 
L 58.015625 25.390625 
L 58.015625 17.1875 
L 47.609375 17.1875 
L 47.609375 0 
L 37.796875 0 
L 37.796875 17.1875 
L 4.890625 17.1875 
L 4.890625 26.703125 
z
" id="DejaVuSans-52"/>
       </defs>
       <use xlink:href="#DejaVuSans-52"/>
       <use x="63.623047" xlink:href="#DejaVuSans-48"/>
       <use x="127.246094" xlink:href="#DejaVuSans-48"/>
       <use x="190.869141" xlink:href="#DejaVuSans-48"/>
      </g>
     </g>
    </g>
   </g>
   <g id="LineCollection_10">
    <path clip-path="url(#p7e856de9db)" d="M 361.152 307.584 
L 374.4576 307.584 
" style="fill:none;stroke:#440154;stroke-width:1.5;"/>
    <path clip-path="url(#p7e856de9db)" d="M 361.152 274.32 
L 374.4576 274.32 
" style="fill:none;stroke:#472d7b;stroke-width:1.5;"/>
    <path clip-path="url(#p7e856de9db)" d="M 361.152 241.056 
L 374.4576 241.056 
" style="fill:none;stroke:#3b528b;stroke-width:1.5;"/>
    <path clip-path="url(#p7e856de9db)" d="M 361.152 207.792 
L 374.4576 207.792 
" style="fill:none;stroke:#2c728e;stroke-width:1.5;"/>
    <path clip-path="url(#p7e856de9db)" d="M 361.152 174.528 
L 374.4576 174.528 
" style="fill:none;stroke:#21918c;stroke-width:1.5;"/>
    <path clip-path="url(#p7e856de9db)" d="M 361.152 141.264 
L 374.4576 141.264 
" style="fill:none;stroke:#28ae80;stroke-width:1.5;"/>
    <path clip-path="url(#p7e856de9db)" d="M 361.152 108 
L 374.4576 108 
" style="fill:none;stroke:#5ec962;stroke-width:1.5;"/>
    <path clip-path="url(#p7e856de9db)" d="M 361.152 74.736 
L 374.4576 74.736 
" style="fill:none;stroke:#addc30;stroke-width:1.5;"/>
    <path clip-path="url(#p7e856de9db)" d="M 361.152 41.472 
L 374.4576 41.472 
" style="fill:none;stroke:#fde725;stroke-width:1.5;"/>
   </g>
   <g id="patch_8">
    <path d="M 361.152 307.584 
L 361.152 274.32 
L 361.152 74.736 
L 361.152 41.472 
L 374.4576 41.472 
L 374.4576 74.736 
L 374.4576 274.32 
L 374.4576 307.584 
z
" style="fill:none;stroke:#000000;stroke-linejoin:miter;stroke-width:0.8;"/>
   </g>
  </g>
 </g>
 <defs>
  <clipPath id="p7518ae01b4">
   <rect height="266.112" width="285.696" x="57.6" y="41.472"/>
  </clipPath>
  <clipPath id="p7e856de9db">
   <rect height="266.112" width="13.3056" x="361.152" y="41.472"/>
  </clipPath>
 </defs>
</svg>
