<?xml version="1.0" encoding="utf-8" standalone="no"?>
<!DOCTYPE svg PUBLIC "-//W3C//DTD SVG 1.1//EN"
  "http://www.w3.org/Graphics/SVG/1.1/DTD/svg11.dtd">
<!-- Created with matplotlib (https://matplotlib.org/) -->
<svg height="280.8pt" version="1.1" viewBox="0 0 705.6 280.8" width="705.6pt" xmlns="http://www.w3.org/2000/svg" xmlns:xlink="http://www.w3.org/1999/xlink">
 <metadata>
  <rdf:RDF xmlns:cc="http://creativecommons.org/ns#" xmlns:dc="http://purl.org/dc/elements/1.1/" xmlns:rdf="http://www.w3.org/1999/02/22-rdf-syntax-ns#">
   <cc:Work>
    <dc:type rdf:resource="http://purl.org/dc/dcmitype/StillImage"/>
    <dc:date>2020-12-15T03:52:36.868552</dc:date>
    <dc:format>image/svg+xml</dc:format>
    <dc:creator>
     <cc:Agent>
      <dc:title>Matplotlib v3.3.3, https://matplotlib.org/</dc:title>
     </cc:Agent>
    </dc:creator>
   </cc:Work>
  </rdf:RDF>
 </metadata>
 <defs>
  <style type="text/css">*{stroke-linecap:butt;stroke-linejoin:round;}</style>
 </defs>
 <g id="figure_1">
  <g id="patch_1">
   <path d="M 0 280.8 
L 705.6 280.8 
L 705.6 0 
L 0 0 
z
" style="fill:#ffffff;"/>
  </g>
  <g id="axes_1">
   <g id="patch_2">
    <path d="M 88.2 249.912 
L 336.763636 249.912 
L 336.763636 33.696 
L 88.2 33.696 
z
" style="fill:#ffffff;"/>
   </g>
   <g id="matplotlib.axis_1">
    <g id="xtick_1">
     <g id="line2d_1">
      <defs>
       <path d="M 0 0 
L 0 3.5 
" id="mbb2e594cca" style="stroke:#000000;stroke-width:0.8;"/>
      </defs>
      <g>
       <use style="stroke:#000000;stroke-width:0.8;" x="99.498347" xlink:href="#mbb2e594cca" y="249.912"/>
      </g>
     </g>
     <g id="text_1">
      <!-- −40 -->
      <g transform="translate(88.946003 264.510438)scale(0.1 -0.1)">
       <defs>
        <path d="M 10.59375 35.5 
L 73.1875 35.5 
L 73.1875 27.203125 
L 10.59375 27.203125 
z
" id="DejaVuSans-8722"/>
        <path d="M 37.796875 64.3125 
L 12.890625 25.390625 
L 37.796875 25.390625 
z
M 35.203125 72.90625 
L 47.609375 72.90625 
L 47.609375 25.390625 
L 58.015625 25.390625 
L 58.015625 17.1875 
L 47.609375 17.1875 
L 47.609375 0 
L 37.796875 0 
L 37.796875 17.1875 
L 4.890625 17.1875 
L 4.890625 26.703125 
z
" id="DejaVuSans-52"/>
        <path d="M 31.78125 66.40625 
Q 24.171875 66.40625 20.328125 58.90625 
Q 16.5 51.421875 16.5 36.375 
Q 16.5 21.390625 20.328125 13.890625 
Q 24.171875 6.390625 31.78125 6.390625 
Q 39.453125 6.390625 43.28125 13.890625 
Q 47.125 21.390625 47.125 36.375 
Q 47.125 51.421875 43.28125 58.90625 
Q 39.453125 66.40625 31.78125 66.40625 
z
M 31.78125 74.21875 
Q 44.046875 74.21875 50.515625 64.515625 
Q 56.984375 54.828125 56.984375 36.375 
Q 56.984375 17.96875 50.515625 8.265625 
Q 44.046875 -1.421875 31.78125 -1.421875 
Q 19.53125 -1.421875 13.0625 8.265625 
Q 6.59375 17.96875 6.59375 36.375 
Q 6.59375 54.828125 13.0625 64.515625 
Q 19.53125 74.21875 31.78125 74.21875 
z
" id="DejaVuSans-48"/>
       </defs>
       <use xlink:href="#DejaVuSans-8722"/>
       <use x="83.789062" xlink:href="#DejaVuSans-52"/>
       <use x="147.412109" xlink:href="#DejaVuSans-48"/>
      </g>
     </g>
    </g>
    <g id="xtick_2">
     <g id="line2d_2">
      <g>
       <use style="stroke:#000000;stroke-width:0.8;" x="155.990083" xlink:href="#mbb2e594cca" y="249.912"/>
      </g>
     </g>
     <g id="text_2">
      <!-- −20 -->
      <g transform="translate(145.437739 264.510438)scale(0.1 -0.1)">
       <defs>
        <path d="M 19.1875 8.296875 
L 53.609375 8.296875 
L 53.609375 0 
L 7.328125 0 
L 7.328125 8.296875 
Q 12.9375 14.109375 22.625 23.890625 
Q 32.328125 33.6875 34.8125 36.53125 
Q 39.546875 41.84375 41.421875 45.53125 
Q 43.3125 49.21875 43.3125 52.78125 
Q 43.3125 58.59375 39.234375 62.25 
Q 35.15625 65.921875 28.609375 65.921875 
Q 23.96875 65.921875 18.8125 64.3125 
Q 13.671875 62.703125 7.8125 59.421875 
L 7.8125 69.390625 
Q 13.765625 71.78125 18.9375 73 
Q 24.125 74.21875 28.421875 74.21875 
Q 39.75 74.21875 46.484375 68.546875 
Q 53.21875 62.890625 53.21875 53.421875 
Q 53.21875 48.921875 51.53125 44.890625 
Q 49.859375 40.875 45.40625 35.40625 
Q 44.1875 33.984375 37.640625 27.21875 
Q 31.109375 20.453125 19.1875 8.296875 
z
" id="DejaVuSans-50"/>
       </defs>
       <use xlink:href="#DejaVuSans-8722"/>
       <use x="83.789062" xlink:href="#DejaVuSans-50"/>
       <use x="147.412109" xlink:href="#DejaVuSans-48"/>
      </g>
     </g>
    </g>
    <g id="xtick_3">
     <g id="line2d_3">
      <g>
       <use style="stroke:#000000;stroke-width:0.8;" x="212.481818" xlink:href="#mbb2e594cca" y="249.912"/>
      </g>
     </g>
     <g id="text_3">
      <!-- 0 -->
      <g transform="translate(209.300568 264.510438)scale(0.1 -0.1)">
       <use xlink:href="#DejaVuSans-48"/>
      </g>
     </g>
    </g>
    <g id="xtick_4">
     <g id="line2d_4">
      <g>
       <use style="stroke:#000000;stroke-width:0.8;" x="268.973554" xlink:href="#mbb2e594cca" y="249.912"/>
      </g>
     </g>
     <g id="text_4">
      <!-- 20 -->
      <g transform="translate(262.611054 264.510438)scale(0.1 -0.1)">
       <use xlink:href="#DejaVuSans-50"/>
       <use x="63.623047" xlink:href="#DejaVuSans-48"/>
      </g>
     </g>
    </g>
    <g id="xtick_5">
     <g id="line2d_5">
      <g>
       <use style="stroke:#000000;stroke-width:0.8;" x="325.465289" xlink:href="#mbb2e594cca" y="249.912"/>
      </g>
     </g>
     <g id="text_5">
      <!-- 40 -->
      <g transform="translate(319.102789 264.510438)scale(0.1 -0.1)">
       <use xlink:href="#DejaVuSans-52"/>
       <use x="63.623047" xlink:href="#DejaVuSans-48"/>
      </g>
     </g>
    </g>
   </g>
   <g id="matplotlib.axis_2">
    <g id="ytick_1">
     <g id="line2d_6">
      <defs>
       <path d="M 0 0 
L -3.5 0 
" id="m18ff0c73e2" style="stroke:#000000;stroke-width:0.8;"/>
      </defs>
      <g>
       <use style="stroke:#000000;stroke-width:0.8;" x="88.2" xlink:href="#m18ff0c73e2" y="240.48391"/>
      </g>
     </g>
     <g id="text_6">
      <!-- 0 -->
      <g transform="translate(74.8375 244.283129)scale(0.1 -0.1)">
       <use xlink:href="#DejaVuSans-48"/>
      </g>
     </g>
    </g>
    <g id="ytick_2">
     <g id="line2d_7">
      <g>
       <use style="stroke:#000000;stroke-width:0.8;" x="88.2" xlink:href="#m18ff0c73e2" y="193.21384"/>
      </g>
     </g>
     <g id="text_7">
      <!-- 10 -->
      <g transform="translate(68.475 197.013058)scale(0.1 -0.1)">
       <defs>
        <path d="M 12.40625 8.296875 
L 28.515625 8.296875 
L 28.515625 63.921875 
L 10.984375 60.40625 
L 10.984375 69.390625 
L 28.421875 72.90625 
L 38.28125 72.90625 
L 38.28125 8.296875 
L 54.390625 8.296875 
L 54.390625 0 
L 12.40625 0 
z
" id="DejaVuSans-49"/>
       </defs>
       <use xlink:href="#DejaVuSans-49"/>
       <use x="63.623047" xlink:href="#DejaVuSans-48"/>
      </g>
     </g>
    </g>
    <g id="ytick_3">
     <g id="line2d_8">
      <g>
       <use style="stroke:#000000;stroke-width:0.8;" x="88.2" xlink:href="#m18ff0c73e2" y="145.943769"/>
      </g>
     </g>
     <g id="text_8">
      <!-- 20 -->
      <g transform="translate(68.475 149.742988)scale(0.1 -0.1)">
       <use xlink:href="#DejaVuSans-50"/>
       <use x="63.623047" xlink:href="#DejaVuSans-48"/>
      </g>
     </g>
    </g>
    <g id="ytick_4">
     <g id="line2d_9">
      <g>
       <use style="stroke:#000000;stroke-width:0.8;" x="88.2" xlink:href="#m18ff0c73e2" y="98.673699"/>
      </g>
     </g>
     <g id="text_9">
      <!-- 30 -->
      <g transform="translate(68.475 102.472917)scale(0.1 -0.1)">
       <defs>
        <path d="M 40.578125 39.3125 
Q 47.65625 37.796875 51.625 33 
Q 55.609375 28.21875 55.609375 21.1875 
Q 55.609375 10.40625 48.1875 4.484375 
Q 40.765625 -1.421875 27.09375 -1.421875 
Q 22.515625 -1.421875 17.65625 -0.515625 
Q 12.796875 0.390625 7.625 2.203125 
L 7.625 11.71875 
Q 11.71875 9.328125 16.59375 8.109375 
Q 21.484375 6.890625 26.8125 6.890625 
Q 36.078125 6.890625 40.9375 10.546875 
Q 45.796875 14.203125 45.796875 21.1875 
Q 45.796875 27.640625 41.28125 31.265625 
Q 36.765625 34.90625 28.71875 34.90625 
L 20.21875 34.90625 
L 20.21875 43.015625 
L 29.109375 43.015625 
Q 36.375 43.015625 40.234375 45.921875 
Q 44.09375 48.828125 44.09375 54.296875 
Q 44.09375 59.90625 40.109375 62.90625 
Q 36.140625 65.921875 28.71875 65.921875 
Q 24.65625 65.921875 20.015625 65.03125 
Q 15.375 64.15625 9.8125 62.3125 
L 9.8125 71.09375 
Q 15.4375 72.65625 20.34375 73.4375 
Q 25.25 74.21875 29.59375 74.21875 
Q 40.828125 74.21875 47.359375 69.109375 
Q 53.90625 64.015625 53.90625 55.328125 
Q 53.90625 49.265625 50.4375 45.09375 
Q 46.96875 40.921875 40.578125 39.3125 
z
" id="DejaVuSans-51"/>
       </defs>
       <use xlink:href="#DejaVuSans-51"/>
       <use x="63.623047" xlink:href="#DejaVuSans-48"/>
      </g>
     </g>
    </g>
    <g id="ytick_5">
     <g id="line2d_10">
      <g>
       <use style="stroke:#000000;stroke-width:0.8;" x="88.2" xlink:href="#m18ff0c73e2" y="51.403628"/>
      </g>
     </g>
     <g id="text_10">
      <!-- 40 -->
      <g transform="translate(68.475 55.202847)scale(0.1 -0.1)">
       <use xlink:href="#DejaVuSans-52"/>
       <use x="63.623047" xlink:href="#DejaVuSans-48"/>
      </g>
     </g>
    </g>
   </g>
   <g id="line2d_11">
    <path clip-path="url(#pad8416d02c)" d="M 99.498347 43.524 
L 101.780841 54.607341 
L 104.063336 65.308667 
L 106.34583 73.592022 
L 108.628325 78.820891 
L 110.910819 82.151704 
L 113.193313 85.818904 
L 115.475808 91.753557 
L 117.758302 100.389518 
L 120.040796 110.395209 
L 122.323291 119.496836 
L 124.605785 125.884107 
L 126.888279 129.3294 
L 129.170774 131.328484 
L 131.453268 134.175798 
L 133.735763 139.54597 
L 136.018257 147.458517 
L 138.300751 156.265781 
L 140.583246 163.671554 
L 142.86574 168.150651 
L 145.148234 169.891817 
L 147.430729 170.681044 
L 149.713223 172.797423 
L 151.995718 177.60415 
L 154.278212 184.705765 
L 156.560706 192.192637 
L 158.843201 197.821544 
L 161.125695 200.402491 
L 163.408189 200.534396 
L 165.690684 200.234824 
L 167.973178 201.692675 
L 170.255672 205.914951 
L 172.538167 212.104203 
L 174.820661 218.151531 
L 177.103156 221.940363 
L 179.38565 222.654972 
L 181.668144 221.284782 
L 183.950639 220.012677 
L 186.233133 220.865489 
L 188.515627 224.460957 
L 190.798122 229.625828 
L 193.080616 234.121186 
L 195.36311 236.026615 
L 197.645605 234.927443 
L 199.928099 232.171104 
L 202.210594 230.034124 
L 204.493088 230.314708 
L 206.775582 233.22105 
L 209.058077 237.242616 
L 211.340571 240.084 
L 213.623065 240.084 
L 215.90556 237.242616 
L 218.188054 233.22105 
L 220.470548 230.314708 
L 222.753043 230.034124 
L 225.035537 232.171104 
L 227.318032 234.927443 
L 229.600526 236.026615 
L 231.88302 234.121186 
L 234.165515 229.625828 
L 236.448009 224.460957 
L 238.730503 220.865489 
L 241.012998 220.012677 
L 243.295492 221.284782 
L 245.577986 222.654972 
L 247.860481 221.940363 
L 250.142975 218.151531 
L 252.42547 212.104203 
L 254.707964 205.914951 
L 256.990458 201.692675 
L 259.272953 200.234824 
L 261.555447 200.534396 
L 263.837941 200.402491 
L 266.120436 197.821544 
L 268.40293 192.192637 
L 270.685424 184.705765 
L 272.967919 177.60415 
L 275.250413 172.797423 
L 277.532908 170.681044 
L 279.815402 169.891817 
L 282.097896 168.150651 
L 284.380391 163.671554 
L 286.662885 156.265781 
L 288.945379 147.458517 
L 291.227874 139.54597 
L 293.510368 134.175798 
L 295.792863 131.328484 
L 298.075357 129.3294 
L 300.357851 125.884107 
L 302.640346 119.496836 
L 304.92284 110.395209 
L 307.205334 100.389518 
L 309.487829 91.753557 
L 311.770323 85.818904 
L 314.052817 82.151704 
L 316.335312 78.820891 
L 318.617806 73.592022 
L 320.900301 65.308667 
L 323.182795 54.607341 
L 325.465289 43.524 
" style="fill:none;stroke:#1f77b4;stroke-linecap:square;stroke-width:1.5;"/>
   </g>
   <g id="patch_3">
    <path d="M 88.2 249.912 
L 88.2 33.696 
" style="fill:none;stroke:#000000;stroke-linecap:square;stroke-linejoin:miter;stroke-width:0.8;"/>
   </g>
   <g id="patch_4">
    <path d="M 336.763636 249.912 
L 336.763636 33.696 
" style="fill:none;stroke:#000000;stroke-linecap:square;stroke-linejoin:miter;stroke-width:0.8;"/>
   </g>
   <g id="patch_5">
    <path d="M 88.2 249.912 
L 336.763636 249.912 
" style="fill:none;stroke:#000000;stroke-linecap:square;stroke-linejoin:miter;stroke-width:0.8;"/>
   </g>
   <g id="patch_6">
    <path d="M 88.2 33.696 
L 336.763636 33.696 
" style="fill:none;stroke:#000000;stroke-linecap:square;stroke-linejoin:miter;stroke-width:0.8;"/>
   </g>
  </g>
  <g id="axes_2">
   <g id="patch_7">
    <path d="M 386.476364 249.912 
L 585.327273 249.912 
L 585.327273 33.696 
L 386.476364 33.696 
z
" style="fill:#ffffff;"/>
   </g>
   <g id="matplotlib.axis_3">
    <g id="xtick_6">
     <g id="line2d_12">
      <g>
       <use style="stroke:#000000;stroke-width:0.8;" x="386.476364" xlink:href="#mbb2e594cca" y="249.912"/>
      </g>
     </g>
     <g id="text_11">
      <!-- −40 -->
      <g transform="translate(375.92402 264.510438)scale(0.1 -0.1)">
       <use xlink:href="#DejaVuSans-8722"/>
       <use x="83.789062" xlink:href="#DejaVuSans-52"/>
       <use x="147.412109" xlink:href="#DejaVuSans-48"/>
      </g>
     </g>
    </g>
    <g id="xtick_7">
     <g id="line2d_13">
      <g>
       <use style="stroke:#000000;stroke-width:0.8;" x="436.189091" xlink:href="#mbb2e594cca" y="249.912"/>
      </g>
     </g>
     <g id="text_12">
      <!-- −20 -->
      <g transform="translate(425.636747 264.510438)scale(0.1 -0.1)">
       <use xlink:href="#DejaVuSans-8722"/>
       <use x="83.789062" xlink:href="#DejaVuSans-50"/>
       <use x="147.412109" xlink:href="#DejaVuSans-48"/>
      </g>
     </g>
    </g>
    <g id="xtick_8">
     <g id="line2d_14">
      <g>
       <use style="stroke:#000000;stroke-width:0.8;" x="485.901818" xlink:href="#mbb2e594cca" y="249.912"/>
      </g>
     </g>
     <g id="text_13">
      <!-- 0 -->
      <g transform="translate(482.720568 264.510438)scale(0.1 -0.1)">
       <use xlink:href="#DejaVuSans-48"/>
      </g>
     </g>
    </g>
    <g id="xtick_9">
     <g id="line2d_15">
      <g>
       <use style="stroke:#000000;stroke-width:0.8;" x="535.614545" xlink:href="#mbb2e594cca" y="249.912"/>
      </g>
     </g>
     <g id="text_14">
      <!-- 20 -->
      <g transform="translate(529.252045 264.510438)scale(0.1 -0.1)">
       <use xlink:href="#DejaVuSans-50"/>
       <use x="63.623047" xlink:href="#DejaVuSans-48"/>
      </g>
     </g>
    </g>
    <g id="xtick_10">
     <g id="line2d_16">
      <g>
       <use style="stroke:#000000;stroke-width:0.8;" x="585.327273" xlink:href="#mbb2e594cca" y="249.912"/>
      </g>
     </g>
     <g id="text_15">
      <!-- 40 -->
      <g transform="translate(578.964773 264.510438)scale(0.1 -0.1)">
       <use xlink:href="#DejaVuSans-52"/>
       <use x="63.623047" xlink:href="#DejaVuSans-48"/>
      </g>
     </g>
    </g>
   </g>
   <g id="matplotlib.axis_4">
    <g id="ytick_6">
     <g id="line2d_17">
      <g>
       <use style="stroke:#000000;stroke-width:0.8;" x="386.476364" xlink:href="#m18ff0c73e2" y="249.912"/>
      </g>
     </g>
     <g id="text_16">
      <!-- −40 -->
      <g transform="translate(358.371676 253.711219)scale(0.1 -0.1)">
       <use xlink:href="#DejaVuSans-8722"/>
       <use x="83.789062" xlink:href="#DejaVuSans-52"/>
       <use x="147.412109" xlink:href="#DejaVuSans-48"/>
      </g>
     </g>
    </g>
    <g id="ytick_7">
     <g id="line2d_18">
      <g>
       <use style="stroke:#000000;stroke-width:0.8;" x="386.476364" xlink:href="#m18ff0c73e2" y="222.885"/>
      </g>
     </g>
     <g id="text_17">
      <!-- −30 -->
      <g transform="translate(358.371676 226.684219)scale(0.1 -0.1)">
       <use xlink:href="#DejaVuSans-8722"/>
       <use x="83.789062" xlink:href="#DejaVuSans-51"/>
       <use x="147.412109" xlink:href="#DejaVuSans-48"/>
      </g>
     </g>
    </g>
    <g id="ytick_8">
     <g id="line2d_19">
      <g>
       <use style="stroke:#000000;stroke-width:0.8;" x="386.476364" xlink:href="#m18ff0c73e2" y="195.858"/>
      </g>
     </g>
     <g id="text_18">
      <!-- −20 -->
      <g transform="translate(358.371676 199.657219)scale(0.1 -0.1)">
       <use xlink:href="#DejaVuSans-8722"/>
       <use x="83.789062" xlink:href="#DejaVuSans-50"/>
       <use x="147.412109" xlink:href="#DejaVuSans-48"/>
      </g>
     </g>
    </g>
    <g id="ytick_9">
     <g id="line2d_20">
      <g>
       <use style="stroke:#000000;stroke-width:0.8;" x="386.476364" xlink:href="#m18ff0c73e2" y="168.831"/>
      </g>
     </g>
     <g id="text_19">
      <!-- −10 -->
      <g transform="translate(358.371676 172.630219)scale(0.1 -0.1)">
       <use xlink:href="#DejaVuSans-8722"/>
       <use x="83.789062" xlink:href="#DejaVuSans-49"/>
       <use x="147.412109" xlink:href="#DejaVuSans-48"/>
      </g>
     </g>
    </g>
    <g id="ytick_10">
     <g id="line2d_21">
      <g>
       <use style="stroke:#000000;stroke-width:0.8;" x="386.476364" xlink:href="#m18ff0c73e2" y="141.804"/>
      </g>
     </g>
     <g id="text_20">
      <!-- 0 -->
      <g transform="translate(373.113864 145.603219)scale(0.1 -0.1)">
       <use xlink:href="#DejaVuSans-48"/>
      </g>
     </g>
    </g>
    <g id="ytick_11">
     <g id="line2d_22">
      <g>
       <use style="stroke:#000000;stroke-width:0.8;" x="386.476364" xlink:href="#m18ff0c73e2" y="114.777"/>
      </g>
     </g>
     <g id="text_21">
      <!-- 10 -->
      <g transform="translate(366.751364 118.576219)scale(0.1 -0.1)">
       <use xlink:href="#DejaVuSans-49"/>
       <use x="63.623047" xlink:href="#DejaVuSans-48"/>
      </g>
     </g>
    </g>
    <g id="ytick_12">
     <g id="line2d_23">
      <g>
       <use style="stroke:#000000;stroke-width:0.8;" x="386.476364" xlink:href="#m18ff0c73e2" y="87.75"/>
      </g>
     </g>
     <g id="text_22">
      <!-- 20 -->
      <g transform="translate(366.751364 91.549219)scale(0.1 -0.1)">
       <use xlink:href="#DejaVuSans-50"/>
       <use x="63.623047" xlink:href="#DejaVuSans-48"/>
      </g>
     </g>
    </g>
    <g id="ytick_13">
     <g id="line2d_24">
      <g>
       <use style="stroke:#000000;stroke-width:0.8;" x="386.476364" xlink:href="#m18ff0c73e2" y="60.723"/>
      </g>
     </g>
     <g id="text_23">
      <!-- 30 -->
      <g transform="translate(366.751364 64.522219)scale(0.1 -0.1)">
       <use xlink:href="#DejaVuSans-51"/>
       <use x="63.623047" xlink:href="#DejaVuSans-48"/>
      </g>
     </g>
    </g>
    <g id="ytick_14">
     <g id="line2d_25">
      <g>
       <use style="stroke:#000000;stroke-width:0.8;" x="386.476364" xlink:href="#m18ff0c73e2" y="33.696"/>
      </g>
     </g>
     <g id="text_24">
      <!-- 40 -->
      <g transform="translate(366.751364 37.495219)scale(0.1 -0.1)">
       <use xlink:href="#DejaVuSans-52"/>
       <use x="63.623047" xlink:href="#DejaVuSans-48"/>
      </g>
     </g>
    </g>
   </g>
   <g id="LineCollection_1"/>
   <g id="LineCollection_2">
    <path clip-path="url(#p00c254fe1e)" d="M 484.897521 206.556561 
L 482.888926 206.095455 
L 480.880331 205.560508 
L 476.86314 205.072398 
L 470.837355 204.461067 
L 468.591927 204.048 
L 466.820165 203.456626 
L 464.81157 202.437098 
L 464.005438 201.864 
L 461.605844 199.68 
L 460.79438 199.07971 
L 458.785785 197.977889 
L 456.77719 197.185057 
L 452.76 195.736735 
L 451.88774 195.312 
L 450.751405 194.522461 
L 449.258223 193.128 
L 446.734215 189.484465 
L 446.024156 188.76 
L 444.72562 187.782826 
L 442.451198 186.576 
L 440.70843 185.444608 
L 439.351746 184.392 
L 438.416661 182.208 
L 438.728355 180.024 
L 439.153274 177.84 
L 438.50412 175.656 
L 436.132192 173.472 
L 434.682645 172.37459 
L 433.621327 171.288 
L 432.325623 169.104 
L 430.188021 162.552 
L 428.65686 160.19987 
L 427.71525 158.184 
L 427.881393 156 
L 428.432151 153.816 
L 428.70093 151.632 
L 428.546441 149.448 
L 427.869622 147.264 
L 425.368718 142.896 
L 425.368718 140.712 
L 427.869622 136.344 
L 428.546441 134.16 
L 428.65686 131.555071 
L 428.432151 129.792 
L 427.881393 127.608 
L 427.71525 125.424 
L 428.742837 123.24 
L 430.188021 121.056 
L 430.665455 119.996033 
L 431.049234 118.872 
L 432.325623 114.504 
L 432.67405 113.776876 
L 433.621327 112.32 
L 434.682645 111.23341 
L 436.69124 109.636203 
L 438.50412 107.952 
L 439.153274 105.768 
L 438.699835 103.40786 
L 438.416661 101.4 
L 438.699835 100.637706 
L 439.351746 99.216 
L 440.70843 98.163392 
L 442.717025 96.895794 
L 444.72562 95.825174 
L 446.024156 94.848 
L 446.734215 94.123535 
L 449.258223 90.48 
L 450.751405 89.085539 
L 451.88774 88.296 
L 452.76 87.871265 
L 458.785785 85.630111 
L 460.79438 84.52829 
L 461.605844 83.928 
L 464.81157 81.170902 
L 466.820165 80.151374 
L 468.82876 79.50063 
L 472.84595 78.899583 
L 480.880331 78.047492 
L 484.897521 77.051439 
L 486.906116 77.051439 
L 488.914711 77.512545 
L 490.923306 78.047492 
L 494.940496 78.535602 
L 500.966281 79.146933 
L 503.21171 79.56 
L 504.983471 80.151374 
L 506.992066 81.170902 
L 507.798199 81.744 
L 510.197792 83.928 
L 511.009256 84.52829 
L 513.017851 85.630111 
L 515.026446 86.422943 
L 519.043636 87.871265 
L 519.915896 88.296 
L 521.052231 89.085539 
L 522.545413 90.48 
L 525.069421 94.123535 
L 525.77948 94.848 
L 527.078017 95.825174 
L 529.352438 97.032 
L 531.095207 98.163392 
L 532.451891 99.216 
L 533.386975 101.4 
L 533.075281 103.584 
L 532.650362 105.768 
L 533.299516 107.952 
L 535.671445 110.136 
L 537.120992 111.23341 
L 538.18231 112.32 
L 539.478013 114.504 
L 541.615615 121.056 
L 543.146777 123.40813 
L 544.088387 125.424 
L 543.922244 127.608 
L 543.371485 129.792 
L 543.102706 131.976 
L 543.257196 134.16 
L 543.934015 136.344 
L 546.434918 140.712 
L 546.434918 142.896 
L 543.934015 147.264 
L 543.257196 149.448 
L 543.146777 152.052929 
L 543.371485 153.816 
L 543.922244 156 
L 544.088387 158.184 
L 543.060799 160.368 
L 541.615615 162.552 
L 541.138182 163.611967 
L 540.754402 164.736 
L 539.478013 169.104 
L 539.129587 169.831124 
L 538.18231 171.288 
L 537.120992 172.37459 
L 535.112397 173.971797 
L 533.299516 175.656 
L 532.650362 177.84 
L 533.103802 180.20014 
L 533.386975 182.208 
L 533.103802 182.970294 
L 532.451891 184.392 
L 531.095207 185.444608 
L 529.086612 186.712206 
L 527.078017 187.782826 
L 525.77948 188.76 
L 525.069421 189.484465 
L 522.545413 193.128 
L 521.052231 194.522461 
L 519.915896 195.312 
L 519.043636 195.736735 
L 513.017851 197.977889 
L 511.009256 199.07971 
L 510.197792 199.68 
L 506.992066 202.437098 
L 504.983471 203.456626 
L 502.974876 204.10737 
L 498.957686 204.708417 
L 490.923306 205.560508 
L 486.906116 206.556561 
L 484.897521 206.556561 
L 484.897521 206.556561 
" style="fill:none;stroke:#443983;stroke-width:1.5;"/>
   </g>
   <g id="LineCollection_3">
    <path clip-path="url(#p00c254fe1e)" d="M 468.82876 232.91734 
L 466.820165 231.884056 
L 464.81157 230.936131 
L 462.475299 230.256 
L 454.768595 228.61979 
L 452.76 227.904936 
L 450.751405 226.670736 
L 449.697886 225.888 
L 448.74281 224.991357 
L 446.734215 223.392042 
L 444.72562 222.279061 
L 438.699835 219.742336 
L 437.959985 219.336 
L 436.69124 218.276223 
L 435.557983 217.152 
L 434.078846 214.968 
L 432.190061 212.784 
L 430.665455 211.717414 
L 428.617945 210.6 
L 426.648264 209.126229 
L 425.88929 208.416 
L 424.915463 206.232 
L 424.517866 204.048 
L 423.617349 201.864 
L 421.523575 199.68 
L 420.622479 199.032744 
L 418.613884 197.425536 
L 416.605289 195.020854 
L 414.594903 190.944 
L 412.588099 188.07572 
L 410.579504 185.97116 
L 409.332834 184.392 
L 408.689423 182.208 
L 409.100632 177.84 
L 408.570909 175.372128 
L 407.427717 173.472 
L 405.593001 171.288 
L 404.183219 169.104 
L 403.512454 166.92 
L 403.37469 164.736 
L 403.845032 160.368 
L 403.529237 158.184 
L 401.835575 153.816 
L 401.387306 151.632 
L 401.213943 149.448 
L 401.245189 147.264 
L 401.696842 142.896 
L 401.696842 140.712 
L 401.245189 136.344 
L 401.213943 134.16 
L 401.387306 131.976 
L 401.835575 129.792 
L 402.641526 127.608 
L 403.529237 125.424 
L 403.845032 123.24 
L 403.37469 118.872 
L 403.512454 116.688 
L 404.183219 114.504 
L 404.553719 113.852542 
L 405.593001 112.32 
L 407.427717 110.136 
L 408.726888 107.952 
L 409.100632 105.768 
L 408.689423 101.4 
L 409.332834 99.216 
L 411.091438 97.032 
L 413.167819 94.848 
L 414.596694 92.660402 
L 416.779734 88.296 
L 418.692888 86.112 
L 421.523575 83.928 
L 423.617349 81.744 
L 424.517866 79.56 
L 424.915463 77.376 
L 425.88929 75.192 
L 426.648264 74.481771 
L 428.65686 72.986549 
L 430.665455 71.890586 
L 432.67405 70.385854 
L 434.682645 67.785785 
L 435.557983 66.456 
L 436.69124 65.331777 
L 437.959985 64.272 
L 438.699835 63.865664 
L 442.860875 62.088 
L 444.72562 61.328939 
L 447.177226 59.904 
L 450.751405 56.937264 
L 453.112902 55.536 
L 454.768595 54.98821 
L 458.785785 54.084786 
L 462.802975 53.271797 
L 464.81157 52.671869 
L 468.82876 50.69066 
L 470.837355 50.015855 
L 472.84595 49.714933 
L 474.854545 49.758131 
L 482.888926 50.643658 
L 486.906116 50.724024 
L 490.923306 50.484292 
L 496.949091 49.758131 
L 498.957686 49.714933 
L 500.966281 50.015855 
L 502.974876 50.69066 
L 504.983471 51.723944 
L 506.992066 52.671869 
L 509.328338 53.352 
L 517.035041 54.98821 
L 519.043636 55.703064 
L 521.052231 56.937264 
L 522.105751 57.72 
L 523.060826 58.616643 
L 525.069421 60.215958 
L 527.078017 61.328939 
L 533.103802 63.865664 
L 533.843651 64.272 
L 535.112397 65.331777 
L 536.245653 66.456 
L 537.72479 68.64 
L 539.613575 70.824 
L 541.138182 71.890586 
L 543.185691 73.008 
L 545.155372 74.481771 
L 545.914346 75.192 
L 546.888173 77.376 
L 547.285771 79.56 
L 548.186287 81.744 
L 550.280061 83.928 
L 551.181157 84.575256 
L 553.189752 86.182464 
L 555.198347 88.587146 
L 557.208733 92.664 
L 559.215537 95.53228 
L 561.224132 97.63684 
L 562.470802 99.216 
L 563.114214 101.4 
L 562.703005 105.768 
L 563.232727 108.235872 
L 564.375919 110.136 
L 566.210635 112.32 
L 567.620418 114.504 
L 568.291183 116.688 
L 568.428946 118.872 
L 567.958605 123.24 
L 568.274399 125.424 
L 569.968061 129.792 
L 570.41633 131.976 
L 570.589693 134.16 
L 570.558447 136.344 
L 570.106795 140.712 
L 570.106795 142.896 
L 570.558447 147.264 
L 570.589693 149.448 
L 570.41633 151.632 
L 569.968061 153.816 
L 569.162111 156 
L 568.274399 158.184 
L 567.958605 160.368 
L 568.428946 164.736 
L 568.291183 166.92 
L 567.620418 169.104 
L 567.249917 169.755458 
L 566.210635 171.288 
L 564.375919 173.472 
L 563.076749 175.656 
L 562.703005 177.84 
L 563.114214 182.208 
L 562.470802 184.392 
L 560.712198 186.576 
L 558.635817 188.76 
L 557.206942 190.947598 
L 555.023902 195.312 
L 553.110749 197.496 
L 550.280061 199.68 
L 548.186287 201.864 
L 547.285771 204.048 
L 546.888173 206.232 
L 545.914346 208.416 
L 545.155372 209.126229 
L 543.146777 210.621451 
L 541.138182 211.717414 
L 539.129587 213.222146 
L 537.120992 215.822215 
L 536.245653 217.152 
L 535.112397 218.276223 
L 533.843651 219.336 
L 533.103802 219.742336 
L 528.942761 221.52 
L 527.078017 222.279061 
L 524.626411 223.704 
L 521.052231 226.670736 
L 518.690735 228.072 
L 517.035041 228.61979 
L 513.017851 229.523214 
L 509.000661 230.336203 
L 506.992066 230.936131 
L 502.974876 232.91734 
L 500.966281 233.592145 
L 498.957686 233.893067 
L 496.949091 233.849869 
L 488.914711 232.964342 
L 484.897521 232.883976 
L 480.880331 233.123708 
L 474.854545 233.849869 
L 472.84595 233.893067 
L 470.837355 233.592145 
L 468.82876 232.91734 
L 468.82876 232.91734 
" style="fill:none;stroke:#31688e;stroke-width:1.5;"/>
   </g>
   <g id="LineCollection_4">
    <path clip-path="url(#p00c254fe1e)" d="M 456.908097 249.912 
L 456.77719 249.873641 
L 454.768595 249.363472 
L 452.76 248.898519 
L 450.751405 248.401387 
L 448.74281 247.776318 
L 448.614806 247.728 
L 446.734215 246.868966 
L 444.758386 245.544 
L 444.72562 245.520415 
L 442.717025 244.029706 
L 441.799212 243.36 
L 440.70843 242.777247 
L 438.699835 241.85865 
L 437.04422 241.176 
L 436.69124 241.047577 
L 434.682645 240.291464 
L 432.67405 239.323885 
L 432.13134 238.992 
L 430.665455 237.880504 
L 429.574617 236.808 
L 428.65686 235.88519 
L 427.413805 234.624 
L 426.648264 234.028429 
L 424.639669 232.671361 
L 424.261628 232.44 
L 422.631074 231.58095 
L 420.622479 230.471235 
L 420.278609 230.256 
L 418.613884 229.000728 
L 417.627042 228.072 
L 416.605289 226.835782 
L 415.868983 225.888 
L 414.596694 224.31952 
L 414.027516 223.704 
L 412.588099 222.440771 
L 411.327001 221.52 
L 410.579504 220.975529 
L 408.570909 219.504706 
L 408.361668 219.336 
L 406.574467 217.152 
L 406.562314 217.121738 
L 405.746301 214.968 
L 405.138326 212.784 
L 404.553719 211.544195 
L 404.032131 210.6 
L 402.545124 208.972338 
L 402.028312 208.416 
L 400.536529 206.811746 
L 400.106333 206.232 
L 398.901726 204.048 
L 398.527934 203.208425 
L 397.987605 201.864 
L 396.904419 199.68 
L 396.519339 199.109178 
L 395.275372 197.496 
L 394.510744 196.657393 
L 393.22086 195.312 
L 392.502149 194.365772 
L 391.650215 193.128 
L 390.948792 190.944 
L 390.871587 188.76 
L 390.908891 186.576 
L 390.493554 184.516287 
L 390.465944 184.392 
L 389.222763 182.208 
L 388.484959 181.191224 
L 387.734488 180.024 
L 386.641265 177.84 
L 386.476364 177.323036 
" style="fill:none;stroke:#21918c;stroke-width:1.5;"/>
    <path clip-path="url(#p00c254fe1e)" d="M 585.327273 177.323036 
L 585.162372 177.84 
L 584.069148 180.024 
L 583.318678 181.191224 
L 582.580873 182.208 
L 581.337692 184.392 
L 581.310083 184.516287 
L 580.894745 186.576 
L 580.932049 188.76 
L 580.854844 190.944 
L 580.153421 193.128 
L 579.301488 194.365772 
L 578.582777 195.312 
L 577.292893 196.657393 
L 576.528264 197.496 
L 575.284298 199.109178 
L 574.899217 199.68 
L 573.816032 201.864 
L 573.275702 203.208425 
L 572.90191 204.048 
L 571.697304 206.232 
L 571.267107 206.811746 
L 569.775325 208.416 
L 569.258512 208.972338 
L 567.771505 210.6 
L 567.249917 211.544195 
L 566.66531 212.784 
L 566.057335 214.968 
L 565.241322 217.121738 
L 565.229169 217.152 
L 563.441968 219.336 
L 563.232727 219.504706 
L 561.224132 220.975529 
L 560.476636 221.52 
L 559.215537 222.440771 
L 557.77612 223.704 
L 557.206942 224.31952 
L 555.934653 225.888 
L 555.198347 226.835782 
L 554.176594 228.072 
L 553.189752 229.000728 
L 551.525027 230.256 
L 551.181157 230.471235 
L 549.172562 231.58095 
L 547.542008 232.44 
L 547.163967 232.671361 
L 545.155372 234.028429 
L 544.389832 234.624 
L 543.146777 235.88519 
L 542.229019 236.808 
L 541.138182 237.880504 
L 539.672296 238.992 
L 539.129587 239.323885 
L 537.120992 240.291464 
L 535.112397 241.047577 
L 534.759416 241.176 
L 533.103802 241.85865 
L 531.095207 242.777247 
L 530.004424 243.36 
L 529.086612 244.029706 
L 527.078017 245.520415 
L 527.04525 245.544 
L 525.069421 246.868966 
L 523.188831 247.728 
L 523.060826 247.776318 
L 521.052231 248.401387 
L 519.043636 248.898519 
L 517.035041 249.363472 
L 515.026446 249.873641 
L 514.895539 249.912 
" style="fill:none;stroke:#21918c;stroke-width:1.5;"/>
    <path clip-path="url(#p00c254fe1e)" d="M 386.476364 106.284964 
L 386.641265 105.768 
L 387.734488 103.584 
L 388.484959 102.416776 
L 389.222763 101.4 
L 390.465944 99.216 
L 390.493554 99.091713 
L 390.908891 97.032 
L 390.871587 94.848 
L 390.948792 92.664 
L 391.650215 90.48 
L 392.502149 89.242228 
L 393.22086 88.296 
L 394.510744 86.950607 
L 395.275372 86.112 
L 396.519339 84.498822 
L 396.904419 83.928 
L 397.987605 81.744 
L 398.527934 80.399575 
L 398.901726 79.56 
L 400.106333 77.376 
L 400.536529 76.796254 
L 402.028312 75.192 
L 402.545124 74.635662 
L 404.032131 73.008 
L 404.553719 72.063805 
L 405.138326 70.824 
L 405.746301 68.64 
L 406.562314 66.486262 
L 406.574467 66.456 
L 408.361668 64.272 
L 408.570909 64.103294 
L 410.579504 62.632471 
L 411.327001 62.088 
L 412.588099 61.167229 
L 414.027516 59.904 
L 414.596694 59.28848 
L 415.868983 57.72 
L 416.605289 56.772218 
L 417.627042 55.536 
L 418.613884 54.607272 
L 420.278609 53.352 
L 420.622479 53.136765 
L 422.631074 52.02705 
L 424.261628 51.168 
L 424.639669 50.936639 
L 426.648264 49.579571 
L 427.413805 48.984 
L 428.65686 47.72281 
L 429.574617 46.8 
L 430.665455 45.727496 
L 432.13134 44.616 
L 432.67405 44.284115 
L 434.682645 43.316536 
L 436.69124 42.560423 
L 437.04422 42.432 
L 438.699835 41.74935 
L 440.70843 40.830753 
L 441.799212 40.248 
L 442.717025 39.578294 
L 444.72562 38.087585 
L 444.758386 38.064 
L 446.734215 36.739034 
L 448.614806 35.88 
L 448.74281 35.831682 
L 450.751405 35.206613 
L 452.76 34.709481 
L 454.768595 34.244528 
L 456.77719 33.734359 
L 456.908097 33.696 
" style="fill:none;stroke:#21918c;stroke-width:1.5;"/>
    <path clip-path="url(#p00c254fe1e)" d="M 514.895539 33.696 
L 515.026446 33.734359 
L 517.035041 34.244528 
L 519.043636 34.709481 
L 521.052231 35.206613 
L 523.060826 35.831682 
L 523.188831 35.88 
L 525.069421 36.739034 
L 527.04525 38.064 
L 527.078017 38.087585 
L 529.086612 39.578294 
L 530.004424 40.248 
L 531.095207 40.830753 
L 533.103802 41.74935 
L 534.759416 42.432 
L 535.112397 42.560423 
L 537.120992 43.316536 
L 539.129587 44.284115 
L 539.672296 44.616 
L 541.138182 45.727496 
L 542.229019 46.8 
L 543.146777 47.72281 
L 544.389832 48.984 
L 545.155372 49.579571 
L 547.163967 50.936639 
L 547.542008 51.168 
L 549.172562 52.02705 
L 551.181157 53.136765 
L 551.525027 53.352 
L 553.189752 54.607272 
L 554.176594 55.536 
L 555.198347 56.772218 
L 555.934653 57.72 
L 557.206942 59.28848 
L 557.77612 59.904 
L 559.215537 61.167229 
L 560.476636 62.088 
L 561.224132 62.632471 
L 563.232727 64.103294 
L 563.441968 64.272 
L 565.229169 66.456 
L 565.241322 66.486262 
L 566.057335 68.64 
L 566.66531 70.824 
L 567.249917 72.063805 
L 567.771505 73.008 
L 569.258512 74.635662 
L 569.775325 75.192 
L 571.267107 76.796254 
L 571.697304 77.376 
L 572.90191 79.56 
L 573.275702 80.399575 
L 573.816032 81.744 
L 574.899217 83.928 
L 575.284298 84.498822 
L 576.528264 86.112 
L 577.292893 86.950607 
L 578.582777 88.296 
L 579.301488 89.242228 
L 580.153421 90.48 
L 580.854844 92.664 
L 580.932049 94.848 
L 580.894745 97.032 
L 581.310083 99.091713 
L 581.337692 99.216 
L 582.580873 101.4 
L 583.318678 102.416776 
L 584.069148 103.584 
L 585.162372 105.768 
L 585.327273 106.284964 
" style="fill:none;stroke:#21918c;stroke-width:1.5;"/>
   </g>
   <g id="LineCollection_5">
    <path clip-path="url(#p00c254fe1e)" d="M 417.911814 249.912 
L 416.605289 249.20945 
L 414.596694 247.743799 
L 414.57923 247.728 
L 412.623455 245.544 
L 412.588099 245.504166 
L 410.712282 243.36 
L 410.579504 243.243588 
L 408.570909 241.656119 
L 407.908283 241.176 
L 406.562314 240.340541 
L 404.553719 239.022442 
L 404.511907 238.992 
L 402.545124 237.303325 
L 402.07023 236.808 
L 400.536529 234.825241 
L 400.39008 234.624 
L 398.725827 232.44 
L 398.527934 232.218515 
L 396.519339 230.328745 
L 396.431729 230.256 
L 394.510744 228.677225 
L 393.776822 228.072 
L 392.502149 226.625308 
L 391.925254 225.888 
L 390.974538 223.704 
L 390.493554 221.96319 
L 390.365905 221.52 
L 389.42758 219.336 
L 388.484959 218.095815 
L 387.724612 217.152 
L 386.476364 215.836484 
" style="fill:none;stroke:#35b779;stroke-width:1.5;"/>
    <path clip-path="url(#p00c254fe1e)" d="M 585.327273 215.836484 
L 584.079024 217.152 
L 583.318678 218.095815 
L 582.376056 219.336 
L 581.437731 221.52 
L 581.310083 221.96319 
L 580.829098 223.704 
L 579.878383 225.888 
L 579.301488 226.625308 
L 578.026815 228.072 
L 577.292893 228.677225 
L 575.371908 230.256 
L 575.284298 230.328745 
L 573.275702 232.218515 
L 573.077809 232.44 
L 571.413556 234.624 
L 571.267107 234.825241 
L 569.733406 236.808 
L 569.258512 237.303325 
L 567.291729 238.992 
L 567.249917 239.022442 
L 565.241322 240.340541 
L 563.895353 241.176 
L 563.232727 241.656119 
L 561.224132 243.243588 
L 561.091355 243.36 
L 559.215537 245.504166 
L 559.180181 245.544 
L 557.224407 247.728 
L 557.206942 247.743799 
L 555.198347 249.20945 
L 553.891823 249.912 
" style="fill:none;stroke:#35b779;stroke-width:1.5;"/>
    <path clip-path="url(#p00c254fe1e)" d="M 386.476364 67.771516 
L 387.724612 66.456 
L 388.484959 65.512185 
L 389.42758 64.272 
L 390.365905 62.088 
L 390.493554 61.64481 
L 390.974538 59.904 
L 391.925254 57.72 
L 392.502149 56.982692 
L 393.776822 55.536 
L 394.510744 54.930775 
L 396.431729 53.352 
L 396.519339 53.279255 
L 398.527934 51.389485 
L 398.725827 51.168 
L 400.39008 48.984 
L 400.536529 48.782759 
L 402.07023 46.8 
L 402.545124 46.304675 
L 404.511907 44.616 
L 404.553719 44.585558 
L 406.562314 43.267459 
L 407.908283 42.432 
L 408.570909 41.951881 
L 410.579504 40.364412 
L 410.712282 40.248 
L 412.588099 38.103834 
L 412.623455 38.064 
L 414.57923 35.88 
L 414.596694 35.864201 
L 416.605289 34.39855 
L 417.911814 33.696 
" style="fill:none;stroke:#35b779;stroke-width:1.5;"/>
    <path clip-path="url(#p00c254fe1e)" d="M 553.891823 33.696 
L 555.198347 34.39855 
L 557.206942 35.864201 
L 557.224407 35.88 
L 559.180181 38.064 
L 559.215537 38.103834 
L 561.091355 40.248 
L 561.224132 40.364412 
L 563.232727 41.951881 
L 563.895353 42.432 
L 565.241322 43.267459 
L 567.249917 44.585558 
L 567.291729 44.616 
L 569.258512 46.304675 
L 569.733406 46.8 
L 571.267107 48.782759 
L 571.413556 48.984 
L 573.077809 51.168 
L 573.275702 51.389485 
L 575.284298 53.279255 
L 575.371908 53.352 
L 577.292893 54.930775 
L 578.026815 55.536 
L 579.301488 56.982692 
L 579.878383 57.72 
L 580.829098 59.904 
L 581.310083 61.64481 
L 581.437731 62.088 
L 582.376056 64.272 
L 583.318678 65.512185 
L 584.079024 66.456 
L 585.327273 67.771516 
" style="fill:none;stroke:#35b779;stroke-width:1.5;"/>
   </g>
   <g id="LineCollection_6">
    <path clip-path="url(#p00c254fe1e)" d="M 394.992891 249.912 
L 394.510744 249.533635 
L 392.502149 248.081389 
L 392.007267 247.728 
L 390.493554 246.588819 
L 389.257267 245.544 
L 388.484959 244.687532 
L 387.40939 243.36 
L 386.476364 241.904234 
" style="fill:none;stroke:#90d743;stroke-width:1.5;"/>
    <path clip-path="url(#p00c254fe1e)" d="M 585.327273 241.904234 
L 584.394246 243.36 
L 583.318678 244.687532 
L 582.54637 245.544 
L 581.310083 246.588819 
L 579.796369 247.728 
L 579.301488 248.081389 
L 577.292893 249.533635 
L 576.810745 249.912 
" style="fill:none;stroke:#90d743;stroke-width:1.5;"/>
    <path clip-path="url(#p00c254fe1e)" d="M 386.476364 41.703766 
L 387.40939 40.248 
L 388.484959 38.920468 
L 389.257267 38.064 
L 390.493554 37.019181 
L 392.007267 35.88 
L 392.502149 35.526611 
L 394.510744 34.074365 
L 394.992891 33.696 
" style="fill:none;stroke:#90d743;stroke-width:1.5;"/>
    <path clip-path="url(#p00c254fe1e)" d="M 576.810745 33.696 
L 577.292893 34.074365 
L 579.301488 35.526611 
L 579.796369 35.88 
L 581.310083 37.019181 
L 582.54637 38.064 
L 583.318678 38.920468 
L 584.394246 40.248 
L 585.327273 41.703766 
" style="fill:none;stroke:#90d743;stroke-width:1.5;"/>
   </g>
   <g id="LineCollection_7"/>
   <g id="LineCollection_8"/>
   <g id="LineCollection_9">
    <path clip-path="url(#p00c254fe1e)" d="M 484.897521 206.556561 
L 482.888926 206.095455 
L 480.880331 205.560508 
L 476.86314 205.072398 
L 470.837355 204.461067 
L 468.591927 204.048 
L 466.820165 203.456626 
L 464.81157 202.437098 
L 464.005438 201.864 
L 461.605844 199.68 
L 460.79438 199.07971 
L 458.785785 197.977889 
L 456.77719 197.185057 
L 452.76 195.736735 
L 451.88774 195.312 
L 450.751405 194.522461 
L 449.258223 193.128 
L 446.734215 189.484465 
L 446.024156 188.76 
L 444.72562 187.782826 
L 442.451198 186.576 
L 440.70843 185.444608 
L 439.351746 184.392 
L 438.416661 182.208 
L 438.728355 180.024 
L 439.153274 177.84 
L 438.50412 175.656 
L 436.132192 173.472 
L 434.682645 172.37459 
L 433.621327 171.288 
L 432.325623 169.104 
L 430.188021 162.552 
L 428.65686 160.19987 
L 427.71525 158.184 
L 427.881393 156 
L 428.432151 153.816 
L 428.70093 151.632 
L 428.546441 149.448 
L 427.869622 147.264 
L 425.368718 142.896 
L 425.368718 140.712 
L 427.869622 136.344 
L 428.546441 134.16 
L 428.65686 131.555071 
L 428.432151 129.792 
L 427.881393 127.608 
L 427.71525 125.424 
L 428.742837 123.24 
L 430.188021 121.056 
L 430.665455 119.996033 
L 431.049234 118.872 
L 432.325623 114.504 
L 432.67405 113.776876 
L 433.621327 112.32 
L 434.682645 111.23341 
L 436.69124 109.636203 
L 438.50412 107.952 
L 439.153274 105.768 
L 438.699835 103.40786 
L 438.416661 101.4 
L 438.699835 100.637706 
L 439.351746 99.216 
L 440.70843 98.163392 
L 442.717025 96.895794 
L 444.72562 95.825174 
L 446.024156 94.848 
L 446.734215 94.123535 
L 449.258223 90.48 
L 450.751405 89.085539 
L 451.88774 88.296 
L 452.76 87.871265 
L 458.785785 85.630111 
L 460.79438 84.52829 
L 461.605844 83.928 
L 464.81157 81.170902 
L 466.820165 80.151374 
L 468.82876 79.50063 
L 472.84595 78.899583 
L 480.880331 78.047492 
L 484.897521 77.051439 
L 486.906116 77.051439 
L 488.914711 77.512545 
L 490.923306 78.047492 
L 494.940496 78.535602 
L 500.966281 79.146933 
L 503.21171 79.56 
L 504.983471 80.151374 
L 506.992066 81.170902 
L 507.798199 81.744 
L 510.197792 83.928 
L 511.009256 84.52829 
L 513.017851 85.630111 
L 515.026446 86.422943 
L 519.043636 87.871265 
L 519.915896 88.296 
L 521.052231 89.085539 
L 522.545413 90.48 
L 525.069421 94.123535 
L 525.77948 94.848 
L 527.078017 95.825174 
L 529.352438 97.032 
L 531.095207 98.163392 
L 532.451891 99.216 
L 533.386975 101.4 
L 533.075281 103.584 
L 532.650362 105.768 
L 533.299516 107.952 
L 535.671445 110.136 
L 537.120992 111.23341 
L 538.18231 112.32 
L 539.478013 114.504 
L 541.615615 121.056 
L 543.146777 123.40813 
L 544.088387 125.424 
L 543.922244 127.608 
L 543.371485 129.792 
L 543.102706 131.976 
L 543.257196 134.16 
L 543.934015 136.344 
L 546.434918 140.712 
L 546.434918 142.896 
L 543.934015 147.264 
L 543.257196 149.448 
L 543.146777 152.052929 
L 543.371485 153.816 
L 543.922244 156 
L 544.088387 158.184 
L 543.060799 160.368 
L 541.615615 162.552 
L 541.138182 163.611967 
L 540.754402 164.736 
L 539.478013 169.104 
L 539.129587 169.831124 
L 538.18231 171.288 
L 537.120992 172.37459 
L 535.112397 173.971797 
L 533.299516 175.656 
L 532.650362 177.84 
L 533.103802 180.20014 
L 533.386975 182.208 
L 533.103802 182.970294 
L 532.451891 184.392 
L 531.095207 185.444608 
L 529.086612 186.712206 
L 527.078017 187.782826 
L 525.77948 188.76 
L 525.069421 189.484465 
L 522.545413 193.128 
L 521.052231 194.522461 
L 519.915896 195.312 
L 519.043636 195.736735 
L 513.017851 197.977889 
L 511.009256 199.07971 
L 510.197792 199.68 
L 506.992066 202.437098 
L 504.983471 203.456626 
L 502.974876 204.10737 
L 498.957686 204.708417 
L 490.923306 205.560508 
L 486.906116 206.556561 
L 484.897521 206.556561 
L 484.897521 206.556561 
" style="fill:none;stroke:#443983;stroke-width:1.5;"/>
   </g>
   <g id="LineCollection_10">
    <path clip-path="url(#p00c254fe1e)" d="M 468.82876 232.91734 
L 466.820165 231.884056 
L 464.81157 230.936131 
L 462.475299 230.256 
L 454.768595 228.61979 
L 452.76 227.904936 
L 450.751405 226.670736 
L 449.697886 225.888 
L 448.74281 224.991357 
L 446.734215 223.392042 
L 444.72562 222.279061 
L 438.699835 219.742336 
L 437.959985 219.336 
L 436.69124 218.276223 
L 435.557983 217.152 
L 434.078846 214.968 
L 432.190061 212.784 
L 430.665455 211.717414 
L 428.617945 210.6 
L 426.648264 209.126229 
L 425.88929 208.416 
L 424.915463 206.232 
L 424.517866 204.048 
L 423.617349 201.864 
L 421.523575 199.68 
L 420.622479 199.032744 
L 418.613884 197.425536 
L 416.605289 195.020854 
L 414.594903 190.944 
L 412.588099 188.07572 
L 410.579504 185.97116 
L 409.332834 184.392 
L 408.689423 182.208 
L 409.100632 177.84 
L 408.570909 175.372128 
L 407.427717 173.472 
L 405.593001 171.288 
L 404.183219 169.104 
L 403.512454 166.92 
L 403.37469 164.736 
L 403.845032 160.368 
L 403.529237 158.184 
L 401.835575 153.816 
L 401.387306 151.632 
L 401.213943 149.448 
L 401.245189 147.264 
L 401.696842 142.896 
L 401.696842 140.712 
L 401.245189 136.344 
L 401.213943 134.16 
L 401.387306 131.976 
L 401.835575 129.792 
L 402.641526 127.608 
L 403.529237 125.424 
L 403.845032 123.24 
L 403.37469 118.872 
L 403.512454 116.688 
L 404.183219 114.504 
L 404.553719 113.852542 
L 405.593001 112.32 
L 407.427717 110.136 
L 408.726888 107.952 
L 409.100632 105.768 
L 408.689423 101.4 
L 409.332834 99.216 
L 411.091438 97.032 
L 413.167819 94.848 
L 414.596694 92.660402 
L 416.779734 88.296 
L 418.692888 86.112 
L 421.523575 83.928 
L 423.617349 81.744 
L 424.517866 79.56 
L 424.915463 77.376 
L 425.88929 75.192 
L 426.648264 74.481771 
L 428.65686 72.986549 
L 430.665455 71.890586 
L 432.67405 70.385854 
L 434.682645 67.785785 
L 435.557983 66.456 
L 436.69124 65.331777 
L 437.959985 64.272 
L 438.699835 63.865664 
L 442.860875 62.088 
L 444.72562 61.328939 
L 447.177226 59.904 
L 450.751405 56.937264 
L 453.112902 55.536 
L 454.768595 54.98821 
L 458.785785 54.084786 
L 462.802975 53.271797 
L 464.81157 52.671869 
L 468.82876 50.69066 
L 470.837355 50.015855 
L 472.84595 49.714933 
L 474.854545 49.758131 
L 482.888926 50.643658 
L 486.906116 50.724024 
L 490.923306 50.484292 
L 496.949091 49.758131 
L 498.957686 49.714933 
L 500.966281 50.015855 
L 502.974876 50.69066 
L 504.983471 51.723944 
L 506.992066 52.671869 
L 509.328338 53.352 
L 517.035041 54.98821 
L 519.043636 55.703064 
L 521.052231 56.937264 
L 522.105751 57.72 
L 523.060826 58.616643 
L 525.069421 60.215958 
L 527.078017 61.328939 
L 533.103802 63.865664 
L 533.843651 64.272 
L 535.112397 65.331777 
L 536.245653 66.456 
L 537.72479 68.64 
L 539.613575 70.824 
L 541.138182 71.890586 
L 543.185691 73.008 
L 545.155372 74.481771 
L 545.914346 75.192 
L 546.888173 77.376 
L 547.285771 79.56 
L 548.186287 81.744 
L 550.280061 83.928 
L 551.181157 84.575256 
L 553.189752 86.182464 
L 555.198347 88.587146 
L 557.208733 92.664 
L 559.215537 95.53228 
L 561.224132 97.63684 
L 562.470802 99.216 
L 563.114214 101.4 
L 562.703005 105.768 
L 563.232727 108.235872 
L 564.375919 110.136 
L 566.210635 112.32 
L 567.620418 114.504 
L 568.291183 116.688 
L 568.428946 118.872 
L 567.958605 123.24 
L 568.274399 125.424 
L 569.968061 129.792 
L 570.41633 131.976 
L 570.589693 134.16 
L 570.558447 136.344 
L 570.106795 140.712 
L 570.106795 142.896 
L 570.558447 147.264 
L 570.589693 149.448 
L 570.41633 151.632 
L 569.968061 153.816 
L 569.162111 156 
L 568.274399 158.184 
L 567.958605 160.368 
L 568.428946 164.736 
L 568.291183 166.92 
L 567.620418 169.104 
L 567.249917 169.755458 
L 566.210635 171.288 
L 564.375919 173.472 
L 563.076749 175.656 
L 562.703005 177.84 
L 563.114214 182.208 
L 562.470802 184.392 
L 560.712198 186.576 
L 558.635817 188.76 
L 557.206942 190.947598 
L 555.023902 195.312 
L 553.110749 197.496 
L 550.280061 199.68 
L 548.186287 201.864 
L 547.285771 204.048 
L 546.888173 206.232 
L 545.914346 208.416 
L 545.155372 209.126229 
L 543.146777 210.621451 
L 541.138182 211.717414 
L 539.129587 213.222146 
L 537.120992 215.822215 
L 536.245653 217.152 
L 535.112397 218.276223 
L 533.843651 219.336 
L 533.103802 219.742336 
L 528.942761 221.52 
L 527.078017 222.279061 
L 524.626411 223.704 
L 521.052231 226.670736 
L 518.690735 228.072 
L 517.035041 228.61979 
L 513.017851 229.523214 
L 509.000661 230.336203 
L 506.992066 230.936131 
L 502.974876 232.91734 
L 500.966281 233.592145 
L 498.957686 233.893067 
L 496.949091 233.849869 
L 488.914711 232.964342 
L 484.897521 232.883976 
L 480.880331 233.123708 
L 474.854545 233.849869 
L 472.84595 233.893067 
L 470.837355 233.592145 
L 468.82876 232.91734 
L 468.82876 232.91734 
" style="fill:none;stroke:#31688e;stroke-width:1.5;"/>
   </g>
   <g id="LineCollection_11">
    <path clip-path="url(#p00c254fe1e)" d="M 456.908097 249.912 
L 456.77719 249.873641 
L 454.768595 249.363472 
L 452.76 248.898519 
L 450.751405 248.401387 
L 448.74281 247.776318 
L 448.614806 247.728 
L 446.734215 246.868966 
L 444.758386 245.544 
L 444.72562 245.520415 
L 442.717025 244.029706 
L 441.799212 243.36 
L 440.70843 242.777247 
L 438.699835 241.85865 
L 437.04422 241.176 
L 436.69124 241.047577 
L 434.682645 240.291464 
L 432.67405 239.323885 
L 432.13134 238.992 
L 430.665455 237.880504 
L 429.574617 236.808 
L 428.65686 235.88519 
L 427.413805 234.624 
L 426.648264 234.028429 
L 424.639669 232.671361 
L 424.261628 232.44 
L 422.631074 231.58095 
L 420.622479 230.471235 
L 420.278609 230.256 
L 418.613884 229.000728 
L 417.627042 228.072 
L 416.605289 226.835782 
L 415.868983 225.888 
L 414.596694 224.31952 
L 414.027516 223.704 
L 412.588099 222.440771 
L 411.327001 221.52 
L 410.579504 220.975529 
L 408.570909 219.504706 
L 408.361668 219.336 
L 406.574467 217.152 
L 406.562314 217.121738 
L 405.746301 214.968 
L 405.138326 212.784 
L 404.553719 211.544195 
L 404.032131 210.6 
L 402.545124 208.972338 
L 402.028312 208.416 
L 400.536529 206.811746 
L 400.106333 206.232 
L 398.901726 204.048 
L 398.527934 203.208425 
L 397.987605 201.864 
L 396.904419 199.68 
L 396.519339 199.109178 
L 395.275372 197.496 
L 394.510744 196.657393 
L 393.22086 195.312 
L 392.502149 194.365772 
L 391.650215 193.128 
L 390.948792 190.944 
L 390.871587 188.76 
L 390.908891 186.576 
L 390.493554 184.516287 
L 390.465944 184.392 
L 389.222763 182.208 
L 388.484959 181.191224 
L 387.734488 180.024 
L 386.641265 177.84 
L 386.476364 177.323036 
" style="fill:none;stroke:#21918c;stroke-width:1.5;"/>
    <path clip-path="url(#p00c254fe1e)" d="M 585.327273 177.323036 
L 585.162372 177.84 
L 584.069148 180.024 
L 583.318678 181.191224 
L 582.580873 182.208 
L 581.337692 184.392 
L 581.310083 184.516287 
L 580.894745 186.576 
L 580.932049 188.76 
L 580.854844 190.944 
L 580.153421 193.128 
L 579.301488 194.365772 
L 578.582777 195.312 
L 577.292893 196.657393 
L 576.528264 197.496 
L 575.284298 199.109178 
L 574.899217 199.68 
L 573.816032 201.864 
L 573.275702 203.208425 
L 572.90191 204.048 
L 571.697304 206.232 
L 571.267107 206.811746 
L 569.775325 208.416 
L 569.258512 208.972338 
L 567.771505 210.6 
L 567.249917 211.544195 
L 566.66531 212.784 
L 566.057335 214.968 
L 565.241322 217.121738 
L 565.229169 217.152 
L 563.441968 219.336 
L 563.232727 219.504706 
L 561.224132 220.975529 
L 560.476636 221.52 
L 559.215537 222.440771 
L 557.77612 223.704 
L 557.206942 224.31952 
L 555.934653 225.888 
L 555.198347 226.835782 
L 554.176594 228.072 
L 553.189752 229.000728 
L 551.525027 230.256 
L 551.181157 230.471235 
L 549.172562 231.58095 
L 547.542008 232.44 
L 547.163967 232.671361 
L 545.155372 234.028429 
L 544.389832 234.624 
L 543.146777 235.88519 
L 542.229019 236.808 
L 541.138182 237.880504 
L 539.672296 238.992 
L 539.129587 239.323885 
L 537.120992 240.291464 
L 535.112397 241.047577 
L 534.759416 241.176 
L 533.103802 241.85865 
L 531.095207 242.777247 
L 530.004424 243.36 
L 529.086612 244.029706 
L 527.078017 245.520415 
L 527.04525 245.544 
L 525.069421 246.868966 
L 523.188831 247.728 
L 523.060826 247.776318 
L 521.052231 248.401387 
L 519.043636 248.898519 
L 517.035041 249.363472 
L 515.026446 249.873641 
L 514.895539 249.912 
" style="fill:none;stroke:#21918c;stroke-width:1.5;"/>
    <path clip-path="url(#p00c254fe1e)" d="M 386.476364 106.284964 
L 386.641265 105.768 
L 387.734488 103.584 
L 388.484959 102.416776 
L 389.222763 101.4 
L 390.465944 99.216 
L 390.493554 99.091713 
L 390.908891 97.032 
L 390.871587 94.848 
L 390.948792 92.664 
L 391.650215 90.48 
L 392.502149 89.242228 
L 393.22086 88.296 
L 394.510744 86.950607 
L 395.275372 86.112 
L 396.519339 84.498822 
L 396.904419 83.928 
L 397.987605 81.744 
L 398.527934 80.399575 
L 398.901726 79.56 
L 400.106333 77.376 
L 400.536529 76.796254 
L 402.028312 75.192 
L 402.545124 74.635662 
L 404.032131 73.008 
L 404.553719 72.063805 
L 405.138326 70.824 
L 405.746301 68.64 
L 406.562314 66.486262 
L 406.574467 66.456 
L 408.361668 64.272 
L 408.570909 64.103294 
L 410.579504 62.632471 
L 411.327001 62.088 
L 412.588099 61.167229 
L 414.027516 59.904 
L 414.596694 59.28848 
L 415.868983 57.72 
L 416.605289 56.772218 
L 417.627042 55.536 
L 418.613884 54.607272 
L 420.278609 53.352 
L 420.622479 53.136765 
L 422.631074 52.02705 
L 424.261628 51.168 
L 424.639669 50.936639 
L 426.648264 49.579571 
L 427.413805 48.984 
L 428.65686 47.72281 
L 429.574617 46.8 
L 430.665455 45.727496 
L 432.13134 44.616 
L 432.67405 44.284115 
L 434.682645 43.316536 
L 436.69124 42.560423 
L 437.04422 42.432 
L 438.699835 41.74935 
L 440.70843 40.830753 
L 441.799212 40.248 
L 442.717025 39.578294 
L 444.72562 38.087585 
L 444.758386 38.064 
L 446.734215 36.739034 
L 448.614806 35.88 
L 448.74281 35.831682 
L 450.751405 35.206613 
L 452.76 34.709481 
L 454.768595 34.244528 
L 456.77719 33.734359 
L 456.908097 33.696 
" style="fill:none;stroke:#21918c;stroke-width:1.5;"/>
    <path clip-path="url(#p00c254fe1e)" d="M 514.895539 33.696 
L 515.026446 33.734359 
L 517.035041 34.244528 
L 519.043636 34.709481 
L 521.052231 35.206613 
L 523.060826 35.831682 
L 523.188831 35.88 
L 525.069421 36.739034 
L 527.04525 38.064 
L 527.078017 38.087585 
L 529.086612 39.578294 
L 530.004424 40.248 
L 531.095207 40.830753 
L 533.103802 41.74935 
L 534.759416 42.432 
L 535.112397 42.560423 
L 537.120992 43.316536 
L 539.129587 44.284115 
L 539.672296 44.616 
L 541.138182 45.727496 
L 542.229019 46.8 
L 543.146777 47.72281 
L 544.389832 48.984 
L 545.155372 49.579571 
L 547.163967 50.936639 
L 547.542008 51.168 
L 549.172562 52.02705 
L 551.181157 53.136765 
L 551.525027 53.352 
L 553.189752 54.607272 
L 554.176594 55.536 
L 555.198347 56.772218 
L 555.934653 57.72 
L 557.206942 59.28848 
L 557.77612 59.904 
L 559.215537 61.167229 
L 560.476636 62.088 
L 561.224132 62.632471 
L 563.232727 64.103294 
L 563.441968 64.272 
L 565.229169 66.456 
L 565.241322 66.486262 
L 566.057335 68.64 
L 566.66531 70.824 
L 567.249917 72.063805 
L 567.771505 73.008 
L 569.258512 74.635662 
L 569.775325 75.192 
L 571.267107 76.796254 
L 571.697304 77.376 
L 572.90191 79.56 
L 573.275702 80.399575 
L 573.816032 81.744 
L 574.899217 83.928 
L 575.284298 84.498822 
L 576.528264 86.112 
L 577.292893 86.950607 
L 578.582777 88.296 
L 579.301488 89.242228 
L 580.153421 90.48 
L 580.854844 92.664 
L 580.932049 94.848 
L 580.894745 97.032 
L 581.310083 99.091713 
L 581.337692 99.216 
L 582.580873 101.4 
L 583.318678 102.416776 
L 584.069148 103.584 
L 585.162372 105.768 
L 585.327273 106.284964 
" style="fill:none;stroke:#21918c;stroke-width:1.5;"/>
   </g>
   <g id="LineCollection_12">
    <path clip-path="url(#p00c254fe1e)" d="M 417.911814 249.912 
L 416.605289 249.20945 
L 414.596694 247.743799 
L 414.57923 247.728 
L 412.623455 245.544 
L 412.588099 245.504166 
L 410.712282 243.36 
L 410.579504 243.243588 
L 408.570909 241.656119 
L 407.908283 241.176 
L 406.562314 240.340541 
L 404.553719 239.022442 
L 404.511907 238.992 
L 402.545124 237.303325 
L 402.07023 236.808 
L 400.536529 234.825241 
L 400.39008 234.624 
L 398.725827 232.44 
L 398.527934 232.218515 
L 396.519339 230.328745 
L 396.431729 230.256 
L 394.510744 228.677225 
L 393.776822 228.072 
L 392.502149 226.625308 
L 391.925254 225.888 
L 390.974538 223.704 
L 390.493554 221.96319 
L 390.365905 221.52 
L 389.42758 219.336 
L 388.484959 218.095815 
L 387.724612 217.152 
L 386.476364 215.836484 
" style="fill:none;stroke:#35b779;stroke-width:1.5;"/>
    <path clip-path="url(#p00c254fe1e)" d="M 585.327273 215.836484 
L 584.079024 217.152 
L 583.318678 218.095815 
L 582.376056 219.336 
L 581.437731 221.52 
L 581.310083 221.96319 
L 580.829098 223.704 
L 579.878383 225.888 
L 579.301488 226.625308 
L 578.026815 228.072 
L 577.292893 228.677225 
L 575.371908 230.256 
L 575.284298 230.328745 
L 573.275702 232.218515 
L 573.077809 232.44 
L 571.413556 234.624 
L 571.267107 234.825241 
L 569.733406 236.808 
L 569.258512 237.303325 
L 567.291729 238.992 
L 567.249917 239.022442 
L 565.241322 240.340541 
L 563.895353 241.176 
L 563.232727 241.656119 
L 561.224132 243.243588 
L 561.091355 243.36 
L 559.215537 245.504166 
L 559.180181 245.544 
L 557.224407 247.728 
L 557.206942 247.743799 
L 555.198347 249.20945 
L 553.891823 249.912 
" style="fill:none;stroke:#35b779;stroke-width:1.5;"/>
    <path clip-path="url(#p00c254fe1e)" d="M 386.476364 67.771516 
L 387.724612 66.456 
L 388.484959 65.512185 
L 389.42758 64.272 
L 390.365905 62.088 
L 390.493554 61.64481 
L 390.974538 59.904 
L 391.925254 57.72 
L 392.502149 56.982692 
L 393.776822 55.536 
L 394.510744 54.930775 
L 396.431729 53.352 
L 396.519339 53.279255 
L 398.527934 51.389485 
L 398.725827 51.168 
L 400.39008 48.984 
L 400.536529 48.782759 
L 402.07023 46.8 
L 402.545124 46.304675 
L 404.511907 44.616 
L 404.553719 44.585558 
L 406.562314 43.267459 
L 407.908283 42.432 
L 408.570909 41.951881 
L 410.579504 40.364412 
L 410.712282 40.248 
L 412.588099 38.103834 
L 412.623455 38.064 
L 414.57923 35.88 
L 414.596694 35.864201 
L 416.605289 34.39855 
L 417.911814 33.696 
" style="fill:none;stroke:#35b779;stroke-width:1.5;"/>
    <path clip-path="url(#p00c254fe1e)" d="M 553.891823 33.696 
L 555.198347 34.39855 
L 557.206942 35.864201 
L 557.224407 35.88 
L 559.180181 38.064 
L 559.215537 38.103834 
L 561.091355 40.248 
L 561.224132 40.364412 
L 563.232727 41.951881 
L 563.895353 42.432 
L 565.241322 43.267459 
L 567.249917 44.585558 
L 567.291729 44.616 
L 569.258512 46.304675 
L 569.733406 46.8 
L 571.267107 48.782759 
L 571.413556 48.984 
L 573.077809 51.168 
L 573.275702 51.389485 
L 575.284298 53.279255 
L 575.371908 53.352 
L 577.292893 54.930775 
L 578.026815 55.536 
L 579.301488 56.982692 
L 579.878383 57.72 
L 580.829098 59.904 
L 581.310083 61.64481 
L 581.437731 62.088 
L 582.376056 64.272 
L 583.318678 65.512185 
L 584.079024 66.456 
L 585.327273 67.771516 
" style="fill:none;stroke:#35b779;stroke-width:1.5;"/>
   </g>
   <g id="LineCollection_13">
    <path clip-path="url(#p00c254fe1e)" d="M 394.992891 249.912 
L 394.510744 249.533635 
L 392.502149 248.081389 
L 392.007267 247.728 
L 390.493554 246.588819 
L 389.257267 245.544 
L 388.484959 244.687532 
L 387.40939 243.36 
L 386.476364 241.904234 
" style="fill:none;stroke:#90d743;stroke-width:1.5;"/>
    <path clip-path="url(#p00c254fe1e)" d="M 585.327273 241.904234 
L 584.394246 243.36 
L 583.318678 244.687532 
L 582.54637 245.544 
L 581.310083 246.588819 
L 579.796369 247.728 
L 579.301488 248.081389 
L 577.292893 249.533635 
L 576.810745 249.912 
" style="fill:none;stroke:#90d743;stroke-width:1.5;"/>
    <path clip-path="url(#p00c254fe1e)" d="M 386.476364 41.703766 
L 387.40939 40.248 
L 388.484959 38.920468 
L 389.257267 38.064 
L 390.493554 37.019181 
L 392.007267 35.88 
L 392.502149 35.526611 
L 394.510744 34.074365 
L 394.992891 33.696 
" style="fill:none;stroke:#90d743;stroke-width:1.5;"/>
    <path clip-path="url(#p00c254fe1e)" d="M 576.810745 33.696 
L 577.292893 34.074365 
L 579.301488 35.526611 
L 579.796369 35.88 
L 581.310083 37.019181 
L 582.54637 38.064 
L 583.318678 38.920468 
L 584.394246 40.248 
L 585.327273 41.703766 
" style="fill:none;stroke:#90d743;stroke-width:1.5;"/>
   </g>
   <g id="LineCollection_14"/>
   <g id="patch_8">
    <path d="M 386.476364 249.912 
L 386.476364 33.696 
" style="fill:none;stroke:#000000;stroke-linecap:square;stroke-linejoin:miter;stroke-width:0.8;"/>
   </g>
   <g id="patch_9">
    <path d="M 585.327273 249.912 
L 585.327273 33.696 
" style="fill:none;stroke:#000000;stroke-linecap:square;stroke-linejoin:miter;stroke-width:0.8;"/>
   </g>
   <g id="patch_10">
    <path d="M 386.476364 249.912 
L 585.327273 249.912 
" style="fill:none;stroke:#000000;stroke-linecap:square;stroke-linejoin:miter;stroke-width:0.8;"/>
   </g>
   <g id="patch_11">
    <path d="M 386.476364 33.696 
L 585.327273 33.696 
" style="fill:none;stroke:#000000;stroke-linecap:square;stroke-linejoin:miter;stroke-width:0.8;"/>
   </g>
  </g>
  <g id="axes_3">
   <g id="patch_12">
    <path clip-path="url(#p67f3fb95f6)" d="M 597.755455 249.912 
L 597.755455 213.876 
L 597.755455 69.732 
L 597.755455 33.696 
L 608.566255 33.696 
L 608.566255 69.732 
L 608.566255 213.876 
L 608.566255 249.912 
z
" style="fill:#ffffff;stroke:#ffffff;stroke-linejoin:miter;stroke-width:0.01;"/>
   </g>
   <g id="matplotlib.axis_5"/>
   <g id="matplotlib.axis_6">
    <g id="ytick_15">
     <g id="line2d_26">
      <defs>
       <path d="M 0 0 
L 3.5 0 
" id="m302b4d4715" style="stroke:#000000;stroke-width:0.8;"/>
      </defs>
      <g>
       <use style="stroke:#000000;stroke-width:0.8;" x="608.566255" xlink:href="#m302b4d4715" y="249.912"/>
      </g>
     </g>
     <g id="text_25">
      <!-- 0 -->
      <g transform="translate(615.566255 253.711219)scale(0.1 -0.1)">
       <use xlink:href="#DejaVuSans-48"/>
      </g>
     </g>
    </g>
    <g id="ytick_16">
     <g id="line2d_27">
      <g>
       <use style="stroke:#000000;stroke-width:0.8;" x="608.566255" xlink:href="#m302b4d4715" y="213.876"/>
      </g>
     </g>
     <g id="text_26">
      <!-- 15 -->
      <g transform="translate(615.566255 217.675219)scale(0.1 -0.1)">
       <defs>
        <path d="M 10.796875 72.90625 
L 49.515625 72.90625 
L 49.515625 64.59375 
L 19.828125 64.59375 
L 19.828125 46.734375 
Q 21.96875 47.46875 24.109375 47.828125 
Q 26.265625 48.1875 28.421875 48.1875 
Q 40.625 48.1875 47.75 41.5 
Q 54.890625 34.8125 54.890625 23.390625 
Q 54.890625 11.625 47.5625 5.09375 
Q 40.234375 -1.421875 26.90625 -1.421875 
Q 22.3125 -1.421875 17.546875 -0.640625 
Q 12.796875 0.140625 7.71875 1.703125 
L 7.71875 11.625 
Q 12.109375 9.234375 16.796875 8.0625 
Q 21.484375 6.890625 26.703125 6.890625 
Q 35.15625 6.890625 40.078125 11.328125 
Q 45.015625 15.765625 45.015625 23.390625 
Q 45.015625 31 40.078125 35.4375 
Q 35.15625 39.890625 26.703125 39.890625 
Q 22.75 39.890625 18.8125 39.015625 
Q 14.890625 38.140625 10.796875 36.28125 
z
" id="DejaVuSans-53"/>
       </defs>
       <use xlink:href="#DejaVuSans-49"/>
       <use x="63.623047" xlink:href="#DejaVuSans-53"/>
      </g>
     </g>
    </g>
    <g id="ytick_17">
     <g id="line2d_28">
      <g>
       <use style="stroke:#000000;stroke-width:0.8;" x="608.566255" xlink:href="#m302b4d4715" y="177.84"/>
      </g>
     </g>
     <g id="text_27">
      <!-- 30 -->
      <g transform="translate(615.566255 181.639219)scale(0.1 -0.1)">
       <use xlink:href="#DejaVuSans-51"/>
       <use x="63.623047" xlink:href="#DejaVuSans-48"/>
      </g>
     </g>
    </g>
    <g id="ytick_18">
     <g id="line2d_29">
      <g>
       <use style="stroke:#000000;stroke-width:0.8;" x="608.566255" xlink:href="#m302b4d4715" y="141.804"/>
      </g>
     </g>
     <g id="text_28">
      <!-- 45 -->
      <g transform="translate(615.566255 145.603219)scale(0.1 -0.1)">
       <use xlink:href="#DejaVuSans-52"/>
       <use x="63.623047" xlink:href="#DejaVuSans-53"/>
      </g>
     </g>
    </g>
    <g id="ytick_19">
     <g id="line2d_30">
      <g>
       <use style="stroke:#000000;stroke-width:0.8;" x="608.566255" xlink:href="#m302b4d4715" y="105.768"/>
      </g>
     </g>
     <g id="text_29">
      <!-- 60 -->
      <g transform="translate(615.566255 109.567219)scale(0.1 -0.1)">
       <defs>
        <path d="M 33.015625 40.375 
Q 26.375 40.375 22.484375 35.828125 
Q 18.609375 31.296875 18.609375 23.390625 
Q 18.609375 15.53125 22.484375 10.953125 
Q 26.375 6.390625 33.015625 6.390625 
Q 39.65625 6.390625 43.53125 10.953125 
Q 47.40625 15.53125 47.40625 23.390625 
Q 47.40625 31.296875 43.53125 35.828125 
Q 39.65625 40.375 33.015625 40.375 
z
M 52.59375 71.296875 
L 52.59375 62.3125 
Q 48.875 64.0625 45.09375 64.984375 
Q 41.3125 65.921875 37.59375 65.921875 
Q 27.828125 65.921875 22.671875 59.328125 
Q 17.53125 52.734375 16.796875 39.40625 
Q 19.671875 43.65625 24.015625 45.921875 
Q 28.375 48.1875 33.59375 48.1875 
Q 44.578125 48.1875 50.953125 41.515625 
Q 57.328125 34.859375 57.328125 23.390625 
Q 57.328125 12.15625 50.6875 5.359375 
Q 44.046875 -1.421875 33.015625 -1.421875 
Q 20.359375 -1.421875 13.671875 8.265625 
Q 6.984375 17.96875 6.984375 36.375 
Q 6.984375 53.65625 15.1875 63.9375 
Q 23.390625 74.21875 37.203125 74.21875 
Q 40.921875 74.21875 44.703125 73.484375 
Q 48.484375 72.75 52.59375 71.296875 
z
" id="DejaVuSans-54"/>
       </defs>
       <use xlink:href="#DejaVuSans-54"/>
       <use x="63.623047" xlink:href="#DejaVuSans-48"/>
      </g>
     </g>
    </g>
    <g id="ytick_20">
     <g id="line2d_31">
      <g>
       <use style="stroke:#000000;stroke-width:0.8;" x="608.566255" xlink:href="#m302b4d4715" y="69.732"/>
      </g>
     </g>
     <g id="text_30">
      <!-- 75 -->
      <g transform="translate(615.566255 73.531219)scale(0.1 -0.1)">
       <defs>
        <path d="M 8.203125 72.90625 
L 55.078125 72.90625 
L 55.078125 68.703125 
L 28.609375 0 
L 18.3125 0 
L 43.21875 64.59375 
L 8.203125 64.59375 
z
" id="DejaVuSans-55"/>
       </defs>
       <use xlink:href="#DejaVuSans-55"/>
       <use x="63.623047" xlink:href="#DejaVuSans-53"/>
      </g>
     </g>
    </g>
    <g id="ytick_21">
     <g id="line2d_32">
      <g>
       <use style="stroke:#000000;stroke-width:0.8;" x="608.566255" xlink:href="#m302b4d4715" y="33.696"/>
      </g>
     </g>
     <g id="text_31">
      <!-- 90 -->
      <g transform="translate(615.566255 37.495219)scale(0.1 -0.1)">
       <defs>
        <path d="M 10.984375 1.515625 
L 10.984375 10.5 
Q 14.703125 8.734375 18.5 7.8125 
Q 22.3125 6.890625 25.984375 6.890625 
Q 35.75 6.890625 40.890625 13.453125 
Q 46.046875 20.015625 46.78125 33.40625 
Q 43.953125 29.203125 39.59375 26.953125 
Q 35.25 24.703125 29.984375 24.703125 
Q 19.046875 24.703125 12.671875 31.3125 
Q 6.296875 37.9375 6.296875 49.421875 
Q 6.296875 60.640625 12.9375 67.421875 
Q 19.578125 74.21875 30.609375 74.21875 
Q 43.265625 74.21875 49.921875 64.515625 
Q 56.59375 54.828125 56.59375 36.375 
Q 56.59375 19.140625 48.40625 8.859375 
Q 40.234375 -1.421875 26.421875 -1.421875 
Q 22.703125 -1.421875 18.890625 -0.6875 
Q 15.09375 0.046875 10.984375 1.515625 
z
M 30.609375 32.421875 
Q 37.25 32.421875 41.125 36.953125 
Q 45.015625 41.5 45.015625 49.421875 
Q 45.015625 57.28125 41.125 61.84375 
Q 37.25 66.40625 30.609375 66.40625 
Q 23.96875 66.40625 20.09375 61.84375 
Q 16.21875 57.28125 16.21875 49.421875 
Q 16.21875 41.5 20.09375 36.953125 
Q 23.96875 32.421875 30.609375 32.421875 
z
" id="DejaVuSans-57"/>
       </defs>
       <use xlink:href="#DejaVuSans-57"/>
       <use x="63.623047" xlink:href="#DejaVuSans-48"/>
      </g>
     </g>
    </g>
    <g id="text_32">
     <!-- koszt -->
     <g transform="translate(639.889692 154.7665)rotate(-90)scale(0.1 -0.1)">
      <defs>
       <path d="M 9.078125 75.984375 
L 18.109375 75.984375 
L 18.109375 31.109375 
L 44.921875 54.6875 
L 56.390625 54.6875 
L 27.390625 29.109375 
L 57.625 0 
L 45.90625 0 
L 18.109375 26.703125 
L 18.109375 0 
L 9.078125 0 
z
" id="DejaVuSans-107"/>
       <path d="M 30.609375 48.390625 
Q 23.390625 48.390625 19.1875 42.75 
Q 14.984375 37.109375 14.984375 27.296875 
Q 14.984375 17.484375 19.15625 11.84375 
Q 23.34375 6.203125 30.609375 6.203125 
Q 37.796875 6.203125 41.984375 11.859375 
Q 46.1875 17.53125 46.1875 27.296875 
Q 46.1875 37.015625 41.984375 42.703125 
Q 37.796875 48.390625 30.609375 48.390625 
z
M 30.609375 56 
Q 42.328125 56 49.015625 48.375 
Q 55.71875 40.765625 55.71875 27.296875 
Q 55.71875 13.875 49.015625 6.21875 
Q 42.328125 -1.421875 30.609375 -1.421875 
Q 18.84375 -1.421875 12.171875 6.21875 
Q 5.515625 13.875 5.515625 27.296875 
Q 5.515625 40.765625 12.171875 48.375 
Q 18.84375 56 30.609375 56 
z
" id="DejaVuSans-111"/>
       <path d="M 44.28125 53.078125 
L 44.28125 44.578125 
Q 40.484375 46.53125 36.375 47.5 
Q 32.28125 48.484375 27.875 48.484375 
Q 21.1875 48.484375 17.84375 46.4375 
Q 14.5 44.390625 14.5 40.28125 
Q 14.5 37.15625 16.890625 35.375 
Q 19.28125 33.59375 26.515625 31.984375 
L 29.59375 31.296875 
Q 39.15625 29.25 43.1875 25.515625 
Q 47.21875 21.78125 47.21875 15.09375 
Q 47.21875 7.46875 41.1875 3.015625 
Q 35.15625 -1.421875 24.609375 -1.421875 
Q 20.21875 -1.421875 15.453125 -0.5625 
Q 10.6875 0.296875 5.421875 2 
L 5.421875 11.28125 
Q 10.40625 8.6875 15.234375 7.390625 
Q 20.0625 6.109375 24.8125 6.109375 
Q 31.15625 6.109375 34.5625 8.28125 
Q 37.984375 10.453125 37.984375 14.40625 
Q 37.984375 18.0625 35.515625 20.015625 
Q 33.0625 21.96875 24.703125 23.78125 
L 21.578125 24.515625 
Q 13.234375 26.265625 9.515625 29.90625 
Q 5.8125 33.546875 5.8125 39.890625 
Q 5.8125 47.609375 11.28125 51.796875 
Q 16.75 56 26.8125 56 
Q 31.78125 56 36.171875 55.265625 
Q 40.578125 54.546875 44.28125 53.078125 
z
" id="DejaVuSans-115"/>
       <path d="M 5.515625 54.6875 
L 48.1875 54.6875 
L 48.1875 46.484375 
L 14.40625 7.171875 
L 48.1875 7.171875 
L 48.1875 0 
L 4.296875 0 
L 4.296875 8.203125 
L 38.09375 47.515625 
L 5.515625 47.515625 
z
" id="DejaVuSans-122"/>
       <path d="M 18.3125 70.21875 
L 18.3125 54.6875 
L 36.8125 54.6875 
L 36.8125 47.703125 
L 18.3125 47.703125 
L 18.3125 18.015625 
Q 18.3125 11.328125 20.140625 9.421875 
Q 21.96875 7.515625 27.59375 7.515625 
L 36.8125 7.515625 
L 36.8125 0 
L 27.59375 0 
Q 17.1875 0 13.234375 3.875 
Q 9.28125 7.765625 9.28125 18.015625 
L 9.28125 47.703125 
L 2.6875 47.703125 
L 2.6875 54.6875 
L 9.28125 54.6875 
L 9.28125 70.21875 
z
" id="DejaVuSans-116"/>
      </defs>
      <use xlink:href="#DejaVuSans-107"/>
      <use x="54.285156" xlink:href="#DejaVuSans-111"/>
      <use x="115.466797" xlink:href="#DejaVuSans-115"/>
      <use x="167.566406" xlink:href="#DejaVuSans-122"/>
      <use x="220.056641" xlink:href="#DejaVuSans-116"/>
     </g>
    </g>
   </g>
   <g id="LineCollection_15">
    <path clip-path="url(#p67f3fb95f6)" d="M 597.755455 249.912 
L 608.566255 249.912 
" style="fill:none;stroke:#440154;stroke-width:1.5;"/>
    <path clip-path="url(#p67f3fb95f6)" d="M 597.755455 213.876 
L 608.566255 213.876 
" style="fill:none;stroke:#443983;stroke-width:1.5;"/>
    <path clip-path="url(#p67f3fb95f6)" d="M 597.755455 177.84 
L 608.566255 177.84 
" style="fill:none;stroke:#31688e;stroke-width:1.5;"/>
    <path clip-path="url(#p67f3fb95f6)" d="M 597.755455 141.804 
L 608.566255 141.804 
" style="fill:none;stroke:#21918c;stroke-width:1.5;"/>
    <path clip-path="url(#p67f3fb95f6)" d="M 597.755455 105.768 
L 608.566255 105.768 
" style="fill:none;stroke:#35b779;stroke-width:1.5;"/>
    <path clip-path="url(#p67f3fb95f6)" d="M 597.755455 69.732 
L 608.566255 69.732 
" style="fill:none;stroke:#90d743;stroke-width:1.5;"/>
    <path clip-path="url(#p67f3fb95f6)" d="M 597.755455 33.696 
L 608.566255 33.696 
" style="fill:none;stroke:#fde725;stroke-width:1.5;"/>
   </g>
   <g id="patch_13">
    <path d="M 597.755455 249.912 
L 597.755455 213.876 
L 597.755455 69.732 
L 597.755455 33.696 
L 608.566255 33.696 
L 608.566255 69.732 
L 608.566255 213.876 
L 608.566255 249.912 
z
" style="fill:none;stroke:#000000;stroke-linejoin:miter;stroke-width:0.8;"/>
   </g>
  </g>
 </g>
 <defs>
  <clipPath id="pad8416d02c">
   <rect height="216.216" width="248.563636" x="88.2" y="33.696"/>
  </clipPath>
  <clipPath id="p00c254fe1e">
   <rect height="216.216" width="198.850909" x="386.476364" y="33.696"/>
  </clipPath>
  <clipPath id="p67f3fb95f6">
   <rect height="216.216" width="10.8108" x="597.755455" y="33.696"/>
  </clipPath>
 </defs>
</svg>
