<?xml version="1.0" encoding="utf-8" standalone="no"?>
<!DOCTYPE svg PUBLIC "-//W3C//DTD SVG 1.1//EN"
  "http://www.w3.org/Graphics/SVG/1.1/DTD/svg11.dtd">
<!-- Created with matplotlib (https://matplotlib.org/) -->
<svg height="432pt" version="1.1" viewBox="0 0 1080 432" width="1080pt" xmlns="http://www.w3.org/2000/svg" xmlns:xlink="http://www.w3.org/1999/xlink">
 <metadata>
  <rdf:RDF xmlns:cc="http://creativecommons.org/ns#" xmlns:dc="http://purl.org/dc/elements/1.1/" xmlns:rdf="http://www.w3.org/1999/02/22-rdf-syntax-ns#">
   <cc:Work>
    <dc:type rdf:resource="http://purl.org/dc/dcmitype/StillImage"/>
    <dc:date>2020-12-15T03:50:41.663707</dc:date>
    <dc:format>image/svg+xml</dc:format>
    <dc:creator>
     <cc:Agent>
      <dc:title>Matplotlib v3.3.3, https://matplotlib.org/</dc:title>
     </cc:Agent>
    </dc:creator>
   </cc:Work>
  </rdf:RDF>
 </metadata>
 <defs>
  <style type="text/css">*{stroke-linecap:butt;stroke-linejoin:round;}</style>
 </defs>
 <g id="figure_1">
  <g id="patch_1">
   <path d="M 0 432 
L 1080 432 
L 1080 0 
L 0 0 
z
" style="fill:#ffffff;"/>
  </g>
  <g id="axes_1">
   <g id="patch_2">
    <path d="M 135 384.48 
L 515.454545 384.48 
L 515.454545 51.84 
L 135 51.84 
z
" style="fill:#ffffff;"/>
   </g>
   <g id="matplotlib.axis_1">
    <g id="xtick_1">
     <g id="line2d_1">
      <defs>
       <path d="M 0 0 
L 0 3.5 
" id="ma8cc55dd22" style="stroke:#000000;stroke-width:0.8;"/>
      </defs>
      <g>
       <use style="stroke:#000000;stroke-width:0.8;" x="152.293388" xlink:href="#ma8cc55dd22" y="384.48"/>
      </g>
     </g>
     <g id="text_1">
      <!-- −40 -->
      <g transform="translate(141.741045 399.078438)scale(0.1 -0.1)">
       <defs>
        <path d="M 10.59375 35.5 
L 73.1875 35.5 
L 73.1875 27.203125 
L 10.59375 27.203125 
z
" id="DejaVuSans-8722"/>
        <path d="M 37.796875 64.3125 
L 12.890625 25.390625 
L 37.796875 25.390625 
z
M 35.203125 72.90625 
L 47.609375 72.90625 
L 47.609375 25.390625 
L 58.015625 25.390625 
L 58.015625 17.1875 
L 47.609375 17.1875 
L 47.609375 0 
L 37.796875 0 
L 37.796875 17.1875 
L 4.890625 17.1875 
L 4.890625 26.703125 
z
" id="DejaVuSans-52"/>
        <path d="M 31.78125 66.40625 
Q 24.171875 66.40625 20.328125 58.90625 
Q 16.5 51.421875 16.5 36.375 
Q 16.5 21.390625 20.328125 13.890625 
Q 24.171875 6.390625 31.78125 6.390625 
Q 39.453125 6.390625 43.28125 13.890625 
Q 47.125 21.390625 47.125 36.375 
Q 47.125 51.421875 43.28125 58.90625 
Q 39.453125 66.40625 31.78125 66.40625 
z
M 31.78125 74.21875 
Q 44.046875 74.21875 50.515625 64.515625 
Q 56.984375 54.828125 56.984375 36.375 
Q 56.984375 17.96875 50.515625 8.265625 
Q 44.046875 -1.421875 31.78125 -1.421875 
Q 19.53125 -1.421875 13.0625 8.265625 
Q 6.59375 17.96875 6.59375 36.375 
Q 6.59375 54.828125 13.0625 64.515625 
Q 19.53125 74.21875 31.78125 74.21875 
z
" id="DejaVuSans-48"/>
       </defs>
       <use xlink:href="#DejaVuSans-8722"/>
       <use x="83.789062" xlink:href="#DejaVuSans-52"/>
       <use x="147.412109" xlink:href="#DejaVuSans-48"/>
      </g>
     </g>
    </g>
    <g id="xtick_2">
     <g id="line2d_2">
      <g>
       <use style="stroke:#000000;stroke-width:0.8;" x="195.52686" xlink:href="#ma8cc55dd22" y="384.48"/>
      </g>
     </g>
     <g id="text_2">
      <!-- −30 -->
      <g transform="translate(184.974516 399.078438)scale(0.1 -0.1)">
       <defs>
        <path d="M 40.578125 39.3125 
Q 47.65625 37.796875 51.625 33 
Q 55.609375 28.21875 55.609375 21.1875 
Q 55.609375 10.40625 48.1875 4.484375 
Q 40.765625 -1.421875 27.09375 -1.421875 
Q 22.515625 -1.421875 17.65625 -0.515625 
Q 12.796875 0.390625 7.625 2.203125 
L 7.625 11.71875 
Q 11.71875 9.328125 16.59375 8.109375 
Q 21.484375 6.890625 26.8125 6.890625 
Q 36.078125 6.890625 40.9375 10.546875 
Q 45.796875 14.203125 45.796875 21.1875 
Q 45.796875 27.640625 41.28125 31.265625 
Q 36.765625 34.90625 28.71875 34.90625 
L 20.21875 34.90625 
L 20.21875 43.015625 
L 29.109375 43.015625 
Q 36.375 43.015625 40.234375 45.921875 
Q 44.09375 48.828125 44.09375 54.296875 
Q 44.09375 59.90625 40.109375 62.90625 
Q 36.140625 65.921875 28.71875 65.921875 
Q 24.65625 65.921875 20.015625 65.03125 
Q 15.375 64.15625 9.8125 62.3125 
L 9.8125 71.09375 
Q 15.4375 72.65625 20.34375 73.4375 
Q 25.25 74.21875 29.59375 74.21875 
Q 40.828125 74.21875 47.359375 69.109375 
Q 53.90625 64.015625 53.90625 55.328125 
Q 53.90625 49.265625 50.4375 45.09375 
Q 46.96875 40.921875 40.578125 39.3125 
z
" id="DejaVuSans-51"/>
       </defs>
       <use xlink:href="#DejaVuSans-8722"/>
       <use x="83.789062" xlink:href="#DejaVuSans-51"/>
       <use x="147.412109" xlink:href="#DejaVuSans-48"/>
      </g>
     </g>
    </g>
    <g id="xtick_3">
     <g id="line2d_3">
      <g>
       <use style="stroke:#000000;stroke-width:0.8;" x="238.760331" xlink:href="#ma8cc55dd22" y="384.48"/>
      </g>
     </g>
     <g id="text_3">
      <!-- −20 -->
      <g transform="translate(228.207987 399.078438)scale(0.1 -0.1)">
       <defs>
        <path d="M 19.1875 8.296875 
L 53.609375 8.296875 
L 53.609375 0 
L 7.328125 0 
L 7.328125 8.296875 
Q 12.9375 14.109375 22.625 23.890625 
Q 32.328125 33.6875 34.8125 36.53125 
Q 39.546875 41.84375 41.421875 45.53125 
Q 43.3125 49.21875 43.3125 52.78125 
Q 43.3125 58.59375 39.234375 62.25 
Q 35.15625 65.921875 28.609375 65.921875 
Q 23.96875 65.921875 18.8125 64.3125 
Q 13.671875 62.703125 7.8125 59.421875 
L 7.8125 69.390625 
Q 13.765625 71.78125 18.9375 73 
Q 24.125 74.21875 28.421875 74.21875 
Q 39.75 74.21875 46.484375 68.546875 
Q 53.21875 62.890625 53.21875 53.421875 
Q 53.21875 48.921875 51.53125 44.890625 
Q 49.859375 40.875 45.40625 35.40625 
Q 44.1875 33.984375 37.640625 27.21875 
Q 31.109375 20.453125 19.1875 8.296875 
z
" id="DejaVuSans-50"/>
       </defs>
       <use xlink:href="#DejaVuSans-8722"/>
       <use x="83.789062" xlink:href="#DejaVuSans-50"/>
       <use x="147.412109" xlink:href="#DejaVuSans-48"/>
      </g>
     </g>
    </g>
    <g id="xtick_4">
     <g id="line2d_4">
      <g>
       <use style="stroke:#000000;stroke-width:0.8;" x="281.993802" xlink:href="#ma8cc55dd22" y="384.48"/>
      </g>
     </g>
     <g id="text_4">
      <!-- −10 -->
      <g transform="translate(271.441458 399.078438)scale(0.1 -0.1)">
       <defs>
        <path d="M 12.40625 8.296875 
L 28.515625 8.296875 
L 28.515625 63.921875 
L 10.984375 60.40625 
L 10.984375 69.390625 
L 28.421875 72.90625 
L 38.28125 72.90625 
L 38.28125 8.296875 
L 54.390625 8.296875 
L 54.390625 0 
L 12.40625 0 
z
" id="DejaVuSans-49"/>
       </defs>
       <use xlink:href="#DejaVuSans-8722"/>
       <use x="83.789062" xlink:href="#DejaVuSans-49"/>
       <use x="147.412109" xlink:href="#DejaVuSans-48"/>
      </g>
     </g>
    </g>
    <g id="xtick_5">
     <g id="line2d_5">
      <g>
       <use style="stroke:#000000;stroke-width:0.8;" x="325.227273" xlink:href="#ma8cc55dd22" y="384.48"/>
      </g>
     </g>
     <g id="text_5">
      <!-- 0 -->
      <g transform="translate(322.046023 399.078438)scale(0.1 -0.1)">
       <use xlink:href="#DejaVuSans-48"/>
      </g>
     </g>
    </g>
    <g id="xtick_6">
     <g id="line2d_6">
      <g>
       <use style="stroke:#000000;stroke-width:0.8;" x="368.460744" xlink:href="#ma8cc55dd22" y="384.48"/>
      </g>
     </g>
     <g id="text_6">
      <!-- 10 -->
      <g transform="translate(362.098244 399.078438)scale(0.1 -0.1)">
       <use xlink:href="#DejaVuSans-49"/>
       <use x="63.623047" xlink:href="#DejaVuSans-48"/>
      </g>
     </g>
    </g>
    <g id="xtick_7">
     <g id="line2d_7">
      <g>
       <use style="stroke:#000000;stroke-width:0.8;" x="411.694215" xlink:href="#ma8cc55dd22" y="384.48"/>
      </g>
     </g>
     <g id="text_7">
      <!-- 20 -->
      <g transform="translate(405.331715 399.078438)scale(0.1 -0.1)">
       <use xlink:href="#DejaVuSans-50"/>
       <use x="63.623047" xlink:href="#DejaVuSans-48"/>
      </g>
     </g>
    </g>
    <g id="xtick_8">
     <g id="line2d_8">
      <g>
       <use style="stroke:#000000;stroke-width:0.8;" x="454.927686" xlink:href="#ma8cc55dd22" y="384.48"/>
      </g>
     </g>
     <g id="text_8">
      <!-- 30 -->
      <g transform="translate(448.565186 399.078438)scale(0.1 -0.1)">
       <use xlink:href="#DejaVuSans-51"/>
       <use x="63.623047" xlink:href="#DejaVuSans-48"/>
      </g>
     </g>
    </g>
    <g id="xtick_9">
     <g id="line2d_9">
      <g>
       <use style="stroke:#000000;stroke-width:0.8;" x="498.161157" xlink:href="#ma8cc55dd22" y="384.48"/>
      </g>
     </g>
     <g id="text_9">
      <!-- 40 -->
      <g transform="translate(491.798657 399.078438)scale(0.1 -0.1)">
       <use xlink:href="#DejaVuSans-52"/>
       <use x="63.623047" xlink:href="#DejaVuSans-48"/>
      </g>
     </g>
    </g>
   </g>
   <g id="matplotlib.axis_2">
    <g id="ytick_1">
     <g id="line2d_10">
      <defs>
       <path d="M 0 0 
L -3.5 0 
" id="m27133e30e1" style="stroke:#000000;stroke-width:0.8;"/>
      </defs>
      <g>
       <use style="stroke:#000000;stroke-width:0.8;" x="135" xlink:href="#m27133e30e1" y="369.975246"/>
      </g>
     </g>
     <g id="text_10">
      <!-- 0 -->
      <g transform="translate(121.6375 373.774465)scale(0.1 -0.1)">
       <use xlink:href="#DejaVuSans-48"/>
      </g>
     </g>
    </g>
    <g id="ytick_2">
     <g id="line2d_11">
      <g>
       <use style="stroke:#000000;stroke-width:0.8;" x="135" xlink:href="#m27133e30e1" y="297.252061"/>
      </g>
     </g>
     <g id="text_11">
      <!-- 10 -->
      <g transform="translate(115.275 301.05128)scale(0.1 -0.1)">
       <use xlink:href="#DejaVuSans-49"/>
       <use x="63.623047" xlink:href="#DejaVuSans-48"/>
      </g>
     </g>
    </g>
    <g id="ytick_3">
     <g id="line2d_12">
      <g>
       <use style="stroke:#000000;stroke-width:0.8;" x="135" xlink:href="#m27133e30e1" y="224.528876"/>
      </g>
     </g>
     <g id="text_12">
      <!-- 20 -->
      <g transform="translate(115.275 228.328094)scale(0.1 -0.1)">
       <use xlink:href="#DejaVuSans-50"/>
       <use x="63.623047" xlink:href="#DejaVuSans-48"/>
      </g>
     </g>
    </g>
    <g id="ytick_4">
     <g id="line2d_13">
      <g>
       <use style="stroke:#000000;stroke-width:0.8;" x="135" xlink:href="#m27133e30e1" y="151.80569"/>
      </g>
     </g>
     <g id="text_13">
      <!-- 30 -->
      <g transform="translate(115.275 155.604909)scale(0.1 -0.1)">
       <use xlink:href="#DejaVuSans-51"/>
       <use x="63.623047" xlink:href="#DejaVuSans-48"/>
      </g>
     </g>
    </g>
    <g id="ytick_5">
     <g id="line2d_14">
      <g>
       <use style="stroke:#000000;stroke-width:0.8;" x="135" xlink:href="#m27133e30e1" y="79.082505"/>
      </g>
     </g>
     <g id="text_14">
      <!-- 40 -->
      <g transform="translate(115.275 82.881723)scale(0.1 -0.1)">
       <use xlink:href="#DejaVuSans-52"/>
       <use x="63.623047" xlink:href="#DejaVuSans-48"/>
      </g>
     </g>
    </g>
   </g>
   <g id="line2d_15">
    <path clip-path="url(#pbf59a121fe)" d="M 152.293388 66.96 
L 155.787002 84.011294 
L 159.280616 100.474872 
L 162.77423 113.218496 
L 166.267844 121.262909 
L 169.761458 126.387237 
L 173.255071 132.029083 
L 176.748685 141.159319 
L 180.242299 154.445412 
L 183.735913 169.838783 
L 187.229527 183.841286 
L 190.72314 193.667857 
L 194.216754 198.968307 
L 197.710368 202.043821 
L 201.203982 206.424305 
L 204.697596 214.686108 
L 208.19121 226.859257 
L 211.684823 240.408894 
L 215.178437 251.802392 
L 218.672051 258.693309 
L 222.165665 261.372026 
L 225.659279 262.586222 
L 229.152893 265.842189 
L 232.646506 273.237154 
L 236.14012 284.162716 
L 239.633734 295.680981 
L 243.127348 304.340837 
L 246.620962 308.311524 
L 250.114576 308.514456 
L 253.608189 308.053575 
L 257.101803 310.296423 
L 260.595417 316.792233 
L 264.089031 326.314158 
L 267.582645 335.617739 
L 271.076258 341.446712 
L 274.569872 342.546111 
L 278.063486 340.438127 
L 281.5571 338.481042 
L 285.050714 339.79306 
L 288.544328 345.32455 
L 292.037941 353.270504 
L 295.531555 360.186441 
L 299.025169 363.11787 
L 302.518783 361.426835 
L 306.012397 357.186314 
L 309.506011 353.898652 
L 312.999624 354.33032 
L 316.493238 358.801615 
L 319.986852 364.98864 
L 323.480466 369.36 
L 326.97408 369.36 
L 330.467693 364.98864 
L 333.961307 358.801615 
L 337.454921 354.33032 
L 340.948535 353.898652 
L 344.442149 357.186314 
L 347.935763 361.426835 
L 351.429376 363.11787 
L 354.92299 360.186441 
L 358.416604 353.270504 
L 361.910218 345.32455 
L 365.403832 339.79306 
L 368.897446 338.481042 
L 372.391059 340.438127 
L 375.884673 342.546111 
L 379.378287 341.446712 
L 382.871901 335.617739 
L 386.365515 326.314158 
L 389.859128 316.792233 
L 393.352742 310.296423 
L 396.846356 308.053575 
L 400.33997 308.514456 
L 403.833584 308.311524 
L 407.327198 304.340837 
L 410.820811 295.680981 
L 414.314425 284.162716 
L 417.808039 273.237154 
L 421.301653 265.842189 
L 424.795267 262.586222 
L 428.288881 261.372026 
L 431.782494 258.693309 
L 435.276108 251.802392 
L 438.769722 240.408894 
L 442.263336 226.859257 
L 445.75695 214.686108 
L 449.250563 206.424305 
L 452.744177 202.043821 
L 456.237791 198.968307 
L 459.731405 193.667857 
L 463.225019 183.841286 
L 466.718633 169.838783 
L 470.212246 154.445412 
L 473.70586 141.159319 
L 477.199474 132.029083 
L 480.693088 126.387237 
L 484.186702 121.262909 
L 487.680316 113.218496 
L 491.173929 100.474872 
L 494.667543 84.011294 
L 498.161157 66.96 
" style="fill:none;stroke:#1f77b4;stroke-linecap:square;stroke-width:1.5;"/>
   </g>
   <g id="patch_3">
    <path d="M 135 384.48 
L 135 51.84 
" style="fill:none;stroke:#000000;stroke-linecap:square;stroke-linejoin:miter;stroke-width:0.8;"/>
   </g>
   <g id="patch_4">
    <path d="M 515.454545 384.48 
L 515.454545 51.84 
" style="fill:none;stroke:#000000;stroke-linecap:square;stroke-linejoin:miter;stroke-width:0.8;"/>
   </g>
   <g id="patch_5">
    <path d="M 135 384.48 
L 515.454545 384.48 
" style="fill:none;stroke:#000000;stroke-linecap:square;stroke-linejoin:miter;stroke-width:0.8;"/>
   </g>
   <g id="patch_6">
    <path d="M 135 51.84 
L 515.454545 51.84 
" style="fill:none;stroke:#000000;stroke-linecap:square;stroke-linejoin:miter;stroke-width:0.8;"/>
   </g>
  </g>
  <g id="axes_2">
   <g id="patch_7">
    <path d="M 591.545455 384.48 
L 972 384.48 
L 972 51.84 
L 591.545455 51.84 
z
" style="fill:#ffffff;"/>
   </g>
   <g id="matplotlib.axis_3">
    <g id="xtick_10">
     <g id="line2d_16">
      <g>
       <use style="stroke:#000000;stroke-width:0.8;" x="591.545455" xlink:href="#ma8cc55dd22" y="384.48"/>
      </g>
     </g>
     <g id="text_15">
      <!-- −40 -->
      <g transform="translate(580.993111 399.078438)scale(0.1 -0.1)">
       <use xlink:href="#DejaVuSans-8722"/>
       <use x="83.789062" xlink:href="#DejaVuSans-52"/>
       <use x="147.412109" xlink:href="#DejaVuSans-48"/>
      </g>
     </g>
    </g>
    <g id="xtick_11">
     <g id="line2d_17">
      <g>
       <use style="stroke:#000000;stroke-width:0.8;" x="639.102273" xlink:href="#ma8cc55dd22" y="384.48"/>
      </g>
     </g>
     <g id="text_16">
      <!-- −30 -->
      <g transform="translate(628.549929 399.078438)scale(0.1 -0.1)">
       <use xlink:href="#DejaVuSans-8722"/>
       <use x="83.789062" xlink:href="#DejaVuSans-51"/>
       <use x="147.412109" xlink:href="#DejaVuSans-48"/>
      </g>
     </g>
    </g>
    <g id="xtick_12">
     <g id="line2d_18">
      <g>
       <use style="stroke:#000000;stroke-width:0.8;" x="686.659091" xlink:href="#ma8cc55dd22" y="384.48"/>
      </g>
     </g>
     <g id="text_17">
      <!-- −20 -->
      <g transform="translate(676.106747 399.078438)scale(0.1 -0.1)">
       <use xlink:href="#DejaVuSans-8722"/>
       <use x="83.789062" xlink:href="#DejaVuSans-50"/>
       <use x="147.412109" xlink:href="#DejaVuSans-48"/>
      </g>
     </g>
    </g>
    <g id="xtick_13">
     <g id="line2d_19">
      <g>
       <use style="stroke:#000000;stroke-width:0.8;" x="734.215909" xlink:href="#ma8cc55dd22" y="384.48"/>
      </g>
     </g>
     <g id="text_18">
      <!-- −10 -->
      <g transform="translate(723.663565 399.078438)scale(0.1 -0.1)">
       <use xlink:href="#DejaVuSans-8722"/>
       <use x="83.789062" xlink:href="#DejaVuSans-49"/>
       <use x="147.412109" xlink:href="#DejaVuSans-48"/>
      </g>
     </g>
    </g>
    <g id="xtick_14">
     <g id="line2d_20">
      <g>
       <use style="stroke:#000000;stroke-width:0.8;" x="781.772727" xlink:href="#ma8cc55dd22" y="384.48"/>
      </g>
     </g>
     <g id="text_19">
      <!-- 0 -->
      <g transform="translate(778.591477 399.078438)scale(0.1 -0.1)">
       <use xlink:href="#DejaVuSans-48"/>
      </g>
     </g>
    </g>
    <g id="xtick_15">
     <g id="line2d_21">
      <g>
       <use style="stroke:#000000;stroke-width:0.8;" x="829.329545" xlink:href="#ma8cc55dd22" y="384.48"/>
      </g>
     </g>
     <g id="text_20">
      <!-- 10 -->
      <g transform="translate(822.967045 399.078438)scale(0.1 -0.1)">
       <use xlink:href="#DejaVuSans-49"/>
       <use x="63.623047" xlink:href="#DejaVuSans-48"/>
      </g>
     </g>
    </g>
    <g id="xtick_16">
     <g id="line2d_22">
      <g>
       <use style="stroke:#000000;stroke-width:0.8;" x="876.886364" xlink:href="#ma8cc55dd22" y="384.48"/>
      </g>
     </g>
     <g id="text_21">
      <!-- 20 -->
      <g transform="translate(870.523864 399.078438)scale(0.1 -0.1)">
       <use xlink:href="#DejaVuSans-50"/>
       <use x="63.623047" xlink:href="#DejaVuSans-48"/>
      </g>
     </g>
    </g>
    <g id="xtick_17">
     <g id="line2d_23">
      <g>
       <use style="stroke:#000000;stroke-width:0.8;" x="924.443182" xlink:href="#ma8cc55dd22" y="384.48"/>
      </g>
     </g>
     <g id="text_22">
      <!-- 30 -->
      <g transform="translate(918.080682 399.078438)scale(0.1 -0.1)">
       <use xlink:href="#DejaVuSans-51"/>
       <use x="63.623047" xlink:href="#DejaVuSans-48"/>
      </g>
     </g>
    </g>
    <g id="xtick_18">
     <g id="line2d_24">
      <g>
       <use style="stroke:#000000;stroke-width:0.8;" x="972" xlink:href="#ma8cc55dd22" y="384.48"/>
      </g>
     </g>
     <g id="text_23">
      <!-- 40 -->
      <g transform="translate(965.6375 399.078438)scale(0.1 -0.1)">
       <use xlink:href="#DejaVuSans-52"/>
       <use x="63.623047" xlink:href="#DejaVuSans-48"/>
      </g>
     </g>
    </g>
   </g>
   <g id="matplotlib.axis_4">
    <g id="ytick_6">
     <g id="line2d_25">
      <g>
       <use style="stroke:#000000;stroke-width:0.8;" x="591.545455" xlink:href="#m27133e30e1" y="384.48"/>
      </g>
     </g>
     <g id="text_24">
      <!-- −40 -->
      <g transform="translate(563.440767 388.279219)scale(0.1 -0.1)">
       <use xlink:href="#DejaVuSans-8722"/>
       <use x="83.789062" xlink:href="#DejaVuSans-52"/>
       <use x="147.412109" xlink:href="#DejaVuSans-48"/>
      </g>
     </g>
    </g>
    <g id="ytick_7">
     <g id="line2d_26">
      <g>
       <use style="stroke:#000000;stroke-width:0.8;" x="591.545455" xlink:href="#m27133e30e1" y="342.9"/>
      </g>
     </g>
     <g id="text_25">
      <!-- −30 -->
      <g transform="translate(563.440767 346.699219)scale(0.1 -0.1)">
       <use xlink:href="#DejaVuSans-8722"/>
       <use x="83.789062" xlink:href="#DejaVuSans-51"/>
       <use x="147.412109" xlink:href="#DejaVuSans-48"/>
      </g>
     </g>
    </g>
    <g id="ytick_8">
     <g id="line2d_27">
      <g>
       <use style="stroke:#000000;stroke-width:0.8;" x="591.545455" xlink:href="#m27133e30e1" y="301.32"/>
      </g>
     </g>
     <g id="text_26">
      <!-- −20 -->
      <g transform="translate(563.440767 305.119219)scale(0.1 -0.1)">
       <use xlink:href="#DejaVuSans-8722"/>
       <use x="83.789062" xlink:href="#DejaVuSans-50"/>
       <use x="147.412109" xlink:href="#DejaVuSans-48"/>
      </g>
     </g>
    </g>
    <g id="ytick_9">
     <g id="line2d_28">
      <g>
       <use style="stroke:#000000;stroke-width:0.8;" x="591.545455" xlink:href="#m27133e30e1" y="259.74"/>
      </g>
     </g>
     <g id="text_27">
      <!-- −10 -->
      <g transform="translate(563.440767 263.539219)scale(0.1 -0.1)">
       <use xlink:href="#DejaVuSans-8722"/>
       <use x="83.789062" xlink:href="#DejaVuSans-49"/>
       <use x="147.412109" xlink:href="#DejaVuSans-48"/>
      </g>
     </g>
    </g>
    <g id="ytick_10">
     <g id="line2d_29">
      <g>
       <use style="stroke:#000000;stroke-width:0.8;" x="591.545455" xlink:href="#m27133e30e1" y="218.16"/>
      </g>
     </g>
     <g id="text_28">
      <!-- 0 -->
      <g transform="translate(578.182955 221.959219)scale(0.1 -0.1)">
       <use xlink:href="#DejaVuSans-48"/>
      </g>
     </g>
    </g>
    <g id="ytick_11">
     <g id="line2d_30">
      <g>
       <use style="stroke:#000000;stroke-width:0.8;" x="591.545455" xlink:href="#m27133e30e1" y="176.58"/>
      </g>
     </g>
     <g id="text_29">
      <!-- 10 -->
      <g transform="translate(571.820455 180.379219)scale(0.1 -0.1)">
       <use xlink:href="#DejaVuSans-49"/>
       <use x="63.623047" xlink:href="#DejaVuSans-48"/>
      </g>
     </g>
    </g>
    <g id="ytick_12">
     <g id="line2d_31">
      <g>
       <use style="stroke:#000000;stroke-width:0.8;" x="591.545455" xlink:href="#m27133e30e1" y="135"/>
      </g>
     </g>
     <g id="text_30">
      <!-- 20 -->
      <g transform="translate(571.820455 138.799219)scale(0.1 -0.1)">
       <use xlink:href="#DejaVuSans-50"/>
       <use x="63.623047" xlink:href="#DejaVuSans-48"/>
      </g>
     </g>
    </g>
    <g id="ytick_13">
     <g id="line2d_32">
      <g>
       <use style="stroke:#000000;stroke-width:0.8;" x="591.545455" xlink:href="#m27133e30e1" y="93.42"/>
      </g>
     </g>
     <g id="text_31">
      <!-- 30 -->
      <g transform="translate(571.820455 97.219219)scale(0.1 -0.1)">
       <use xlink:href="#DejaVuSans-51"/>
       <use x="63.623047" xlink:href="#DejaVuSans-48"/>
      </g>
     </g>
    </g>
    <g id="ytick_14">
     <g id="line2d_33">
      <g>
       <use style="stroke:#000000;stroke-width:0.8;" x="591.545455" xlink:href="#m27133e30e1" y="51.84"/>
      </g>
     </g>
     <g id="text_32">
      <!-- 40 -->
      <g transform="translate(571.820455 55.639219)scale(0.1 -0.1)">
       <use xlink:href="#DejaVuSans-52"/>
       <use x="63.623047" xlink:href="#DejaVuSans-48"/>
      </g>
     </g>
    </g>
   </g>
   <g id="LineCollection_1"/>
   <g id="LineCollection_2">
    <path clip-path="url(#p8269d681ed)" d="M 779.85124 317.779325 
L 776.008264 317.06993 
L 772.165289 316.246935 
L 768.322314 315.797376 
L 752.950413 314.555487 
L 748.654312 313.92 
L 745.264463 313.010194 
L 741.421488 311.44169 
L 739.879142 310.56 
L 735.288083 307.2 
L 733.735537 306.276478 
L 729.892562 304.581368 
L 726.049587 303.361627 
L 722.206612 302.308404 
L 718.363636 301.133438 
L 716.694772 300.48 
L 714.520661 299.265324 
L 711.663809 297.12 
L 706.834711 291.514562 
L 705.47618 290.4 
L 702.991736 288.896656 
L 698.640163 287.04 
L 695.305785 285.299396 
L 692.710088 283.68 
L 690.921024 280.32 
L 691.517378 276.96 
L 692.33036 273.6 
L 691.088356 270.24 
L 686.550228 266.88 
L 683.77686 265.191678 
L 681.746277 263.52 
L 679.933884 261.278652 
L 679.267252 260.16 
L 677.952209 256.8 
L 676.825181 253.44 
L 676.090909 251.710719 
L 675.177452 250.08 
L 672.247934 246.461338 
L 670.446384 243.36 
L 670.76426 240 
L 671.818008 236.64 
L 672.332253 233.28 
L 672.036673 229.92 
L 670.741739 226.56 
L 668.251855 223.2 
L 665.956847 219.84 
L 665.956847 216.48 
L 668.404959 212.942242 
L 670.741739 209.76 
L 672.036673 206.4 
L 672.332253 203.04 
L 671.818008 199.68 
L 670.76426 196.32 
L 670.446384 192.96 
L 672.412432 189.6 
L 675.177452 186.24 
L 676.090909 184.609281 
L 676.825181 182.88 
L 677.952209 179.52 
L 679.267252 176.16 
L 679.933884 175.041348 
L 681.746277 172.8 
L 683.77686 171.128322 
L 687.619835 168.671082 
L 691.088356 166.08 
L 691.46281 165.173042 
L 692.33036 162.72 
L 691.46281 159.089015 
L 690.921024 156 
L 691.46281 154.82724 
L 692.710088 152.64 
L 695.305785 151.020604 
L 699.14876 149.070452 
L 702.991736 147.423344 
L 705.47618 145.92 
L 706.834711 144.805438 
L 708.864443 142.56 
L 711.663809 139.2 
L 714.520661 137.054676 
L 716.694772 135.84 
L 718.363636 135.186562 
L 722.206612 134.011596 
L 727.70635 132.48 
L 729.892562 131.738632 
L 733.735537 130.043522 
L 735.288083 129.12 
L 739.879142 125.76 
L 741.421488 124.87831 
L 745.264463 123.309806 
L 749.107438 122.308661 
L 752.950413 121.764513 
L 760.636364 121.089618 
L 768.322314 120.522624 
L 772.165289 120.073065 
L 779.85124 118.540675 
L 783.694215 118.540675 
L 787.53719 119.25007 
L 791.380165 120.073065 
L 795.22314 120.522624 
L 810.595041 121.764513 
L 814.891142 122.4 
L 818.280992 123.309806 
L 822.123967 124.87831 
L 823.666313 125.76 
L 828.257372 129.12 
L 829.809917 130.043522 
L 833.652893 131.738632 
L 837.495868 132.958373 
L 841.338843 134.011596 
L 845.181818 135.186562 
L 846.850682 135.84 
L 849.024793 137.054676 
L 851.881646 139.2 
L 856.710744 144.805438 
L 858.069274 145.92 
L 860.553719 147.423344 
L 864.905292 149.28 
L 868.239669 151.020604 
L 870.835366 152.64 
L 872.62443 156 
L 872.028077 159.36 
L 871.215094 162.72 
L 872.457098 166.08 
L 876.995227 169.44 
L 879.768595 171.128322 
L 881.799178 172.8 
L 883.61157 175.041348 
L 884.278203 176.16 
L 885.593245 179.52 
L 886.720274 182.88 
L 887.454545 184.609281 
L 888.368002 186.24 
L 891.297521 189.858662 
L 893.09907 192.96 
L 892.781195 196.32 
L 891.727447 199.68 
L 891.213201 203.04 
L 891.508781 206.4 
L 892.803716 209.76 
L 895.293599 213.12 
L 897.588607 216.48 
L 897.588607 219.84 
L 895.140496 223.377758 
L 892.803716 226.56 
L 891.508781 229.92 
L 891.213201 233.28 
L 891.727447 236.64 
L 892.781195 240 
L 893.09907 243.36 
L 891.133022 246.72 
L 888.368002 250.08 
L 887.454545 251.710719 
L 886.720274 253.44 
L 885.593245 256.8 
L 884.278203 260.16 
L 883.61157 261.278652 
L 881.799178 263.52 
L 879.768595 265.191678 
L 875.92562 267.648918 
L 872.457098 270.24 
L 872.082645 271.146958 
L 871.215094 273.6 
L 872.082645 277.230985 
L 872.62443 280.32 
L 872.082645 281.49276 
L 870.835366 283.68 
L 868.239669 285.299396 
L 864.396694 287.249548 
L 860.553719 288.896656 
L 858.069274 290.4 
L 856.710744 291.514562 
L 854.681012 293.76 
L 851.881646 297.12 
L 849.024793 299.265324 
L 846.850682 300.48 
L 845.181818 301.133438 
L 841.338843 302.308404 
L 835.839104 303.84 
L 833.652893 304.581368 
L 829.809917 306.276478 
L 828.257372 307.2 
L 823.666313 310.56 
L 822.123967 311.44169 
L 818.280992 313.010194 
L 814.438017 314.011339 
L 810.595041 314.555487 
L 802.909091 315.230382 
L 795.22314 315.797376 
L 791.380165 316.246935 
L 783.694215 317.779325 
L 779.85124 317.779325 
L 779.85124 317.779325 
" style="fill:none;stroke:#443983;stroke-width:1.5;"/>
   </g>
   <g id="LineCollection_3">
    <path clip-path="url(#p8269d681ed)" d="M 749.107438 358.334369 
L 747.110213 357.6 
L 745.264463 356.744702 
L 741.421488 355.286355 
L 736.95158 354.24 
L 722.206612 351.722753 
L 718.363636 350.622978 
L 714.520661 348.724209 
L 712.505 347.52 
L 710.677686 346.140549 
L 706.834711 343.680064 
L 702.991736 341.967787 
L 695.305785 339.451254 
L 690.047281 337.44 
L 687.619835 335.809574 
L 685.451614 334.08 
L 682.621632 330.72 
L 679.933884 328.034071 
L 679.007886 327.36 
L 676.090909 325.719099 
L 672.17348 324 
L 668.404959 321.732661 
L 666.952839 320.64 
L 665.08965 317.28 
L 664.328941 313.92 
L 662.606013 310.56 
L 660.719008 308.888886 
L 658.600068 307.2 
L 656.876033 306.204221 
L 653.033058 303.731593 
L 649.190083 300.032082 
L 647.322411 297.12 
L 645.34368 293.76 
L 642.61329 290.4 
L 641.504132 289.347262 
L 637.661157 286.109477 
L 635.275947 283.68 
L 634.04493 280.32 
L 634.831682 273.6 
L 634.11661 270.24 
L 633.818182 269.803274 
L 631.630953 266.88 
L 628.120654 263.52 
L 625.423366 260.16 
L 624.140015 256.8 
L 623.876437 253.44 
L 624.776325 246.72 
L 624.172126 243.36 
L 622.289256 239.669453 
L 620.931701 236.64 
L 620.074044 233.28 
L 619.742354 229.92 
L 619.802137 226.56 
L 620.666267 219.84 
L 620.666267 216.48 
L 619.802137 209.76 
L 619.742354 206.4 
L 620.074044 203.04 
L 620.931701 199.68 
L 622.473699 196.32 
L 624.172126 192.96 
L 624.776325 189.6 
L 623.876437 182.88 
L 624.140015 179.52 
L 625.423366 176.16 
L 626.132231 175.157757 
L 628.120654 172.8 
L 631.630953 169.44 
L 634.11661 166.08 
L 634.831682 162.72 
L 634.04493 156 
L 635.275947 152.64 
L 638.640623 149.28 
L 641.504132 146.972738 
L 642.61329 145.92 
L 645.347107 142.554465 
L 647.322411 139.2 
L 649.523842 135.84 
L 653.184212 132.48 
L 658.600068 129.12 
L 660.719008 127.431114 
L 662.606013 125.76 
L 664.328941 122.4 
L 665.08965 119.04 
L 666.952839 115.68 
L 668.404959 114.587339 
L 672.247934 112.286999 
L 676.090909 110.600901 
L 679.007886 108.96 
L 679.933884 108.285929 
L 682.621632 105.6 
L 685.451614 102.24 
L 687.619835 100.510426 
L 690.047281 98.88 
L 691.46281 98.254867 
L 695.305785 96.868746 
L 702.991736 94.352213 
L 707.682308 92.16 
L 710.677686 90.179451 
L 712.505 88.8 
L 714.520661 87.595791 
L 719.038831 85.44 
L 722.206612 84.597247 
L 726.049587 83.832161 
L 737.578512 81.956611 
L 741.421488 81.033645 
L 745.264463 79.575298 
L 747.110213 78.72 
L 749.107438 77.985631 
L 752.950413 76.947469 
L 756.793388 76.484512 
L 760.636364 76.55097 
L 776.008264 77.91332 
L 779.85124 78.03696 
L 783.694215 78.03696 
L 787.53719 77.91332 
L 795.22314 77.314953 
L 802.909091 76.55097 
L 806.752066 76.484512 
L 810.595041 76.947469 
L 814.438017 77.985631 
L 816.435242 78.72 
L 818.280992 79.575298 
L 822.123967 81.033645 
L 826.593874 82.08 
L 841.338843 84.597247 
L 845.181818 85.697022 
L 849.024793 87.595791 
L 851.040455 88.8 
L 852.867769 90.179451 
L 856.710744 92.639936 
L 860.553719 94.352213 
L 868.239669 96.868746 
L 873.498173 98.88 
L 875.92562 100.510426 
L 878.093841 102.24 
L 880.923822 105.6 
L 883.61157 108.285929 
L 884.537569 108.96 
L 887.454545 110.600901 
L 891.371974 112.32 
L 895.140496 114.587339 
L 896.592615 115.68 
L 898.455804 119.04 
L 899.216514 122.4 
L 900.939441 125.76 
L 902.826446 127.431114 
L 904.945387 129.12 
L 906.669421 130.115779 
L 910.512397 132.588407 
L 914.355372 136.287918 
L 916.223043 139.2 
L 918.201774 142.56 
L 920.932165 145.92 
L 922.041322 146.972738 
L 925.884298 150.210523 
L 928.269508 152.64 
L 929.500525 156 
L 928.713773 162.72 
L 929.428844 166.08 
L 929.727273 166.516726 
L 931.914502 169.44 
L 935.424801 172.8 
L 938.122089 176.16 
L 939.40544 179.52 
L 939.669018 182.88 
L 938.76913 189.6 
L 939.373329 192.96 
L 941.256198 196.650547 
L 942.613754 199.68 
L 943.47141 203.04 
L 943.8031 206.4 
L 943.743318 209.76 
L 942.879187 216.48 
L 942.879187 219.84 
L 943.743318 226.56 
L 943.8031 229.92 
L 943.47141 233.28 
L 942.613754 236.64 
L 941.071756 240 
L 939.373329 243.36 
L 938.76913 246.72 
L 939.669018 253.44 
L 939.40544 256.8 
L 938.122089 260.16 
L 937.413223 261.162243 
L 935.424801 263.52 
L 931.914502 266.88 
L 929.428844 270.24 
L 928.713773 273.6 
L 929.500525 280.32 
L 928.269508 283.68 
L 924.904832 287.04 
L 922.041322 289.347262 
L 920.932165 290.4 
L 918.198347 293.765535 
L 916.223043 297.12 
L 914.021613 300.48 
L 910.361242 303.84 
L 904.945387 307.2 
L 902.826446 308.888886 
L 900.939441 310.56 
L 899.216514 313.92 
L 898.455804 317.28 
L 896.592615 320.64 
L 895.140496 321.732661 
L 891.297521 324.033001 
L 887.454545 325.719099 
L 884.537569 327.36 
L 883.61157 328.034071 
L 880.923822 330.72 
L 878.093841 334.08 
L 875.92562 335.809574 
L 873.498173 337.44 
L 872.082645 338.065133 
L 868.239669 339.451254 
L 860.553719 341.967787 
L 855.863147 344.16 
L 852.867769 346.140549 
L 851.040455 347.52 
L 849.024793 348.724209 
L 844.506623 350.88 
L 841.338843 351.722753 
L 837.495868 352.487839 
L 825.966942 354.363389 
L 822.123967 355.286355 
L 818.280992 356.744702 
L 816.435242 357.6 
L 814.438017 358.334369 
L 810.595041 359.372531 
L 806.752066 359.835488 
L 802.909091 359.76903 
L 787.53719 358.40668 
L 783.694215 358.28304 
L 779.85124 358.28304 
L 776.008264 358.40668 
L 768.322314 359.005047 
L 760.636364 359.76903 
L 756.793388 359.835488 
L 752.950413 359.372531 
L 749.107438 358.334369 
L 749.107438 358.334369 
" style="fill:none;stroke:#31688e;stroke-width:1.5;"/>
   </g>
   <g id="LineCollection_4">
    <path clip-path="url(#p8269d681ed)" d="M 726.300047 384.48 
L 726.049587 384.420986 
L 722.206612 383.63611 
L 718.363636 382.920799 
L 714.520661 382.15598 
L 710.677686 381.194335 
L 710.43278 381.12 
L 706.834711 379.79841 
L 703.054426 377.76 
L 702.991736 377.723716 
L 699.14876 375.430317 
L 697.392741 374.4 
L 695.305785 373.503457 
L 691.46281 372.09023 
L 688.295181 371.04 
L 687.619835 370.842427 
L 683.77686 369.679176 
L 679.933884 368.190592 
L 678.895537 367.68 
L 676.090909 365.970006 
L 674.003848 364.32 
L 672.247934 362.900293 
L 669.86964 360.96 
L 668.404959 360.043737 
L 664.561983 357.95594 
L 663.838691 357.6 
L 660.719008 356.278384 
L 656.876033 354.57113 
L 656.218118 354.24 
L 653.033058 352.308812 
L 651.144967 350.88 
L 649.190083 348.978125 
L 647.781334 347.52 
L 645.347107 345.106954 
L 644.258119 344.16 
L 641.504132 342.21657 
L 639.091316 340.8 
L 637.661157 339.962353 
L 633.818182 337.699547 
L 633.417848 337.44 
L 629.998459 334.08 
L 629.975207 334.033443 
L 628.413958 330.72 
L 627.25074 327.36 
L 626.132231 325.452608 
L 625.134295 324 
L 622.289256 321.495904 
L 621.300457 320.64 
L 618.446281 318.171917 
L 617.623201 317.28 
L 615.318469 313.92 
L 614.603306 312.628346 
L 613.569513 310.56 
L 611.497091 307.2 
L 610.760331 306.321812 
L 608.380292 303.84 
L 606.917355 302.549835 
L 604.449465 300.48 
L 603.07438 299.024264 
L 601.444405 297.12 
L 600.102397 293.76 
L 599.954683 290.4 
L 600.026056 287.04 
L 599.231405 283.871211 
L 599.17858 283.68 
L 596.800045 280.32 
L 595.38843 278.755729 
L 593.952581 276.96 
L 591.860954 273.6 
L 591.545455 272.804671 
" style="fill:none;stroke:#21918c;stroke-width:1.5;"/>
    <path clip-path="url(#p8269d681ed)" d="M 972 272.804671 
L 971.684501 273.6 
L 969.592874 276.96 
L 968.157025 278.755729 
L 966.745409 280.32 
L 964.366875 283.68 
L 964.31405 283.871211 
L 963.519399 287.04 
L 963.590772 290.4 
L 963.443057 293.76 
L 962.101049 297.12 
L 960.471074 299.024264 
L 959.09599 300.48 
L 956.628099 302.549835 
L 955.165162 303.84 
L 952.785124 306.321812 
L 952.048364 307.2 
L 949.975942 310.56 
L 948.942149 312.628346 
L 948.226985 313.92 
L 945.922253 317.28 
L 945.099174 318.171917 
L 942.244998 320.64 
L 941.256198 321.495904 
L 938.411159 324 
L 937.413223 325.452608 
L 936.294714 327.36 
L 935.131497 330.72 
L 933.570248 334.033443 
L 933.546996 334.08 
L 930.127606 337.44 
L 929.727273 337.699547 
L 925.884298 339.962353 
L 924.454138 340.8 
L 922.041322 342.21657 
L 919.287335 344.16 
L 918.198347 345.106954 
L 915.764121 347.52 
L 914.355372 348.978125 
L 912.400488 350.88 
L 910.512397 352.308812 
L 907.327336 354.24 
L 906.669421 354.57113 
L 902.826446 356.278384 
L 899.706764 357.6 
L 898.983471 357.95594 
L 895.140496 360.043737 
L 893.675814 360.96 
L 891.297521 362.900293 
L 889.541606 364.32 
L 887.454545 365.970006 
L 884.649918 367.68 
L 883.61157 368.190592 
L 879.768595 369.679176 
L 875.92562 370.842427 
L 875.250274 371.04 
L 872.082645 372.09023 
L 868.239669 373.503457 
L 866.152714 374.4 
L 864.396694 375.430317 
L 860.553719 377.723716 
L 860.491028 377.76 
L 856.710744 379.79841 
L 853.112675 381.12 
L 852.867769 381.194335 
L 849.024793 382.15598 
L 845.181818 382.920799 
L 841.338843 383.63611 
L 837.495868 384.420986 
L 837.245408 384.48 
" style="fill:none;stroke:#21918c;stroke-width:1.5;"/>
    <path clip-path="url(#p8269d681ed)" d="M 591.545455 163.515329 
L 591.860954 162.72 
L 593.952581 159.36 
L 595.38843 157.564271 
L 596.800045 156 
L 599.17858 152.64 
L 599.231405 152.448789 
L 600.026056 149.28 
L 599.954683 145.92 
L 600.102397 142.56 
L 601.444405 139.2 
L 603.07438 137.295736 
L 604.449465 135.84 
L 606.917355 133.770165 
L 608.380292 132.48 
L 610.760331 129.998188 
L 611.497091 129.12 
L 613.569513 125.76 
L 614.603306 123.691654 
L 615.318469 122.4 
L 617.623201 119.04 
L 618.446281 118.148083 
L 621.300457 115.68 
L 622.289256 114.824096 
L 625.134295 112.32 
L 626.132231 110.867392 
L 627.25074 108.96 
L 628.413958 105.6 
L 629.975207 102.286557 
L 629.998459 102.24 
L 633.417848 98.88 
L 633.818182 98.620453 
L 637.661157 96.357647 
L 639.091316 95.52 
L 641.504132 94.10343 
L 644.258119 92.16 
L 645.347107 91.213046 
L 647.781334 88.8 
L 649.190083 87.341875 
L 651.144967 85.44 
L 653.033058 84.011188 
L 656.218118 82.08 
L 656.876033 81.74887 
L 660.719008 80.041616 
L 663.838691 78.72 
L 664.561983 78.36406 
L 668.404959 76.276263 
L 669.86964 75.36 
L 672.247934 73.419707 
L 674.003848 72 
L 676.090909 70.349994 
L 678.895537 68.64 
L 679.933884 68.129408 
L 683.77686 66.640824 
L 687.619835 65.477573 
L 688.295181 65.28 
L 691.46281 64.22977 
L 695.305785 62.816543 
L 697.392741 61.92 
L 699.14876 60.889683 
L 702.991736 58.596284 
L 703.054426 58.56 
L 706.834711 56.52159 
L 710.43278 55.2 
L 710.677686 55.125665 
L 714.520661 54.16402 
L 718.363636 53.399201 
L 722.206612 52.68389 
L 726.049587 51.899014 
L 726.300047 51.84 
" style="fill:none;stroke:#21918c;stroke-width:1.5;"/>
    <path clip-path="url(#p8269d681ed)" d="M 837.245408 51.84 
L 837.495868 51.899014 
L 841.338843 52.68389 
L 845.181818 53.399201 
L 849.024793 54.16402 
L 852.867769 55.125665 
L 853.112675 55.2 
L 856.710744 56.52159 
L 860.491028 58.56 
L 860.553719 58.596284 
L 864.396694 60.889683 
L 866.152714 61.92 
L 868.239669 62.816543 
L 872.082645 64.22977 
L 875.250274 65.28 
L 875.92562 65.477573 
L 879.768595 66.640824 
L 883.61157 68.129408 
L 884.649918 68.64 
L 887.454545 70.349994 
L 889.541606 72 
L 891.297521 73.419707 
L 893.675814 75.36 
L 895.140496 76.276263 
L 898.983471 78.36406 
L 899.706764 78.72 
L 902.826446 80.041616 
L 906.669421 81.74887 
L 907.327336 82.08 
L 910.512397 84.011188 
L 912.400488 85.44 
L 914.355372 87.341875 
L 915.764121 88.8 
L 918.198347 91.213046 
L 919.287335 92.16 
L 922.041322 94.10343 
L 924.454138 95.52 
L 925.884298 96.357647 
L 929.727273 98.620453 
L 930.127606 98.88 
L 933.546996 102.24 
L 933.570248 102.286557 
L 935.131497 105.6 
L 936.294714 108.96 
L 937.413223 110.867392 
L 938.411159 112.32 
L 941.256198 114.824096 
L 942.244998 115.68 
L 945.099174 118.148083 
L 945.922253 119.04 
L 948.226985 122.4 
L 948.942149 123.691654 
L 949.975942 125.76 
L 952.048364 129.12 
L 952.785124 129.998188 
L 955.165162 132.48 
L 956.628099 133.770165 
L 959.09599 135.84 
L 960.471074 137.295736 
L 962.101049 139.2 
L 963.443057 142.56 
L 963.590772 145.92 
L 963.519399 149.28 
L 964.31405 152.448789 
L 964.366875 152.64 
L 966.745409 156 
L 968.157025 157.564271 
L 969.592874 159.36 
L 971.684501 162.72 
L 972 163.515329 
" style="fill:none;stroke:#21918c;stroke-width:1.5;"/>
   </g>
   <g id="LineCollection_5">
    <path clip-path="url(#p8269d681ed)" d="M 651.689811 384.48 
L 649.190083 383.399154 
L 645.347107 381.144305 
L 645.313693 381.12 
L 641.571777 377.76 
L 641.504132 377.698718 
L 637.915196 374.4 
L 637.661157 374.220905 
L 633.818182 371.778645 
L 632.550402 371.04 
L 629.975207 369.754679 
L 626.132231 367.726834 
L 626.052234 367.68 
L 622.289256 365.082039 
L 621.380658 364.32 
L 618.446281 361.269601 
L 618.166085 360.96 
L 614.981928 357.6 
L 614.603306 357.259253 
L 610.760331 354.351916 
L 610.592709 354.24 
L 606.917355 351.811116 
L 605.513168 350.88 
L 603.07438 348.65432 
L 601.970627 347.52 
L 600.151656 344.16 
L 599.231405 341.481832 
L 598.98718 340.8 
L 597.191915 337.44 
L 595.38843 335.532023 
L 593.933686 334.08 
L 591.545455 332.056128 
" style="fill:none;stroke:#35b779;stroke-width:1.5;"/>
    <path clip-path="url(#p8269d681ed)" d="M 972 332.056128 
L 969.611769 334.08 
L 968.157025 335.532023 
L 966.353539 337.44 
L 964.558275 340.8 
L 964.31405 341.481832 
L 963.393798 344.16 
L 961.574828 347.52 
L 960.471074 348.65432 
L 958.032287 350.88 
L 956.628099 351.811116 
L 952.952746 354.24 
L 952.785124 354.351916 
L 948.942149 357.259253 
L 948.563526 357.6 
L 945.379369 360.96 
L 945.099174 361.269601 
L 942.164796 364.32 
L 941.256198 365.082039 
L 937.493221 367.68 
L 937.413223 367.726834 
L 933.570248 369.754679 
L 930.995052 371.04 
L 929.727273 371.778645 
L 925.884298 374.220905 
L 925.630259 374.4 
L 922.041322 377.698718 
L 921.973677 377.76 
L 918.231761 381.12 
L 918.198347 381.144305 
L 914.355372 383.399154 
L 911.855644 384.48 
" style="fill:none;stroke:#35b779;stroke-width:1.5;"/>
    <path clip-path="url(#p8269d681ed)" d="M 591.545455 104.263872 
L 593.933686 102.24 
L 595.38843 100.787977 
L 597.191915 98.88 
L 598.98718 95.52 
L 599.231405 94.838168 
L 600.151656 92.16 
L 601.970627 88.8 
L 603.07438 87.66568 
L 605.513168 85.44 
L 606.917355 84.508884 
L 610.592709 82.08 
L 610.760331 81.968084 
L 614.603306 79.060747 
L 614.981928 78.72 
L 618.166085 75.36 
L 618.446281 75.050399 
L 621.380658 72 
L 622.289256 71.237961 
L 626.052234 68.64 
L 626.132231 68.593166 
L 629.975207 66.565321 
L 632.550402 65.28 
L 633.818182 64.541355 
L 637.661157 62.099095 
L 637.915196 61.92 
L 641.504132 58.621282 
L 641.571777 58.56 
L 645.313693 55.2 
L 645.347107 55.175695 
L 649.190083 52.920846 
L 651.689811 51.84 
" style="fill:none;stroke:#35b779;stroke-width:1.5;"/>
    <path clip-path="url(#p8269d681ed)" d="M 911.855644 51.84 
L 914.355372 52.920846 
L 918.198347 55.175695 
L 918.231761 55.2 
L 921.973677 58.56 
L 922.041322 58.621282 
L 925.630259 61.92 
L 925.884298 62.099095 
L 929.727273 64.541355 
L 930.995052 65.28 
L 933.570248 66.565321 
L 937.413223 68.593166 
L 937.493221 68.64 
L 941.256198 71.237961 
L 942.164796 72 
L 945.099174 75.050399 
L 945.379369 75.36 
L 948.563526 78.72 
L 948.942149 79.060747 
L 952.785124 81.968084 
L 952.952746 82.08 
L 956.628099 84.508884 
L 958.032287 85.44 
L 960.471074 87.66568 
L 961.574828 88.8 
L 963.393798 92.16 
L 964.31405 94.838168 
L 964.558275 95.52 
L 966.353539 98.88 
L 968.157025 100.787977 
L 969.611769 102.24 
L 972 104.263872 
" style="fill:none;stroke:#35b779;stroke-width:1.5;"/>
   </g>
   <g id="LineCollection_6">
    <path clip-path="url(#p8269d681ed)" d="M 607.839831 384.48 
L 606.917355 383.897899 
L 603.07438 381.663675 
L 602.127541 381.12 
L 599.231405 379.367414 
L 596.86606 377.76 
L 595.38843 376.442357 
L 593.330581 374.4 
L 591.545455 372.16036 
" style="fill:none;stroke:#90d743;stroke-width:1.5;"/>
    <path clip-path="url(#p8269d681ed)" d="M 972 372.16036 
L 970.214873 374.4 
L 968.157025 376.442357 
L 966.679394 377.76 
L 964.31405 379.367414 
L 961.417914 381.12 
L 960.471074 381.663675 
L 956.628099 383.897899 
L 955.705623 384.48 
" style="fill:none;stroke:#90d743;stroke-width:1.5;"/>
    <path clip-path="url(#p8269d681ed)" d="M 591.545455 64.15964 
L 593.330581 61.92 
L 595.38843 59.877643 
L 596.86606 58.56 
L 599.231405 56.952586 
L 602.127541 55.2 
L 603.07438 54.656325 
L 606.917355 52.422101 
L 607.839831 51.84 
" style="fill:none;stroke:#90d743;stroke-width:1.5;"/>
    <path clip-path="url(#p8269d681ed)" d="M 955.705623 51.84 
L 956.628099 52.422101 
L 960.471074 54.656325 
L 961.417914 55.2 
L 964.31405 56.952586 
L 966.679394 58.56 
L 968.157025 59.877643 
L 970.214873 61.92 
L 972 64.15964 
" style="fill:none;stroke:#90d743;stroke-width:1.5;"/>
   </g>
   <g id="LineCollection_7"/>
   <g id="patch_8">
    <path d="M 591.545455 384.48 
L 591.545455 51.84 
" style="fill:none;stroke:#000000;stroke-linecap:square;stroke-linejoin:miter;stroke-width:0.8;"/>
   </g>
   <g id="patch_9">
    <path d="M 972 384.48 
L 972 51.84 
" style="fill:none;stroke:#000000;stroke-linecap:square;stroke-linejoin:miter;stroke-width:0.8;"/>
   </g>
   <g id="patch_10">
    <path d="M 591.545455 384.48 
L 972 384.48 
" style="fill:none;stroke:#000000;stroke-linecap:square;stroke-linejoin:miter;stroke-width:0.8;"/>
   </g>
   <g id="patch_11">
    <path d="M 591.545455 51.84 
L 972 51.84 
" style="fill:none;stroke:#000000;stroke-linecap:square;stroke-linejoin:miter;stroke-width:0.8;"/>
   </g>
  </g>
 </g>
 <defs>
  <clipPath id="pbf59a121fe">
   <rect height="332.64" width="380.454545" x="135" y="51.84"/>
  </clipPath>
  <clipPath id="p8269d681ed">
   <rect height="332.64" width="380.454545" x="591.545455" y="51.84"/>
  </clipPath>
 </defs>
</svg>
