<?xml version="1.0" encoding="utf-8" standalone="no"?>
<!DOCTYPE svg PUBLIC "-//W3C//DTD SVG 1.1//EN"
  "http://www.w3.org/Graphics/SVG/1.1/DTD/svg11.dtd">
<!-- Created with matplotlib (https://matplotlib.org/) -->
<svg height="432pt" version="1.1" viewBox="0 0 1080 432" width="1080pt" xmlns="http://www.w3.org/2000/svg" xmlns:xlink="http://www.w3.org/1999/xlink">
 <metadata>
  <rdf:RDF xmlns:cc="http://creativecommons.org/ns#" xmlns:dc="http://purl.org/dc/elements/1.1/" xmlns:rdf="http://www.w3.org/1999/02/22-rdf-syntax-ns#">
   <cc:Work>
    <dc:type rdf:resource="http://purl.org/dc/dcmitype/StillImage"/>
    <dc:date>2020-12-16T00:02:50.960794</dc:date>
    <dc:format>image/svg+xml</dc:format>
    <dc:creator>
     <cc:Agent>
      <dc:title>Matplotlib v3.3.3, https://matplotlib.org/</dc:title>
     </cc:Agent>
    </dc:creator>
   </cc:Work>
  </rdf:RDF>
 </metadata>
 <defs>
  <style type="text/css">*{stroke-linecap:butt;stroke-linejoin:round;}</style>
 </defs>
 <g id="figure_1">
  <g id="patch_1">
   <path d="M 0 432 
L 1080 432 
L 1080 0 
L 0 0 
z
" style="fill:#ffffff;"/>
  </g>
  <g id="axes_1">
   <g id="patch_2">
    <path d="M 135 384.48 
L 515.454545 384.48 
L 515.454545 51.84 
L 135 51.84 
z
" style="fill:#ffffff;"/>
   </g>
   <g id="matplotlib.axis_1">
    <g id="xtick_1">
     <g id="line2d_1">
      <defs>
       <path d="M 0 0 
L 0 3.5 
" id="ma24e5db776" style="stroke:#000000;stroke-width:0.8;"/>
      </defs>
      <g>
       <use style="stroke:#000000;stroke-width:0.8;" x="152.293388" xlink:href="#ma24e5db776" y="384.48"/>
      </g>
     </g>
     <g id="text_1">
      <!-- −40 -->
      <g transform="translate(141.741045 399.078438)scale(0.1 -0.1)">
       <defs>
        <path d="M 10.59375 35.5 
L 73.1875 35.5 
L 73.1875 27.203125 
L 10.59375 27.203125 
z
" id="DejaVuSans-8722"/>
        <path d="M 37.796875 64.3125 
L 12.890625 25.390625 
L 37.796875 25.390625 
z
M 35.203125 72.90625 
L 47.609375 72.90625 
L 47.609375 25.390625 
L 58.015625 25.390625 
L 58.015625 17.1875 
L 47.609375 17.1875 
L 47.609375 0 
L 37.796875 0 
L 37.796875 17.1875 
L 4.890625 17.1875 
L 4.890625 26.703125 
z
" id="DejaVuSans-52"/>
        <path d="M 31.78125 66.40625 
Q 24.171875 66.40625 20.328125 58.90625 
Q 16.5 51.421875 16.5 36.375 
Q 16.5 21.390625 20.328125 13.890625 
Q 24.171875 6.390625 31.78125 6.390625 
Q 39.453125 6.390625 43.28125 13.890625 
Q 47.125 21.390625 47.125 36.375 
Q 47.125 51.421875 43.28125 58.90625 
Q 39.453125 66.40625 31.78125 66.40625 
z
M 31.78125 74.21875 
Q 44.046875 74.21875 50.515625 64.515625 
Q 56.984375 54.828125 56.984375 36.375 
Q 56.984375 17.96875 50.515625 8.265625 
Q 44.046875 -1.421875 31.78125 -1.421875 
Q 19.53125 -1.421875 13.0625 8.265625 
Q 6.59375 17.96875 6.59375 36.375 
Q 6.59375 54.828125 13.0625 64.515625 
Q 19.53125 74.21875 31.78125 74.21875 
z
" id="DejaVuSans-48"/>
       </defs>
       <use xlink:href="#DejaVuSans-8722"/>
       <use x="83.789062" xlink:href="#DejaVuSans-52"/>
       <use x="147.412109" xlink:href="#DejaVuSans-48"/>
      </g>
     </g>
    </g>
    <g id="xtick_2">
     <g id="line2d_2">
      <g>
       <use style="stroke:#000000;stroke-width:0.8;" x="195.428824" xlink:href="#ma24e5db776" y="384.48"/>
      </g>
     </g>
     <g id="text_2">
      <!-- −30 -->
      <g transform="translate(184.876481 399.078438)scale(0.1 -0.1)">
       <defs>
        <path d="M 40.578125 39.3125 
Q 47.65625 37.796875 51.625 33 
Q 55.609375 28.21875 55.609375 21.1875 
Q 55.609375 10.40625 48.1875 4.484375 
Q 40.765625 -1.421875 27.09375 -1.421875 
Q 22.515625 -1.421875 17.65625 -0.515625 
Q 12.796875 0.390625 7.625 2.203125 
L 7.625 11.71875 
Q 11.71875 9.328125 16.59375 8.109375 
Q 21.484375 6.890625 26.8125 6.890625 
Q 36.078125 6.890625 40.9375 10.546875 
Q 45.796875 14.203125 45.796875 21.1875 
Q 45.796875 27.640625 41.28125 31.265625 
Q 36.765625 34.90625 28.71875 34.90625 
L 20.21875 34.90625 
L 20.21875 43.015625 
L 29.109375 43.015625 
Q 36.375 43.015625 40.234375 45.921875 
Q 44.09375 48.828125 44.09375 54.296875 
Q 44.09375 59.90625 40.109375 62.90625 
Q 36.140625 65.921875 28.71875 65.921875 
Q 24.65625 65.921875 20.015625 65.03125 
Q 15.375 64.15625 9.8125 62.3125 
L 9.8125 71.09375 
Q 15.4375 72.65625 20.34375 73.4375 
Q 25.25 74.21875 29.59375 74.21875 
Q 40.828125 74.21875 47.359375 69.109375 
Q 53.90625 64.015625 53.90625 55.328125 
Q 53.90625 49.265625 50.4375 45.09375 
Q 46.96875 40.921875 40.578125 39.3125 
z
" id="DejaVuSans-51"/>
       </defs>
       <use xlink:href="#DejaVuSans-8722"/>
       <use x="83.789062" xlink:href="#DejaVuSans-51"/>
       <use x="147.412109" xlink:href="#DejaVuSans-48"/>
      </g>
     </g>
    </g>
    <g id="xtick_3">
     <g id="line2d_3">
      <g>
       <use style="stroke:#000000;stroke-width:0.8;" x="238.56426" xlink:href="#ma24e5db776" y="384.48"/>
      </g>
     </g>
     <g id="text_3">
      <!-- −20 -->
      <g transform="translate(228.011917 399.078438)scale(0.1 -0.1)">
       <defs>
        <path d="M 19.1875 8.296875 
L 53.609375 8.296875 
L 53.609375 0 
L 7.328125 0 
L 7.328125 8.296875 
Q 12.9375 14.109375 22.625 23.890625 
Q 32.328125 33.6875 34.8125 36.53125 
Q 39.546875 41.84375 41.421875 45.53125 
Q 43.3125 49.21875 43.3125 52.78125 
Q 43.3125 58.59375 39.234375 62.25 
Q 35.15625 65.921875 28.609375 65.921875 
Q 23.96875 65.921875 18.8125 64.3125 
Q 13.671875 62.703125 7.8125 59.421875 
L 7.8125 69.390625 
Q 13.765625 71.78125 18.9375 73 
Q 24.125 74.21875 28.421875 74.21875 
Q 39.75 74.21875 46.484375 68.546875 
Q 53.21875 62.890625 53.21875 53.421875 
Q 53.21875 48.921875 51.53125 44.890625 
Q 49.859375 40.875 45.40625 35.40625 
Q 44.1875 33.984375 37.640625 27.21875 
Q 31.109375 20.453125 19.1875 8.296875 
z
" id="DejaVuSans-50"/>
       </defs>
       <use xlink:href="#DejaVuSans-8722"/>
       <use x="83.789062" xlink:href="#DejaVuSans-50"/>
       <use x="147.412109" xlink:href="#DejaVuSans-48"/>
      </g>
     </g>
    </g>
    <g id="xtick_4">
     <g id="line2d_4">
      <g>
       <use style="stroke:#000000;stroke-width:0.8;" x="281.699696" xlink:href="#ma24e5db776" y="384.48"/>
      </g>
     </g>
     <g id="text_4">
      <!-- −10 -->
      <g transform="translate(271.147353 399.078438)scale(0.1 -0.1)">
       <defs>
        <path d="M 12.40625 8.296875 
L 28.515625 8.296875 
L 28.515625 63.921875 
L 10.984375 60.40625 
L 10.984375 69.390625 
L 28.421875 72.90625 
L 38.28125 72.90625 
L 38.28125 8.296875 
L 54.390625 8.296875 
L 54.390625 0 
L 12.40625 0 
z
" id="DejaVuSans-49"/>
       </defs>
       <use xlink:href="#DejaVuSans-8722"/>
       <use x="83.789062" xlink:href="#DejaVuSans-49"/>
       <use x="147.412109" xlink:href="#DejaVuSans-48"/>
      </g>
     </g>
    </g>
    <g id="xtick_5">
     <g id="line2d_5">
      <g>
       <use style="stroke:#000000;stroke-width:0.8;" x="324.835132" xlink:href="#ma24e5db776" y="384.48"/>
      </g>
     </g>
     <g id="text_5">
      <!-- 0 -->
      <g transform="translate(321.653882 399.078438)scale(0.1 -0.1)">
       <use xlink:href="#DejaVuSans-48"/>
      </g>
     </g>
    </g>
    <g id="xtick_6">
     <g id="line2d_6">
      <g>
       <use style="stroke:#000000;stroke-width:0.8;" x="367.970568" xlink:href="#ma24e5db776" y="384.48"/>
      </g>
     </g>
     <g id="text_6">
      <!-- 10 -->
      <g transform="translate(361.608068 399.078438)scale(0.1 -0.1)">
       <use xlink:href="#DejaVuSans-49"/>
       <use x="63.623047" xlink:href="#DejaVuSans-48"/>
      </g>
     </g>
    </g>
    <g id="xtick_7">
     <g id="line2d_7">
      <g>
       <use style="stroke:#000000;stroke-width:0.8;" x="411.106004" xlink:href="#ma24e5db776" y="384.48"/>
      </g>
     </g>
     <g id="text_7">
      <!-- 20 -->
      <g transform="translate(404.743504 399.078438)scale(0.1 -0.1)">
       <use xlink:href="#DejaVuSans-50"/>
       <use x="63.623047" xlink:href="#DejaVuSans-48"/>
      </g>
     </g>
    </g>
    <g id="xtick_8">
     <g id="line2d_8">
      <g>
       <use style="stroke:#000000;stroke-width:0.8;" x="454.24144" xlink:href="#ma24e5db776" y="384.48"/>
      </g>
     </g>
     <g id="text_8">
      <!-- 30 -->
      <g transform="translate(447.87894 399.078438)scale(0.1 -0.1)">
       <use xlink:href="#DejaVuSans-51"/>
       <use x="63.623047" xlink:href="#DejaVuSans-48"/>
      </g>
     </g>
    </g>
    <g id="xtick_9">
     <g id="line2d_9">
      <g>
       <use style="stroke:#000000;stroke-width:0.8;" x="497.376876" xlink:href="#ma24e5db776" y="384.48"/>
      </g>
     </g>
     <g id="text_9">
      <!-- 40 -->
      <g transform="translate(491.014376 399.078438)scale(0.1 -0.1)">
       <use xlink:href="#DejaVuSans-52"/>
       <use x="63.623047" xlink:href="#DejaVuSans-48"/>
      </g>
     </g>
    </g>
    <g id="text_10">
     <!-- x2 -->
     <g transform="translate(319.086648 412.756563)scale(0.1 -0.1)">
      <defs>
       <path d="M 54.890625 54.6875 
L 35.109375 28.078125 
L 55.90625 0 
L 45.3125 0 
L 29.390625 21.484375 
L 13.484375 0 
L 2.875 0 
L 24.125 28.609375 
L 4.6875 54.6875 
L 15.28125 54.6875 
L 29.78125 35.203125 
L 44.28125 54.6875 
z
" id="DejaVuSans-120"/>
      </defs>
      <use xlink:href="#DejaVuSans-120"/>
      <use x="59.179688" xlink:href="#DejaVuSans-50"/>
     </g>
    </g>
   </g>
   <g id="matplotlib.axis_2">
    <g id="ytick_1">
     <g id="line2d_10">
      <defs>
       <path d="M 0 0 
L -3.5 0 
" id="me08a68da61" style="stroke:#000000;stroke-width:0.8;"/>
      </defs>
      <g>
       <use style="stroke:#000000;stroke-width:0.8;" x="135" xlink:href="#me08a68da61" y="369.360022"/>
      </g>
     </g>
     <g id="text_11">
      <!-- 0.0 -->
      <g transform="translate(112.096875 373.159241)scale(0.1 -0.1)">
       <defs>
        <path d="M 10.6875 12.40625 
L 21 12.40625 
L 21 0 
L 10.6875 0 
z
" id="DejaVuSans-46"/>
       </defs>
       <use xlink:href="#DejaVuSans-48"/>
       <use x="63.623047" xlink:href="#DejaVuSans-46"/>
       <use x="95.410156" xlink:href="#DejaVuSans-48"/>
      </g>
     </g>
    </g>
    <g id="ytick_2">
     <g id="line2d_11">
      <g>
       <use style="stroke:#000000;stroke-width:0.8;" x="135" xlink:href="#me08a68da61" y="313.087698"/>
      </g>
     </g>
     <g id="text_12">
      <!-- 0.5 -->
      <g transform="translate(112.096875 316.886917)scale(0.1 -0.1)">
       <defs>
        <path d="M 10.796875 72.90625 
L 49.515625 72.90625 
L 49.515625 64.59375 
L 19.828125 64.59375 
L 19.828125 46.734375 
Q 21.96875 47.46875 24.109375 47.828125 
Q 26.265625 48.1875 28.421875 48.1875 
Q 40.625 48.1875 47.75 41.5 
Q 54.890625 34.8125 54.890625 23.390625 
Q 54.890625 11.625 47.5625 5.09375 
Q 40.234375 -1.421875 26.90625 -1.421875 
Q 22.3125 -1.421875 17.546875 -0.640625 
Q 12.796875 0.140625 7.71875 1.703125 
L 7.71875 11.625 
Q 12.109375 9.234375 16.796875 8.0625 
Q 21.484375 6.890625 26.703125 6.890625 
Q 35.15625 6.890625 40.078125 11.328125 
Q 45.015625 15.765625 45.015625 23.390625 
Q 45.015625 31 40.078125 35.4375 
Q 35.15625 39.890625 26.703125 39.890625 
Q 22.75 39.890625 18.8125 39.015625 
Q 14.890625 38.140625 10.796875 36.28125 
z
" id="DejaVuSans-53"/>
       </defs>
       <use xlink:href="#DejaVuSans-48"/>
       <use x="63.623047" xlink:href="#DejaVuSans-46"/>
       <use x="95.410156" xlink:href="#DejaVuSans-53"/>
      </g>
     </g>
    </g>
    <g id="ytick_3">
     <g id="line2d_12">
      <g>
       <use style="stroke:#000000;stroke-width:0.8;" x="135" xlink:href="#me08a68da61" y="256.815375"/>
      </g>
     </g>
     <g id="text_13">
      <!-- 1.0 -->
      <g transform="translate(112.096875 260.614593)scale(0.1 -0.1)">
       <use xlink:href="#DejaVuSans-49"/>
       <use x="63.623047" xlink:href="#DejaVuSans-46"/>
       <use x="95.410156" xlink:href="#DejaVuSans-48"/>
      </g>
     </g>
    </g>
    <g id="ytick_4">
     <g id="line2d_13">
      <g>
       <use style="stroke:#000000;stroke-width:0.8;" x="135" xlink:href="#me08a68da61" y="200.543051"/>
      </g>
     </g>
     <g id="text_14">
      <!-- 1.5 -->
      <g transform="translate(112.096875 204.34227)scale(0.1 -0.1)">
       <use xlink:href="#DejaVuSans-49"/>
       <use x="63.623047" xlink:href="#DejaVuSans-46"/>
       <use x="95.410156" xlink:href="#DejaVuSans-53"/>
      </g>
     </g>
    </g>
    <g id="ytick_5">
     <g id="line2d_14">
      <g>
       <use style="stroke:#000000;stroke-width:0.8;" x="135" xlink:href="#me08a68da61" y="144.270727"/>
      </g>
     </g>
     <g id="text_15">
      <!-- 2.0 -->
      <g transform="translate(112.096875 148.069946)scale(0.1 -0.1)">
       <use xlink:href="#DejaVuSans-50"/>
       <use x="63.623047" xlink:href="#DejaVuSans-46"/>
       <use x="95.410156" xlink:href="#DejaVuSans-48"/>
      </g>
     </g>
    </g>
    <g id="ytick_6">
     <g id="line2d_15">
      <g>
       <use style="stroke:#000000;stroke-width:0.8;" x="135" xlink:href="#me08a68da61" y="87.998403"/>
      </g>
     </g>
     <g id="text_16">
      <!-- 2.5 -->
      <g transform="translate(112.096875 91.797622)scale(0.1 -0.1)">
       <use xlink:href="#DejaVuSans-50"/>
       <use x="63.623047" xlink:href="#DejaVuSans-46"/>
       <use x="95.410156" xlink:href="#DejaVuSans-53"/>
      </g>
     </g>
    </g>
    <g id="text_17">
     <!-- z -->
     <g transform="translate(106.017187 220.784219)rotate(-90)scale(0.1 -0.1)">
      <defs>
       <path d="M 5.515625 54.6875 
L 48.1875 54.6875 
L 48.1875 46.484375 
L 14.40625 7.171875 
L 48.1875 7.171875 
L 48.1875 0 
L 4.296875 0 
L 4.296875 8.203125 
L 38.09375 47.515625 
L 5.515625 47.515625 
z
" id="DejaVuSans-122"/>
      </defs>
      <use xlink:href="#DejaVuSans-122"/>
     </g>
    </g>
    <g id="text_18">
     <!-- 1e8 -->
     <g transform="translate(135 48.84)scale(0.1 -0.1)">
      <defs>
       <path d="M 56.203125 29.59375 
L 56.203125 25.203125 
L 14.890625 25.203125 
Q 15.484375 15.921875 20.484375 11.0625 
Q 25.484375 6.203125 34.421875 6.203125 
Q 39.59375 6.203125 44.453125 7.46875 
Q 49.3125 8.734375 54.109375 11.28125 
L 54.109375 2.78125 
Q 49.265625 0.734375 44.1875 -0.34375 
Q 39.109375 -1.421875 33.890625 -1.421875 
Q 20.796875 -1.421875 13.15625 6.1875 
Q 5.515625 13.8125 5.515625 26.8125 
Q 5.515625 40.234375 12.765625 48.109375 
Q 20.015625 56 32.328125 56 
Q 43.359375 56 49.78125 48.890625 
Q 56.203125 41.796875 56.203125 29.59375 
z
M 47.21875 32.234375 
Q 47.125 39.59375 43.09375 43.984375 
Q 39.0625 48.390625 32.421875 48.390625 
Q 24.90625 48.390625 20.390625 44.140625 
Q 15.875 39.890625 15.1875 32.171875 
z
" id="DejaVuSans-101"/>
       <path d="M 31.78125 34.625 
Q 24.75 34.625 20.71875 30.859375 
Q 16.703125 27.09375 16.703125 20.515625 
Q 16.703125 13.921875 20.71875 10.15625 
Q 24.75 6.390625 31.78125 6.390625 
Q 38.8125 6.390625 42.859375 10.171875 
Q 46.921875 13.96875 46.921875 20.515625 
Q 46.921875 27.09375 42.890625 30.859375 
Q 38.875 34.625 31.78125 34.625 
z
M 21.921875 38.8125 
Q 15.578125 40.375 12.03125 44.71875 
Q 8.5 49.078125 8.5 55.328125 
Q 8.5 64.0625 14.71875 69.140625 
Q 20.953125 74.21875 31.78125 74.21875 
Q 42.671875 74.21875 48.875 69.140625 
Q 55.078125 64.0625 55.078125 55.328125 
Q 55.078125 49.078125 51.53125 44.71875 
Q 48 40.375 41.703125 38.8125 
Q 48.828125 37.15625 52.796875 32.3125 
Q 56.78125 27.484375 56.78125 20.515625 
Q 56.78125 9.90625 50.3125 4.234375 
Q 43.84375 -1.421875 31.78125 -1.421875 
Q 19.734375 -1.421875 13.25 4.234375 
Q 6.78125 9.90625 6.78125 20.515625 
Q 6.78125 27.484375 10.78125 32.3125 
Q 14.796875 37.15625 21.921875 38.8125 
z
M 18.3125 54.390625 
Q 18.3125 48.734375 21.84375 45.5625 
Q 25.390625 42.390625 31.78125 42.390625 
Q 38.140625 42.390625 41.71875 45.5625 
Q 45.3125 48.734375 45.3125 54.390625 
Q 45.3125 60.0625 41.71875 63.234375 
Q 38.140625 66.40625 31.78125 66.40625 
Q 25.390625 66.40625 21.84375 63.234375 
Q 18.3125 60.0625 18.3125 54.390625 
z
" id="DejaVuSans-56"/>
      </defs>
      <use xlink:href="#DejaVuSans-49"/>
      <use x="63.623047" xlink:href="#DejaVuSans-101"/>
      <use x="125.146484" xlink:href="#DejaVuSans-56"/>
     </g>
    </g>
   </g>
   <g id="line2d_16">
    <path clip-path="url(#p9a007e6b59)" d="M 152.293388 66.96 
L 155.822651 90.680851 
L 159.351914 112.978319 
L 162.881177 133.910503 
L 166.41044 153.534294 
L 169.939703 171.90537 
L 173.468966 189.078201 
L 176.998229 205.106044 
L 180.527492 220.040948 
L 184.056755 233.933751 
L 187.586018 246.834079 
L 191.115281 258.790349 
L 194.644544 269.849768 
L 198.173807 280.058331 
L 201.70307 289.460823 
L 205.232333 298.100821 
L 208.761596 306.020688 
L 212.290858 313.261579 
L 215.820121 319.863437 
L 219.349384 325.864997 
L 222.878647 331.30378 
L 226.40791 336.216099 
L 229.937173 340.637057 
L 233.466436 344.600545 
L 236.995699 348.139245 
L 240.524962 351.284627 
L 244.054225 354.066952 
L 247.583488 356.51527 
L 251.112751 358.65742 
L 254.642014 360.520032 
L 258.171277 362.128524 
L 261.70054 363.507105 
L 265.229803 364.678773 
L 268.759066 365.665315 
L 272.288329 366.487309 
L 275.817591 367.16412 
L 279.346854 367.713906 
L 282.876117 368.153612 
L 286.40538 368.498974 
L 289.934643 368.764516 
L 293.463906 368.963554 
L 296.993169 369.108191 
L 300.522432 369.209321 
L 304.051695 369.276628 
L 307.580958 369.318584 
L 311.110221 369.342452 
L 314.639484 369.354284 
L 318.168747 369.358922 
L 321.69801 369.359997 
L 325.227273 369.35993 
L 328.756536 369.359931 
L 332.285799 369.36 
L 335.815062 369.358927 
L 339.344325 369.354291 
L 342.873587 369.342461 
L 346.40285 369.318594 
L 349.932113 369.27664 
L 353.461376 369.209335 
L 356.990639 369.108207 
L 360.519902 368.963572 
L 364.049165 368.764536 
L 367.578428 368.498995 
L 371.107691 368.153635 
L 374.636954 367.713931 
L 378.166217 367.164147 
L 381.69548 366.487337 
L 385.224743 365.665346 
L 388.754006 364.678805 
L 392.283269 363.507139 
L 395.812532 362.12856 
L 399.341795 360.52007 
L 402.871058 358.657459 
L 406.40032 356.515311 
L 409.929583 354.066995 
L 413.458846 351.284672 
L 416.988109 348.139292 
L 420.517372 344.600594 
L 424.046635 340.637108 
L 427.575898 336.216152 
L 431.105161 331.303834 
L 434.634424 325.865053 
L 438.163687 319.863495 
L 441.69295 313.261639 
L 445.222213 306.02075 
L 448.751476 298.100885 
L 452.280739 289.460889 
L 455.810002 280.058398 
L 459.339265 269.849837 
L 462.868528 258.79042 
L 466.397791 246.834152 
L 469.927053 233.933826 
L 473.456316 220.041025 
L 476.985579 205.106123 
L 480.514842 189.078281 
L 484.044105 171.905452 
L 487.573368 153.534378 
L 491.102631 133.910589 
L 494.631894 112.978406 
L 498.161157 90.68094 
" style="fill:none;stroke:#1f77b4;stroke-linecap:square;stroke-width:1.5;"/>
   </g>
   <g id="patch_3">
    <path d="M 135 384.48 
L 135 51.84 
" style="fill:none;stroke:#000000;stroke-linecap:square;stroke-linejoin:miter;stroke-width:0.8;"/>
   </g>
   <g id="patch_4">
    <path d="M 515.454545 384.48 
L 515.454545 51.84 
" style="fill:none;stroke:#000000;stroke-linecap:square;stroke-linejoin:miter;stroke-width:0.8;"/>
   </g>
   <g id="patch_5">
    <path d="M 135 384.48 
L 515.454545 384.48 
" style="fill:none;stroke:#000000;stroke-linecap:square;stroke-linejoin:miter;stroke-width:0.8;"/>
   </g>
   <g id="patch_6">
    <path d="M 135 51.84 
L 515.454545 51.84 
" style="fill:none;stroke:#000000;stroke-linecap:square;stroke-linejoin:miter;stroke-width:0.8;"/>
   </g>
   <g id="text_19">
    <!-- Zad 2 - Funkcja Rosenbrocka - rzut na x2 -->
    <g transform="translate(202.420398 45.84)scale(0.12 -0.12)">
     <defs>
      <path d="M 5.609375 72.90625 
L 62.890625 72.90625 
L 62.890625 65.375 
L 16.796875 8.296875 
L 64.015625 8.296875 
L 64.015625 0 
L 4.5 0 
L 4.5 7.515625 
L 50.59375 64.59375 
L 5.609375 64.59375 
z
" id="DejaVuSans-90"/>
      <path d="M 34.28125 27.484375 
Q 23.390625 27.484375 19.1875 25 
Q 14.984375 22.515625 14.984375 16.5 
Q 14.984375 11.71875 18.140625 8.90625 
Q 21.296875 6.109375 26.703125 6.109375 
Q 34.1875 6.109375 38.703125 11.40625 
Q 43.21875 16.703125 43.21875 25.484375 
L 43.21875 27.484375 
z
M 52.203125 31.203125 
L 52.203125 0 
L 43.21875 0 
L 43.21875 8.296875 
Q 40.140625 3.328125 35.546875 0.953125 
Q 30.953125 -1.421875 24.3125 -1.421875 
Q 15.921875 -1.421875 10.953125 3.296875 
Q 6 8.015625 6 15.921875 
Q 6 25.140625 12.171875 29.828125 
Q 18.359375 34.515625 30.609375 34.515625 
L 43.21875 34.515625 
L 43.21875 35.40625 
Q 43.21875 41.609375 39.140625 45 
Q 35.0625 48.390625 27.6875 48.390625 
Q 23 48.390625 18.546875 47.265625 
Q 14.109375 46.140625 10.015625 43.890625 
L 10.015625 52.203125 
Q 14.9375 54.109375 19.578125 55.046875 
Q 24.21875 56 28.609375 56 
Q 40.484375 56 46.34375 49.84375 
Q 52.203125 43.703125 52.203125 31.203125 
z
" id="DejaVuSans-97"/>
      <path d="M 45.40625 46.390625 
L 45.40625 75.984375 
L 54.390625 75.984375 
L 54.390625 0 
L 45.40625 0 
L 45.40625 8.203125 
Q 42.578125 3.328125 38.25 0.953125 
Q 33.9375 -1.421875 27.875 -1.421875 
Q 17.96875 -1.421875 11.734375 6.484375 
Q 5.515625 14.40625 5.515625 27.296875 
Q 5.515625 40.1875 11.734375 48.09375 
Q 17.96875 56 27.875 56 
Q 33.9375 56 38.25 53.625 
Q 42.578125 51.265625 45.40625 46.390625 
z
M 14.796875 27.296875 
Q 14.796875 17.390625 18.875 11.75 
Q 22.953125 6.109375 30.078125 6.109375 
Q 37.203125 6.109375 41.296875 11.75 
Q 45.40625 17.390625 45.40625 27.296875 
Q 45.40625 37.203125 41.296875 42.84375 
Q 37.203125 48.484375 30.078125 48.484375 
Q 22.953125 48.484375 18.875 42.84375 
Q 14.796875 37.203125 14.796875 27.296875 
z
" id="DejaVuSans-100"/>
      <path id="DejaVuSans-32"/>
      <path d="M 4.890625 31.390625 
L 31.203125 31.390625 
L 31.203125 23.390625 
L 4.890625 23.390625 
z
" id="DejaVuSans-45"/>
      <path d="M 9.8125 72.90625 
L 51.703125 72.90625 
L 51.703125 64.59375 
L 19.671875 64.59375 
L 19.671875 43.109375 
L 48.578125 43.109375 
L 48.578125 34.8125 
L 19.671875 34.8125 
L 19.671875 0 
L 9.8125 0 
z
" id="DejaVuSans-70"/>
      <path d="M 8.5 21.578125 
L 8.5 54.6875 
L 17.484375 54.6875 
L 17.484375 21.921875 
Q 17.484375 14.15625 20.5 10.265625 
Q 23.53125 6.390625 29.59375 6.390625 
Q 36.859375 6.390625 41.078125 11.03125 
Q 45.3125 15.671875 45.3125 23.6875 
L 45.3125 54.6875 
L 54.296875 54.6875 
L 54.296875 0 
L 45.3125 0 
L 45.3125 8.40625 
Q 42.046875 3.421875 37.71875 1 
Q 33.40625 -1.421875 27.6875 -1.421875 
Q 18.265625 -1.421875 13.375 4.4375 
Q 8.5 10.296875 8.5 21.578125 
z
M 31.109375 56 
z
" id="DejaVuSans-117"/>
      <path d="M 54.890625 33.015625 
L 54.890625 0 
L 45.90625 0 
L 45.90625 32.71875 
Q 45.90625 40.484375 42.875 44.328125 
Q 39.84375 48.1875 33.796875 48.1875 
Q 26.515625 48.1875 22.3125 43.546875 
Q 18.109375 38.921875 18.109375 30.90625 
L 18.109375 0 
L 9.078125 0 
L 9.078125 54.6875 
L 18.109375 54.6875 
L 18.109375 46.1875 
Q 21.34375 51.125 25.703125 53.5625 
Q 30.078125 56 35.796875 56 
Q 45.21875 56 50.046875 50.171875 
Q 54.890625 44.34375 54.890625 33.015625 
z
" id="DejaVuSans-110"/>
      <path d="M 9.078125 75.984375 
L 18.109375 75.984375 
L 18.109375 31.109375 
L 44.921875 54.6875 
L 56.390625 54.6875 
L 27.390625 29.109375 
L 57.625 0 
L 45.90625 0 
L 18.109375 26.703125 
L 18.109375 0 
L 9.078125 0 
z
" id="DejaVuSans-107"/>
      <path d="M 48.78125 52.59375 
L 48.78125 44.1875 
Q 44.96875 46.296875 41.140625 47.34375 
Q 37.3125 48.390625 33.40625 48.390625 
Q 24.65625 48.390625 19.8125 42.84375 
Q 14.984375 37.3125 14.984375 27.296875 
Q 14.984375 17.28125 19.8125 11.734375 
Q 24.65625 6.203125 33.40625 6.203125 
Q 37.3125 6.203125 41.140625 7.25 
Q 44.96875 8.296875 48.78125 10.40625 
L 48.78125 2.09375 
Q 45.015625 0.34375 40.984375 -0.53125 
Q 36.96875 -1.421875 32.421875 -1.421875 
Q 20.0625 -1.421875 12.78125 6.34375 
Q 5.515625 14.109375 5.515625 27.296875 
Q 5.515625 40.671875 12.859375 48.328125 
Q 20.21875 56 33.015625 56 
Q 37.15625 56 41.109375 55.140625 
Q 45.0625 54.296875 48.78125 52.59375 
z
" id="DejaVuSans-99"/>
      <path d="M 9.421875 54.6875 
L 18.40625 54.6875 
L 18.40625 -0.984375 
Q 18.40625 -11.421875 14.421875 -16.109375 
Q 10.453125 -20.796875 1.609375 -20.796875 
L -1.8125 -20.796875 
L -1.8125 -13.1875 
L 0.59375 -13.1875 
Q 5.71875 -13.1875 7.5625 -10.8125 
Q 9.421875 -8.453125 9.421875 -0.984375 
z
M 9.421875 75.984375 
L 18.40625 75.984375 
L 18.40625 64.59375 
L 9.421875 64.59375 
z
" id="DejaVuSans-106"/>
      <path d="M 44.390625 34.1875 
Q 47.5625 33.109375 50.5625 29.59375 
Q 53.5625 26.078125 56.59375 19.921875 
L 66.609375 0 
L 56 0 
L 46.6875 18.703125 
Q 43.0625 26.03125 39.671875 28.421875 
Q 36.28125 30.8125 30.421875 30.8125 
L 19.671875 30.8125 
L 19.671875 0 
L 9.8125 0 
L 9.8125 72.90625 
L 32.078125 72.90625 
Q 44.578125 72.90625 50.734375 67.671875 
Q 56.890625 62.453125 56.890625 51.90625 
Q 56.890625 45.015625 53.6875 40.46875 
Q 50.484375 35.9375 44.390625 34.1875 
z
M 19.671875 64.796875 
L 19.671875 38.921875 
L 32.078125 38.921875 
Q 39.203125 38.921875 42.84375 42.21875 
Q 46.484375 45.515625 46.484375 51.90625 
Q 46.484375 58.296875 42.84375 61.546875 
Q 39.203125 64.796875 32.078125 64.796875 
z
" id="DejaVuSans-82"/>
      <path d="M 30.609375 48.390625 
Q 23.390625 48.390625 19.1875 42.75 
Q 14.984375 37.109375 14.984375 27.296875 
Q 14.984375 17.484375 19.15625 11.84375 
Q 23.34375 6.203125 30.609375 6.203125 
Q 37.796875 6.203125 41.984375 11.859375 
Q 46.1875 17.53125 46.1875 27.296875 
Q 46.1875 37.015625 41.984375 42.703125 
Q 37.796875 48.390625 30.609375 48.390625 
z
M 30.609375 56 
Q 42.328125 56 49.015625 48.375 
Q 55.71875 40.765625 55.71875 27.296875 
Q 55.71875 13.875 49.015625 6.21875 
Q 42.328125 -1.421875 30.609375 -1.421875 
Q 18.84375 -1.421875 12.171875 6.21875 
Q 5.515625 13.875 5.515625 27.296875 
Q 5.515625 40.765625 12.171875 48.375 
Q 18.84375 56 30.609375 56 
z
" id="DejaVuSans-111"/>
      <path d="M 44.28125 53.078125 
L 44.28125 44.578125 
Q 40.484375 46.53125 36.375 47.5 
Q 32.28125 48.484375 27.875 48.484375 
Q 21.1875 48.484375 17.84375 46.4375 
Q 14.5 44.390625 14.5 40.28125 
Q 14.5 37.15625 16.890625 35.375 
Q 19.28125 33.59375 26.515625 31.984375 
L 29.59375 31.296875 
Q 39.15625 29.25 43.1875 25.515625 
Q 47.21875 21.78125 47.21875 15.09375 
Q 47.21875 7.46875 41.1875 3.015625 
Q 35.15625 -1.421875 24.609375 -1.421875 
Q 20.21875 -1.421875 15.453125 -0.5625 
Q 10.6875 0.296875 5.421875 2 
L 5.421875 11.28125 
Q 10.40625 8.6875 15.234375 7.390625 
Q 20.0625 6.109375 24.8125 6.109375 
Q 31.15625 6.109375 34.5625 8.28125 
Q 37.984375 10.453125 37.984375 14.40625 
Q 37.984375 18.0625 35.515625 20.015625 
Q 33.0625 21.96875 24.703125 23.78125 
L 21.578125 24.515625 
Q 13.234375 26.265625 9.515625 29.90625 
Q 5.8125 33.546875 5.8125 39.890625 
Q 5.8125 47.609375 11.28125 51.796875 
Q 16.75 56 26.8125 56 
Q 31.78125 56 36.171875 55.265625 
Q 40.578125 54.546875 44.28125 53.078125 
z
" id="DejaVuSans-115"/>
      <path d="M 48.6875 27.296875 
Q 48.6875 37.203125 44.609375 42.84375 
Q 40.53125 48.484375 33.40625 48.484375 
Q 26.265625 48.484375 22.1875 42.84375 
Q 18.109375 37.203125 18.109375 27.296875 
Q 18.109375 17.390625 22.1875 11.75 
Q 26.265625 6.109375 33.40625 6.109375 
Q 40.53125 6.109375 44.609375 11.75 
Q 48.6875 17.390625 48.6875 27.296875 
z
M 18.109375 46.390625 
Q 20.953125 51.265625 25.265625 53.625 
Q 29.59375 56 35.59375 56 
Q 45.5625 56 51.78125 48.09375 
Q 58.015625 40.1875 58.015625 27.296875 
Q 58.015625 14.40625 51.78125 6.484375 
Q 45.5625 -1.421875 35.59375 -1.421875 
Q 29.59375 -1.421875 25.265625 0.953125 
Q 20.953125 3.328125 18.109375 8.203125 
L 18.109375 0 
L 9.078125 0 
L 9.078125 75.984375 
L 18.109375 75.984375 
z
" id="DejaVuSans-98"/>
      <path d="M 41.109375 46.296875 
Q 39.59375 47.171875 37.8125 47.578125 
Q 36.03125 48 33.890625 48 
Q 26.265625 48 22.1875 43.046875 
Q 18.109375 38.09375 18.109375 28.8125 
L 18.109375 0 
L 9.078125 0 
L 9.078125 54.6875 
L 18.109375 54.6875 
L 18.109375 46.1875 
Q 20.953125 51.171875 25.484375 53.578125 
Q 30.03125 56 36.53125 56 
Q 37.453125 56 38.578125 55.875 
Q 39.703125 55.765625 41.0625 55.515625 
z
" id="DejaVuSans-114"/>
      <path d="M 18.3125 70.21875 
L 18.3125 54.6875 
L 36.8125 54.6875 
L 36.8125 47.703125 
L 18.3125 47.703125 
L 18.3125 18.015625 
Q 18.3125 11.328125 20.140625 9.421875 
Q 21.96875 7.515625 27.59375 7.515625 
L 36.8125 7.515625 
L 36.8125 0 
L 27.59375 0 
Q 17.1875 0 13.234375 3.875 
Q 9.28125 7.765625 9.28125 18.015625 
L 9.28125 47.703125 
L 2.6875 47.703125 
L 2.6875 54.6875 
L 9.28125 54.6875 
L 9.28125 70.21875 
z
" id="DejaVuSans-116"/>
     </defs>
     <use xlink:href="#DejaVuSans-90"/>
     <use x="68.505859" xlink:href="#DejaVuSans-97"/>
     <use x="129.785156" xlink:href="#DejaVuSans-100"/>
     <use x="193.261719" xlink:href="#DejaVuSans-32"/>
     <use x="225.048828" xlink:href="#DejaVuSans-50"/>
     <use x="288.671875" xlink:href="#DejaVuSans-32"/>
     <use x="320.458984" xlink:href="#DejaVuSans-45"/>
     <use x="356.542969" xlink:href="#DejaVuSans-32"/>
     <use x="388.330078" xlink:href="#DejaVuSans-70"/>
     <use x="440.349609" xlink:href="#DejaVuSans-117"/>
     <use x="503.728516" xlink:href="#DejaVuSans-110"/>
     <use x="567.107422" xlink:href="#DejaVuSans-107"/>
     <use x="625.017578" xlink:href="#DejaVuSans-99"/>
     <use x="679.998047" xlink:href="#DejaVuSans-106"/>
     <use x="707.78125" xlink:href="#DejaVuSans-97"/>
     <use x="769.060547" xlink:href="#DejaVuSans-32"/>
     <use x="800.847656" xlink:href="#DejaVuSans-82"/>
     <use x="865.830078" xlink:href="#DejaVuSans-111"/>
     <use x="927.011719" xlink:href="#DejaVuSans-115"/>
     <use x="979.111328" xlink:href="#DejaVuSans-101"/>
     <use x="1040.634766" xlink:href="#DejaVuSans-110"/>
     <use x="1104.013672" xlink:href="#DejaVuSans-98"/>
     <use x="1167.490234" xlink:href="#DejaVuSans-114"/>
     <use x="1206.353516" xlink:href="#DejaVuSans-111"/>
     <use x="1267.535156" xlink:href="#DejaVuSans-99"/>
     <use x="1322.515625" xlink:href="#DejaVuSans-107"/>
     <use x="1378.675781" xlink:href="#DejaVuSans-97"/>
     <use x="1439.955078" xlink:href="#DejaVuSans-32"/>
     <use x="1471.742188" xlink:href="#DejaVuSans-45"/>
     <use x="1507.826172" xlink:href="#DejaVuSans-32"/>
     <use x="1539.613281" xlink:href="#DejaVuSans-114"/>
     <use x="1580.726562" xlink:href="#DejaVuSans-122"/>
     <use x="1633.216797" xlink:href="#DejaVuSans-117"/>
     <use x="1696.595703" xlink:href="#DejaVuSans-116"/>
     <use x="1735.804688" xlink:href="#DejaVuSans-32"/>
     <use x="1767.591797" xlink:href="#DejaVuSans-110"/>
     <use x="1830.970703" xlink:href="#DejaVuSans-97"/>
     <use x="1892.25" xlink:href="#DejaVuSans-32"/>
     <use x="1924.037109" xlink:href="#DejaVuSans-120"/>
     <use x="1983.216797" xlink:href="#DejaVuSans-50"/>
    </g>
   </g>
  </g>
  <g id="axes_2">
   <g id="patch_7">
    <path d="M 591.545455 384.48 
L 895.909091 384.48 
L 895.909091 51.84 
L 591.545455 51.84 
z
" style="fill:#ffffff;"/>
   </g>
   <g id="matplotlib.axis_3">
    <g id="xtick_10">
     <g id="line2d_17">
      <g>
       <use style="stroke:#000000;stroke-width:0.8;" x="591.545455" xlink:href="#ma24e5db776" y="384.48"/>
      </g>
     </g>
     <g id="text_20">
      <!-- −40 -->
      <g transform="translate(580.993111 399.078438)scale(0.1 -0.1)">
       <use xlink:href="#DejaVuSans-8722"/>
       <use x="83.789062" xlink:href="#DejaVuSans-52"/>
       <use x="147.412109" xlink:href="#DejaVuSans-48"/>
      </g>
     </g>
    </g>
    <g id="xtick_11">
     <g id="line2d_18">
      <g>
       <use style="stroke:#000000;stroke-width:0.8;" x="629.121212" xlink:href="#ma24e5db776" y="384.48"/>
      </g>
     </g>
     <g id="text_21">
      <!-- −30 -->
      <g transform="translate(618.568868 399.078438)scale(0.1 -0.1)">
       <use xlink:href="#DejaVuSans-8722"/>
       <use x="83.789062" xlink:href="#DejaVuSans-51"/>
       <use x="147.412109" xlink:href="#DejaVuSans-48"/>
      </g>
     </g>
    </g>
    <g id="xtick_12">
     <g id="line2d_19">
      <g>
       <use style="stroke:#000000;stroke-width:0.8;" x="666.69697" xlink:href="#ma24e5db776" y="384.48"/>
      </g>
     </g>
     <g id="text_22">
      <!-- −20 -->
      <g transform="translate(656.144626 399.078438)scale(0.1 -0.1)">
       <use xlink:href="#DejaVuSans-8722"/>
       <use x="83.789062" xlink:href="#DejaVuSans-50"/>
       <use x="147.412109" xlink:href="#DejaVuSans-48"/>
      </g>
     </g>
    </g>
    <g id="xtick_13">
     <g id="line2d_20">
      <g>
       <use style="stroke:#000000;stroke-width:0.8;" x="704.272727" xlink:href="#ma24e5db776" y="384.48"/>
      </g>
     </g>
     <g id="text_23">
      <!-- −10 -->
      <g transform="translate(693.720384 399.078438)scale(0.1 -0.1)">
       <use xlink:href="#DejaVuSans-8722"/>
       <use x="83.789062" xlink:href="#DejaVuSans-49"/>
       <use x="147.412109" xlink:href="#DejaVuSans-48"/>
      </g>
     </g>
    </g>
    <g id="xtick_14">
     <g id="line2d_21">
      <g>
       <use style="stroke:#000000;stroke-width:0.8;" x="741.848485" xlink:href="#ma24e5db776" y="384.48"/>
      </g>
     </g>
     <g id="text_24">
      <!-- 0 -->
      <g transform="translate(738.667235 399.078438)scale(0.1 -0.1)">
       <use xlink:href="#DejaVuSans-48"/>
      </g>
     </g>
    </g>
    <g id="xtick_15">
     <g id="line2d_22">
      <g>
       <use style="stroke:#000000;stroke-width:0.8;" x="779.424242" xlink:href="#ma24e5db776" y="384.48"/>
      </g>
     </g>
     <g id="text_25">
      <!-- 10 -->
      <g transform="translate(773.061742 399.078438)scale(0.1 -0.1)">
       <use xlink:href="#DejaVuSans-49"/>
       <use x="63.623047" xlink:href="#DejaVuSans-48"/>
      </g>
     </g>
    </g>
    <g id="xtick_16">
     <g id="line2d_23">
      <g>
       <use style="stroke:#000000;stroke-width:0.8;" x="817" xlink:href="#ma24e5db776" y="384.48"/>
      </g>
     </g>
     <g id="text_26">
      <!-- 20 -->
      <g transform="translate(810.6375 399.078438)scale(0.1 -0.1)">
       <use xlink:href="#DejaVuSans-50"/>
       <use x="63.623047" xlink:href="#DejaVuSans-48"/>
      </g>
     </g>
    </g>
    <g id="xtick_17">
     <g id="line2d_24">
      <g>
       <use style="stroke:#000000;stroke-width:0.8;" x="854.575758" xlink:href="#ma24e5db776" y="384.48"/>
      </g>
     </g>
     <g id="text_27">
      <!-- 30 -->
      <g transform="translate(848.213258 399.078438)scale(0.1 -0.1)">
       <use xlink:href="#DejaVuSans-51"/>
       <use x="63.623047" xlink:href="#DejaVuSans-48"/>
      </g>
     </g>
    </g>
    <g id="xtick_18">
     <g id="line2d_25">
      <g>
       <use style="stroke:#000000;stroke-width:0.8;" x="892.151515" xlink:href="#ma24e5db776" y="384.48"/>
      </g>
     </g>
     <g id="text_28">
      <!-- 40 -->
      <g transform="translate(885.789015 399.078438)scale(0.1 -0.1)">
       <use xlink:href="#DejaVuSans-52"/>
       <use x="63.623047" xlink:href="#DejaVuSans-48"/>
      </g>
     </g>
    </g>
    <g id="text_29">
     <!-- x1 -->
     <g transform="translate(737.586648 412.756563)scale(0.1 -0.1)">
      <use xlink:href="#DejaVuSans-120"/>
      <use x="59.179688" xlink:href="#DejaVuSans-49"/>
     </g>
    </g>
   </g>
   <g id="matplotlib.axis_4">
    <g id="ytick_7">
     <g id="line2d_26">
      <g>
       <use style="stroke:#000000;stroke-width:0.8;" x="591.545455" xlink:href="#me08a68da61" y="384.48"/>
      </g>
     </g>
     <g id="text_30">
      <!-- −40 -->
      <g transform="translate(563.440767 388.279219)scale(0.1 -0.1)">
       <use xlink:href="#DejaVuSans-8722"/>
       <use x="83.789062" xlink:href="#DejaVuSans-52"/>
       <use x="147.412109" xlink:href="#DejaVuSans-48"/>
      </g>
     </g>
    </g>
    <g id="ytick_8">
     <g id="line2d_27">
      <g>
       <use style="stroke:#000000;stroke-width:0.8;" x="591.545455" xlink:href="#me08a68da61" y="343.413333"/>
      </g>
     </g>
     <g id="text_31">
      <!-- −30 -->
      <g transform="translate(563.440767 347.212552)scale(0.1 -0.1)">
       <use xlink:href="#DejaVuSans-8722"/>
       <use x="83.789062" xlink:href="#DejaVuSans-51"/>
       <use x="147.412109" xlink:href="#DejaVuSans-48"/>
      </g>
     </g>
    </g>
    <g id="ytick_9">
     <g id="line2d_28">
      <g>
       <use style="stroke:#000000;stroke-width:0.8;" x="591.545455" xlink:href="#me08a68da61" y="302.346667"/>
      </g>
     </g>
     <g id="text_32">
      <!-- −20 -->
      <g transform="translate(563.440767 306.145885)scale(0.1 -0.1)">
       <use xlink:href="#DejaVuSans-8722"/>
       <use x="83.789062" xlink:href="#DejaVuSans-50"/>
       <use x="147.412109" xlink:href="#DejaVuSans-48"/>
      </g>
     </g>
    </g>
    <g id="ytick_10">
     <g id="line2d_29">
      <g>
       <use style="stroke:#000000;stroke-width:0.8;" x="591.545455" xlink:href="#me08a68da61" y="261.28"/>
      </g>
     </g>
     <g id="text_33">
      <!-- −10 -->
      <g transform="translate(563.440767 265.079219)scale(0.1 -0.1)">
       <use xlink:href="#DejaVuSans-8722"/>
       <use x="83.789062" xlink:href="#DejaVuSans-49"/>
       <use x="147.412109" xlink:href="#DejaVuSans-48"/>
      </g>
     </g>
    </g>
    <g id="ytick_11">
     <g id="line2d_30">
      <g>
       <use style="stroke:#000000;stroke-width:0.8;" x="591.545455" xlink:href="#me08a68da61" y="220.213333"/>
      </g>
     </g>
     <g id="text_34">
      <!-- 0 -->
      <g transform="translate(578.182955 224.012552)scale(0.1 -0.1)">
       <use xlink:href="#DejaVuSans-48"/>
      </g>
     </g>
    </g>
    <g id="ytick_12">
     <g id="line2d_31">
      <g>
       <use style="stroke:#000000;stroke-width:0.8;" x="591.545455" xlink:href="#me08a68da61" y="179.146667"/>
      </g>
     </g>
     <g id="text_35">
      <!-- 10 -->
      <g transform="translate(571.820455 182.945885)scale(0.1 -0.1)">
       <use xlink:href="#DejaVuSans-49"/>
       <use x="63.623047" xlink:href="#DejaVuSans-48"/>
      </g>
     </g>
    </g>
    <g id="ytick_13">
     <g id="line2d_32">
      <g>
       <use style="stroke:#000000;stroke-width:0.8;" x="591.545455" xlink:href="#me08a68da61" y="138.08"/>
      </g>
     </g>
     <g id="text_36">
      <!-- 20 -->
      <g transform="translate(571.820455 141.879219)scale(0.1 -0.1)">
       <use xlink:href="#DejaVuSans-50"/>
       <use x="63.623047" xlink:href="#DejaVuSans-48"/>
      </g>
     </g>
    </g>
    <g id="ytick_14">
     <g id="line2d_33">
      <g>
       <use style="stroke:#000000;stroke-width:0.8;" x="591.545455" xlink:href="#me08a68da61" y="97.013333"/>
      </g>
     </g>
     <g id="text_37">
      <!-- 30 -->
      <g transform="translate(571.820455 100.812552)scale(0.1 -0.1)">
       <use xlink:href="#DejaVuSans-51"/>
       <use x="63.623047" xlink:href="#DejaVuSans-48"/>
      </g>
     </g>
    </g>
    <g id="ytick_15">
     <g id="line2d_34">
      <g>
       <use style="stroke:#000000;stroke-width:0.8;" x="591.545455" xlink:href="#me08a68da61" y="55.946667"/>
      </g>
     </g>
     <g id="text_38">
      <!-- 40 -->
      <g transform="translate(571.820455 59.745885)scale(0.1 -0.1)">
       <use xlink:href="#DejaVuSans-52"/>
       <use x="63.623047" xlink:href="#DejaVuSans-48"/>
      </g>
     </g>
    </g>
    <g id="text_39">
     <!-- x2 -->
     <g transform="translate(557.36108 224.300625)rotate(-90)scale(0.1 -0.1)">
      <use xlink:href="#DejaVuSans-120"/>
      <use x="59.179688" xlink:href="#DejaVuSans-50"/>
     </g>
    </g>
   </g>
   <g id="LineCollection_1"/>
   <g id="LineCollection_2">
    <path clip-path="url(#pda2acb432d)" d="M 895.909091 326.761131 
L 892.834711 326.694331 
L 889.760331 326.627621 
L 886.68595 326.561001 
L 883.61157 326.49447 
L 880.53719 326.428027 
L 877.46281 326.361673 
L 874.38843 326.295408 
L 871.31405 326.22923 
L 868.239669 326.163139 
L 865.165289 326.097136 
L 862.090909 326.03122 
L 859.016529 325.96539 
L 855.942149 325.899646 
L 852.867769 325.833988 
L 849.793388 325.768415 
L 846.719008 325.702928 
L 843.644628 325.637525 
L 840.570248 325.572206 
L 837.495868 325.506972 
L 834.421488 325.441822 
L 831.347107 325.376755 
L 828.272727 325.311771 
L 825.198347 325.246871 
L 822.123967 325.182052 
L 819.049587 325.117316 
L 815.975207 325.052662 
L 812.900826 324.988089 
L 809.826446 324.923598 
L 806.752066 324.859187 
L 803.677686 324.794858 
L 800.603306 324.730608 
L 797.528926 324.666439 
L 794.454545 324.602349 
L 791.380165 324.538339 
L 788.305785 324.474407 
L 785.231405 324.410555 
L 782.157025 324.346781 
L 779.082645 324.283086 
L 776.008264 324.219468 
L 772.933884 324.155928 
L 769.859504 324.092465 
L 766.785124 324.02908 
L 765.373916 324 
L 763.710744 323.962258 
L 760.636364 323.892544 
L 757.561983 323.822926 
L 754.487603 323.753404 
L 751.413223 323.683976 
L 748.338843 323.614643 
L 745.264463 323.545405 
L 742.190083 323.47626 
L 739.115702 323.407208 
L 736.041322 323.33825 
L 732.966942 323.269385 
L 729.892562 323.200611 
L 726.818182 323.13193 
L 723.743802 323.06334 
L 720.669421 322.994842 
L 717.595041 322.926435 
L 714.520661 322.858118 
L 711.446281 322.789891 
L 708.371901 322.721754 
L 705.297521 322.653707 
L 702.22314 322.585749 
L 699.14876 322.517879 
L 696.07438 322.450099 
L 693 322.382406 
L 689.92562 322.314801 
L 686.85124 322.247283 
L 683.77686 322.179853 
L 680.702479 322.112509 
L 677.628099 322.045251 
L 674.553719 321.97808 
L 671.479339 321.910995 
L 668.404959 321.843995 
L 665.330579 321.77708 
L 662.256198 321.710249 
L 659.181818 321.643504 
L 656.107438 321.576842 
L 653.033058 321.510264 
L 649.958678 321.44377 
L 646.884298 321.377358 
L 643.809917 321.31103 
L 640.735537 321.244784 
L 637.661157 321.17862 
L 634.586777 321.112539 
L 631.512397 321.046539 
L 628.438017 320.98062 
L 625.363636 320.914782 
L 622.289256 320.849025 
L 619.214876 320.783348 
L 616.140496 320.717751 
L 613.066116 320.652234 
L 612.491926 320.64 
L 609.991736 320.581397 
L 606.917355 320.509417 
L 603.842975 320.437536 
L 600.768595 320.365752 
L 597.694215 320.294066 
L 594.619835 320.222478 
L 591.545455 320.150987 
" style="fill:none;stroke:#472d7b;stroke-width:1.5;"/>
    <path clip-path="url(#pda2acb432d)" d="M 591.545455 120.293485 
L 594.619835 120.22354 
L 597.694215 120.153502 
L 600.768595 120.083372 
L 603.842975 120.013149 
L 606.917355 119.942832 
L 609.991736 119.872422 
L 613.066116 119.801918 
L 616.140496 119.731319 
L 619.214876 119.660625 
L 622.289256 119.589836 
L 625.363636 119.518951 
L 628.438017 119.447971 
L 631.512397 119.376894 
L 634.586777 119.30572 
L 637.661157 119.234449 
L 640.735537 119.163081 
L 643.809917 119.091614 
L 646.028065 119.04 
L 646.884298 119.021893 
L 649.958678 118.956859 
L 653.033058 118.891746 
L 656.107438 118.826554 
L 659.181818 118.761282 
L 662.256198 118.69593 
L 665.330579 118.630497 
L 668.404959 118.564984 
L 671.479339 118.499389 
L 674.553719 118.433714 
L 677.628099 118.367957 
L 680.702479 118.302118 
L 683.77686 118.236196 
L 686.85124 118.170193 
L 689.92562 118.104106 
L 693 118.037936 
L 696.07438 117.971683 
L 699.14876 117.905346 
L 702.22314 117.838925 
L 705.297521 117.772419 
L 708.371901 117.705829 
L 711.446281 117.639153 
L 714.520661 117.572392 
L 717.595041 117.505546 
L 720.669421 117.438613 
L 723.743802 117.371594 
L 726.818182 117.304488 
L 729.892562 117.237295 
L 732.966942 117.170014 
L 736.041322 117.102646 
L 739.115702 117.035189 
L 742.190083 116.967644 
L 745.264463 116.900011 
L 748.338843 116.832288 
L 751.413223 116.764476 
L 754.487603 116.696573 
L 757.561983 116.628581 
L 760.636364 116.560498 
L 763.710744 116.492324 
L 766.785124 116.424059 
L 769.859504 116.355702 
L 772.933884 116.287253 
L 776.008264 116.218711 
L 779.082645 116.150077 
L 782.157025 116.08135 
L 785.231405 116.01253 
L 788.305785 115.943615 
L 791.380165 115.874606 
L 794.454545 115.805503 
L 797.528926 115.736305 
L 800.027634 115.68 
L 800.603306 115.668223 
L 803.677686 115.605318 
L 806.752066 115.542337 
L 809.826446 115.479279 
L 812.900826 115.416144 
L 815.975207 115.352932 
L 819.049587 115.289642 
L 822.123967 115.226275 
L 825.198347 115.162829 
L 828.272727 115.099305 
L 831.347107 115.035702 
L 834.421488 114.97202 
L 837.495868 114.908259 
L 840.570248 114.844418 
L 843.644628 114.780497 
L 846.719008 114.716496 
L 849.793388 114.652414 
L 852.867769 114.588252 
L 855.942149 114.524008 
L 859.016529 114.459683 
L 862.090909 114.395276 
L 865.165289 114.330787 
L 868.239669 114.266215 
L 871.31405 114.201561 
L 874.38843 114.136824 
L 877.46281 114.072003 
L 880.53719 114.007099 
L 883.61157 113.94211 
L 886.68595 113.877037 
L 889.760331 113.81188 
L 892.834711 113.746637 
L 895.909091 113.681309 
" style="fill:none;stroke:#472d7b;stroke-width:1.5;"/>
   </g>
   <g id="LineCollection_3">
    <path clip-path="url(#pda2acb432d)" d="M 895.909091 345.779639 
L 892.834711 345.724801 
L 889.760331 345.670013 
L 886.68595 345.615275 
L 883.61157 345.560587 
L 880.53719 345.505948 
L 877.46281 345.451359 
L 874.38843 345.396819 
L 871.31405 345.342328 
L 868.239669 345.287886 
L 865.165289 345.233494 
L 862.090909 345.179149 
L 859.016529 345.124854 
L 855.942149 345.070607 
L 852.867769 345.016408 
L 849.793388 344.962258 
L 846.719008 344.908155 
L 843.644628 344.854101 
L 840.570248 344.800094 
L 837.495868 344.746135 
L 834.421488 344.692224 
L 831.347107 344.63836 
L 828.272727 344.584544 
L 825.198347 344.530775 
L 822.123967 344.477052 
L 819.049587 344.423377 
L 815.975207 344.369749 
L 812.900826 344.316167 
L 809.826446 344.262632 
L 806.752066 344.209143 
L 803.925218 344.16 
L 803.677686 344.155332 
L 800.603306 344.097357 
L 797.528926 344.039439 
L 794.454545 343.981576 
L 791.380165 343.923768 
L 788.305785 343.866016 
L 785.231405 343.80832 
L 782.157025 343.750678 
L 779.082645 343.693091 
L 776.008264 343.635559 
L 772.933884 343.578082 
L 769.859504 343.520659 
L 766.785124 343.463291 
L 763.710744 343.405976 
L 760.636364 343.348716 
L 757.561983 343.29151 
L 754.487603 343.234357 
L 751.413223 343.177258 
L 748.338843 343.120212 
L 745.264463 343.063219 
L 742.190083 343.00628 
L 739.115702 342.949394 
L 736.041322 342.89256 
L 732.966942 342.835779 
L 729.892562 342.779051 
L 726.818182 342.722375 
L 723.743802 342.665751 
L 720.669421 342.609179 
L 717.595041 342.55266 
L 714.520661 342.496192 
L 711.446281 342.439776 
L 708.371901 342.383411 
L 705.297521 342.327098 
L 702.22314 342.270836 
L 699.14876 342.214625 
L 696.07438 342.158465 
L 693 342.102356 
L 689.92562 342.046298 
L 686.85124 341.99029 
L 683.77686 341.934333 
L 680.702479 341.878425 
L 677.628099 341.822568 
L 674.553719 341.766762 
L 671.479339 341.711004 
L 668.404959 341.655297 
L 665.330579 341.599639 
L 662.256198 341.544031 
L 659.181818 341.488472 
L 656.107438 341.432963 
L 653.033058 341.377502 
L 649.958678 341.32209 
L 646.884298 341.266727 
L 643.809917 341.211413 
L 640.735537 341.156147 
L 637.661157 341.10093 
L 634.586777 341.045761 
L 631.512397 340.99064 
L 628.438017 340.935568 
L 625.363636 340.880543 
L 622.289256 340.825566 
L 620.859041 340.8 
L 619.214876 340.768141 
L 616.140496 340.7086 
L 613.066116 340.649117 
L 609.991736 340.58969 
L 606.917355 340.53032 
L 603.842975 340.471008 
L 600.768595 340.411751 
L 597.694215 340.352552 
L 594.619835 340.293408 
L 591.545455 340.234321 
" style="fill:none;stroke:#3b528b;stroke-width:1.5;"/>
    <path clip-path="url(#pda2acb432d)" d="M 591.545455 100.205938 
L 594.619835 100.147925 
L 597.694215 100.089859 
L 600.768595 100.031739 
L 603.842975 99.973565 
L 606.917355 99.915337 
L 609.991736 99.857054 
L 613.066116 99.798717 
L 616.140496 99.740324 
L 619.214876 99.681878 
L 622.289256 99.623376 
L 625.363636 99.564818 
L 628.438017 99.506206 
L 631.512397 99.447538 
L 634.586777 99.388815 
L 637.661157 99.330035 
L 640.735537 99.2712 
L 643.809917 99.212309 
L 646.884298 99.153361 
L 649.958678 99.094357 
L 653.033058 99.035296 
L 656.107438 98.976179 
L 659.181818 98.917005 
L 661.103202 98.88 
L 662.256198 98.859518 
L 665.330579 98.804888 
L 668.404959 98.75021 
L 671.479339 98.695485 
L 674.553719 98.640712 
L 677.628099 98.585891 
L 680.702479 98.531022 
L 683.77686 98.476105 
L 686.85124 98.42114 
L 689.92562 98.366127 
L 693 98.311065 
L 696.07438 98.255954 
L 699.14876 98.200795 
L 702.22314 98.145587 
L 705.297521 98.09033 
L 708.371901 98.035023 
L 711.446281 97.979668 
L 714.520661 97.924263 
L 717.595041 97.868808 
L 720.669421 97.813304 
L 723.743802 97.75775 
L 726.818182 97.702146 
L 729.892562 97.646492 
L 732.966942 97.590788 
L 736.041322 97.535034 
L 739.115702 97.479229 
L 742.190083 97.423373 
L 745.264463 97.367467 
L 748.338843 97.311509 
L 751.413223 97.255501 
L 754.487603 97.199441 
L 757.561983 97.14333 
L 760.636364 97.087168 
L 763.710744 97.030954 
L 766.785124 96.974688 
L 769.859504 96.918371 
L 772.933884 96.862001 
L 776.008264 96.805579 
L 779.082645 96.749105 
L 782.157025 96.692579 
L 785.231405 96.636 
L 788.305785 96.579368 
L 791.380165 96.522683 
L 794.454545 96.465945 
L 797.528926 96.409154 
L 800.603306 96.352309 
L 803.677686 96.295411 
L 806.752066 96.23846 
L 809.826446 96.181454 
L 812.900826 96.124395 
L 815.975207 96.067281 
L 819.049587 96.010114 
L 822.123967 95.952892 
L 825.198347 95.895615 
L 828.272727 95.838284 
L 831.347107 95.780897 
L 834.421488 95.723456 
L 837.495868 95.66596 
L 840.570248 95.608408 
L 843.644628 95.550801 
L 845.287539 95.52 
L 846.719008 95.495266 
L 849.793388 95.442122 
L 852.867769 95.388933 
L 855.942149 95.335698 
L 859.016529 95.282416 
L 862.090909 95.229087 
L 865.165289 95.175712 
L 868.239669 95.122291 
L 871.31405 95.068822 
L 874.38843 95.015307 
L 877.46281 94.961744 
L 880.53719 94.908135 
L 883.61157 94.854478 
L 886.68595 94.800773 
L 889.760331 94.747021 
L 892.834711 94.693221 
L 895.909091 94.639373 
" style="fill:none;stroke:#3b528b;stroke-width:1.5;"/>
   </g>
   <g id="LineCollection_4">
    <path clip-path="url(#pda2acb432d)" d="M 895.909091 358.626892 
L 892.834711 358.577783 
L 889.760331 358.528709 
L 886.68595 358.479671 
L 883.61157 358.43067 
L 880.53719 358.381703 
L 877.46281 358.332773 
L 874.38843 358.283878 
L 871.31405 358.235018 
L 868.239669 358.186194 
L 865.165289 358.137405 
L 862.090909 358.088651 
L 859.016529 358.039932 
L 855.942149 357.991249 
L 852.867769 357.9426 
L 849.793388 357.893986 
L 846.719008 357.845407 
L 843.644628 357.796863 
L 840.570248 357.748353 
L 837.495868 357.699878 
L 834.421488 357.651438 
L 831.347107 357.603032 
L 831.154536 357.6 
L 828.272727 357.551159 
L 825.198347 357.499092 
L 822.123967 357.447066 
L 819.049587 357.395081 
L 815.975207 357.343136 
L 812.900826 357.291232 
L 809.826446 357.239368 
L 806.752066 357.187544 
L 803.677686 357.13576 
L 800.603306 357.084017 
L 797.528926 357.032313 
L 794.454545 356.98065 
L 791.380165 356.929026 
L 788.305785 356.877442 
L 785.231405 356.825897 
L 782.157025 356.774392 
L 779.082645 356.722927 
L 776.008264 356.671501 
L 772.933884 356.620114 
L 769.859504 356.568766 
L 766.785124 356.517457 
L 763.710744 356.466188 
L 760.636364 356.414957 
L 757.561983 356.363765 
L 754.487603 356.312612 
L 751.413223 356.261497 
L 748.338843 356.210421 
L 745.264463 356.159384 
L 742.190083 356.108385 
L 739.115702 356.057424 
L 736.041322 356.006501 
L 732.966942 355.955617 
L 729.892562 355.90477 
L 726.818182 355.853962 
L 723.743802 355.803191 
L 720.669421 355.752458 
L 717.595041 355.701763 
L 714.520661 355.651106 
L 711.446281 355.600486 
L 708.371901 355.549903 
L 705.297521 355.499358 
L 702.22314 355.44885 
L 699.14876 355.39838 
L 696.07438 355.347946 
L 693 355.29755 
L 689.92562 355.24719 
L 686.85124 355.196867 
L 683.77686 355.146582 
L 680.702479 355.096332 
L 677.628099 355.04612 
L 674.553719 354.995944 
L 671.479339 354.945804 
L 668.404959 354.895701 
L 665.330579 354.845634 
L 662.256198 354.795604 
L 659.181818 354.745609 
L 656.107438 354.695651 
L 653.033058 354.645728 
L 649.958678 354.595842 
L 646.884298 354.545991 
L 643.809917 354.496176 
L 640.735537 354.446397 
L 637.661157 354.396653 
L 634.586777 354.346945 
L 631.512397 354.297272 
L 628.438017 354.247635 
L 627.965082 354.24 
L 625.363636 354.194819 
L 622.289256 354.14146 
L 619.214876 354.088143 
L 616.140496 354.034867 
L 613.066116 353.981633 
L 609.991736 353.92844 
L 606.917355 353.875289 
L 603.842975 353.822178 
L 600.768595 353.769109 
L 597.694215 353.716081 
L 594.619835 353.663094 
L 591.545455 353.610148 
" style="fill:none;stroke:#2c728e;stroke-width:1.5;"/>
    <path clip-path="url(#pda2acb432d)" d="M 591.545455 86.827748 
L 594.619835 86.775672 
L 597.694215 86.723557 
L 600.768595 86.671402 
L 603.842975 86.619208 
L 606.917355 86.566975 
L 609.991736 86.514701 
L 613.066116 86.462388 
L 616.140496 86.410035 
L 619.214876 86.357642 
L 622.289256 86.305209 
L 625.363636 86.252736 
L 628.438017 86.200223 
L 631.512397 86.147669 
L 634.586777 86.095075 
L 637.661157 86.042441 
L 640.735537 85.989766 
L 643.809917 85.93705 
L 646.884298 85.884294 
L 649.958678 85.831496 
L 653.033058 85.778658 
L 656.107438 85.725779 
L 659.181818 85.672858 
L 662.256198 85.619897 
L 665.330579 85.566894 
L 668.404959 85.513849 
L 671.479339 85.460763 
L 672.681422 85.44 
L 674.553719 85.409943 
L 677.628099 85.360568 
L 680.702479 85.311158 
L 683.77686 85.261712 
L 686.85124 85.212231 
L 689.92562 85.162715 
L 693 85.113163 
L 696.07438 85.063575 
L 699.14876 85.013952 
L 702.22314 84.964293 
L 705.297521 84.914599 
L 708.371901 84.864868 
L 711.446281 84.815101 
L 714.520661 84.765299 
L 717.595041 84.71546 
L 720.669421 84.665585 
L 723.743802 84.615674 
L 726.818182 84.565726 
L 729.892562 84.515742 
L 732.966942 84.465722 
L 736.041322 84.415665 
L 739.115702 84.365571 
L 742.190083 84.31544 
L 745.264463 84.265273 
L 748.338843 84.215068 
L 751.413223 84.164827 
L 754.487603 84.114548 
L 757.561983 84.064232 
L 760.636364 84.013879 
L 763.710744 83.963489 
L 766.785124 83.913061 
L 769.859504 83.862596 
L 772.933884 83.812093 
L 776.008264 83.761552 
L 779.082645 83.710974 
L 782.157025 83.660358 
L 785.231405 83.609703 
L 788.305785 83.559011 
L 791.380165 83.508281 
L 794.454545 83.457512 
L 797.528926 83.406706 
L 800.603306 83.35586 
L 803.677686 83.304977 
L 806.752066 83.254055 
L 809.826446 83.203094 
L 812.900826 83.152094 
L 815.975207 83.101056 
L 819.049587 83.049979 
L 822.123967 82.998862 
L 825.198347 82.947707 
L 828.272727 82.896513 
L 831.347107 82.845279 
L 834.421488 82.794006 
L 837.495868 82.742693 
L 840.570248 82.691341 
L 843.644628 82.63995 
L 846.719008 82.588518 
L 849.793388 82.537047 
L 852.867769 82.485536 
L 855.942149 82.433986 
L 859.016529 82.382395 
L 862.090909 82.330763 
L 865.165289 82.279092 
L 868.239669 82.22738 
L 871.31405 82.175628 
L 874.38843 82.123835 
L 876.988739 82.08 
L 877.46281 82.072577 
L 880.53719 82.024433 
L 883.61157 81.976254 
L 886.68595 81.928041 
L 889.760331 81.879794 
L 892.834711 81.831512 
L 895.909091 81.783196 
" style="fill:none;stroke:#2c728e;stroke-width:1.5;"/>
   </g>
   <g id="LineCollection_5">
    <path clip-path="url(#pda2acb432d)" d="M 895.909091 368.594 
L 892.834711 368.548247 
L 889.760331 368.502523 
L 886.68595 368.456828 
L 883.61157 368.411162 
L 880.53719 368.365524 
L 877.46281 368.319916 
L 874.38843 368.274336 
L 871.31405 368.228784 
L 868.239669 368.183261 
L 865.165289 368.137767 
L 862.090909 368.092301 
L 859.016529 368.046863 
L 855.942149 368.001454 
L 852.867769 367.956073 
L 849.793388 367.91072 
L 846.719008 367.865395 
L 843.644628 367.820099 
L 840.570248 367.77483 
L 837.495868 367.729589 
L 834.421488 367.684377 
L 834.123851 367.68 
L 831.347107 367.636268 
L 828.272727 367.587878 
L 825.198347 367.539521 
L 822.123967 367.491196 
L 819.049587 367.442904 
L 815.975207 367.394644 
L 812.900826 367.346417 
L 809.826446 367.298222 
L 806.752066 367.250059 
L 803.677686 367.201929 
L 800.603306 367.153831 
L 797.528926 367.105765 
L 794.454545 367.057731 
L 791.380165 367.009729 
L 788.305785 366.961758 
L 785.231405 366.91382 
L 782.157025 366.865913 
L 779.082645 366.818039 
L 776.008264 366.770195 
L 772.933884 366.722384 
L 769.859504 366.674604 
L 766.785124 366.626855 
L 763.710744 366.579138 
L 760.636364 366.531453 
L 757.561983 366.483798 
L 754.487603 366.436175 
L 751.413223 366.388583 
L 748.338843 366.341022 
L 745.264463 366.293492 
L 742.190083 366.245993 
L 739.115702 366.198525 
L 736.041322 366.151088 
L 732.966942 366.103682 
L 729.892562 366.056306 
L 726.818182 366.008961 
L 723.743802 365.961647 
L 720.669421 365.914363 
L 717.595041 365.86711 
L 714.520661 365.819887 
L 711.446281 365.772695 
L 708.371901 365.725533 
L 705.297521 365.678401 
L 702.22314 365.6313 
L 699.14876 365.584228 
L 696.07438 365.537187 
L 693 365.490176 
L 689.92562 365.443195 
L 686.85124 365.396244 
L 683.77686 365.349322 
L 680.702479 365.302431 
L 677.628099 365.255569 
L 674.553719 365.208737 
L 671.479339 365.161934 
L 668.404959 365.115161 
L 665.330579 365.068418 
L 662.256198 365.021704 
L 659.181818 364.975019 
L 656.107438 364.928364 
L 653.033058 364.881738 
L 649.958678 364.835142 
L 646.884298 364.788574 
L 643.809917 364.742036 
L 640.735537 364.695527 
L 637.661157 364.649047 
L 634.586777 364.602595 
L 631.512397 364.556173 
L 628.438017 364.50978 
L 625.363636 364.463415 
L 622.289256 364.417079 
L 619.214876 364.370772 
L 616.140496 364.324493 
L 615.841972 364.32 
L 613.066116 364.275275 
L 609.991736 364.22577 
L 606.917355 364.176299 
L 603.842975 364.12686 
L 600.768595 364.077456 
L 597.694215 364.028084 
L 594.619835 363.978746 
L 591.545455 363.92944 
" style="fill:none;stroke:#21918c;stroke-width:1.5;"/>
    <path clip-path="url(#pda2acb432d)" d="M 591.545455 76.511337 
L 594.619835 76.462789 
L 597.694215 76.41421 
L 600.768595 76.365598 
L 603.842975 76.316954 
L 606.917355 76.268278 
L 609.991736 76.21957 
L 613.066116 76.170829 
L 616.140496 76.122057 
L 619.214876 76.073252 
L 622.289256 76.024414 
L 625.363636 75.975544 
L 628.438017 75.926642 
L 631.512397 75.877707 
L 634.586777 75.828739 
L 637.661157 75.779739 
L 640.735537 75.730705 
L 643.809917 75.681639 
L 646.884298 75.63254 
L 649.958678 75.583408 
L 653.033058 75.534243 
L 656.107438 75.485045 
L 659.181818 75.435813 
L 662.256198 75.386549 
L 663.912358 75.36 
L 665.330579 75.338764 
L 668.404959 75.292716 
L 671.479339 75.24664 
L 674.553719 75.200535 
L 677.628099 75.154401 
L 680.702479 75.108239 
L 683.77686 75.062048 
L 686.85124 75.015829 
L 689.92562 74.96958 
L 693 74.923303 
L 696.07438 74.876997 
L 699.14876 74.830661 
L 702.22314 74.784297 
L 705.297521 74.737903 
L 708.371901 74.691481 
L 711.446281 74.645029 
L 714.520661 74.598548 
L 717.595041 74.552037 
L 720.669421 74.505498 
L 723.743802 74.458928 
L 726.818182 74.412329 
L 729.892562 74.365701 
L 732.966942 74.319043 
L 736.041322 74.272356 
L 739.115702 74.225638 
L 742.190083 74.178891 
L 745.264463 74.132114 
L 748.338843 74.085307 
L 751.413223 74.03847 
L 754.487603 73.991604 
L 757.561983 73.944707 
L 760.636364 73.89778 
L 763.710744 73.850822 
L 766.785124 73.803835 
L 769.859504 73.756817 
L 772.933884 73.709769 
L 776.008264 73.66269 
L 779.082645 73.615581 
L 782.157025 73.568442 
L 785.231405 73.521271 
L 788.305785 73.47407 
L 791.380165 73.426839 
L 794.454545 73.379576 
L 797.528926 73.332283 
L 800.603306 73.284959 
L 803.677686 73.237604 
L 806.752066 73.190218 
L 809.826446 73.142801 
L 812.900826 73.095352 
L 815.975207 73.047873 
L 819.049587 73.000362 
L 822.123967 72.95282 
L 825.198347 72.905246 
L 828.272727 72.857641 
L 831.347107 72.810005 
L 834.421488 72.762337 
L 837.495868 72.714637 
L 840.570248 72.666906 
L 843.644628 72.619142 
L 846.719008 72.571347 
L 849.793388 72.523521 
L 852.867769 72.475662 
L 855.942149 72.427771 
L 859.016529 72.379848 
L 862.090909 72.331893 
L 865.165289 72.283906 
L 868.239669 72.235886 
L 871.31405 72.187834 
L 874.38843 72.13975 
L 877.46281 72.091633 
L 880.53719 72.043484 
L 883.31199 72 
L 883.61157 71.995617 
L 886.68595 71.950635 
L 889.760331 71.905625 
L 892.834711 71.860587 
L 895.909091 71.815521 
" style="fill:none;stroke:#21918c;stroke-width:1.5;"/>
   </g>
   <g id="LineCollection_6">
    <path clip-path="url(#pda2acb432d)" d="M 895.909091 376.849506 
L 892.834711 376.804806 
L 889.760331 376.760133 
L 886.68595 376.715486 
L 883.61157 376.670865 
L 880.53719 376.62627 
L 877.46281 376.581701 
L 874.38843 376.537159 
L 871.31405 376.492642 
L 868.239669 376.448152 
L 865.165289 376.403687 
L 862.090909 376.359249 
L 859.016529 376.314836 
L 855.942149 376.27045 
L 852.867769 376.226089 
L 849.793388 376.181754 
L 846.719008 376.137444 
L 843.644628 376.093161 
L 840.570248 376.048902 
L 837.495868 376.00467 
L 834.421488 375.960463 
L 831.347107 375.916281 
L 828.272727 375.872125 
L 825.198347 375.827995 
L 822.123967 375.783889 
L 819.049587 375.739809 
L 815.975207 375.695755 
L 812.900826 375.651725 
L 809.826446 375.607721 
L 806.752066 375.563742 
L 803.677686 375.519788 
L 800.603306 375.475859 
L 797.528926 375.431955 
L 794.454545 375.388076 
L 791.380165 375.344222 
L 788.305785 375.300393 
L 785.231405 375.256588 
L 782.157025 375.212809 
L 779.082645 375.169054 
L 776.008264 375.125324 
L 772.933884 375.081619 
L 769.859504 375.037938 
L 766.785124 374.994282 
L 763.710744 374.95065 
L 760.636364 374.907043 
L 757.561983 374.86346 
L 754.487603 374.819902 
L 751.413223 374.776368 
L 748.338843 374.732859 
L 745.264463 374.689373 
L 742.190083 374.645913 
L 739.115702 374.602476 
L 736.041322 374.559063 
L 732.966942 374.515675 
L 729.892562 374.47231 
L 726.818182 374.42897 
L 724.762412 374.4 
L 723.743802 374.384687 
L 720.669421 374.338478 
L 717.595041 374.292298 
L 714.520661 374.246145 
L 711.446281 374.200019 
L 708.371901 374.153922 
L 705.297521 374.107852 
L 702.22314 374.06181 
L 699.14876 374.015795 
L 696.07438 373.969808 
L 693 373.923848 
L 689.92562 373.877916 
L 686.85124 373.832011 
L 683.77686 373.786134 
L 680.702479 373.740283 
L 677.628099 373.69446 
L 674.553719 373.648664 
L 671.479339 373.602896 
L 668.404959 373.557154 
L 665.330579 373.511439 
L 662.256198 373.465752 
L 659.181818 373.420091 
L 656.107438 373.374457 
L 653.033058 373.32885 
L 649.958678 373.28327 
L 646.884298 373.237716 
L 643.809917 373.19219 
L 640.735537 373.14669 
L 637.661157 373.101216 
L 634.586777 373.055769 
L 631.512397 373.010349 
L 628.438017 372.964955 
L 625.363636 372.919587 
L 622.289256 372.874246 
L 619.214876 372.828931 
L 616.140496 372.783643 
L 613.066116 372.738381 
L 609.991736 372.693145 
L 606.917355 372.647935 
L 603.842975 372.602751 
L 600.768595 372.557593 
L 597.694215 372.512461 
L 594.619835 372.467356 
L 591.545455 372.422276 
" style="fill:none;stroke:#28ae80;stroke-width:1.5;"/>
    <path clip-path="url(#pda2acb432d)" d="M 591.545455 67.994949 
L 594.619835 67.95051 
L 597.694215 67.906045 
L 600.768595 67.861555 
L 603.842975 67.81704 
L 606.917355 67.7725 
L 609.991736 67.727934 
L 613.066116 67.683344 
L 616.140496 67.638727 
L 619.214876 67.594086 
L 622.289256 67.549419 
L 625.363636 67.504727 
L 628.438017 67.460009 
L 631.512397 67.415265 
L 634.586777 67.370496 
L 637.661157 67.325702 
L 640.735537 67.280881 
L 643.809917 67.236035 
L 646.884298 67.191164 
L 649.958678 67.146266 
L 653.033058 67.101342 
L 656.107438 67.056393 
L 659.181818 67.011418 
L 662.256198 66.966416 
L 665.330579 66.921389 
L 668.404959 66.876335 
L 671.479339 66.831256 
L 674.553719 66.78615 
L 677.628099 66.741018 
L 680.702479 66.695859 
L 683.77686 66.650675 
L 686.85124 66.605464 
L 689.92562 66.560226 
L 693 66.514962 
L 696.07438 66.469672 
L 699.14876 66.424355 
L 702.22314 66.379011 
L 705.297521 66.333641 
L 708.371901 66.288244 
L 711.446281 66.242821 
L 714.520661 66.197371 
L 717.595041 66.151893 
L 720.669421 66.106389 
L 723.743802 66.060858 
L 726.818182 66.0153 
L 729.892562 65.969715 
L 732.966942 65.924103 
L 736.041322 65.878464 
L 739.115702 65.832798 
L 742.190083 65.787104 
L 745.264463 65.741383 
L 748.338843 65.695635 
L 751.413223 65.64986 
L 754.487603 65.604057 
L 757.561983 65.558227 
L 760.636364 65.512369 
L 763.710744 65.466484 
L 766.785124 65.420571 
L 769.859504 65.37463 
L 772.933884 65.328662 
L 776.008264 65.282666 
L 776.186441 65.28 
L 779.082645 65.239385 
L 782.157025 65.19625 
L 785.231405 65.15309 
L 788.305785 65.109906 
L 791.380165 65.066698 
L 794.454545 65.023467 
L 797.528926 64.980211 
L 800.603306 64.936931 
L 803.677686 64.893627 
L 806.752066 64.850298 
L 809.826446 64.806945 
L 812.900826 64.763568 
L 815.975207 64.720167 
L 819.049587 64.676741 
L 822.123967 64.633291 
L 825.198347 64.589817 
L 828.272727 64.546317 
L 831.347107 64.502794 
L 834.421488 64.459245 
L 837.495868 64.415672 
L 840.570248 64.372075 
L 843.644628 64.328452 
L 846.719008 64.284805 
L 849.793388 64.241133 
L 852.867769 64.197436 
L 855.942149 64.153715 
L 859.016529 64.109968 
L 862.090909 64.066196 
L 865.165289 64.0224 
L 868.239669 63.978578 
L 871.31405 63.934731 
L 874.38843 63.890859 
L 877.46281 63.846962 
L 880.53719 63.803039 
L 883.61157 63.759092 
L 886.68595 63.715118 
L 889.760331 63.67112 
L 892.834711 63.627096 
L 895.909091 63.583047 
" style="fill:none;stroke:#28ae80;stroke-width:1.5;"/>
   </g>
   <g id="LineCollection_7">
    <path clip-path="url(#pda2acb432d)" d="M 895.909091 383.961947 
L 892.834711 383.918903 
L 889.760331 383.875881 
L 886.68595 383.832883 
L 883.61157 383.789908 
L 880.53719 383.746956 
L 877.46281 383.704028 
L 874.38843 383.661123 
L 871.31405 383.618241 
L 868.239669 383.575382 
L 865.165289 383.532546 
L 862.090909 383.489733 
L 859.016529 383.446943 
L 855.942149 383.404176 
L 852.867769 383.361432 
L 849.793388 383.318711 
L 846.719008 383.276013 
L 843.644628 383.233338 
L 840.570248 383.190685 
L 837.495868 383.148055 
L 834.421488 383.105448 
L 831.347107 383.062864 
L 828.272727 383.020302 
L 825.198347 382.977763 
L 822.123967 382.935246 
L 819.049587 382.892752 
L 815.975207 382.85028 
L 812.900826 382.807831 
L 809.826446 382.765404 
L 806.752066 382.723 
L 803.677686 382.680618 
L 800.603306 382.638258 
L 797.528926 382.59592 
L 794.454545 382.553605 
L 791.380165 382.511312 
L 788.305785 382.469041 
L 785.231405 382.426793 
L 782.157025 382.384566 
L 779.082645 382.342362 
L 776.008264 382.300179 
L 772.933884 382.258019 
L 769.859504 382.21588 
L 766.785124 382.173764 
L 763.710744 382.131669 
L 760.636364 382.089596 
L 757.561983 382.047545 
L 754.487603 382.005516 
L 751.413223 381.963509 
L 748.338843 381.921523 
L 745.264463 381.879559 
L 742.190083 381.837617 
L 739.115702 381.795696 
L 736.041322 381.753797 
L 732.966942 381.711919 
L 729.892562 381.670063 
L 726.818182 381.628229 
L 723.743802 381.586416 
L 720.669421 381.544624 
L 717.595041 381.502854 
L 714.520661 381.461105 
L 711.446281 381.419377 
L 708.371901 381.377671 
L 705.297521 381.335986 
L 702.22314 381.294322 
L 699.14876 381.252679 
L 696.07438 381.211058 
L 693 381.169457 
L 689.92562 381.127878 
L 689.343059 381.12 
L 686.85124 381.084157 
L 683.77686 381.039954 
L 680.702479 380.995775 
L 677.628099 380.95162 
L 674.553719 380.907489 
L 671.479339 380.863383 
L 668.404959 380.819301 
L 665.330579 380.775242 
L 662.256198 380.731208 
L 659.181818 380.687198 
L 656.107438 380.643212 
L 653.033058 380.599249 
L 649.958678 380.555311 
L 646.884298 380.511396 
L 643.809917 380.467506 
L 640.735537 380.423639 
L 637.661157 380.379795 
L 634.586777 380.335976 
L 631.512397 380.29218 
L 628.438017 380.248407 
L 625.363636 380.204659 
L 622.289256 380.160933 
L 619.214876 380.117232 
L 616.140496 380.073553 
L 613.066116 380.029899 
L 609.991736 379.986267 
L 606.917355 379.942659 
L 603.842975 379.899074 
L 600.768595 379.855513 
L 597.694215 379.811974 
L 594.619835 379.768459 
L 591.545455 379.724968 
" style="fill:none;stroke:#5ec962;stroke-width:1.5;"/>
    <path clip-path="url(#pda2acb432d)" d="M 591.545455 60.700615 
L 594.619835 60.657718 
L 597.694215 60.6148 
L 600.768595 60.571858 
L 603.842975 60.528895 
L 606.917355 60.485908 
L 609.991736 60.4429 
L 613.066116 60.399868 
L 616.140496 60.356814 
L 619.214876 60.313737 
L 622.289256 60.270638 
L 625.363636 60.227515 
L 628.438017 60.18437 
L 631.512397 60.141202 
L 634.586777 60.098012 
L 637.661157 60.054798 
L 640.735537 60.011562 
L 643.809917 59.968302 
L 646.884298 59.925019 
L 649.958678 59.881714 
L 653.033058 59.838385 
L 656.107438 59.795033 
L 659.181818 59.751658 
L 662.256198 59.70826 
L 665.330579 59.664839 
L 668.404959 59.621394 
L 671.479339 59.577926 
L 674.553719 59.534435 
L 677.628099 59.49092 
L 680.702479 59.447382 
L 683.77686 59.40382 
L 686.85124 59.360235 
L 689.92562 59.316627 
L 693 59.272995 
L 696.07438 59.229339 
L 699.14876 59.185659 
L 702.22314 59.141956 
L 705.297521 59.09823 
L 708.371901 59.054479 
L 711.446281 59.010705 
L 714.520661 58.966906 
L 717.595041 58.923084 
L 720.669421 58.879238 
L 723.743802 58.835368 
L 726.818182 58.791475 
L 729.892562 58.747557 
L 732.966942 58.703615 
L 736.041322 58.659648 
L 739.115702 58.615658 
L 742.190083 58.571644 
L 743.003268 58.56 
L 745.264463 58.529564 
L 748.338843 58.488167 
L 751.413223 58.44675 
L 754.487603 58.405311 
L 757.561983 58.363851 
L 760.636364 58.32237 
L 763.710744 58.280868 
L 766.785124 58.239344 
L 769.859504 58.1978 
L 772.933884 58.156234 
L 776.008264 58.114647 
L 779.082645 58.073039 
L 782.157025 58.031409 
L 785.231405 57.989758 
L 788.305785 57.948086 
L 791.380165 57.906392 
L 794.454545 57.864677 
L 797.528926 57.82294 
L 800.603306 57.781181 
L 803.677686 57.739401 
L 806.752066 57.6976 
L 809.826446 57.655777 
L 812.900826 57.613932 
L 815.975207 57.572065 
L 819.049587 57.530177 
L 822.123967 57.488267 
L 825.198347 57.446335 
L 828.272727 57.404381 
L 831.347107 57.362406 
L 834.421488 57.320408 
L 837.495868 57.278389 
L 840.570248 57.236347 
L 843.644628 57.194284 
L 846.719008 57.152198 
L 849.793388 57.11009 
L 852.867769 57.067961 
L 855.942149 57.025809 
L 859.016529 56.983635 
L 862.090909 56.941438 
L 865.165289 56.89922 
L 868.239669 56.856979 
L 871.31405 56.814716 
L 874.38843 56.77243 
L 877.46281 56.730122 
L 880.53719 56.687792 
L 883.61157 56.645439 
L 886.68595 56.603064 
L 889.760331 56.560666 
L 892.834711 56.518245 
L 895.909091 56.475802 
" style="fill:none;stroke:#5ec962;stroke-width:1.5;"/>
   </g>
   <g id="LineCollection_8">
    <path clip-path="url(#pda2acb432d)" d="M 591.545455 54.265564 
L 594.619835 54.224527 
L 597.694215 54.18347 
L 600.768595 54.142394 
L 603.842975 54.101298 
L 606.917355 54.060182 
L 609.991736 54.019046 
L 613.066116 53.97789 
L 616.140496 53.936714 
L 619.214876 53.895519 
L 622.289256 53.854303 
L 625.363636 53.813067 
L 628.438017 53.771812 
L 631.512397 53.730536 
L 634.586777 53.68924 
L 637.661157 53.647924 
L 640.735537 53.606588 
L 643.809917 53.565232 
L 646.884298 53.523855 
L 649.958678 53.482459 
L 653.033058 53.441042 
L 656.107438 53.399605 
L 659.181818 53.358147 
L 662.256198 53.316669 
L 665.330579 53.275171 
L 668.404959 53.233652 
L 671.479339 53.192113 
L 674.553719 53.150553 
L 677.628099 53.108973 
L 680.702479 53.067372 
L 683.77686 53.025751 
L 686.85124 52.984109 
L 689.92562 52.942446 
L 693 52.900763 
L 696.07438 52.859059 
L 699.14876 52.817335 
L 702.22314 52.775589 
L 705.297521 52.733823 
L 708.371901 52.692036 
L 711.446281 52.650229 
L 714.520661 52.6084 
L 717.595041 52.56655 
L 720.669421 52.52468 
L 723.743802 52.482788 
L 726.818182 52.440876 
L 729.892562 52.398942 
L 732.966942 52.356988 
L 736.041322 52.315012 
L 739.115702 52.273015 
L 742.190083 52.230998 
L 745.264463 52.188958 
L 748.338843 52.146898 
L 751.413223 52.104816 
L 754.487603 52.062714 
L 757.561983 52.020589 
L 760.636364 51.978444 
L 763.710744 51.936277 
L 766.785124 51.894089 
L 769.859504 51.851879 
L 770.724584 51.84 
" style="fill:none;stroke:#addc30;stroke-width:1.5;"/>
   </g>
   <g id="LineCollection_9"/>
   <g id="patch_8">
    <path d="M 591.545455 384.48 
L 591.545455 51.84 
" style="fill:none;stroke:#000000;stroke-linecap:square;stroke-linejoin:miter;stroke-width:0.8;"/>
   </g>
   <g id="patch_9">
    <path d="M 895.909091 384.48 
L 895.909091 51.84 
" style="fill:none;stroke:#000000;stroke-linecap:square;stroke-linejoin:miter;stroke-width:0.8;"/>
   </g>
   <g id="patch_10">
    <path d="M 591.545455 384.48 
L 895.909091 384.48 
" style="fill:none;stroke:#000000;stroke-linecap:square;stroke-linejoin:miter;stroke-width:0.8;"/>
   </g>
   <g id="patch_11">
    <path d="M 591.545455 51.84 
L 895.909091 51.84 
" style="fill:none;stroke:#000000;stroke-linecap:square;stroke-linejoin:miter;stroke-width:0.8;"/>
   </g>
   <g id="text_40">
    <!-- Zad 2 - funkcja Rosenbrocka 2d -->
    <g transform="translate(648.806335 45.84)scale(0.12 -0.12)">
     <defs>
      <path d="M 37.109375 75.984375 
L 37.109375 68.5 
L 28.515625 68.5 
Q 23.6875 68.5 21.796875 66.546875 
Q 19.921875 64.59375 19.921875 59.515625 
L 19.921875 54.6875 
L 34.71875 54.6875 
L 34.71875 47.703125 
L 19.921875 47.703125 
L 19.921875 0 
L 10.890625 0 
L 10.890625 47.703125 
L 2.296875 47.703125 
L 2.296875 54.6875 
L 10.890625 54.6875 
L 10.890625 58.5 
Q 10.890625 67.625 15.140625 71.796875 
Q 19.390625 75.984375 28.609375 75.984375 
z
" id="DejaVuSans-102"/>
     </defs>
     <use xlink:href="#DejaVuSans-90"/>
     <use x="68.505859" xlink:href="#DejaVuSans-97"/>
     <use x="129.785156" xlink:href="#DejaVuSans-100"/>
     <use x="193.261719" xlink:href="#DejaVuSans-32"/>
     <use x="225.048828" xlink:href="#DejaVuSans-50"/>
     <use x="288.671875" xlink:href="#DejaVuSans-32"/>
     <use x="320.458984" xlink:href="#DejaVuSans-45"/>
     <use x="356.542969" xlink:href="#DejaVuSans-32"/>
     <use x="388.330078" xlink:href="#DejaVuSans-102"/>
     <use x="423.535156" xlink:href="#DejaVuSans-117"/>
     <use x="486.914062" xlink:href="#DejaVuSans-110"/>
     <use x="550.292969" xlink:href="#DejaVuSans-107"/>
     <use x="608.203125" xlink:href="#DejaVuSans-99"/>
     <use x="663.183594" xlink:href="#DejaVuSans-106"/>
     <use x="690.966797" xlink:href="#DejaVuSans-97"/>
     <use x="752.246094" xlink:href="#DejaVuSans-32"/>
     <use x="784.033203" xlink:href="#DejaVuSans-82"/>
     <use x="849.015625" xlink:href="#DejaVuSans-111"/>
     <use x="910.197266" xlink:href="#DejaVuSans-115"/>
     <use x="962.296875" xlink:href="#DejaVuSans-101"/>
     <use x="1023.820312" xlink:href="#DejaVuSans-110"/>
     <use x="1087.199219" xlink:href="#DejaVuSans-98"/>
     <use x="1150.675781" xlink:href="#DejaVuSans-114"/>
     <use x="1189.539062" xlink:href="#DejaVuSans-111"/>
     <use x="1250.720703" xlink:href="#DejaVuSans-99"/>
     <use x="1305.701172" xlink:href="#DejaVuSans-107"/>
     <use x="1361.861328" xlink:href="#DejaVuSans-97"/>
     <use x="1423.140625" xlink:href="#DejaVuSans-32"/>
     <use x="1454.927734" xlink:href="#DejaVuSans-50"/>
     <use x="1518.550781" xlink:href="#DejaVuSans-100"/>
    </g>
   </g>
  </g>
  <g id="axes_3">
   <g id="patch_12">
    <path clip-path="url(#pa038215eb2)" d="M 914.931818 384.48 
L 914.931818 342.9 
L 914.931818 93.42 
L 914.931818 51.84 
L 931.563818 51.84 
L 931.563818 93.42 
L 931.563818 342.9 
L 931.563818 384.48 
z
" style="fill:#ffffff;stroke:#ffffff;stroke-linejoin:miter;stroke-width:0.01;"/>
   </g>
   <g id="matplotlib.axis_5"/>
   <g id="matplotlib.axis_6">
    <g id="ytick_16">
     <g id="line2d_35">
      <defs>
       <path d="M 0 0 
L 3.5 0 
" id="m8c3c56b08b" style="stroke:#000000;stroke-width:0.8;"/>
      </defs>
      <g>
       <use style="stroke:#000000;stroke-width:0.8;" x="931.563818" xlink:href="#m8c3c56b08b" y="384.48"/>
      </g>
     </g>
     <g id="text_41">
      <!-- 0.0 -->
      <g transform="translate(938.563818 388.279219)scale(0.1 -0.1)">
       <use xlink:href="#DejaVuSans-48"/>
       <use x="63.623047" xlink:href="#DejaVuSans-46"/>
       <use x="95.410156" xlink:href="#DejaVuSans-48"/>
      </g>
     </g>
    </g>
    <g id="ytick_17">
     <g id="line2d_36">
      <g>
       <use style="stroke:#000000;stroke-width:0.8;" x="931.563818" xlink:href="#m8c3c56b08b" y="342.9"/>
      </g>
     </g>
     <g id="text_42">
      <!-- 0.4 -->
      <g transform="translate(938.563818 346.699219)scale(0.1 -0.1)">
       <use xlink:href="#DejaVuSans-48"/>
       <use x="63.623047" xlink:href="#DejaVuSans-46"/>
       <use x="95.410156" xlink:href="#DejaVuSans-52"/>
      </g>
     </g>
    </g>
    <g id="ytick_18">
     <g id="line2d_37">
      <g>
       <use style="stroke:#000000;stroke-width:0.8;" x="931.563818" xlink:href="#m8c3c56b08b" y="301.32"/>
      </g>
     </g>
     <g id="text_43">
      <!-- 0.8 -->
      <g transform="translate(938.563818 305.119219)scale(0.1 -0.1)">
       <use xlink:href="#DejaVuSans-48"/>
       <use x="63.623047" xlink:href="#DejaVuSans-46"/>
       <use x="95.410156" xlink:href="#DejaVuSans-56"/>
      </g>
     </g>
    </g>
    <g id="ytick_19">
     <g id="line2d_38">
      <g>
       <use style="stroke:#000000;stroke-width:0.8;" x="931.563818" xlink:href="#m8c3c56b08b" y="259.74"/>
      </g>
     </g>
     <g id="text_44">
      <!-- 1.2 -->
      <g transform="translate(938.563818 263.539219)scale(0.1 -0.1)">
       <use xlink:href="#DejaVuSans-49"/>
       <use x="63.623047" xlink:href="#DejaVuSans-46"/>
       <use x="95.410156" xlink:href="#DejaVuSans-50"/>
      </g>
     </g>
    </g>
    <g id="ytick_20">
     <g id="line2d_39">
      <g>
       <use style="stroke:#000000;stroke-width:0.8;" x="931.563818" xlink:href="#m8c3c56b08b" y="218.16"/>
      </g>
     </g>
     <g id="text_45">
      <!-- 1.6 -->
      <g transform="translate(938.563818 221.959219)scale(0.1 -0.1)">
       <defs>
        <path d="M 33.015625 40.375 
Q 26.375 40.375 22.484375 35.828125 
Q 18.609375 31.296875 18.609375 23.390625 
Q 18.609375 15.53125 22.484375 10.953125 
Q 26.375 6.390625 33.015625 6.390625 
Q 39.65625 6.390625 43.53125 10.953125 
Q 47.40625 15.53125 47.40625 23.390625 
Q 47.40625 31.296875 43.53125 35.828125 
Q 39.65625 40.375 33.015625 40.375 
z
M 52.59375 71.296875 
L 52.59375 62.3125 
Q 48.875 64.0625 45.09375 64.984375 
Q 41.3125 65.921875 37.59375 65.921875 
Q 27.828125 65.921875 22.671875 59.328125 
Q 17.53125 52.734375 16.796875 39.40625 
Q 19.671875 43.65625 24.015625 45.921875 
Q 28.375 48.1875 33.59375 48.1875 
Q 44.578125 48.1875 50.953125 41.515625 
Q 57.328125 34.859375 57.328125 23.390625 
Q 57.328125 12.15625 50.6875 5.359375 
Q 44.046875 -1.421875 33.015625 -1.421875 
Q 20.359375 -1.421875 13.671875 8.265625 
Q 6.984375 17.96875 6.984375 36.375 
Q 6.984375 53.65625 15.1875 63.9375 
Q 23.390625 74.21875 37.203125 74.21875 
Q 40.921875 74.21875 44.703125 73.484375 
Q 48.484375 72.75 52.59375 71.296875 
z
" id="DejaVuSans-54"/>
       </defs>
       <use xlink:href="#DejaVuSans-49"/>
       <use x="63.623047" xlink:href="#DejaVuSans-46"/>
       <use x="95.410156" xlink:href="#DejaVuSans-54"/>
      </g>
     </g>
    </g>
    <g id="ytick_21">
     <g id="line2d_40">
      <g>
       <use style="stroke:#000000;stroke-width:0.8;" x="931.563818" xlink:href="#m8c3c56b08b" y="176.58"/>
      </g>
     </g>
     <g id="text_46">
      <!-- 2.0 -->
      <g transform="translate(938.563818 180.379219)scale(0.1 -0.1)">
       <use xlink:href="#DejaVuSans-50"/>
       <use x="63.623047" xlink:href="#DejaVuSans-46"/>
       <use x="95.410156" xlink:href="#DejaVuSans-48"/>
      </g>
     </g>
    </g>
    <g id="ytick_22">
     <g id="line2d_41">
      <g>
       <use style="stroke:#000000;stroke-width:0.8;" x="931.563818" xlink:href="#m8c3c56b08b" y="135"/>
      </g>
     </g>
     <g id="text_47">
      <!-- 2.4 -->
      <g transform="translate(938.563818 138.799219)scale(0.1 -0.1)">
       <use xlink:href="#DejaVuSans-50"/>
       <use x="63.623047" xlink:href="#DejaVuSans-46"/>
       <use x="95.410156" xlink:href="#DejaVuSans-52"/>
      </g>
     </g>
    </g>
    <g id="ytick_23">
     <g id="line2d_42">
      <g>
       <use style="stroke:#000000;stroke-width:0.8;" x="931.563818" xlink:href="#m8c3c56b08b" y="93.42"/>
      </g>
     </g>
     <g id="text_48">
      <!-- 2.8 -->
      <g transform="translate(938.563818 97.219219)scale(0.1 -0.1)">
       <use xlink:href="#DejaVuSans-50"/>
       <use x="63.623047" xlink:href="#DejaVuSans-46"/>
       <use x="95.410156" xlink:href="#DejaVuSans-56"/>
      </g>
     </g>
    </g>
    <g id="ytick_24">
     <g id="line2d_43">
      <g>
       <use style="stroke:#000000;stroke-width:0.8;" x="931.563818" xlink:href="#m8c3c56b08b" y="51.84"/>
      </g>
     </g>
     <g id="text_49">
      <!-- 3.2 -->
      <g transform="translate(938.563818 55.639219)scale(0.1 -0.1)">
       <use xlink:href="#DejaVuSans-51"/>
       <use x="63.623047" xlink:href="#DejaVuSans-46"/>
       <use x="95.410156" xlink:href="#DejaVuSans-50"/>
      </g>
     </g>
    </g>
    <g id="text_50">
     <!-- izolinie - wartość funkcji kosztu -->
     <g transform="translate(966.465381 296.038906)rotate(-90)scale(0.1 -0.1)">
      <defs>
       <path d="M 9.421875 54.6875 
L 18.40625 54.6875 
L 18.40625 0 
L 9.421875 0 
z
M 9.421875 75.984375 
L 18.40625 75.984375 
L 18.40625 64.59375 
L 9.421875 64.59375 
z
" id="DejaVuSans-105"/>
       <path d="M 9.421875 75.984375 
L 18.40625 75.984375 
L 18.40625 0 
L 9.421875 0 
z
" id="DejaVuSans-108"/>
       <path d="M 4.203125 54.6875 
L 13.1875 54.6875 
L 24.421875 12.015625 
L 35.59375 54.6875 
L 46.1875 54.6875 
L 57.421875 12.015625 
L 68.609375 54.6875 
L 77.59375 54.6875 
L 63.28125 0 
L 52.6875 0 
L 40.921875 44.828125 
L 29.109375 0 
L 18.5 0 
z
" id="DejaVuSans-119"/>
       <path d="M 35.03125 79.984375 
L 44.75 79.984375 
L 28.84375 61.625 
L 21.359375 61.625 
z
M 44.28125 53.078125 
L 44.28125 44.578125 
Q 40.484375 46.53125 36.375 47.5 
Q 32.28125 48.484375 27.875 48.484375 
Q 21.1875 48.484375 17.84375 46.4375 
Q 14.5 44.390625 14.5 40.28125 
Q 14.5 37.15625 16.890625 35.375 
Q 19.28125 33.59375 26.515625 31.984375 
L 29.59375 31.296875 
Q 39.15625 29.25 43.1875 25.515625 
Q 47.21875 21.78125 47.21875 15.09375 
Q 47.21875 7.46875 41.1875 3.015625 
Q 35.15625 -1.421875 24.609375 -1.421875 
Q 20.21875 -1.421875 15.453125 -0.5625 
Q 10.6875 0.296875 5.421875 2 
L 5.421875 11.28125 
Q 10.40625 8.6875 15.234375 7.390625 
Q 20.0625 6.109375 24.8125 6.109375 
Q 31.15625 6.109375 34.5625 8.28125 
Q 37.984375 10.453125 37.984375 14.40625 
Q 37.984375 18.0625 35.515625 20.015625 
Q 33.0625 21.96875 24.703125 23.78125 
L 21.578125 24.515625 
Q 13.234375 26.265625 9.515625 29.90625 
Q 5.8125 33.546875 5.8125 39.890625 
Q 5.8125 47.609375 11.28125 51.796875 
Q 16.75 56 26.8125 56 
Q 31.78125 56 36.171875 55.265625 
Q 40.578125 54.546875 44.28125 53.078125 
z
" id="DejaVuSans-347"/>
       <path d="M 48.78125 52.59375 
L 48.78125 44.1875 
Q 44.96875 46.296875 41.140625 47.34375 
Q 37.3125 48.390625 33.40625 48.390625 
Q 24.65625 48.390625 19.8125 42.84375 
Q 14.984375 37.3125 14.984375 27.296875 
Q 14.984375 17.28125 19.8125 11.734375 
Q 24.65625 6.203125 33.40625 6.203125 
Q 37.3125 6.203125 41.140625 7.25 
Q 44.96875 8.296875 48.78125 10.40625 
L 48.78125 2.09375 
Q 45.015625 0.34375 40.984375 -0.53125 
Q 36.96875 -1.421875 32.421875 -1.421875 
Q 20.0625 -1.421875 12.78125 6.34375 
Q 5.515625 14.109375 5.515625 27.296875 
Q 5.515625 40.671875 12.859375 48.328125 
Q 20.21875 56 33.015625 56 
Q 37.15625 56 41.109375 55.140625 
Q 45.0625 54.296875 48.78125 52.59375 
z
M 38.53125 79.984375 
L 48.25 79.984375 
L 32.34375 61.625 
L 24.859375 61.625 
z
" id="DejaVuSans-263"/>
      </defs>
      <use xlink:href="#DejaVuSans-105"/>
      <use x="27.783203" xlink:href="#DejaVuSans-122"/>
      <use x="80.273438" xlink:href="#DejaVuSans-111"/>
      <use x="141.455078" xlink:href="#DejaVuSans-108"/>
      <use x="169.238281" xlink:href="#DejaVuSans-105"/>
      <use x="197.021484" xlink:href="#DejaVuSans-110"/>
      <use x="260.400391" xlink:href="#DejaVuSans-105"/>
      <use x="288.183594" xlink:href="#DejaVuSans-101"/>
      <use x="349.707031" xlink:href="#DejaVuSans-32"/>
      <use x="381.494141" xlink:href="#DejaVuSans-45"/>
      <use x="417.578125" xlink:href="#DejaVuSans-32"/>
      <use x="449.365234" xlink:href="#DejaVuSans-119"/>
      <use x="531.152344" xlink:href="#DejaVuSans-97"/>
      <use x="592.431641" xlink:href="#DejaVuSans-114"/>
      <use x="633.544922" xlink:href="#DejaVuSans-116"/>
      <use x="672.753906" xlink:href="#DejaVuSans-111"/>
      <use x="733.935547" xlink:href="#DejaVuSans-347"/>
      <use x="786.035156" xlink:href="#DejaVuSans-263"/>
      <use x="841.015625" xlink:href="#DejaVuSans-32"/>
      <use x="872.802734" xlink:href="#DejaVuSans-102"/>
      <use x="908.007812" xlink:href="#DejaVuSans-117"/>
      <use x="971.386719" xlink:href="#DejaVuSans-110"/>
      <use x="1034.765625" xlink:href="#DejaVuSans-107"/>
      <use x="1092.675781" xlink:href="#DejaVuSans-99"/>
      <use x="1147.65625" xlink:href="#DejaVuSans-106"/>
      <use x="1175.439453" xlink:href="#DejaVuSans-105"/>
      <use x="1203.222656" xlink:href="#DejaVuSans-32"/>
      <use x="1235.009766" xlink:href="#DejaVuSans-107"/>
      <use x="1289.294922" xlink:href="#DejaVuSans-111"/>
      <use x="1350.476562" xlink:href="#DejaVuSans-115"/>
      <use x="1402.576172" xlink:href="#DejaVuSans-122"/>
      <use x="1455.066406" xlink:href="#DejaVuSans-116"/>
      <use x="1494.275391" xlink:href="#DejaVuSans-117"/>
     </g>
    </g>
    <g id="text_51">
     <!-- 1e8 -->
     <g transform="translate(912.685693 48.84)scale(0.1 -0.1)">
      <use xlink:href="#DejaVuSans-49"/>
      <use x="63.623047" xlink:href="#DejaVuSans-101"/>
      <use x="125.146484" xlink:href="#DejaVuSans-56"/>
     </g>
    </g>
   </g>
   <g id="LineCollection_10">
    <path clip-path="url(#pa038215eb2)" d="M 914.931818 384.48 
L 931.563818 384.48 
" style="fill:none;stroke:#440154;stroke-width:1.5;"/>
    <path clip-path="url(#pa038215eb2)" d="M 914.931818 342.9 
L 931.563818 342.9 
" style="fill:none;stroke:#472d7b;stroke-width:1.5;"/>
    <path clip-path="url(#pa038215eb2)" d="M 914.931818 301.32 
L 931.563818 301.32 
" style="fill:none;stroke:#3b528b;stroke-width:1.5;"/>
    <path clip-path="url(#pa038215eb2)" d="M 914.931818 259.74 
L 931.563818 259.74 
" style="fill:none;stroke:#2c728e;stroke-width:1.5;"/>
    <path clip-path="url(#pa038215eb2)" d="M 914.931818 218.16 
L 931.563818 218.16 
" style="fill:none;stroke:#21918c;stroke-width:1.5;"/>
    <path clip-path="url(#pa038215eb2)" d="M 914.931818 176.58 
L 931.563818 176.58 
" style="fill:none;stroke:#28ae80;stroke-width:1.5;"/>
    <path clip-path="url(#pa038215eb2)" d="M 914.931818 135 
L 931.563818 135 
" style="fill:none;stroke:#5ec962;stroke-width:1.5;"/>
    <path clip-path="url(#pa038215eb2)" d="M 914.931818 93.42 
L 931.563818 93.42 
" style="fill:none;stroke:#addc30;stroke-width:1.5;"/>
    <path clip-path="url(#pa038215eb2)" d="M 914.931818 51.84 
L 931.563818 51.84 
" style="fill:none;stroke:#fde725;stroke-width:1.5;"/>
   </g>
   <g id="patch_13">
    <path d="M 914.931818 384.48 
L 914.931818 342.9 
L 914.931818 93.42 
L 914.931818 51.84 
L 931.563818 51.84 
L 931.563818 93.42 
L 931.563818 342.9 
L 931.563818 384.48 
z
" style="fill:none;stroke:#000000;stroke-linejoin:miter;stroke-width:0.8;"/>
   </g>
  </g>
 </g>
 <defs>
  <clipPath id="p9a007e6b59">
   <rect height="332.64" width="380.454545" x="135" y="51.84"/>
  </clipPath>
  <clipPath id="pda2acb432d">
   <rect height="332.64" width="304.363636" x="591.545455" y="51.84"/>
  </clipPath>
  <clipPath id="pa038215eb2">
   <rect height="332.64" width="16.632" x="914.931818" y="51.84"/>
  </clipPath>
 </defs>
</svg>
