<?xml version="1.0" encoding="utf-8" standalone="no"?>
<!DOCTYPE svg PUBLIC "-//W3C//DTD SVG 1.1//EN"
  "http://www.w3.org/Graphics/SVG/1.1/DTD/svg11.dtd">
<!-- Created with matplotlib (https://matplotlib.org/) -->
<svg height="432pt" version="1.1" viewBox="0 0 1080 432" width="1080pt" xmlns="http://www.w3.org/2000/svg" xmlns:xlink="http://www.w3.org/1999/xlink">
 <metadata>
  <rdf:RDF xmlns:cc="http://creativecommons.org/ns#" xmlns:dc="http://purl.org/dc/elements/1.1/" xmlns:rdf="http://www.w3.org/1999/02/22-rdf-syntax-ns#">
   <cc:Work>
    <dc:type rdf:resource="http://purl.org/dc/dcmitype/StillImage"/>
    <dc:date>2020-12-16T00:04:45.950336</dc:date>
    <dc:format>image/svg+xml</dc:format>
    <dc:creator>
     <cc:Agent>
      <dc:title>Matplotlib v3.3.3, https://matplotlib.org/</dc:title>
     </cc:Agent>
    </dc:creator>
   </cc:Work>
  </rdf:RDF>
 </metadata>
 <defs>
  <style type="text/css">*{stroke-linecap:butt;stroke-linejoin:round;}</style>
 </defs>
 <g id="figure_1">
  <g id="patch_1">
   <path d="M 0 432 
L 1080 432 
L 1080 0 
L 0 0 
z
" style="fill:#ffffff;"/>
  </g>
  <g id="axes_1">
   <g id="patch_2">
    <path d="M 135 384.48 
L 515.454545 384.48 
L 515.454545 51.84 
L 135 51.84 
z
" style="fill:#ffffff;"/>
   </g>
   <g id="matplotlib.axis_1">
    <g id="xtick_1">
     <g id="line2d_1">
      <defs>
       <path d="M 0 0 
L 0 3.5 
" id="mf470bde82e" style="stroke:#000000;stroke-width:0.8;"/>
      </defs>
      <g>
       <use style="stroke:#000000;stroke-width:0.8;" x="152.293388" xlink:href="#mf470bde82e" y="384.48"/>
      </g>
     </g>
     <g id="text_1">
      <!-- −1.00 -->
      <g transform="translate(136.970732 399.078438)scale(0.1 -0.1)">
       <defs>
        <path d="M 10.59375 35.5 
L 73.1875 35.5 
L 73.1875 27.203125 
L 10.59375 27.203125 
z
" id="DejaVuSans-8722"/>
        <path d="M 12.40625 8.296875 
L 28.515625 8.296875 
L 28.515625 63.921875 
L 10.984375 60.40625 
L 10.984375 69.390625 
L 28.421875 72.90625 
L 38.28125 72.90625 
L 38.28125 8.296875 
L 54.390625 8.296875 
L 54.390625 0 
L 12.40625 0 
z
" id="DejaVuSans-49"/>
        <path d="M 10.6875 12.40625 
L 21 12.40625 
L 21 0 
L 10.6875 0 
z
" id="DejaVuSans-46"/>
        <path d="M 31.78125 66.40625 
Q 24.171875 66.40625 20.328125 58.90625 
Q 16.5 51.421875 16.5 36.375 
Q 16.5 21.390625 20.328125 13.890625 
Q 24.171875 6.390625 31.78125 6.390625 
Q 39.453125 6.390625 43.28125 13.890625 
Q 47.125 21.390625 47.125 36.375 
Q 47.125 51.421875 43.28125 58.90625 
Q 39.453125 66.40625 31.78125 66.40625 
z
M 31.78125 74.21875 
Q 44.046875 74.21875 50.515625 64.515625 
Q 56.984375 54.828125 56.984375 36.375 
Q 56.984375 17.96875 50.515625 8.265625 
Q 44.046875 -1.421875 31.78125 -1.421875 
Q 19.53125 -1.421875 13.0625 8.265625 
Q 6.59375 17.96875 6.59375 36.375 
Q 6.59375 54.828125 13.0625 64.515625 
Q 19.53125 74.21875 31.78125 74.21875 
z
" id="DejaVuSans-48"/>
       </defs>
       <use xlink:href="#DejaVuSans-8722"/>
       <use x="83.789062" xlink:href="#DejaVuSans-49"/>
       <use x="147.412109" xlink:href="#DejaVuSans-46"/>
       <use x="179.199219" xlink:href="#DejaVuSans-48"/>
       <use x="242.822266" xlink:href="#DejaVuSans-48"/>
      </g>
     </g>
    </g>
    <g id="xtick_2">
     <g id="line2d_2">
      <g>
       <use style="stroke:#000000;stroke-width:0.8;" x="195.968017" xlink:href="#mf470bde82e" y="384.48"/>
      </g>
     </g>
     <g id="text_2">
      <!-- −0.75 -->
      <g transform="translate(180.645361 399.078438)scale(0.1 -0.1)">
       <defs>
        <path d="M 8.203125 72.90625 
L 55.078125 72.90625 
L 55.078125 68.703125 
L 28.609375 0 
L 18.3125 0 
L 43.21875 64.59375 
L 8.203125 64.59375 
z
" id="DejaVuSans-55"/>
        <path d="M 10.796875 72.90625 
L 49.515625 72.90625 
L 49.515625 64.59375 
L 19.828125 64.59375 
L 19.828125 46.734375 
Q 21.96875 47.46875 24.109375 47.828125 
Q 26.265625 48.1875 28.421875 48.1875 
Q 40.625 48.1875 47.75 41.5 
Q 54.890625 34.8125 54.890625 23.390625 
Q 54.890625 11.625 47.5625 5.09375 
Q 40.234375 -1.421875 26.90625 -1.421875 
Q 22.3125 -1.421875 17.546875 -0.640625 
Q 12.796875 0.140625 7.71875 1.703125 
L 7.71875 11.625 
Q 12.109375 9.234375 16.796875 8.0625 
Q 21.484375 6.890625 26.703125 6.890625 
Q 35.15625 6.890625 40.078125 11.328125 
Q 45.015625 15.765625 45.015625 23.390625 
Q 45.015625 31 40.078125 35.4375 
Q 35.15625 39.890625 26.703125 39.890625 
Q 22.75 39.890625 18.8125 39.015625 
Q 14.890625 38.140625 10.796875 36.28125 
z
" id="DejaVuSans-53"/>
       </defs>
       <use xlink:href="#DejaVuSans-8722"/>
       <use x="83.789062" xlink:href="#DejaVuSans-48"/>
       <use x="147.412109" xlink:href="#DejaVuSans-46"/>
       <use x="179.199219" xlink:href="#DejaVuSans-55"/>
       <use x="242.822266" xlink:href="#DejaVuSans-53"/>
      </g>
     </g>
    </g>
    <g id="xtick_3">
     <g id="line2d_3">
      <g>
       <use style="stroke:#000000;stroke-width:0.8;" x="239.642646" xlink:href="#mf470bde82e" y="384.48"/>
      </g>
     </g>
     <g id="text_3">
      <!-- −0.50 -->
      <g transform="translate(224.31999 399.078438)scale(0.1 -0.1)">
       <use xlink:href="#DejaVuSans-8722"/>
       <use x="83.789062" xlink:href="#DejaVuSans-48"/>
       <use x="147.412109" xlink:href="#DejaVuSans-46"/>
       <use x="179.199219" xlink:href="#DejaVuSans-53"/>
       <use x="242.822266" xlink:href="#DejaVuSans-48"/>
      </g>
     </g>
    </g>
    <g id="xtick_4">
     <g id="line2d_4">
      <g>
       <use style="stroke:#000000;stroke-width:0.8;" x="283.317275" xlink:href="#mf470bde82e" y="384.48"/>
      </g>
     </g>
     <g id="text_4">
      <!-- −0.25 -->
      <g transform="translate(267.994619 399.078438)scale(0.1 -0.1)">
       <defs>
        <path d="M 19.1875 8.296875 
L 53.609375 8.296875 
L 53.609375 0 
L 7.328125 0 
L 7.328125 8.296875 
Q 12.9375 14.109375 22.625 23.890625 
Q 32.328125 33.6875 34.8125 36.53125 
Q 39.546875 41.84375 41.421875 45.53125 
Q 43.3125 49.21875 43.3125 52.78125 
Q 43.3125 58.59375 39.234375 62.25 
Q 35.15625 65.921875 28.609375 65.921875 
Q 23.96875 65.921875 18.8125 64.3125 
Q 13.671875 62.703125 7.8125 59.421875 
L 7.8125 69.390625 
Q 13.765625 71.78125 18.9375 73 
Q 24.125 74.21875 28.421875 74.21875 
Q 39.75 74.21875 46.484375 68.546875 
Q 53.21875 62.890625 53.21875 53.421875 
Q 53.21875 48.921875 51.53125 44.890625 
Q 49.859375 40.875 45.40625 35.40625 
Q 44.1875 33.984375 37.640625 27.21875 
Q 31.109375 20.453125 19.1875 8.296875 
z
" id="DejaVuSans-50"/>
       </defs>
       <use xlink:href="#DejaVuSans-8722"/>
       <use x="83.789062" xlink:href="#DejaVuSans-48"/>
       <use x="147.412109" xlink:href="#DejaVuSans-46"/>
       <use x="179.199219" xlink:href="#DejaVuSans-50"/>
       <use x="242.822266" xlink:href="#DejaVuSans-53"/>
      </g>
     </g>
    </g>
    <g id="xtick_5">
     <g id="line2d_5">
      <g>
       <use style="stroke:#000000;stroke-width:0.8;" x="326.991904" xlink:href="#mf470bde82e" y="384.48"/>
      </g>
     </g>
     <g id="text_5">
      <!-- 0.00 -->
      <g transform="translate(315.859092 399.078438)scale(0.1 -0.1)">
       <use xlink:href="#DejaVuSans-48"/>
       <use x="63.623047" xlink:href="#DejaVuSans-46"/>
       <use x="95.410156" xlink:href="#DejaVuSans-48"/>
       <use x="159.033203" xlink:href="#DejaVuSans-48"/>
      </g>
     </g>
    </g>
    <g id="xtick_6">
     <g id="line2d_6">
      <g>
       <use style="stroke:#000000;stroke-width:0.8;" x="370.666533" xlink:href="#mf470bde82e" y="384.48"/>
      </g>
     </g>
     <g id="text_6">
      <!-- 0.25 -->
      <g transform="translate(359.533721 399.078438)scale(0.1 -0.1)">
       <use xlink:href="#DejaVuSans-48"/>
       <use x="63.623047" xlink:href="#DejaVuSans-46"/>
       <use x="95.410156" xlink:href="#DejaVuSans-50"/>
       <use x="159.033203" xlink:href="#DejaVuSans-53"/>
      </g>
     </g>
    </g>
    <g id="xtick_7">
     <g id="line2d_7">
      <g>
       <use style="stroke:#000000;stroke-width:0.8;" x="414.341162" xlink:href="#mf470bde82e" y="384.48"/>
      </g>
     </g>
     <g id="text_7">
      <!-- 0.50 -->
      <g transform="translate(403.20835 399.078438)scale(0.1 -0.1)">
       <use xlink:href="#DejaVuSans-48"/>
       <use x="63.623047" xlink:href="#DejaVuSans-46"/>
       <use x="95.410156" xlink:href="#DejaVuSans-53"/>
       <use x="159.033203" xlink:href="#DejaVuSans-48"/>
      </g>
     </g>
    </g>
    <g id="xtick_8">
     <g id="line2d_8">
      <g>
       <use style="stroke:#000000;stroke-width:0.8;" x="458.015791" xlink:href="#mf470bde82e" y="384.48"/>
      </g>
     </g>
     <g id="text_8">
      <!-- 0.75 -->
      <g transform="translate(446.882979 399.078438)scale(0.1 -0.1)">
       <use xlink:href="#DejaVuSans-48"/>
       <use x="63.623047" xlink:href="#DejaVuSans-46"/>
       <use x="95.410156" xlink:href="#DejaVuSans-55"/>
       <use x="159.033203" xlink:href="#DejaVuSans-53"/>
      </g>
     </g>
    </g>
    <g id="xtick_9">
     <g id="line2d_9">
      <g>
       <use style="stroke:#000000;stroke-width:0.8;" x="501.69042" xlink:href="#mf470bde82e" y="384.48"/>
      </g>
     </g>
     <g id="text_9">
      <!-- 1.00 -->
      <g transform="translate(490.557607 399.078438)scale(0.1 -0.1)">
       <use xlink:href="#DejaVuSans-49"/>
       <use x="63.623047" xlink:href="#DejaVuSans-46"/>
       <use x="95.410156" xlink:href="#DejaVuSans-48"/>
       <use x="159.033203" xlink:href="#DejaVuSans-48"/>
      </g>
     </g>
    </g>
    <g id="text_10">
     <!-- x2 -->
     <g transform="translate(319.086648 412.756563)scale(0.1 -0.1)">
      <defs>
       <path d="M 54.890625 54.6875 
L 35.109375 28.078125 
L 55.90625 0 
L 45.3125 0 
L 29.390625 21.484375 
L 13.484375 0 
L 2.875 0 
L 24.125 28.609375 
L 4.6875 54.6875 
L 15.28125 54.6875 
L 29.78125 35.203125 
L 44.28125 54.6875 
z
" id="DejaVuSans-120"/>
      </defs>
      <use xlink:href="#DejaVuSans-120"/>
      <use x="59.179688" xlink:href="#DejaVuSans-50"/>
     </g>
    </g>
   </g>
   <g id="matplotlib.axis_2">
    <g id="ytick_1">
     <g id="line2d_10">
      <defs>
       <path d="M 0 0 
L -3.5 0 
" id="m34d9ecf4c9" style="stroke:#000000;stroke-width:0.8;"/>
      </defs>
      <g>
       <use style="stroke:#000000;stroke-width:0.8;" x="135" xlink:href="#m34d9ecf4c9" y="369.482531"/>
      </g>
     </g>
     <g id="text_11">
      <!-- 0 -->
      <g transform="translate(121.6375 373.281749)scale(0.1 -0.1)">
       <use xlink:href="#DejaVuSans-48"/>
      </g>
     </g>
    </g>
    <g id="ytick_2">
     <g id="line2d_11">
      <g>
       <use style="stroke:#000000;stroke-width:0.8;" x="135" xlink:href="#m34d9ecf4c9" y="331.281383"/>
      </g>
     </g>
     <g id="text_12">
      <!-- 50 -->
      <g transform="translate(115.275 335.080602)scale(0.1 -0.1)">
       <use xlink:href="#DejaVuSans-53"/>
       <use x="63.623047" xlink:href="#DejaVuSans-48"/>
      </g>
     </g>
    </g>
    <g id="ytick_3">
     <g id="line2d_12">
      <g>
       <use style="stroke:#000000;stroke-width:0.8;" x="135" xlink:href="#m34d9ecf4c9" y="293.080236"/>
      </g>
     </g>
     <g id="text_13">
      <!-- 100 -->
      <g transform="translate(108.9125 296.879454)scale(0.1 -0.1)">
       <use xlink:href="#DejaVuSans-49"/>
       <use x="63.623047" xlink:href="#DejaVuSans-48"/>
       <use x="127.246094" xlink:href="#DejaVuSans-48"/>
      </g>
     </g>
    </g>
    <g id="ytick_4">
     <g id="line2d_13">
      <g>
       <use style="stroke:#000000;stroke-width:0.8;" x="135" xlink:href="#m34d9ecf4c9" y="254.879088"/>
      </g>
     </g>
     <g id="text_14">
      <!-- 150 -->
      <g transform="translate(108.9125 258.678307)scale(0.1 -0.1)">
       <use xlink:href="#DejaVuSans-49"/>
       <use x="63.623047" xlink:href="#DejaVuSans-53"/>
       <use x="127.246094" xlink:href="#DejaVuSans-48"/>
      </g>
     </g>
    </g>
    <g id="ytick_5">
     <g id="line2d_14">
      <g>
       <use style="stroke:#000000;stroke-width:0.8;" x="135" xlink:href="#m34d9ecf4c9" y="216.67794"/>
      </g>
     </g>
     <g id="text_15">
      <!-- 200 -->
      <g transform="translate(108.9125 220.477159)scale(0.1 -0.1)">
       <use xlink:href="#DejaVuSans-50"/>
       <use x="63.623047" xlink:href="#DejaVuSans-48"/>
       <use x="127.246094" xlink:href="#DejaVuSans-48"/>
      </g>
     </g>
    </g>
    <g id="ytick_6">
     <g id="line2d_15">
      <g>
       <use style="stroke:#000000;stroke-width:0.8;" x="135" xlink:href="#m34d9ecf4c9" y="178.476793"/>
      </g>
     </g>
     <g id="text_16">
      <!-- 250 -->
      <g transform="translate(108.9125 182.276012)scale(0.1 -0.1)">
       <use xlink:href="#DejaVuSans-50"/>
       <use x="63.623047" xlink:href="#DejaVuSans-53"/>
       <use x="127.246094" xlink:href="#DejaVuSans-48"/>
      </g>
     </g>
    </g>
    <g id="ytick_7">
     <g id="line2d_16">
      <g>
       <use style="stroke:#000000;stroke-width:0.8;" x="135" xlink:href="#m34d9ecf4c9" y="140.275645"/>
      </g>
     </g>
     <g id="text_17">
      <!-- 300 -->
      <g transform="translate(108.9125 144.074864)scale(0.1 -0.1)">
       <defs>
        <path d="M 40.578125 39.3125 
Q 47.65625 37.796875 51.625 33 
Q 55.609375 28.21875 55.609375 21.1875 
Q 55.609375 10.40625 48.1875 4.484375 
Q 40.765625 -1.421875 27.09375 -1.421875 
Q 22.515625 -1.421875 17.65625 -0.515625 
Q 12.796875 0.390625 7.625 2.203125 
L 7.625 11.71875 
Q 11.71875 9.328125 16.59375 8.109375 
Q 21.484375 6.890625 26.8125 6.890625 
Q 36.078125 6.890625 40.9375 10.546875 
Q 45.796875 14.203125 45.796875 21.1875 
Q 45.796875 27.640625 41.28125 31.265625 
Q 36.765625 34.90625 28.71875 34.90625 
L 20.21875 34.90625 
L 20.21875 43.015625 
L 29.109375 43.015625 
Q 36.375 43.015625 40.234375 45.921875 
Q 44.09375 48.828125 44.09375 54.296875 
Q 44.09375 59.90625 40.109375 62.90625 
Q 36.140625 65.921875 28.71875 65.921875 
Q 24.65625 65.921875 20.015625 65.03125 
Q 15.375 64.15625 9.8125 62.3125 
L 9.8125 71.09375 
Q 15.4375 72.65625 20.34375 73.4375 
Q 25.25 74.21875 29.59375 74.21875 
Q 40.828125 74.21875 47.359375 69.109375 
Q 53.90625 64.015625 53.90625 55.328125 
Q 53.90625 49.265625 50.4375 45.09375 
Q 46.96875 40.921875 40.578125 39.3125 
z
" id="DejaVuSans-51"/>
       </defs>
       <use xlink:href="#DejaVuSans-51"/>
       <use x="63.623047" xlink:href="#DejaVuSans-48"/>
       <use x="127.246094" xlink:href="#DejaVuSans-48"/>
      </g>
     </g>
    </g>
    <g id="ytick_8">
     <g id="line2d_17">
      <g>
       <use style="stroke:#000000;stroke-width:0.8;" x="135" xlink:href="#m34d9ecf4c9" y="102.074498"/>
      </g>
     </g>
     <g id="text_18">
      <!-- 350 -->
      <g transform="translate(108.9125 105.873717)scale(0.1 -0.1)">
       <use xlink:href="#DejaVuSans-51"/>
       <use x="63.623047" xlink:href="#DejaVuSans-53"/>
       <use x="127.246094" xlink:href="#DejaVuSans-48"/>
      </g>
     </g>
    </g>
    <g id="ytick_9">
     <g id="line2d_18">
      <g>
       <use style="stroke:#000000;stroke-width:0.8;" x="135" xlink:href="#m34d9ecf4c9" y="63.87335"/>
      </g>
     </g>
     <g id="text_19">
      <!-- 400 -->
      <g transform="translate(108.9125 67.672569)scale(0.1 -0.1)">
       <defs>
        <path d="M 37.796875 64.3125 
L 12.890625 25.390625 
L 37.796875 25.390625 
z
M 35.203125 72.90625 
L 47.609375 72.90625 
L 47.609375 25.390625 
L 58.015625 25.390625 
L 58.015625 17.1875 
L 47.609375 17.1875 
L 47.609375 0 
L 37.796875 0 
L 37.796875 17.1875 
L 4.890625 17.1875 
L 4.890625 26.703125 
z
" id="DejaVuSans-52"/>
       </defs>
       <use xlink:href="#DejaVuSans-52"/>
       <use x="63.623047" xlink:href="#DejaVuSans-48"/>
       <use x="127.246094" xlink:href="#DejaVuSans-48"/>
      </g>
     </g>
    </g>
    <g id="text_20">
     <!-- z -->
     <g transform="translate(102.832812 220.784219)rotate(-90)scale(0.1 -0.1)">
      <defs>
       <path d="M 5.515625 54.6875 
L 48.1875 54.6875 
L 48.1875 46.484375 
L 14.40625 7.171875 
L 48.1875 7.171875 
L 48.1875 0 
L 4.296875 0 
L 4.296875 8.203125 
L 38.09375 47.515625 
L 5.515625 47.515625 
z
" id="DejaVuSans-122"/>
      </defs>
      <use xlink:href="#DejaVuSans-122"/>
     </g>
    </g>
   </g>
   <g id="line2d_19">
    <path clip-path="url(#p898f400121)" d="M 152.293388 66.96 
L 155.822651 84.955775 
L 159.351914 102.165229 
L 162.881177 118.61058 
L 166.41044 134.313743 
L 169.939703 149.296325 
L 173.468966 163.57963 
L 176.998229 177.184655 
L 180.527492 190.132093 
L 184.056755 202.44233 
L 187.586018 214.135448 
L 191.115281 225.231222 
L 194.644544 235.749123 
L 198.173807 245.708317 
L 201.70307 255.127662 
L 205.232333 264.025713 
L 208.761596 272.420719 
L 212.290858 280.330623 
L 215.820121 287.773064 
L 219.349384 294.765373 
L 222.878647 301.324578 
L 226.40791 307.467401 
L 229.937173 313.210257 
L 233.466436 318.569259 
L 236.995699 323.560211 
L 240.524962 328.198613 
L 244.054225 332.49966 
L 247.583488 336.478241 
L 251.112751 340.14894 
L 254.642014 343.526035 
L 258.171277 346.6235 
L 261.70054 349.455001 
L 265.229803 352.033902 
L 268.759066 354.373258 
L 272.288329 356.48582 
L 275.817591 358.384036 
L 279.346854 360.080044 
L 282.876117 361.58568 
L 286.40538 362.912475 
L 289.934643 364.071651 
L 293.463906 365.074127 
L 296.993169 365.930518 
L 300.522432 366.651131 
L 304.051695 367.245967 
L 307.580958 367.724726 
L 311.110221 368.096797 
L 314.639484 368.371268 
L 318.168747 368.556918 
L 321.69801 368.662224 
L 325.227273 368.695356 
L 328.756536 368.664178 
L 332.285799 368.576249 
L 335.815062 368.438823 
L 339.344325 368.258847 
L 342.873587 368.042966 
L 346.40285 367.797517 
L 349.932113 367.528531 
L 353.461376 367.241735 
L 356.990639 366.942551 
L 360.519902 366.636093 
L 364.049165 366.327174 
L 367.578428 366.020296 
L 371.107691 365.719661 
L 374.636954 365.429161 
L 378.166217 365.152387 
L 381.69548 364.89262 
L 385.224743 364.652839 
L 388.754006 364.435716 
L 392.283269 364.243619 
L 395.812532 364.078609 
L 399.341795 363.942441 
L 402.871058 363.836567 
L 406.40032 363.762133 
L 409.929583 363.719977 
L 413.458846 363.710635 
L 416.988109 363.734335 
L 420.517372 363.791001 
L 424.046635 363.880252 
L 427.575898 364.0014 
L 431.105161 364.153452 
L 434.634424 364.335111 
L 438.163687 364.544774 
L 441.69295 364.78053 
L 445.222213 365.040166 
L 448.751476 365.321163 
L 452.280739 365.620694 
L 455.810002 365.935631 
L 459.339265 366.262535 
L 462.868528 366.597667 
L 466.397791 366.936979 
L 469.927053 367.27612 
L 473.456316 367.610431 
L 476.985579 367.934949 
L 480.514842 368.244406 
L 484.044105 368.533228 
L 487.573368 368.795536 
L 491.102631 369.025145 
L 494.631894 369.215565 
L 498.161157 369.36 
" style="fill:none;stroke:#1f77b4;stroke-linecap:square;stroke-width:1.5;"/>
   </g>
   <g id="patch_3">
    <path d="M 135 384.48 
L 135 51.84 
" style="fill:none;stroke:#000000;stroke-linecap:square;stroke-linejoin:miter;stroke-width:0.8;"/>
   </g>
   <g id="patch_4">
    <path d="M 515.454545 384.48 
L 515.454545 51.84 
" style="fill:none;stroke:#000000;stroke-linecap:square;stroke-linejoin:miter;stroke-width:0.8;"/>
   </g>
   <g id="patch_5">
    <path d="M 135 384.48 
L 515.454545 384.48 
" style="fill:none;stroke:#000000;stroke-linecap:square;stroke-linejoin:miter;stroke-width:0.8;"/>
   </g>
   <g id="patch_6">
    <path d="M 135 51.84 
L 515.454545 51.84 
" style="fill:none;stroke:#000000;stroke-linecap:square;stroke-linejoin:miter;stroke-width:0.8;"/>
   </g>
   <g id="text_21">
    <!-- Zad 2 - Funkcja Rosenbrocka - rzut na x2 -->
    <g transform="translate(202.420398 45.84)scale(0.12 -0.12)">
     <defs>
      <path d="M 5.609375 72.90625 
L 62.890625 72.90625 
L 62.890625 65.375 
L 16.796875 8.296875 
L 64.015625 8.296875 
L 64.015625 0 
L 4.5 0 
L 4.5 7.515625 
L 50.59375 64.59375 
L 5.609375 64.59375 
z
" id="DejaVuSans-90"/>
      <path d="M 34.28125 27.484375 
Q 23.390625 27.484375 19.1875 25 
Q 14.984375 22.515625 14.984375 16.5 
Q 14.984375 11.71875 18.140625 8.90625 
Q 21.296875 6.109375 26.703125 6.109375 
Q 34.1875 6.109375 38.703125 11.40625 
Q 43.21875 16.703125 43.21875 25.484375 
L 43.21875 27.484375 
z
M 52.203125 31.203125 
L 52.203125 0 
L 43.21875 0 
L 43.21875 8.296875 
Q 40.140625 3.328125 35.546875 0.953125 
Q 30.953125 -1.421875 24.3125 -1.421875 
Q 15.921875 -1.421875 10.953125 3.296875 
Q 6 8.015625 6 15.921875 
Q 6 25.140625 12.171875 29.828125 
Q 18.359375 34.515625 30.609375 34.515625 
L 43.21875 34.515625 
L 43.21875 35.40625 
Q 43.21875 41.609375 39.140625 45 
Q 35.0625 48.390625 27.6875 48.390625 
Q 23 48.390625 18.546875 47.265625 
Q 14.109375 46.140625 10.015625 43.890625 
L 10.015625 52.203125 
Q 14.9375 54.109375 19.578125 55.046875 
Q 24.21875 56 28.609375 56 
Q 40.484375 56 46.34375 49.84375 
Q 52.203125 43.703125 52.203125 31.203125 
z
" id="DejaVuSans-97"/>
      <path d="M 45.40625 46.390625 
L 45.40625 75.984375 
L 54.390625 75.984375 
L 54.390625 0 
L 45.40625 0 
L 45.40625 8.203125 
Q 42.578125 3.328125 38.25 0.953125 
Q 33.9375 -1.421875 27.875 -1.421875 
Q 17.96875 -1.421875 11.734375 6.484375 
Q 5.515625 14.40625 5.515625 27.296875 
Q 5.515625 40.1875 11.734375 48.09375 
Q 17.96875 56 27.875 56 
Q 33.9375 56 38.25 53.625 
Q 42.578125 51.265625 45.40625 46.390625 
z
M 14.796875 27.296875 
Q 14.796875 17.390625 18.875 11.75 
Q 22.953125 6.109375 30.078125 6.109375 
Q 37.203125 6.109375 41.296875 11.75 
Q 45.40625 17.390625 45.40625 27.296875 
Q 45.40625 37.203125 41.296875 42.84375 
Q 37.203125 48.484375 30.078125 48.484375 
Q 22.953125 48.484375 18.875 42.84375 
Q 14.796875 37.203125 14.796875 27.296875 
z
" id="DejaVuSans-100"/>
      <path id="DejaVuSans-32"/>
      <path d="M 4.890625 31.390625 
L 31.203125 31.390625 
L 31.203125 23.390625 
L 4.890625 23.390625 
z
" id="DejaVuSans-45"/>
      <path d="M 9.8125 72.90625 
L 51.703125 72.90625 
L 51.703125 64.59375 
L 19.671875 64.59375 
L 19.671875 43.109375 
L 48.578125 43.109375 
L 48.578125 34.8125 
L 19.671875 34.8125 
L 19.671875 0 
L 9.8125 0 
z
" id="DejaVuSans-70"/>
      <path d="M 8.5 21.578125 
L 8.5 54.6875 
L 17.484375 54.6875 
L 17.484375 21.921875 
Q 17.484375 14.15625 20.5 10.265625 
Q 23.53125 6.390625 29.59375 6.390625 
Q 36.859375 6.390625 41.078125 11.03125 
Q 45.3125 15.671875 45.3125 23.6875 
L 45.3125 54.6875 
L 54.296875 54.6875 
L 54.296875 0 
L 45.3125 0 
L 45.3125 8.40625 
Q 42.046875 3.421875 37.71875 1 
Q 33.40625 -1.421875 27.6875 -1.421875 
Q 18.265625 -1.421875 13.375 4.4375 
Q 8.5 10.296875 8.5 21.578125 
z
M 31.109375 56 
z
" id="DejaVuSans-117"/>
      <path d="M 54.890625 33.015625 
L 54.890625 0 
L 45.90625 0 
L 45.90625 32.71875 
Q 45.90625 40.484375 42.875 44.328125 
Q 39.84375 48.1875 33.796875 48.1875 
Q 26.515625 48.1875 22.3125 43.546875 
Q 18.109375 38.921875 18.109375 30.90625 
L 18.109375 0 
L 9.078125 0 
L 9.078125 54.6875 
L 18.109375 54.6875 
L 18.109375 46.1875 
Q 21.34375 51.125 25.703125 53.5625 
Q 30.078125 56 35.796875 56 
Q 45.21875 56 50.046875 50.171875 
Q 54.890625 44.34375 54.890625 33.015625 
z
" id="DejaVuSans-110"/>
      <path d="M 9.078125 75.984375 
L 18.109375 75.984375 
L 18.109375 31.109375 
L 44.921875 54.6875 
L 56.390625 54.6875 
L 27.390625 29.109375 
L 57.625 0 
L 45.90625 0 
L 18.109375 26.703125 
L 18.109375 0 
L 9.078125 0 
z
" id="DejaVuSans-107"/>
      <path d="M 48.78125 52.59375 
L 48.78125 44.1875 
Q 44.96875 46.296875 41.140625 47.34375 
Q 37.3125 48.390625 33.40625 48.390625 
Q 24.65625 48.390625 19.8125 42.84375 
Q 14.984375 37.3125 14.984375 27.296875 
Q 14.984375 17.28125 19.8125 11.734375 
Q 24.65625 6.203125 33.40625 6.203125 
Q 37.3125 6.203125 41.140625 7.25 
Q 44.96875 8.296875 48.78125 10.40625 
L 48.78125 2.09375 
Q 45.015625 0.34375 40.984375 -0.53125 
Q 36.96875 -1.421875 32.421875 -1.421875 
Q 20.0625 -1.421875 12.78125 6.34375 
Q 5.515625 14.109375 5.515625 27.296875 
Q 5.515625 40.671875 12.859375 48.328125 
Q 20.21875 56 33.015625 56 
Q 37.15625 56 41.109375 55.140625 
Q 45.0625 54.296875 48.78125 52.59375 
z
" id="DejaVuSans-99"/>
      <path d="M 9.421875 54.6875 
L 18.40625 54.6875 
L 18.40625 -0.984375 
Q 18.40625 -11.421875 14.421875 -16.109375 
Q 10.453125 -20.796875 1.609375 -20.796875 
L -1.8125 -20.796875 
L -1.8125 -13.1875 
L 0.59375 -13.1875 
Q 5.71875 -13.1875 7.5625 -10.8125 
Q 9.421875 -8.453125 9.421875 -0.984375 
z
M 9.421875 75.984375 
L 18.40625 75.984375 
L 18.40625 64.59375 
L 9.421875 64.59375 
z
" id="DejaVuSans-106"/>
      <path d="M 44.390625 34.1875 
Q 47.5625 33.109375 50.5625 29.59375 
Q 53.5625 26.078125 56.59375 19.921875 
L 66.609375 0 
L 56 0 
L 46.6875 18.703125 
Q 43.0625 26.03125 39.671875 28.421875 
Q 36.28125 30.8125 30.421875 30.8125 
L 19.671875 30.8125 
L 19.671875 0 
L 9.8125 0 
L 9.8125 72.90625 
L 32.078125 72.90625 
Q 44.578125 72.90625 50.734375 67.671875 
Q 56.890625 62.453125 56.890625 51.90625 
Q 56.890625 45.015625 53.6875 40.46875 
Q 50.484375 35.9375 44.390625 34.1875 
z
M 19.671875 64.796875 
L 19.671875 38.921875 
L 32.078125 38.921875 
Q 39.203125 38.921875 42.84375 42.21875 
Q 46.484375 45.515625 46.484375 51.90625 
Q 46.484375 58.296875 42.84375 61.546875 
Q 39.203125 64.796875 32.078125 64.796875 
z
" id="DejaVuSans-82"/>
      <path d="M 30.609375 48.390625 
Q 23.390625 48.390625 19.1875 42.75 
Q 14.984375 37.109375 14.984375 27.296875 
Q 14.984375 17.484375 19.15625 11.84375 
Q 23.34375 6.203125 30.609375 6.203125 
Q 37.796875 6.203125 41.984375 11.859375 
Q 46.1875 17.53125 46.1875 27.296875 
Q 46.1875 37.015625 41.984375 42.703125 
Q 37.796875 48.390625 30.609375 48.390625 
z
M 30.609375 56 
Q 42.328125 56 49.015625 48.375 
Q 55.71875 40.765625 55.71875 27.296875 
Q 55.71875 13.875 49.015625 6.21875 
Q 42.328125 -1.421875 30.609375 -1.421875 
Q 18.84375 -1.421875 12.171875 6.21875 
Q 5.515625 13.875 5.515625 27.296875 
Q 5.515625 40.765625 12.171875 48.375 
Q 18.84375 56 30.609375 56 
z
" id="DejaVuSans-111"/>
      <path d="M 44.28125 53.078125 
L 44.28125 44.578125 
Q 40.484375 46.53125 36.375 47.5 
Q 32.28125 48.484375 27.875 48.484375 
Q 21.1875 48.484375 17.84375 46.4375 
Q 14.5 44.390625 14.5 40.28125 
Q 14.5 37.15625 16.890625 35.375 
Q 19.28125 33.59375 26.515625 31.984375 
L 29.59375 31.296875 
Q 39.15625 29.25 43.1875 25.515625 
Q 47.21875 21.78125 47.21875 15.09375 
Q 47.21875 7.46875 41.1875 3.015625 
Q 35.15625 -1.421875 24.609375 -1.421875 
Q 20.21875 -1.421875 15.453125 -0.5625 
Q 10.6875 0.296875 5.421875 2 
L 5.421875 11.28125 
Q 10.40625 8.6875 15.234375 7.390625 
Q 20.0625 6.109375 24.8125 6.109375 
Q 31.15625 6.109375 34.5625 8.28125 
Q 37.984375 10.453125 37.984375 14.40625 
Q 37.984375 18.0625 35.515625 20.015625 
Q 33.0625 21.96875 24.703125 23.78125 
L 21.578125 24.515625 
Q 13.234375 26.265625 9.515625 29.90625 
Q 5.8125 33.546875 5.8125 39.890625 
Q 5.8125 47.609375 11.28125 51.796875 
Q 16.75 56 26.8125 56 
Q 31.78125 56 36.171875 55.265625 
Q 40.578125 54.546875 44.28125 53.078125 
z
" id="DejaVuSans-115"/>
      <path d="M 56.203125 29.59375 
L 56.203125 25.203125 
L 14.890625 25.203125 
Q 15.484375 15.921875 20.484375 11.0625 
Q 25.484375 6.203125 34.421875 6.203125 
Q 39.59375 6.203125 44.453125 7.46875 
Q 49.3125 8.734375 54.109375 11.28125 
L 54.109375 2.78125 
Q 49.265625 0.734375 44.1875 -0.34375 
Q 39.109375 -1.421875 33.890625 -1.421875 
Q 20.796875 -1.421875 13.15625 6.1875 
Q 5.515625 13.8125 5.515625 26.8125 
Q 5.515625 40.234375 12.765625 48.109375 
Q 20.015625 56 32.328125 56 
Q 43.359375 56 49.78125 48.890625 
Q 56.203125 41.796875 56.203125 29.59375 
z
M 47.21875 32.234375 
Q 47.125 39.59375 43.09375 43.984375 
Q 39.0625 48.390625 32.421875 48.390625 
Q 24.90625 48.390625 20.390625 44.140625 
Q 15.875 39.890625 15.1875 32.171875 
z
" id="DejaVuSans-101"/>
      <path d="M 48.6875 27.296875 
Q 48.6875 37.203125 44.609375 42.84375 
Q 40.53125 48.484375 33.40625 48.484375 
Q 26.265625 48.484375 22.1875 42.84375 
Q 18.109375 37.203125 18.109375 27.296875 
Q 18.109375 17.390625 22.1875 11.75 
Q 26.265625 6.109375 33.40625 6.109375 
Q 40.53125 6.109375 44.609375 11.75 
Q 48.6875 17.390625 48.6875 27.296875 
z
M 18.109375 46.390625 
Q 20.953125 51.265625 25.265625 53.625 
Q 29.59375 56 35.59375 56 
Q 45.5625 56 51.78125 48.09375 
Q 58.015625 40.1875 58.015625 27.296875 
Q 58.015625 14.40625 51.78125 6.484375 
Q 45.5625 -1.421875 35.59375 -1.421875 
Q 29.59375 -1.421875 25.265625 0.953125 
Q 20.953125 3.328125 18.109375 8.203125 
L 18.109375 0 
L 9.078125 0 
L 9.078125 75.984375 
L 18.109375 75.984375 
z
" id="DejaVuSans-98"/>
      <path d="M 41.109375 46.296875 
Q 39.59375 47.171875 37.8125 47.578125 
Q 36.03125 48 33.890625 48 
Q 26.265625 48 22.1875 43.046875 
Q 18.109375 38.09375 18.109375 28.8125 
L 18.109375 0 
L 9.078125 0 
L 9.078125 54.6875 
L 18.109375 54.6875 
L 18.109375 46.1875 
Q 20.953125 51.171875 25.484375 53.578125 
Q 30.03125 56 36.53125 56 
Q 37.453125 56 38.578125 55.875 
Q 39.703125 55.765625 41.0625 55.515625 
z
" id="DejaVuSans-114"/>
      <path d="M 18.3125 70.21875 
L 18.3125 54.6875 
L 36.8125 54.6875 
L 36.8125 47.703125 
L 18.3125 47.703125 
L 18.3125 18.015625 
Q 18.3125 11.328125 20.140625 9.421875 
Q 21.96875 7.515625 27.59375 7.515625 
L 36.8125 7.515625 
L 36.8125 0 
L 27.59375 0 
Q 17.1875 0 13.234375 3.875 
Q 9.28125 7.765625 9.28125 18.015625 
L 9.28125 47.703125 
L 2.6875 47.703125 
L 2.6875 54.6875 
L 9.28125 54.6875 
L 9.28125 70.21875 
z
" id="DejaVuSans-116"/>
     </defs>
     <use xlink:href="#DejaVuSans-90"/>
     <use x="68.505859" xlink:href="#DejaVuSans-97"/>
     <use x="129.785156" xlink:href="#DejaVuSans-100"/>
     <use x="193.261719" xlink:href="#DejaVuSans-32"/>
     <use x="225.048828" xlink:href="#DejaVuSans-50"/>
     <use x="288.671875" xlink:href="#DejaVuSans-32"/>
     <use x="320.458984" xlink:href="#DejaVuSans-45"/>
     <use x="356.542969" xlink:href="#DejaVuSans-32"/>
     <use x="388.330078" xlink:href="#DejaVuSans-70"/>
     <use x="440.349609" xlink:href="#DejaVuSans-117"/>
     <use x="503.728516" xlink:href="#DejaVuSans-110"/>
     <use x="567.107422" xlink:href="#DejaVuSans-107"/>
     <use x="625.017578" xlink:href="#DejaVuSans-99"/>
     <use x="679.998047" xlink:href="#DejaVuSans-106"/>
     <use x="707.78125" xlink:href="#DejaVuSans-97"/>
     <use x="769.060547" xlink:href="#DejaVuSans-32"/>
     <use x="800.847656" xlink:href="#DejaVuSans-82"/>
     <use x="865.830078" xlink:href="#DejaVuSans-111"/>
     <use x="927.011719" xlink:href="#DejaVuSans-115"/>
     <use x="979.111328" xlink:href="#DejaVuSans-101"/>
     <use x="1040.634766" xlink:href="#DejaVuSans-110"/>
     <use x="1104.013672" xlink:href="#DejaVuSans-98"/>
     <use x="1167.490234" xlink:href="#DejaVuSans-114"/>
     <use x="1206.353516" xlink:href="#DejaVuSans-111"/>
     <use x="1267.535156" xlink:href="#DejaVuSans-99"/>
     <use x="1322.515625" xlink:href="#DejaVuSans-107"/>
     <use x="1378.675781" xlink:href="#DejaVuSans-97"/>
     <use x="1439.955078" xlink:href="#DejaVuSans-32"/>
     <use x="1471.742188" xlink:href="#DejaVuSans-45"/>
     <use x="1507.826172" xlink:href="#DejaVuSans-32"/>
     <use x="1539.613281" xlink:href="#DejaVuSans-114"/>
     <use x="1580.726562" xlink:href="#DejaVuSans-122"/>
     <use x="1633.216797" xlink:href="#DejaVuSans-117"/>
     <use x="1696.595703" xlink:href="#DejaVuSans-116"/>
     <use x="1735.804688" xlink:href="#DejaVuSans-32"/>
     <use x="1767.591797" xlink:href="#DejaVuSans-110"/>
     <use x="1830.970703" xlink:href="#DejaVuSans-97"/>
     <use x="1892.25" xlink:href="#DejaVuSans-32"/>
     <use x="1924.037109" xlink:href="#DejaVuSans-120"/>
     <use x="1983.216797" xlink:href="#DejaVuSans-50"/>
    </g>
   </g>
  </g>
  <g id="axes_2">
   <g id="patch_7">
    <path d="M 591.545455 384.48 
L 895.909091 384.48 
L 895.909091 51.84 
L 591.545455 51.84 
z
" style="fill:#ffffff;"/>
   </g>
   <g id="matplotlib.axis_3">
    <g id="xtick_10">
     <g id="line2d_20">
      <g>
       <use style="stroke:#000000;stroke-width:0.8;" x="591.545455" xlink:href="#mf470bde82e" y="384.48"/>
      </g>
     </g>
     <g id="text_22">
      <!-- −1.00 -->
      <g transform="translate(576.222798 399.078438)scale(0.1 -0.1)">
       <use xlink:href="#DejaVuSans-8722"/>
       <use x="83.789062" xlink:href="#DejaVuSans-49"/>
       <use x="147.412109" xlink:href="#DejaVuSans-46"/>
       <use x="179.199219" xlink:href="#DejaVuSans-48"/>
       <use x="242.822266" xlink:href="#DejaVuSans-48"/>
      </g>
     </g>
    </g>
    <g id="xtick_11">
     <g id="line2d_21">
      <g>
       <use style="stroke:#000000;stroke-width:0.8;" x="629.590909" xlink:href="#mf470bde82e" y="384.48"/>
      </g>
     </g>
     <g id="text_23">
      <!-- −0.75 -->
      <g transform="translate(614.268253 399.078438)scale(0.1 -0.1)">
       <use xlink:href="#DejaVuSans-8722"/>
       <use x="83.789062" xlink:href="#DejaVuSans-48"/>
       <use x="147.412109" xlink:href="#DejaVuSans-46"/>
       <use x="179.199219" xlink:href="#DejaVuSans-55"/>
       <use x="242.822266" xlink:href="#DejaVuSans-53"/>
      </g>
     </g>
    </g>
    <g id="xtick_12">
     <g id="line2d_22">
      <g>
       <use style="stroke:#000000;stroke-width:0.8;" x="667.636364" xlink:href="#mf470bde82e" y="384.48"/>
      </g>
     </g>
     <g id="text_24">
      <!-- −0.50 -->
      <g transform="translate(652.313707 399.078438)scale(0.1 -0.1)">
       <use xlink:href="#DejaVuSans-8722"/>
       <use x="83.789062" xlink:href="#DejaVuSans-48"/>
       <use x="147.412109" xlink:href="#DejaVuSans-46"/>
       <use x="179.199219" xlink:href="#DejaVuSans-53"/>
       <use x="242.822266" xlink:href="#DejaVuSans-48"/>
      </g>
     </g>
    </g>
    <g id="xtick_13">
     <g id="line2d_23">
      <g>
       <use style="stroke:#000000;stroke-width:0.8;" x="705.681818" xlink:href="#mf470bde82e" y="384.48"/>
      </g>
     </g>
     <g id="text_25">
      <!-- −0.25 -->
      <g transform="translate(690.359162 399.078438)scale(0.1 -0.1)">
       <use xlink:href="#DejaVuSans-8722"/>
       <use x="83.789062" xlink:href="#DejaVuSans-48"/>
       <use x="147.412109" xlink:href="#DejaVuSans-46"/>
       <use x="179.199219" xlink:href="#DejaVuSans-50"/>
       <use x="242.822266" xlink:href="#DejaVuSans-53"/>
      </g>
     </g>
    </g>
    <g id="xtick_14">
     <g id="line2d_24">
      <g>
       <use style="stroke:#000000;stroke-width:0.8;" x="743.727273" xlink:href="#mf470bde82e" y="384.48"/>
      </g>
     </g>
     <g id="text_26">
      <!-- 0.00 -->
      <g transform="translate(732.59446 399.078438)scale(0.1 -0.1)">
       <use xlink:href="#DejaVuSans-48"/>
       <use x="63.623047" xlink:href="#DejaVuSans-46"/>
       <use x="95.410156" xlink:href="#DejaVuSans-48"/>
       <use x="159.033203" xlink:href="#DejaVuSans-48"/>
      </g>
     </g>
    </g>
    <g id="xtick_15">
     <g id="line2d_25">
      <g>
       <use style="stroke:#000000;stroke-width:0.8;" x="781.772727" xlink:href="#mf470bde82e" y="384.48"/>
      </g>
     </g>
     <g id="text_27">
      <!-- 0.25 -->
      <g transform="translate(770.639915 399.078438)scale(0.1 -0.1)">
       <use xlink:href="#DejaVuSans-48"/>
       <use x="63.623047" xlink:href="#DejaVuSans-46"/>
       <use x="95.410156" xlink:href="#DejaVuSans-50"/>
       <use x="159.033203" xlink:href="#DejaVuSans-53"/>
      </g>
     </g>
    </g>
    <g id="xtick_16">
     <g id="line2d_26">
      <g>
       <use style="stroke:#000000;stroke-width:0.8;" x="819.818182" xlink:href="#mf470bde82e" y="384.48"/>
      </g>
     </g>
     <g id="text_28">
      <!-- 0.50 -->
      <g transform="translate(808.685369 399.078438)scale(0.1 -0.1)">
       <use xlink:href="#DejaVuSans-48"/>
       <use x="63.623047" xlink:href="#DejaVuSans-46"/>
       <use x="95.410156" xlink:href="#DejaVuSans-53"/>
       <use x="159.033203" xlink:href="#DejaVuSans-48"/>
      </g>
     </g>
    </g>
    <g id="xtick_17">
     <g id="line2d_27">
      <g>
       <use style="stroke:#000000;stroke-width:0.8;" x="857.863636" xlink:href="#mf470bde82e" y="384.48"/>
      </g>
     </g>
     <g id="text_29">
      <!-- 0.75 -->
      <g transform="translate(846.730824 399.078438)scale(0.1 -0.1)">
       <use xlink:href="#DejaVuSans-48"/>
       <use x="63.623047" xlink:href="#DejaVuSans-46"/>
       <use x="95.410156" xlink:href="#DejaVuSans-55"/>
       <use x="159.033203" xlink:href="#DejaVuSans-53"/>
      </g>
     </g>
    </g>
    <g id="xtick_18">
     <g id="line2d_28">
      <g>
       <use style="stroke:#000000;stroke-width:0.8;" x="895.909091" xlink:href="#mf470bde82e" y="384.48"/>
      </g>
     </g>
     <g id="text_30">
      <!-- 1.00 -->
      <g transform="translate(884.776278 399.078438)scale(0.1 -0.1)">
       <use xlink:href="#DejaVuSans-49"/>
       <use x="63.623047" xlink:href="#DejaVuSans-46"/>
       <use x="95.410156" xlink:href="#DejaVuSans-48"/>
       <use x="159.033203" xlink:href="#DejaVuSans-48"/>
      </g>
     </g>
    </g>
    <g id="text_31">
     <!-- x1 -->
     <g transform="translate(737.586648 412.756563)scale(0.1 -0.1)">
      <use xlink:href="#DejaVuSans-120"/>
      <use x="59.179688" xlink:href="#DejaVuSans-49"/>
     </g>
    </g>
   </g>
   <g id="matplotlib.axis_4">
    <g id="ytick_10">
     <g id="line2d_29">
      <g>
       <use style="stroke:#000000;stroke-width:0.8;" x="591.545455" xlink:href="#m34d9ecf4c9" y="384.48"/>
      </g>
     </g>
     <g id="text_32">
      <!-- −1.00 -->
      <g transform="translate(553.900142 388.279219)scale(0.1 -0.1)">
       <use xlink:href="#DejaVuSans-8722"/>
       <use x="83.789062" xlink:href="#DejaVuSans-49"/>
       <use x="147.412109" xlink:href="#DejaVuSans-46"/>
       <use x="179.199219" xlink:href="#DejaVuSans-48"/>
       <use x="242.822266" xlink:href="#DejaVuSans-48"/>
      </g>
     </g>
    </g>
    <g id="ytick_11">
     <g id="line2d_30">
      <g>
       <use style="stroke:#000000;stroke-width:0.8;" x="591.545455" xlink:href="#m34d9ecf4c9" y="342.9"/>
      </g>
     </g>
     <g id="text_33">
      <!-- −0.75 -->
      <g transform="translate(553.900142 346.699219)scale(0.1 -0.1)">
       <use xlink:href="#DejaVuSans-8722"/>
       <use x="83.789062" xlink:href="#DejaVuSans-48"/>
       <use x="147.412109" xlink:href="#DejaVuSans-46"/>
       <use x="179.199219" xlink:href="#DejaVuSans-55"/>
       <use x="242.822266" xlink:href="#DejaVuSans-53"/>
      </g>
     </g>
    </g>
    <g id="ytick_12">
     <g id="line2d_31">
      <g>
       <use style="stroke:#000000;stroke-width:0.8;" x="591.545455" xlink:href="#m34d9ecf4c9" y="301.32"/>
      </g>
     </g>
     <g id="text_34">
      <!-- −0.50 -->
      <g transform="translate(553.900142 305.119219)scale(0.1 -0.1)">
       <use xlink:href="#DejaVuSans-8722"/>
       <use x="83.789062" xlink:href="#DejaVuSans-48"/>
       <use x="147.412109" xlink:href="#DejaVuSans-46"/>
       <use x="179.199219" xlink:href="#DejaVuSans-53"/>
       <use x="242.822266" xlink:href="#DejaVuSans-48"/>
      </g>
     </g>
    </g>
    <g id="ytick_13">
     <g id="line2d_32">
      <g>
       <use style="stroke:#000000;stroke-width:0.8;" x="591.545455" xlink:href="#m34d9ecf4c9" y="259.74"/>
      </g>
     </g>
     <g id="text_35">
      <!-- −0.25 -->
      <g transform="translate(553.900142 263.539219)scale(0.1 -0.1)">
       <use xlink:href="#DejaVuSans-8722"/>
       <use x="83.789062" xlink:href="#DejaVuSans-48"/>
       <use x="147.412109" xlink:href="#DejaVuSans-46"/>
       <use x="179.199219" xlink:href="#DejaVuSans-50"/>
       <use x="242.822266" xlink:href="#DejaVuSans-53"/>
      </g>
     </g>
    </g>
    <g id="ytick_14">
     <g id="line2d_33">
      <g>
       <use style="stroke:#000000;stroke-width:0.8;" x="591.545455" xlink:href="#m34d9ecf4c9" y="218.16"/>
      </g>
     </g>
     <g id="text_36">
      <!-- 0.00 -->
      <g transform="translate(562.27983 221.959219)scale(0.1 -0.1)">
       <use xlink:href="#DejaVuSans-48"/>
       <use x="63.623047" xlink:href="#DejaVuSans-46"/>
       <use x="95.410156" xlink:href="#DejaVuSans-48"/>
       <use x="159.033203" xlink:href="#DejaVuSans-48"/>
      </g>
     </g>
    </g>
    <g id="ytick_15">
     <g id="line2d_34">
      <g>
       <use style="stroke:#000000;stroke-width:0.8;" x="591.545455" xlink:href="#m34d9ecf4c9" y="176.58"/>
      </g>
     </g>
     <g id="text_37">
      <!-- 0.25 -->
      <g transform="translate(562.27983 180.379219)scale(0.1 -0.1)">
       <use xlink:href="#DejaVuSans-48"/>
       <use x="63.623047" xlink:href="#DejaVuSans-46"/>
       <use x="95.410156" xlink:href="#DejaVuSans-50"/>
       <use x="159.033203" xlink:href="#DejaVuSans-53"/>
      </g>
     </g>
    </g>
    <g id="ytick_16">
     <g id="line2d_35">
      <g>
       <use style="stroke:#000000;stroke-width:0.8;" x="591.545455" xlink:href="#m34d9ecf4c9" y="135"/>
      </g>
     </g>
     <g id="text_38">
      <!-- 0.50 -->
      <g transform="translate(562.27983 138.799219)scale(0.1 -0.1)">
       <use xlink:href="#DejaVuSans-48"/>
       <use x="63.623047" xlink:href="#DejaVuSans-46"/>
       <use x="95.410156" xlink:href="#DejaVuSans-53"/>
       <use x="159.033203" xlink:href="#DejaVuSans-48"/>
      </g>
     </g>
    </g>
    <g id="ytick_17">
     <g id="line2d_36">
      <g>
       <use style="stroke:#000000;stroke-width:0.8;" x="591.545455" xlink:href="#m34d9ecf4c9" y="93.42"/>
      </g>
     </g>
     <g id="text_39">
      <!-- 0.75 -->
      <g transform="translate(562.27983 97.219219)scale(0.1 -0.1)">
       <use xlink:href="#DejaVuSans-48"/>
       <use x="63.623047" xlink:href="#DejaVuSans-46"/>
       <use x="95.410156" xlink:href="#DejaVuSans-55"/>
       <use x="159.033203" xlink:href="#DejaVuSans-53"/>
      </g>
     </g>
    </g>
    <g id="ytick_18">
     <g id="line2d_37">
      <g>
       <use style="stroke:#000000;stroke-width:0.8;" x="591.545455" xlink:href="#m34d9ecf4c9" y="51.84"/>
      </g>
     </g>
     <g id="text_40">
      <!-- 1.00 -->
      <g transform="translate(562.27983 55.639219)scale(0.1 -0.1)">
       <use xlink:href="#DejaVuSans-49"/>
       <use x="63.623047" xlink:href="#DejaVuSans-46"/>
       <use x="95.410156" xlink:href="#DejaVuSans-48"/>
       <use x="159.033203" xlink:href="#DejaVuSans-48"/>
      </g>
     </g>
    </g>
    <g id="text_41">
     <!-- x2 -->
     <g transform="translate(547.820455 224.300625)rotate(-90)scale(0.1 -0.1)">
      <use xlink:href="#DejaVuSans-120"/>
      <use x="59.179688" xlink:href="#DejaVuSans-50"/>
     </g>
    </g>
   </g>
   <g id="LineCollection_1">
    <path clip-path="url(#p62e7ecfb6b)" d="M 895.909091 51.84 
" style="fill:none;stroke:#440154;stroke-width:1.5;"/>
   </g>
   <g id="LineCollection_2">
    <path clip-path="url(#p62e7ecfb6b)" d="M 782.028311 384.48 
L 763.710744 374.289425 
L 746.903224 364.32 
L 732.966942 355.492026 
L 725.980572 350.88 
L 714.520661 342.890341 
L 707.063336 337.44 
L 698.352109 330.72 
L 689.92562 323.81713 
L 682.437117 317.28 
L 674.553719 309.898244 
L 668.404959 303.72599 
L 662.256198 297.064919 
L 656.601604 290.4 
L 651.399163 283.68 
L 646.684638 276.96 
L 642.485523 270.24 
L 640.561988 266.88 
L 637.109513 260.16 
L 634.152372 253.44 
L 631.693814 246.72 
L 630.659319 243.36 
L 629.745772 240 
L 628.438017 234.074837 
L 628.2823 233.28 
L 627.747214 229.92 
L 627.334326 226.56 
L 627.044932 223.2 
L 626.87995 219.84 
L 626.839908 216.48 
L 626.924932 213.12 
L 627.13475 209.76 
L 627.468693 206.4 
L 628.438017 200.0671 
L 628.506139 199.68 
L 629.223136 196.32 
L 630.060749 192.96 
L 631.512397 188.0517 
L 632.102516 186.24 
L 634.642679 179.52 
L 637.688132 172.8 
L 641.239237 166.08 
L 645.289823 159.36 
L 649.827587 152.64 
L 653.033058 148.31764 
L 657.592931 142.56 
L 663.388668 135.84 
L 669.685605 129.12 
L 676.48185 122.4 
L 683.77686 115.673373 
L 691.575946 108.96 
L 699.870056 102.24 
L 708.66326 95.52 
L 717.961076 88.8 
L 729.892562 80.684868 
L 738.060251 75.36 
L 751.413223 67.117116 
L 760.151196 61.92 
L 778.038553 51.84 
L 778.038553 51.84 
" style="fill:none;stroke:#46327e;stroke-width:1.5;"/>
    <path clip-path="url(#p62e7ecfb6b)" d="M 895.909091 138.889646 
L 895.631701 139.2 
L 892.834711 142.467853 
L 892.755694 142.56 
L 889.998933 145.92 
L 889.760331 146.225281 
L 887.363423 149.28 
L 886.68595 150.189901 
L 884.852578 152.64 
L 883.61157 154.393893 
L 882.468199 156 
L 880.53719 158.879373 
L 880.21254 159.36 
L 878.072096 162.72 
L 877.46281 163.740995 
L 876.054056 166.08 
L 874.38843 169.054578 
L 874.170359 169.44 
L 872.396196 172.8 
L 871.31405 175.025076 
L 870.755164 176.16 
L 869.231529 179.52 
L 868.239669 181.922134 
L 867.838342 182.88 
L 866.558911 186.24 
L 865.415276 189.6 
L 865.165289 190.425007 
L 864.383428 192.96 
L 863.477277 196.32 
L 862.700441 199.68 
L 862.090909 202.829506 
L 862.049307 203.04 
L 861.510045 206.4 
L 861.097183 209.76 
L 860.80938 213.12 
L 860.645712 216.48 
L 860.605659 219.84 
L 860.689092 223.2 
L 860.896276 226.56 
L 861.227873 229.92 
L 861.684954 233.28 
L 862.090909 235.619214 
L 862.264377 236.64 
L 862.958654 240 
L 863.780547 243.36 
L 864.732787 246.72 
L 865.165289 248.066158 
L 865.801525 250.08 
L 866.992277 253.44 
L 868.239669 256.597961 
L 868.318318 256.8 
L 869.749826 260.16 
L 871.31405 263.498748 
L 871.323883 263.52 
L 873.001359 266.88 
L 874.38843 269.440105 
L 874.817339 270.24 
L 876.749144 273.6 
L 877.46281 274.760661 
L 878.803938 276.96 
L 880.53719 279.620335 
L 880.989769 280.32 
L 883.295431 283.68 
L 883.61157 284.116506 
L 885.718077 287.04 
L 886.68595 288.312296 
L 888.267739 290.4 
L 889.760331 292.272394 
L 890.942697 293.76 
L 892.834711 296.029877 
L 893.741664 297.12 
L 895.909091 299.611721 
" style="fill:none;stroke:#46327e;stroke-width:1.5;"/>
   </g>
   <g id="LineCollection_3">
    <path clip-path="url(#p62e7ecfb6b)" d="M 732.010436 384.48 
L 729.892562 383.311041 
L 726.818182 381.635582 
L 725.866972 381.12 
L 723.743802 379.924272 
L 720.669421 378.214739 
L 719.847826 377.76 
L 717.595041 376.4649 
L 714.520661 374.721141 
L 713.952704 374.4 
L 711.446281 372.928467 
L 708.371901 371.1503 
L 708.181038 371.04 
L 705.297521 369.310284 
L 702.537812 367.68 
L 702.22314 367.487052 
L 699.14876 365.6054 
L 697.02192 364.32 
L 696.07438 363.725773 
L 693 361.808567 
L 691.62832 360.96 
L 689.92562 359.867302 
L 686.85124 357.914191 
L 686.35534 357.6 
L 683.77686 355.90574 
L 681.210461 354.24 
L 680.702479 353.898067 
L 677.628099 351.834747 
L 676.193504 350.88 
L 674.553719 349.748477 
L 671.479339 347.647473 
L 671.292653 347.52 
L 668.404959 345.475919 
L 666.527313 344.16 
L 665.330579 343.290502 
L 662.256198 341.072415 
L 661.877861 340.8 
L 659.181818 338.787728 
L 657.360778 337.44 
L 656.107438 336.478394 
L 653.033058 334.13684 
L 652.958416 334.08 
L 649.958678 331.711945 
L 648.693379 330.72 
L 646.884298 329.249523 
L 644.54515 327.36 
L 643.809917 326.744101 
L 640.735537 324.179523 
L 640.520105 324 
L 637.661157 321.529009 
L 636.627741 320.64 
L 634.586777 318.818393 
L 632.856308 317.28 
L 631.512397 316.040003 
L 629.207347 313.92 
L 628.438017 313.18531 
L 625.682149 310.56 
L 625.363636 310.244785 
L 622.289256 307.207292 
L 622.281877 307.2 
L 619.214876 304.049533 
L 619.010703 303.84 
L 616.140496 300.775968 
L 615.863199 300.48 
L 613.066116 297.371924 
L 612.839526 297.12 
L 609.991736 293.820516 
L 609.939572 293.76 
L 607.167555 290.4 
L 606.917355 290.083114 
L 604.521455 287.04 
L 603.842975 286.138491 
L 601.99932 283.68 
L 600.768595 281.960187 
L 599.59991 280.32 
L 597.694215 277.51168 
L 597.321735 276.96 
L 595.173223 273.6 
L 594.619835 272.684806 
L 593.151243 270.24 
L 591.545455 267.410561 
" style="fill:none;stroke:#365c8d;stroke-width:1.5;"/>
    <path clip-path="url(#p62e7ecfb6b)" d="M 591.545455 167.405159 
L 592.275231 166.08 
L 594.241601 162.72 
L 594.619835 162.111143 
L 596.338773 159.36 
L 597.694215 157.301486 
L 598.555522 156 
L 600.768595 152.819064 
L 600.893714 152.64 
L 603.363937 149.28 
L 603.842975 148.658271 
L 605.958678 145.92 
L 606.917355 144.733322 
L 608.676705 142.56 
L 609.991736 141.004252 
L 611.51881 139.2 
L 613.066116 137.447097 
L 614.485511 135.84 
L 616.140496 134.041457 
L 617.577051 132.48 
L 619.214876 130.769804 
L 620.793391 129.12 
L 622.289256 127.616941 
L 624.134213 125.76 
L 625.363636 124.569589 
L 627.598921 122.4 
L 628.438017 121.616061 
L 631.186651 119.04 
L 631.512397 118.745998 
L 634.586777 115.965667 
L 634.902033 115.68 
L 637.661157 113.271539 
L 638.746144 112.32 
L 640.735537 110.638727 
L 642.711209 108.96 
L 643.809917 108.060124 
L 646.795306 105.6 
L 646.884298 105.529297 
L 649.958678 103.085469 
L 651.015506 102.24 
L 653.033058 100.683768 
L 655.353741 98.88 
L 656.107438 98.315088 
L 659.181818 96.000343 
L 659.817312 95.52 
L 662.256198 93.742421 
L 664.407573 92.16 
L 665.330579 91.505301 
L 668.404959 89.312537 
L 669.120418 88.8 
L 671.479339 87.170598 
L 673.958306 85.44 
L 674.553719 85.039194 
L 677.628099 82.962379 
L 678.9241 82.08 
L 680.702479 80.912704 
L 683.77686 78.873075 
L 684.007245 78.72 
L 686.85124 76.898678 
L 689.223154 75.36 
L 689.92562 74.920781 
L 693 72.99057 
L 694.562904 72 
L 696.07438 71.076901 
L 699.14876 69.1823 
L 700.024038 68.64 
L 702.22314 67.327468 
L 705.297521 65.468187 
L 705.60807 65.28 
L 708.371901 63.667086 
L 711.318638 61.92 
L 711.446281 61.847121 
L 714.520661 60.090678 
L 717.157768 58.56 
L 717.595041 58.315652 
L 720.669421 56.593441 
L 723.120476 55.2 
L 723.743802 54.858956 
L 726.818182 53.170813 
L 729.207173 51.84 
" style="fill:none;stroke:#365c8d;stroke-width:1.5;"/>
   </g>
   <g id="LineCollection_4">
    <path clip-path="url(#p62e7ecfb6b)" d="M 694.02229 384.48 
L 693 383.915733 
L 689.92562 382.227269 
L 687.889569 381.12 
L 686.85124 380.535167 
L 683.77686 378.812315 
L 681.881802 377.76 
L 680.702479 377.081885 
L 677.628099 375.324257 
L 675.998728 374.4 
L 674.553719 373.551384 
L 671.479339 371.758558 
L 670.239855 371.04 
L 668.404959 369.938901 
L 665.330579 368.110407 
L 664.604466 367.68 
L 662.256198 366.239374 
L 659.181818 364.374689 
L 659.09163 364.32 
L 656.107438 362.447409 
L 653.710389 360.96 
L 653.033058 360.525044 
L 649.958678 358.55723 
L 648.452318 357.6 
L 646.884298 356.568931 
L 643.809917 354.562624 
L 643.314434 354.24 
L 640.735537 352.502517 
L 638.304632 350.88 
L 637.661157 350.43556 
L 634.586777 348.318645 
L 633.420449 347.52 
L 631.512397 346.167997 
L 628.655362 344.16 
L 628.438017 344.001907 
L 625.363636 341.76786 
L 624.023137 340.8 
L 622.289256 339.504299 
L 619.50767 337.44 
L 619.214876 337.21506 
L 616.140496 334.856302 
L 615.123777 334.08 
L 613.066116 332.453356 
L 610.860988 330.72 
L 609.991736 330.012364 
L 606.917355 327.519879 
L 606.719995 327.36 
L 603.842975 324.945688 
L 602.711046 324 
L 600.768595 322.318245 
L 598.822757 320.64 
L 597.694215 319.630888 
L 595.05659 317.28 
L 594.619835 316.876219 
L 591.545455 314.039582 
" style="fill:none;stroke:#277f8e;stroke-width:1.5;"/>
    <path clip-path="url(#p62e7ecfb6b)" d="M 591.545455 121.058916 
L 593.701484 119.04 
L 594.619835 118.211292 
L 597.416029 115.68 
L 597.694215 115.437189 
L 600.768595 112.750042 
L 601.259401 112.32 
L 603.842975 110.136492 
L 605.22888 108.96 
L 606.917355 107.576889 
L 609.318639 105.6 
L 609.991736 105.065099 
L 613.066116 102.613835 
L 613.53388 102.24 
L 616.140496 100.22869 
L 617.877478 98.88 
L 619.214876 97.877147 
L 622.289256 95.556593 
L 622.337722 95.52 
L 625.363636 93.313349 
L 626.933403 92.16 
L 628.438017 91.092078 
L 631.512397 88.893809 
L 631.643499 88.8 
L 634.586777 86.765447 
L 636.487634 85.44 
L 637.661157 84.649387 
L 640.735537 82.566246 
L 641.450599 82.08 
L 643.809917 80.529954 
L 646.53776 78.72 
L 646.884298 78.497831 
L 649.958678 76.523585 
L 651.754725 75.36 
L 653.033058 74.559845 
L 656.107438 72.623469 
L 657.092481 72 
L 659.181818 70.722468 
L 662.256198 68.823304 
L 662.552475 68.64 
L 665.330579 66.979758 
L 668.139981 65.28 
L 668.404959 65.125137 
L 671.479339 63.326176 
L 673.854604 61.92 
L 674.553719 61.520262 
L 677.628099 59.756531 
L 679.692702 58.56 
L 680.702479 57.994883 
L 683.77686 56.265945 
L 685.654839 55.2 
L 686.85124 54.544357 
L 689.92562 52.849813 
L 691.741353 51.84 
" style="fill:none;stroke:#277f8e;stroke-width:1.5;"/>
   </g>
   <g id="LineCollection_5">
    <path clip-path="url(#p62e7ecfb6b)" d="M 662.123779 384.48 
L 659.181818 382.856118 
L 656.107438 381.180094 
L 655.997174 381.12 
L 653.033058 379.450358 
L 649.994867 377.76 
L 649.958678 377.739189 
L 646.884298 375.971453 
L 644.119245 374.4 
L 643.809917 374.218309 
L 640.735537 372.41484 
L 638.368409 371.04 
L 637.661157 370.615493 
L 634.586777 368.775669 
L 632.741718 367.68 
L 631.512397 366.925625 
L 628.438017 365.048762 
L 627.238345 364.32 
L 625.363636 363.143233 
L 622.289256 361.228577 
L 621.857274 360.96 
L 619.214876 359.262443 
L 616.60334 357.6 
L 616.140496 357.295519 
L 613.066116 355.276922 
L 611.476348 354.24 
L 609.991736 353.239284 
L 606.917355 351.179817 
L 606.468998 350.88 
L 603.842975 349.065153 
L 601.590239 347.52 
L 600.768595 346.937452 
L 597.694215 344.765134 
L 596.83478 344.16 
L 594.619835 342.547721 
L 592.203164 340.8 
L 591.545455 340.308152 
" style="fill:none;stroke:#1fa187;stroke-width:1.5;"/>
    <path clip-path="url(#p62e7ecfb6b)" d="M 591.545455 94.939883 
L 594.619835 92.689532 
L 595.341026 92.16 
L 597.694215 90.489157 
L 600.056644 88.8 
L 600.768595 88.307625 
L 603.842975 86.175047 
L 604.897862 85.44 
L 606.917355 84.078785 
L 609.859058 82.08 
L 609.991736 81.992781 
L 613.066116 79.970698 
L 614.952488 78.72 
L 616.140496 77.957904 
L 619.214876 75.975807 
L 620.166141 75.36 
L 622.289256 74.030204 
L 625.363636 72.087161 
L 625.501458 72 
L 628.438017 70.203164 
L 630.966885 68.64 
L 631.512397 68.313723 
L 634.586777 66.47075 
L 636.556552 65.28 
L 637.661157 64.633911 
L 640.735537 62.827344 
L 642.269545 61.92 
L 643.809917 61.038503 
L 646.884298 59.267703 
L 648.106549 58.56 
L 649.958678 57.522532 
L 653.033058 55.786913 
L 654.068057 55.2 
L 656.107438 54.081331 
L 659.181818 52.380352 
L 660.154367 51.84 
" style="fill:none;stroke:#1fa187;stroke-width:1.5;"/>
   </g>
   <g id="LineCollection_6">
    <path clip-path="url(#p62e7ecfb6b)" d="M 634.088044 384.48 
L 631.512397 383.058298 
L 628.438017 381.377739 
L 627.96573 381.12 
L 625.363636 379.654213 
L 622.289256 377.93931 
L 621.96745 377.76 
L 619.214876 376.176929 
L 616.140496 374.427037 
L 616.092992 374.4 
L 613.066116 372.621862 
L 610.346098 371.04 
L 609.991736 370.827271 
L 606.917355 368.984127 
L 604.72407 367.68 
L 603.842975 367.139212 
L 600.768595 365.258496 
L 599.225598 364.32 
L 597.694215 363.358523 
L 594.619835 361.439365 
L 593.849763 360.96 
L 591.545455 359.479254 
" style="fill:none;stroke:#4ac16d;stroke-width:1.5;"/>
    <path clip-path="url(#p62e7ecfb6b)" d="M 591.545455 75.871917 
L 592.336666 75.36 
L 594.619835 73.929306 
L 597.672382 72 
L 597.694215 71.986633 
L 600.768595 70.104382 
L 603.139013 68.64 
L 603.842975 68.218733 
L 606.917355 66.374118 
L 608.728356 65.28 
L 609.991736 64.540632 
L 613.066116 62.732837 
L 614.441193 61.92 
L 616.140496 60.946975 
L 619.214876 59.175252 
L 620.278137 58.56 
L 622.289256 57.432763 
L 625.363636 55.696419 
L 626.239631 55.2 
L 628.438017 53.993307 
L 631.512397 52.291699 
L 632.325939 51.84 
" style="fill:none;stroke:#4ac16d;stroke-width:1.5;"/>
   </g>
   <g id="LineCollection_7">
    <path clip-path="url(#p62e7ecfb6b)" d="M 608.776944 384.48 
L 606.917355 383.453539 
L 603.842975 381.767394 
L 602.657836 381.12 
L 600.768595 380.055736 
L 597.694215 378.335097 
L 596.663082 377.76 
L 594.619835 376.584811 
L 591.545455 374.828964 
" style="fill:none;stroke:#a0da39;stroke-width:1.5;"/>
    <path clip-path="url(#p62e7ecfb6b)" d="M 591.545455 60.623231 
L 594.619835 58.848234 
L 595.118184 58.56 
L 597.694215 57.115465 
L 600.768595 55.376042 
L 601.079392 55.2 
L 603.842975 53.682335 
L 606.917355 51.977768 
L 607.165607 51.84 
" style="fill:none;stroke:#a0da39;stroke-width:1.5;"/>
   </g>
   <g id="LineCollection_8"/>
   <g id="patch_8">
    <path d="M 591.545455 384.48 
L 591.545455 51.84 
" style="fill:none;stroke:#000000;stroke-linecap:square;stroke-linejoin:miter;stroke-width:0.8;"/>
   </g>
   <g id="patch_9">
    <path d="M 895.909091 384.48 
L 895.909091 51.84 
" style="fill:none;stroke:#000000;stroke-linecap:square;stroke-linejoin:miter;stroke-width:0.8;"/>
   </g>
   <g id="patch_10">
    <path d="M 591.545455 384.48 
L 895.909091 384.48 
" style="fill:none;stroke:#000000;stroke-linecap:square;stroke-linejoin:miter;stroke-width:0.8;"/>
   </g>
   <g id="patch_11">
    <path d="M 591.545455 51.84 
L 895.909091 51.84 
" style="fill:none;stroke:#000000;stroke-linecap:square;stroke-linejoin:miter;stroke-width:0.8;"/>
   </g>
   <g id="text_42">
    <!-- Zad 2 - funkcja Rosenbrocka 2d -->
    <g transform="translate(648.806335 45.84)scale(0.12 -0.12)">
     <defs>
      <path d="M 37.109375 75.984375 
L 37.109375 68.5 
L 28.515625 68.5 
Q 23.6875 68.5 21.796875 66.546875 
Q 19.921875 64.59375 19.921875 59.515625 
L 19.921875 54.6875 
L 34.71875 54.6875 
L 34.71875 47.703125 
L 19.921875 47.703125 
L 19.921875 0 
L 10.890625 0 
L 10.890625 47.703125 
L 2.296875 47.703125 
L 2.296875 54.6875 
L 10.890625 54.6875 
L 10.890625 58.5 
Q 10.890625 67.625 15.140625 71.796875 
Q 19.390625 75.984375 28.609375 75.984375 
z
" id="DejaVuSans-102"/>
     </defs>
     <use xlink:href="#DejaVuSans-90"/>
     <use x="68.505859" xlink:href="#DejaVuSans-97"/>
     <use x="129.785156" xlink:href="#DejaVuSans-100"/>
     <use x="193.261719" xlink:href="#DejaVuSans-32"/>
     <use x="225.048828" xlink:href="#DejaVuSans-50"/>
     <use x="288.671875" xlink:href="#DejaVuSans-32"/>
     <use x="320.458984" xlink:href="#DejaVuSans-45"/>
     <use x="356.542969" xlink:href="#DejaVuSans-32"/>
     <use x="388.330078" xlink:href="#DejaVuSans-102"/>
     <use x="423.535156" xlink:href="#DejaVuSans-117"/>
     <use x="486.914062" xlink:href="#DejaVuSans-110"/>
     <use x="550.292969" xlink:href="#DejaVuSans-107"/>
     <use x="608.203125" xlink:href="#DejaVuSans-99"/>
     <use x="663.183594" xlink:href="#DejaVuSans-106"/>
     <use x="690.966797" xlink:href="#DejaVuSans-97"/>
     <use x="752.246094" xlink:href="#DejaVuSans-32"/>
     <use x="784.033203" xlink:href="#DejaVuSans-82"/>
     <use x="849.015625" xlink:href="#DejaVuSans-111"/>
     <use x="910.197266" xlink:href="#DejaVuSans-115"/>
     <use x="962.296875" xlink:href="#DejaVuSans-101"/>
     <use x="1023.820312" xlink:href="#DejaVuSans-110"/>
     <use x="1087.199219" xlink:href="#DejaVuSans-98"/>
     <use x="1150.675781" xlink:href="#DejaVuSans-114"/>
     <use x="1189.539062" xlink:href="#DejaVuSans-111"/>
     <use x="1250.720703" xlink:href="#DejaVuSans-99"/>
     <use x="1305.701172" xlink:href="#DejaVuSans-107"/>
     <use x="1361.861328" xlink:href="#DejaVuSans-97"/>
     <use x="1423.140625" xlink:href="#DejaVuSans-32"/>
     <use x="1454.927734" xlink:href="#DejaVuSans-50"/>
     <use x="1518.550781" xlink:href="#DejaVuSans-100"/>
    </g>
   </g>
  </g>
  <g id="axes_3">
   <g id="patch_12">
    <path clip-path="url(#pa27fd227b8)" d="M 914.931818 384.48 
L 914.931818 336.96 
L 914.931818 99.36 
L 914.931818 51.84 
L 931.563818 51.84 
L 931.563818 99.36 
L 931.563818 336.96 
L 931.563818 384.48 
z
" style="fill:#ffffff;stroke:#ffffff;stroke-linejoin:miter;stroke-width:0.01;"/>
   </g>
   <g id="matplotlib.axis_5"/>
   <g id="matplotlib.axis_6">
    <g id="ytick_19">
     <g id="line2d_38">
      <defs>
       <path d="M 0 0 
L 3.5 0 
" id="ma35f756445" style="stroke:#000000;stroke-width:0.8;"/>
      </defs>
      <g>
       <use style="stroke:#000000;stroke-width:0.8;" x="931.563818" xlink:href="#ma35f756445" y="384.48"/>
      </g>
     </g>
     <g id="text_43">
      <!-- 0 -->
      <g transform="translate(938.563818 388.279219)scale(0.1 -0.1)">
       <use xlink:href="#DejaVuSans-48"/>
      </g>
     </g>
    </g>
    <g id="ytick_20">
     <g id="line2d_39">
      <g>
       <use style="stroke:#000000;stroke-width:0.8;" x="931.563818" xlink:href="#ma35f756445" y="336.96"/>
      </g>
     </g>
     <g id="text_44">
      <!-- 60 -->
      <g transform="translate(938.563818 340.759219)scale(0.1 -0.1)">
       <defs>
        <path d="M 33.015625 40.375 
Q 26.375 40.375 22.484375 35.828125 
Q 18.609375 31.296875 18.609375 23.390625 
Q 18.609375 15.53125 22.484375 10.953125 
Q 26.375 6.390625 33.015625 6.390625 
Q 39.65625 6.390625 43.53125 10.953125 
Q 47.40625 15.53125 47.40625 23.390625 
Q 47.40625 31.296875 43.53125 35.828125 
Q 39.65625 40.375 33.015625 40.375 
z
M 52.59375 71.296875 
L 52.59375 62.3125 
Q 48.875 64.0625 45.09375 64.984375 
Q 41.3125 65.921875 37.59375 65.921875 
Q 27.828125 65.921875 22.671875 59.328125 
Q 17.53125 52.734375 16.796875 39.40625 
Q 19.671875 43.65625 24.015625 45.921875 
Q 28.375 48.1875 33.59375 48.1875 
Q 44.578125 48.1875 50.953125 41.515625 
Q 57.328125 34.859375 57.328125 23.390625 
Q 57.328125 12.15625 50.6875 5.359375 
Q 44.046875 -1.421875 33.015625 -1.421875 
Q 20.359375 -1.421875 13.671875 8.265625 
Q 6.984375 17.96875 6.984375 36.375 
Q 6.984375 53.65625 15.1875 63.9375 
Q 23.390625 74.21875 37.203125 74.21875 
Q 40.921875 74.21875 44.703125 73.484375 
Q 48.484375 72.75 52.59375 71.296875 
z
" id="DejaVuSans-54"/>
       </defs>
       <use xlink:href="#DejaVuSans-54"/>
       <use x="63.623047" xlink:href="#DejaVuSans-48"/>
      </g>
     </g>
    </g>
    <g id="ytick_21">
     <g id="line2d_40">
      <g>
       <use style="stroke:#000000;stroke-width:0.8;" x="931.563818" xlink:href="#ma35f756445" y="289.44"/>
      </g>
     </g>
     <g id="text_45">
      <!-- 120 -->
      <g transform="translate(938.563818 293.239219)scale(0.1 -0.1)">
       <use xlink:href="#DejaVuSans-49"/>
       <use x="63.623047" xlink:href="#DejaVuSans-50"/>
       <use x="127.246094" xlink:href="#DejaVuSans-48"/>
      </g>
     </g>
    </g>
    <g id="ytick_22">
     <g id="line2d_41">
      <g>
       <use style="stroke:#000000;stroke-width:0.8;" x="931.563818" xlink:href="#ma35f756445" y="241.92"/>
      </g>
     </g>
     <g id="text_46">
      <!-- 180 -->
      <g transform="translate(938.563818 245.719219)scale(0.1 -0.1)">
       <defs>
        <path d="M 31.78125 34.625 
Q 24.75 34.625 20.71875 30.859375 
Q 16.703125 27.09375 16.703125 20.515625 
Q 16.703125 13.921875 20.71875 10.15625 
Q 24.75 6.390625 31.78125 6.390625 
Q 38.8125 6.390625 42.859375 10.171875 
Q 46.921875 13.96875 46.921875 20.515625 
Q 46.921875 27.09375 42.890625 30.859375 
Q 38.875 34.625 31.78125 34.625 
z
M 21.921875 38.8125 
Q 15.578125 40.375 12.03125 44.71875 
Q 8.5 49.078125 8.5 55.328125 
Q 8.5 64.0625 14.71875 69.140625 
Q 20.953125 74.21875 31.78125 74.21875 
Q 42.671875 74.21875 48.875 69.140625 
Q 55.078125 64.0625 55.078125 55.328125 
Q 55.078125 49.078125 51.53125 44.71875 
Q 48 40.375 41.703125 38.8125 
Q 48.828125 37.15625 52.796875 32.3125 
Q 56.78125 27.484375 56.78125 20.515625 
Q 56.78125 9.90625 50.3125 4.234375 
Q 43.84375 -1.421875 31.78125 -1.421875 
Q 19.734375 -1.421875 13.25 4.234375 
Q 6.78125 9.90625 6.78125 20.515625 
Q 6.78125 27.484375 10.78125 32.3125 
Q 14.796875 37.15625 21.921875 38.8125 
z
M 18.3125 54.390625 
Q 18.3125 48.734375 21.84375 45.5625 
Q 25.390625 42.390625 31.78125 42.390625 
Q 38.140625 42.390625 41.71875 45.5625 
Q 45.3125 48.734375 45.3125 54.390625 
Q 45.3125 60.0625 41.71875 63.234375 
Q 38.140625 66.40625 31.78125 66.40625 
Q 25.390625 66.40625 21.84375 63.234375 
Q 18.3125 60.0625 18.3125 54.390625 
z
" id="DejaVuSans-56"/>
       </defs>
       <use xlink:href="#DejaVuSans-49"/>
       <use x="63.623047" xlink:href="#DejaVuSans-56"/>
       <use x="127.246094" xlink:href="#DejaVuSans-48"/>
      </g>
     </g>
    </g>
    <g id="ytick_23">
     <g id="line2d_42">
      <g>
       <use style="stroke:#000000;stroke-width:0.8;" x="931.563818" xlink:href="#ma35f756445" y="194.4"/>
      </g>
     </g>
     <g id="text_47">
      <!-- 240 -->
      <g transform="translate(938.563818 198.199219)scale(0.1 -0.1)">
       <use xlink:href="#DejaVuSans-50"/>
       <use x="63.623047" xlink:href="#DejaVuSans-52"/>
       <use x="127.246094" xlink:href="#DejaVuSans-48"/>
      </g>
     </g>
    </g>
    <g id="ytick_24">
     <g id="line2d_43">
      <g>
       <use style="stroke:#000000;stroke-width:0.8;" x="931.563818" xlink:href="#ma35f756445" y="146.88"/>
      </g>
     </g>
     <g id="text_48">
      <!-- 300 -->
      <g transform="translate(938.563818 150.679219)scale(0.1 -0.1)">
       <use xlink:href="#DejaVuSans-51"/>
       <use x="63.623047" xlink:href="#DejaVuSans-48"/>
       <use x="127.246094" xlink:href="#DejaVuSans-48"/>
      </g>
     </g>
    </g>
    <g id="ytick_25">
     <g id="line2d_44">
      <g>
       <use style="stroke:#000000;stroke-width:0.8;" x="931.563818" xlink:href="#ma35f756445" y="99.36"/>
      </g>
     </g>
     <g id="text_49">
      <!-- 360 -->
      <g transform="translate(938.563818 103.159219)scale(0.1 -0.1)">
       <use xlink:href="#DejaVuSans-51"/>
       <use x="63.623047" xlink:href="#DejaVuSans-54"/>
       <use x="127.246094" xlink:href="#DejaVuSans-48"/>
      </g>
     </g>
    </g>
    <g id="ytick_26">
     <g id="line2d_45">
      <g>
       <use style="stroke:#000000;stroke-width:0.8;" x="931.563818" xlink:href="#ma35f756445" y="51.84"/>
      </g>
     </g>
     <g id="text_50">
      <!-- 420 -->
      <g transform="translate(938.563818 55.639219)scale(0.1 -0.1)">
       <use xlink:href="#DejaVuSans-52"/>
       <use x="63.623047" xlink:href="#DejaVuSans-50"/>
       <use x="127.246094" xlink:href="#DejaVuSans-48"/>
      </g>
     </g>
    </g>
    <g id="text_51">
     <!-- izolinie - wartość funkcji kosztu -->
     <g transform="translate(969.649756 296.038906)rotate(-90)scale(0.1 -0.1)">
      <defs>
       <path d="M 9.421875 54.6875 
L 18.40625 54.6875 
L 18.40625 0 
L 9.421875 0 
z
M 9.421875 75.984375 
L 18.40625 75.984375 
L 18.40625 64.59375 
L 9.421875 64.59375 
z
" id="DejaVuSans-105"/>
       <path d="M 9.421875 75.984375 
L 18.40625 75.984375 
L 18.40625 0 
L 9.421875 0 
z
" id="DejaVuSans-108"/>
       <path d="M 4.203125 54.6875 
L 13.1875 54.6875 
L 24.421875 12.015625 
L 35.59375 54.6875 
L 46.1875 54.6875 
L 57.421875 12.015625 
L 68.609375 54.6875 
L 77.59375 54.6875 
L 63.28125 0 
L 52.6875 0 
L 40.921875 44.828125 
L 29.109375 0 
L 18.5 0 
z
" id="DejaVuSans-119"/>
       <path d="M 35.03125 79.984375 
L 44.75 79.984375 
L 28.84375 61.625 
L 21.359375 61.625 
z
M 44.28125 53.078125 
L 44.28125 44.578125 
Q 40.484375 46.53125 36.375 47.5 
Q 32.28125 48.484375 27.875 48.484375 
Q 21.1875 48.484375 17.84375 46.4375 
Q 14.5 44.390625 14.5 40.28125 
Q 14.5 37.15625 16.890625 35.375 
Q 19.28125 33.59375 26.515625 31.984375 
L 29.59375 31.296875 
Q 39.15625 29.25 43.1875 25.515625 
Q 47.21875 21.78125 47.21875 15.09375 
Q 47.21875 7.46875 41.1875 3.015625 
Q 35.15625 -1.421875 24.609375 -1.421875 
Q 20.21875 -1.421875 15.453125 -0.5625 
Q 10.6875 0.296875 5.421875 2 
L 5.421875 11.28125 
Q 10.40625 8.6875 15.234375 7.390625 
Q 20.0625 6.109375 24.8125 6.109375 
Q 31.15625 6.109375 34.5625 8.28125 
Q 37.984375 10.453125 37.984375 14.40625 
Q 37.984375 18.0625 35.515625 20.015625 
Q 33.0625 21.96875 24.703125 23.78125 
L 21.578125 24.515625 
Q 13.234375 26.265625 9.515625 29.90625 
Q 5.8125 33.546875 5.8125 39.890625 
Q 5.8125 47.609375 11.28125 51.796875 
Q 16.75 56 26.8125 56 
Q 31.78125 56 36.171875 55.265625 
Q 40.578125 54.546875 44.28125 53.078125 
z
" id="DejaVuSans-347"/>
       <path d="M 48.78125 52.59375 
L 48.78125 44.1875 
Q 44.96875 46.296875 41.140625 47.34375 
Q 37.3125 48.390625 33.40625 48.390625 
Q 24.65625 48.390625 19.8125 42.84375 
Q 14.984375 37.3125 14.984375 27.296875 
Q 14.984375 17.28125 19.8125 11.734375 
Q 24.65625 6.203125 33.40625 6.203125 
Q 37.3125 6.203125 41.140625 7.25 
Q 44.96875 8.296875 48.78125 10.40625 
L 48.78125 2.09375 
Q 45.015625 0.34375 40.984375 -0.53125 
Q 36.96875 -1.421875 32.421875 -1.421875 
Q 20.0625 -1.421875 12.78125 6.34375 
Q 5.515625 14.109375 5.515625 27.296875 
Q 5.515625 40.671875 12.859375 48.328125 
Q 20.21875 56 33.015625 56 
Q 37.15625 56 41.109375 55.140625 
Q 45.0625 54.296875 48.78125 52.59375 
z
M 38.53125 79.984375 
L 48.25 79.984375 
L 32.34375 61.625 
L 24.859375 61.625 
z
" id="DejaVuSans-263"/>
      </defs>
      <use xlink:href="#DejaVuSans-105"/>
      <use x="27.783203" xlink:href="#DejaVuSans-122"/>
      <use x="80.273438" xlink:href="#DejaVuSans-111"/>
      <use x="141.455078" xlink:href="#DejaVuSans-108"/>
      <use x="169.238281" xlink:href="#DejaVuSans-105"/>
      <use x="197.021484" xlink:href="#DejaVuSans-110"/>
      <use x="260.400391" xlink:href="#DejaVuSans-105"/>
      <use x="288.183594" xlink:href="#DejaVuSans-101"/>
      <use x="349.707031" xlink:href="#DejaVuSans-32"/>
      <use x="381.494141" xlink:href="#DejaVuSans-45"/>
      <use x="417.578125" xlink:href="#DejaVuSans-32"/>
      <use x="449.365234" xlink:href="#DejaVuSans-119"/>
      <use x="531.152344" xlink:href="#DejaVuSans-97"/>
      <use x="592.431641" xlink:href="#DejaVuSans-114"/>
      <use x="633.544922" xlink:href="#DejaVuSans-116"/>
      <use x="672.753906" xlink:href="#DejaVuSans-111"/>
      <use x="733.935547" xlink:href="#DejaVuSans-347"/>
      <use x="786.035156" xlink:href="#DejaVuSans-263"/>
      <use x="841.015625" xlink:href="#DejaVuSans-32"/>
      <use x="872.802734" xlink:href="#DejaVuSans-102"/>
      <use x="908.007812" xlink:href="#DejaVuSans-117"/>
      <use x="971.386719" xlink:href="#DejaVuSans-110"/>
      <use x="1034.765625" xlink:href="#DejaVuSans-107"/>
      <use x="1092.675781" xlink:href="#DejaVuSans-99"/>
      <use x="1147.65625" xlink:href="#DejaVuSans-106"/>
      <use x="1175.439453" xlink:href="#DejaVuSans-105"/>
      <use x="1203.222656" xlink:href="#DejaVuSans-32"/>
      <use x="1235.009766" xlink:href="#DejaVuSans-107"/>
      <use x="1289.294922" xlink:href="#DejaVuSans-111"/>
      <use x="1350.476562" xlink:href="#DejaVuSans-115"/>
      <use x="1402.576172" xlink:href="#DejaVuSans-122"/>
      <use x="1455.066406" xlink:href="#DejaVuSans-116"/>
      <use x="1494.275391" xlink:href="#DejaVuSans-117"/>
     </g>
    </g>
   </g>
   <g id="LineCollection_9">
    <path clip-path="url(#pa27fd227b8)" d="M 914.931818 384.48 
L 931.563818 384.48 
" style="fill:none;stroke:#440154;stroke-width:1.5;"/>
    <path clip-path="url(#pa27fd227b8)" d="M 914.931818 336.96 
L 931.563818 336.96 
" style="fill:none;stroke:#46327e;stroke-width:1.5;"/>
    <path clip-path="url(#pa27fd227b8)" d="M 914.931818 289.44 
L 931.563818 289.44 
" style="fill:none;stroke:#365c8d;stroke-width:1.5;"/>
    <path clip-path="url(#pa27fd227b8)" d="M 914.931818 241.92 
L 931.563818 241.92 
" style="fill:none;stroke:#277f8e;stroke-width:1.5;"/>
    <path clip-path="url(#pa27fd227b8)" d="M 914.931818 194.4 
L 931.563818 194.4 
" style="fill:none;stroke:#1fa187;stroke-width:1.5;"/>
    <path clip-path="url(#pa27fd227b8)" d="M 914.931818 146.88 
L 931.563818 146.88 
" style="fill:none;stroke:#4ac16d;stroke-width:1.5;"/>
    <path clip-path="url(#pa27fd227b8)" d="M 914.931818 99.36 
L 931.563818 99.36 
" style="fill:none;stroke:#a0da39;stroke-width:1.5;"/>
    <path clip-path="url(#pa27fd227b8)" d="M 914.931818 51.84 
L 931.563818 51.84 
" style="fill:none;stroke:#fde725;stroke-width:1.5;"/>
   </g>
   <g id="patch_13">
    <path d="M 914.931818 384.48 
L 914.931818 336.96 
L 914.931818 99.36 
L 914.931818 51.84 
L 931.563818 51.84 
L 931.563818 99.36 
L 931.563818 336.96 
L 931.563818 384.48 
z
" style="fill:none;stroke:#000000;stroke-linejoin:miter;stroke-width:0.8;"/>
   </g>
  </g>
 </g>
 <defs>
  <clipPath id="p898f400121">
   <rect height="332.64" width="380.454545" x="135" y="51.84"/>
  </clipPath>
  <clipPath id="p62e7ecfb6b">
   <rect height="332.64" width="304.363636" x="591.545455" y="51.84"/>
  </clipPath>
  <clipPath id="pa27fd227b8">
   <rect height="332.64" width="16.632" x="914.931818" y="51.84"/>
  </clipPath>
 </defs>
</svg>
