<?xml version="1.0" encoding="utf-8" standalone="no"?>
<!DOCTYPE svg PUBLIC "-//W3C//DTD SVG 1.1//EN"
  "http://www.w3.org/Graphics/SVG/1.1/DTD/svg11.dtd">
<!-- Created with matplotlib (https://matplotlib.org/) -->
<svg height="432pt" version="1.1" viewBox="0 0 1080 432" width="1080pt" xmlns="http://www.w3.org/2000/svg" xmlns:xlink="http://www.w3.org/1999/xlink">
 <metadata>
  <rdf:RDF xmlns:cc="http://creativecommons.org/ns#" xmlns:dc="http://purl.org/dc/elements/1.1/" xmlns:rdf="http://www.w3.org/1999/02/22-rdf-syntax-ns#">
   <cc:Work>
    <dc:type rdf:resource="http://purl.org/dc/dcmitype/StillImage"/>
    <dc:date>2020-12-16T00:13:07.258775</dc:date>
    <dc:format>image/svg+xml</dc:format>
    <dc:creator>
     <cc:Agent>
      <dc:title>Matplotlib v3.3.3, https://matplotlib.org/</dc:title>
     </cc:Agent>
    </dc:creator>
   </cc:Work>
  </rdf:RDF>
 </metadata>
 <defs>
  <style type="text/css">*{stroke-linecap:butt;stroke-linejoin:round;}</style>
 </defs>
 <g id="figure_1">
  <g id="patch_1">
   <path d="M 0 432 
L 1080 432 
L 1080 0 
L 0 0 
z
" style="fill:#ffffff;"/>
  </g>
  <g id="axes_1">
   <g id="patch_2">
    <path d="M 135 384.48 
L 515.454545 384.48 
L 515.454545 51.84 
L 135 51.84 
z
" style="fill:#ffffff;"/>
   </g>
   <g id="matplotlib.axis_1">
    <g id="xtick_1">
     <g id="line2d_1">
      <defs>
       <path d="M 0 0 
L 0 3.5 
" id="m58f2678095" style="stroke:#000000;stroke-width:0.8;"/>
      </defs>
      <g>
       <use style="stroke:#000000;stroke-width:0.8;" x="152.293388" xlink:href="#m58f2678095" y="384.48"/>
      </g>
     </g>
     <g id="text_1">
      <!-- −40 -->
      <g transform="translate(141.741045 399.078438)scale(0.1 -0.1)">
       <defs>
        <path d="M 10.59375 35.5 
L 73.1875 35.5 
L 73.1875 27.203125 
L 10.59375 27.203125 
z
" id="DejaVuSans-8722"/>
        <path d="M 37.796875 64.3125 
L 12.890625 25.390625 
L 37.796875 25.390625 
z
M 35.203125 72.90625 
L 47.609375 72.90625 
L 47.609375 25.390625 
L 58.015625 25.390625 
L 58.015625 17.1875 
L 47.609375 17.1875 
L 47.609375 0 
L 37.796875 0 
L 37.796875 17.1875 
L 4.890625 17.1875 
L 4.890625 26.703125 
z
" id="DejaVuSans-52"/>
        <path d="M 31.78125 66.40625 
Q 24.171875 66.40625 20.328125 58.90625 
Q 16.5 51.421875 16.5 36.375 
Q 16.5 21.390625 20.328125 13.890625 
Q 24.171875 6.390625 31.78125 6.390625 
Q 39.453125 6.390625 43.28125 13.890625 
Q 47.125 21.390625 47.125 36.375 
Q 47.125 51.421875 43.28125 58.90625 
Q 39.453125 66.40625 31.78125 66.40625 
z
M 31.78125 74.21875 
Q 44.046875 74.21875 50.515625 64.515625 
Q 56.984375 54.828125 56.984375 36.375 
Q 56.984375 17.96875 50.515625 8.265625 
Q 44.046875 -1.421875 31.78125 -1.421875 
Q 19.53125 -1.421875 13.0625 8.265625 
Q 6.59375 17.96875 6.59375 36.375 
Q 6.59375 54.828125 13.0625 64.515625 
Q 19.53125 74.21875 31.78125 74.21875 
z
" id="DejaVuSans-48"/>
       </defs>
       <use xlink:href="#DejaVuSans-8722"/>
       <use x="83.789062" xlink:href="#DejaVuSans-52"/>
       <use x="147.412109" xlink:href="#DejaVuSans-48"/>
      </g>
     </g>
    </g>
    <g id="xtick_2">
     <g id="line2d_2">
      <g>
       <use style="stroke:#000000;stroke-width:0.8;" x="195.52686" xlink:href="#m58f2678095" y="384.48"/>
      </g>
     </g>
     <g id="text_2">
      <!-- −30 -->
      <g transform="translate(184.974516 399.078438)scale(0.1 -0.1)">
       <defs>
        <path d="M 40.578125 39.3125 
Q 47.65625 37.796875 51.625 33 
Q 55.609375 28.21875 55.609375 21.1875 
Q 55.609375 10.40625 48.1875 4.484375 
Q 40.765625 -1.421875 27.09375 -1.421875 
Q 22.515625 -1.421875 17.65625 -0.515625 
Q 12.796875 0.390625 7.625 2.203125 
L 7.625 11.71875 
Q 11.71875 9.328125 16.59375 8.109375 
Q 21.484375 6.890625 26.8125 6.890625 
Q 36.078125 6.890625 40.9375 10.546875 
Q 45.796875 14.203125 45.796875 21.1875 
Q 45.796875 27.640625 41.28125 31.265625 
Q 36.765625 34.90625 28.71875 34.90625 
L 20.21875 34.90625 
L 20.21875 43.015625 
L 29.109375 43.015625 
Q 36.375 43.015625 40.234375 45.921875 
Q 44.09375 48.828125 44.09375 54.296875 
Q 44.09375 59.90625 40.109375 62.90625 
Q 36.140625 65.921875 28.71875 65.921875 
Q 24.65625 65.921875 20.015625 65.03125 
Q 15.375 64.15625 9.8125 62.3125 
L 9.8125 71.09375 
Q 15.4375 72.65625 20.34375 73.4375 
Q 25.25 74.21875 29.59375 74.21875 
Q 40.828125 74.21875 47.359375 69.109375 
Q 53.90625 64.015625 53.90625 55.328125 
Q 53.90625 49.265625 50.4375 45.09375 
Q 46.96875 40.921875 40.578125 39.3125 
z
" id="DejaVuSans-51"/>
       </defs>
       <use xlink:href="#DejaVuSans-8722"/>
       <use x="83.789062" xlink:href="#DejaVuSans-51"/>
       <use x="147.412109" xlink:href="#DejaVuSans-48"/>
      </g>
     </g>
    </g>
    <g id="xtick_3">
     <g id="line2d_3">
      <g>
       <use style="stroke:#000000;stroke-width:0.8;" x="238.760331" xlink:href="#m58f2678095" y="384.48"/>
      </g>
     </g>
     <g id="text_3">
      <!-- −20 -->
      <g transform="translate(228.207987 399.078438)scale(0.1 -0.1)">
       <defs>
        <path d="M 19.1875 8.296875 
L 53.609375 8.296875 
L 53.609375 0 
L 7.328125 0 
L 7.328125 8.296875 
Q 12.9375 14.109375 22.625 23.890625 
Q 32.328125 33.6875 34.8125 36.53125 
Q 39.546875 41.84375 41.421875 45.53125 
Q 43.3125 49.21875 43.3125 52.78125 
Q 43.3125 58.59375 39.234375 62.25 
Q 35.15625 65.921875 28.609375 65.921875 
Q 23.96875 65.921875 18.8125 64.3125 
Q 13.671875 62.703125 7.8125 59.421875 
L 7.8125 69.390625 
Q 13.765625 71.78125 18.9375 73 
Q 24.125 74.21875 28.421875 74.21875 
Q 39.75 74.21875 46.484375 68.546875 
Q 53.21875 62.890625 53.21875 53.421875 
Q 53.21875 48.921875 51.53125 44.890625 
Q 49.859375 40.875 45.40625 35.40625 
Q 44.1875 33.984375 37.640625 27.21875 
Q 31.109375 20.453125 19.1875 8.296875 
z
" id="DejaVuSans-50"/>
       </defs>
       <use xlink:href="#DejaVuSans-8722"/>
       <use x="83.789062" xlink:href="#DejaVuSans-50"/>
       <use x="147.412109" xlink:href="#DejaVuSans-48"/>
      </g>
     </g>
    </g>
    <g id="xtick_4">
     <g id="line2d_4">
      <g>
       <use style="stroke:#000000;stroke-width:0.8;" x="281.993802" xlink:href="#m58f2678095" y="384.48"/>
      </g>
     </g>
     <g id="text_4">
      <!-- −10 -->
      <g transform="translate(271.441458 399.078438)scale(0.1 -0.1)">
       <defs>
        <path d="M 12.40625 8.296875 
L 28.515625 8.296875 
L 28.515625 63.921875 
L 10.984375 60.40625 
L 10.984375 69.390625 
L 28.421875 72.90625 
L 38.28125 72.90625 
L 38.28125 8.296875 
L 54.390625 8.296875 
L 54.390625 0 
L 12.40625 0 
z
" id="DejaVuSans-49"/>
       </defs>
       <use xlink:href="#DejaVuSans-8722"/>
       <use x="83.789062" xlink:href="#DejaVuSans-49"/>
       <use x="147.412109" xlink:href="#DejaVuSans-48"/>
      </g>
     </g>
    </g>
    <g id="xtick_5">
     <g id="line2d_5">
      <g>
       <use style="stroke:#000000;stroke-width:0.8;" x="325.227273" xlink:href="#m58f2678095" y="384.48"/>
      </g>
     </g>
     <g id="text_5">
      <!-- 0 -->
      <g transform="translate(322.046023 399.078438)scale(0.1 -0.1)">
       <use xlink:href="#DejaVuSans-48"/>
      </g>
     </g>
    </g>
    <g id="xtick_6">
     <g id="line2d_6">
      <g>
       <use style="stroke:#000000;stroke-width:0.8;" x="368.460744" xlink:href="#m58f2678095" y="384.48"/>
      </g>
     </g>
     <g id="text_6">
      <!-- 10 -->
      <g transform="translate(362.098244 399.078438)scale(0.1 -0.1)">
       <use xlink:href="#DejaVuSans-49"/>
       <use x="63.623047" xlink:href="#DejaVuSans-48"/>
      </g>
     </g>
    </g>
    <g id="xtick_7">
     <g id="line2d_7">
      <g>
       <use style="stroke:#000000;stroke-width:0.8;" x="411.694215" xlink:href="#m58f2678095" y="384.48"/>
      </g>
     </g>
     <g id="text_7">
      <!-- 20 -->
      <g transform="translate(405.331715 399.078438)scale(0.1 -0.1)">
       <use xlink:href="#DejaVuSans-50"/>
       <use x="63.623047" xlink:href="#DejaVuSans-48"/>
      </g>
     </g>
    </g>
    <g id="xtick_8">
     <g id="line2d_8">
      <g>
       <use style="stroke:#000000;stroke-width:0.8;" x="454.927686" xlink:href="#m58f2678095" y="384.48"/>
      </g>
     </g>
     <g id="text_8">
      <!-- 30 -->
      <g transform="translate(448.565186 399.078438)scale(0.1 -0.1)">
       <use xlink:href="#DejaVuSans-51"/>
       <use x="63.623047" xlink:href="#DejaVuSans-48"/>
      </g>
     </g>
    </g>
    <g id="xtick_9">
     <g id="line2d_9">
      <g>
       <use style="stroke:#000000;stroke-width:0.8;" x="498.161157" xlink:href="#m58f2678095" y="384.48"/>
      </g>
     </g>
     <g id="text_9">
      <!-- 40 -->
      <g transform="translate(491.798657 399.078438)scale(0.1 -0.1)">
       <use xlink:href="#DejaVuSans-52"/>
       <use x="63.623047" xlink:href="#DejaVuSans-48"/>
      </g>
     </g>
    </g>
    <g id="text_10">
     <!-- x2 -->
     <g transform="translate(319.086648 412.756563)scale(0.1 -0.1)">
      <defs>
       <path d="M 54.890625 54.6875 
L 35.109375 28.078125 
L 55.90625 0 
L 45.3125 0 
L 29.390625 21.484375 
L 13.484375 0 
L 2.875 0 
L 24.125 28.609375 
L 4.6875 54.6875 
L 15.28125 54.6875 
L 29.78125 35.203125 
L 44.28125 54.6875 
z
" id="DejaVuSans-120"/>
      </defs>
      <use xlink:href="#DejaVuSans-120"/>
      <use x="59.179688" xlink:href="#DejaVuSans-50"/>
     </g>
    </g>
   </g>
   <g id="matplotlib.axis_2">
    <g id="ytick_1">
     <g id="line2d_10">
      <defs>
       <path d="M 0 0 
L -3.5 0 
" id="mdb1f4f72eb" style="stroke:#000000;stroke-width:0.8;"/>
      </defs>
      <g>
       <use style="stroke:#000000;stroke-width:0.8;" x="135" xlink:href="#mdb1f4f72eb" y="369.975246"/>
      </g>
     </g>
     <g id="text_11">
      <!-- 0 -->
      <g transform="translate(121.6375 373.774465)scale(0.1 -0.1)">
       <use xlink:href="#DejaVuSans-48"/>
      </g>
     </g>
    </g>
    <g id="ytick_2">
     <g id="line2d_11">
      <g>
       <use style="stroke:#000000;stroke-width:0.8;" x="135" xlink:href="#mdb1f4f72eb" y="297.252061"/>
      </g>
     </g>
     <g id="text_12">
      <!-- 10 -->
      <g transform="translate(115.275 301.05128)scale(0.1 -0.1)">
       <use xlink:href="#DejaVuSans-49"/>
       <use x="63.623047" xlink:href="#DejaVuSans-48"/>
      </g>
     </g>
    </g>
    <g id="ytick_3">
     <g id="line2d_12">
      <g>
       <use style="stroke:#000000;stroke-width:0.8;" x="135" xlink:href="#mdb1f4f72eb" y="224.528876"/>
      </g>
     </g>
     <g id="text_13">
      <!-- 20 -->
      <g transform="translate(115.275 228.328094)scale(0.1 -0.1)">
       <use xlink:href="#DejaVuSans-50"/>
       <use x="63.623047" xlink:href="#DejaVuSans-48"/>
      </g>
     </g>
    </g>
    <g id="ytick_4">
     <g id="line2d_13">
      <g>
       <use style="stroke:#000000;stroke-width:0.8;" x="135" xlink:href="#mdb1f4f72eb" y="151.80569"/>
      </g>
     </g>
     <g id="text_14">
      <!-- 30 -->
      <g transform="translate(115.275 155.604909)scale(0.1 -0.1)">
       <use xlink:href="#DejaVuSans-51"/>
       <use x="63.623047" xlink:href="#DejaVuSans-48"/>
      </g>
     </g>
    </g>
    <g id="ytick_5">
     <g id="line2d_14">
      <g>
       <use style="stroke:#000000;stroke-width:0.8;" x="135" xlink:href="#mdb1f4f72eb" y="79.082505"/>
      </g>
     </g>
     <g id="text_15">
      <!-- 40 -->
      <g transform="translate(115.275 82.881723)scale(0.1 -0.1)">
       <use xlink:href="#DejaVuSans-52"/>
       <use x="63.623047" xlink:href="#DejaVuSans-48"/>
      </g>
     </g>
    </g>
    <g id="text_16">
     <!-- z -->
     <g transform="translate(109.195312 220.784219)rotate(-90)scale(0.1 -0.1)">
      <defs>
       <path d="M 5.515625 54.6875 
L 48.1875 54.6875 
L 48.1875 46.484375 
L 14.40625 7.171875 
L 48.1875 7.171875 
L 48.1875 0 
L 4.296875 0 
L 4.296875 8.203125 
L 38.09375 47.515625 
L 5.515625 47.515625 
z
" id="DejaVuSans-122"/>
      </defs>
      <use xlink:href="#DejaVuSans-122"/>
     </g>
    </g>
   </g>
   <g id="line2d_15">
    <path clip-path="url(#p71dfd3dc2b)" d="M 152.293388 66.96 
L 155.787002 84.011294 
L 159.280616 100.474872 
L 162.77423 113.218496 
L 166.267844 121.262909 
L 169.761458 126.387237 
L 173.255071 132.029083 
L 176.748685 141.159319 
L 180.242299 154.445412 
L 183.735913 169.838783 
L 187.229527 183.841286 
L 190.72314 193.667857 
L 194.216754 198.968307 
L 197.710368 202.043821 
L 201.203982 206.424305 
L 204.697596 214.686108 
L 208.19121 226.859257 
L 211.684823 240.408894 
L 215.178437 251.802392 
L 218.672051 258.693309 
L 222.165665 261.372026 
L 225.659279 262.586222 
L 229.152893 265.842189 
L 232.646506 273.237154 
L 236.14012 284.162716 
L 239.633734 295.680981 
L 243.127348 304.340837 
L 246.620962 308.311524 
L 250.114576 308.514456 
L 253.608189 308.053575 
L 257.101803 310.296423 
L 260.595417 316.792233 
L 264.089031 326.314158 
L 267.582645 335.617739 
L 271.076258 341.446712 
L 274.569872 342.546111 
L 278.063486 340.438127 
L 281.5571 338.481042 
L 285.050714 339.79306 
L 288.544328 345.32455 
L 292.037941 353.270504 
L 295.531555 360.186441 
L 299.025169 363.11787 
L 302.518783 361.426835 
L 306.012397 357.186314 
L 309.506011 353.898652 
L 312.999624 354.33032 
L 316.493238 358.801615 
L 319.986852 364.98864 
L 323.480466 369.36 
L 326.97408 369.36 
L 330.467693 364.98864 
L 333.961307 358.801615 
L 337.454921 354.33032 
L 340.948535 353.898652 
L 344.442149 357.186314 
L 347.935763 361.426835 
L 351.429376 363.11787 
L 354.92299 360.186441 
L 358.416604 353.270504 
L 361.910218 345.32455 
L 365.403832 339.79306 
L 368.897446 338.481042 
L 372.391059 340.438127 
L 375.884673 342.546111 
L 379.378287 341.446712 
L 382.871901 335.617739 
L 386.365515 326.314158 
L 389.859128 316.792233 
L 393.352742 310.296423 
L 396.846356 308.053575 
L 400.33997 308.514456 
L 403.833584 308.311524 
L 407.327198 304.340837 
L 410.820811 295.680981 
L 414.314425 284.162716 
L 417.808039 273.237154 
L 421.301653 265.842189 
L 424.795267 262.586222 
L 428.288881 261.372026 
L 431.782494 258.693309 
L 435.276108 251.802392 
L 438.769722 240.408894 
L 442.263336 226.859257 
L 445.75695 214.686108 
L 449.250563 206.424305 
L 452.744177 202.043821 
L 456.237791 198.968307 
L 459.731405 193.667857 
L 463.225019 183.841286 
L 466.718633 169.838783 
L 470.212246 154.445412 
L 473.70586 141.159319 
L 477.199474 132.029083 
L 480.693088 126.387237 
L 484.186702 121.262909 
L 487.680316 113.218496 
L 491.173929 100.474872 
L 494.667543 84.011294 
L 498.161157 66.96 
" style="fill:none;stroke:#1f77b4;stroke-linecap:square;stroke-width:1.5;"/>
   </g>
   <g id="patch_3">
    <path d="M 135 384.48 
L 135 51.84 
" style="fill:none;stroke:#000000;stroke-linecap:square;stroke-linejoin:miter;stroke-width:0.8;"/>
   </g>
   <g id="patch_4">
    <path d="M 515.454545 384.48 
L 515.454545 51.84 
" style="fill:none;stroke:#000000;stroke-linecap:square;stroke-linejoin:miter;stroke-width:0.8;"/>
   </g>
   <g id="patch_5">
    <path d="M 135 384.48 
L 515.454545 384.48 
" style="fill:none;stroke:#000000;stroke-linecap:square;stroke-linejoin:miter;stroke-width:0.8;"/>
   </g>
   <g id="patch_6">
    <path d="M 135 51.84 
L 515.454545 51.84 
" style="fill:none;stroke:#000000;stroke-linecap:square;stroke-linejoin:miter;stroke-width:0.8;"/>
   </g>
   <g id="text_17">
    <!-- Zad 1 - przekrój x1=0 -->
    <g transform="translate(259.54696 45.84)scale(0.12 -0.12)">
     <defs>
      <path d="M 5.609375 72.90625 
L 62.890625 72.90625 
L 62.890625 65.375 
L 16.796875 8.296875 
L 64.015625 8.296875 
L 64.015625 0 
L 4.5 0 
L 4.5 7.515625 
L 50.59375 64.59375 
L 5.609375 64.59375 
z
" id="DejaVuSans-90"/>
      <path d="M 34.28125 27.484375 
Q 23.390625 27.484375 19.1875 25 
Q 14.984375 22.515625 14.984375 16.5 
Q 14.984375 11.71875 18.140625 8.90625 
Q 21.296875 6.109375 26.703125 6.109375 
Q 34.1875 6.109375 38.703125 11.40625 
Q 43.21875 16.703125 43.21875 25.484375 
L 43.21875 27.484375 
z
M 52.203125 31.203125 
L 52.203125 0 
L 43.21875 0 
L 43.21875 8.296875 
Q 40.140625 3.328125 35.546875 0.953125 
Q 30.953125 -1.421875 24.3125 -1.421875 
Q 15.921875 -1.421875 10.953125 3.296875 
Q 6 8.015625 6 15.921875 
Q 6 25.140625 12.171875 29.828125 
Q 18.359375 34.515625 30.609375 34.515625 
L 43.21875 34.515625 
L 43.21875 35.40625 
Q 43.21875 41.609375 39.140625 45 
Q 35.0625 48.390625 27.6875 48.390625 
Q 23 48.390625 18.546875 47.265625 
Q 14.109375 46.140625 10.015625 43.890625 
L 10.015625 52.203125 
Q 14.9375 54.109375 19.578125 55.046875 
Q 24.21875 56 28.609375 56 
Q 40.484375 56 46.34375 49.84375 
Q 52.203125 43.703125 52.203125 31.203125 
z
" id="DejaVuSans-97"/>
      <path d="M 45.40625 46.390625 
L 45.40625 75.984375 
L 54.390625 75.984375 
L 54.390625 0 
L 45.40625 0 
L 45.40625 8.203125 
Q 42.578125 3.328125 38.25 0.953125 
Q 33.9375 -1.421875 27.875 -1.421875 
Q 17.96875 -1.421875 11.734375 6.484375 
Q 5.515625 14.40625 5.515625 27.296875 
Q 5.515625 40.1875 11.734375 48.09375 
Q 17.96875 56 27.875 56 
Q 33.9375 56 38.25 53.625 
Q 42.578125 51.265625 45.40625 46.390625 
z
M 14.796875 27.296875 
Q 14.796875 17.390625 18.875 11.75 
Q 22.953125 6.109375 30.078125 6.109375 
Q 37.203125 6.109375 41.296875 11.75 
Q 45.40625 17.390625 45.40625 27.296875 
Q 45.40625 37.203125 41.296875 42.84375 
Q 37.203125 48.484375 30.078125 48.484375 
Q 22.953125 48.484375 18.875 42.84375 
Q 14.796875 37.203125 14.796875 27.296875 
z
" id="DejaVuSans-100"/>
      <path id="DejaVuSans-32"/>
      <path d="M 4.890625 31.390625 
L 31.203125 31.390625 
L 31.203125 23.390625 
L 4.890625 23.390625 
z
" id="DejaVuSans-45"/>
      <path d="M 18.109375 8.203125 
L 18.109375 -20.796875 
L 9.078125 -20.796875 
L 9.078125 54.6875 
L 18.109375 54.6875 
L 18.109375 46.390625 
Q 20.953125 51.265625 25.265625 53.625 
Q 29.59375 56 35.59375 56 
Q 45.5625 56 51.78125 48.09375 
Q 58.015625 40.1875 58.015625 27.296875 
Q 58.015625 14.40625 51.78125 6.484375 
Q 45.5625 -1.421875 35.59375 -1.421875 
Q 29.59375 -1.421875 25.265625 0.953125 
Q 20.953125 3.328125 18.109375 8.203125 
z
M 48.6875 27.296875 
Q 48.6875 37.203125 44.609375 42.84375 
Q 40.53125 48.484375 33.40625 48.484375 
Q 26.265625 48.484375 22.1875 42.84375 
Q 18.109375 37.203125 18.109375 27.296875 
Q 18.109375 17.390625 22.1875 11.75 
Q 26.265625 6.109375 33.40625 6.109375 
Q 40.53125 6.109375 44.609375 11.75 
Q 48.6875 17.390625 48.6875 27.296875 
z
" id="DejaVuSans-112"/>
      <path d="M 41.109375 46.296875 
Q 39.59375 47.171875 37.8125 47.578125 
Q 36.03125 48 33.890625 48 
Q 26.265625 48 22.1875 43.046875 
Q 18.109375 38.09375 18.109375 28.8125 
L 18.109375 0 
L 9.078125 0 
L 9.078125 54.6875 
L 18.109375 54.6875 
L 18.109375 46.1875 
Q 20.953125 51.171875 25.484375 53.578125 
Q 30.03125 56 36.53125 56 
Q 37.453125 56 38.578125 55.875 
Q 39.703125 55.765625 41.0625 55.515625 
z
" id="DejaVuSans-114"/>
      <path d="M 56.203125 29.59375 
L 56.203125 25.203125 
L 14.890625 25.203125 
Q 15.484375 15.921875 20.484375 11.0625 
Q 25.484375 6.203125 34.421875 6.203125 
Q 39.59375 6.203125 44.453125 7.46875 
Q 49.3125 8.734375 54.109375 11.28125 
L 54.109375 2.78125 
Q 49.265625 0.734375 44.1875 -0.34375 
Q 39.109375 -1.421875 33.890625 -1.421875 
Q 20.796875 -1.421875 13.15625 6.1875 
Q 5.515625 13.8125 5.515625 26.8125 
Q 5.515625 40.234375 12.765625 48.109375 
Q 20.015625 56 32.328125 56 
Q 43.359375 56 49.78125 48.890625 
Q 56.203125 41.796875 56.203125 29.59375 
z
M 47.21875 32.234375 
Q 47.125 39.59375 43.09375 43.984375 
Q 39.0625 48.390625 32.421875 48.390625 
Q 24.90625 48.390625 20.390625 44.140625 
Q 15.875 39.890625 15.1875 32.171875 
z
" id="DejaVuSans-101"/>
      <path d="M 9.078125 75.984375 
L 18.109375 75.984375 
L 18.109375 31.109375 
L 44.921875 54.6875 
L 56.390625 54.6875 
L 27.390625 29.109375 
L 57.625 0 
L 45.90625 0 
L 18.109375 26.703125 
L 18.109375 0 
L 9.078125 0 
z
" id="DejaVuSans-107"/>
      <path d="M 30.609375 48.390625 
Q 23.390625 48.390625 19.1875 42.75 
Q 14.984375 37.109375 14.984375 27.296875 
Q 14.984375 17.484375 19.15625 11.84375 
Q 23.34375 6.203125 30.609375 6.203125 
Q 37.796875 6.203125 41.984375 11.859375 
Q 46.1875 17.53125 46.1875 27.296875 
Q 46.1875 37.015625 41.984375 42.703125 
Q 37.796875 48.390625 30.609375 48.390625 
z
M 30.609375 56 
Q 42.328125 56 49.015625 48.375 
Q 55.71875 40.765625 55.71875 27.296875 
Q 55.71875 13.875 49.015625 6.21875 
Q 42.328125 -1.421875 30.609375 -1.421875 
Q 18.84375 -1.421875 12.171875 6.21875 
Q 5.515625 13.875 5.515625 27.296875 
Q 5.515625 40.765625 12.171875 48.375 
Q 18.84375 56 30.609375 56 
z
M 37.40625 79.984375 
L 47.125 79.984375 
L 31.21875 61.625 
L 23.734375 61.625 
z
" id="DejaVuSans-243"/>
      <path d="M 9.421875 54.6875 
L 18.40625 54.6875 
L 18.40625 -0.984375 
Q 18.40625 -11.421875 14.421875 -16.109375 
Q 10.453125 -20.796875 1.609375 -20.796875 
L -1.8125 -20.796875 
L -1.8125 -13.1875 
L 0.59375 -13.1875 
Q 5.71875 -13.1875 7.5625 -10.8125 
Q 9.421875 -8.453125 9.421875 -0.984375 
z
M 9.421875 75.984375 
L 18.40625 75.984375 
L 18.40625 64.59375 
L 9.421875 64.59375 
z
" id="DejaVuSans-106"/>
      <path d="M 10.59375 45.40625 
L 73.1875 45.40625 
L 73.1875 37.203125 
L 10.59375 37.203125 
z
M 10.59375 25.484375 
L 73.1875 25.484375 
L 73.1875 17.1875 
L 10.59375 17.1875 
z
" id="DejaVuSans-61"/>
     </defs>
     <use xlink:href="#DejaVuSans-90"/>
     <use x="68.505859" xlink:href="#DejaVuSans-97"/>
     <use x="129.785156" xlink:href="#DejaVuSans-100"/>
     <use x="193.261719" xlink:href="#DejaVuSans-32"/>
     <use x="225.048828" xlink:href="#DejaVuSans-49"/>
     <use x="288.671875" xlink:href="#DejaVuSans-32"/>
     <use x="320.458984" xlink:href="#DejaVuSans-45"/>
     <use x="356.542969" xlink:href="#DejaVuSans-32"/>
     <use x="388.330078" xlink:href="#DejaVuSans-112"/>
     <use x="451.806641" xlink:href="#DejaVuSans-114"/>
     <use x="492.919922" xlink:href="#DejaVuSans-122"/>
     <use x="545.410156" xlink:href="#DejaVuSans-101"/>
     <use x="606.933594" xlink:href="#DejaVuSans-107"/>
     <use x="664.84375" xlink:href="#DejaVuSans-114"/>
     <use x="703.707031" xlink:href="#DejaVuSans-243"/>
     <use x="764.888672" xlink:href="#DejaVuSans-106"/>
     <use x="792.671875" xlink:href="#DejaVuSans-32"/>
     <use x="824.458984" xlink:href="#DejaVuSans-120"/>
     <use x="883.638672" xlink:href="#DejaVuSans-49"/>
     <use x="947.261719" xlink:href="#DejaVuSans-61"/>
     <use x="1031.050781" xlink:href="#DejaVuSans-48"/>
    </g>
   </g>
  </g>
  <g id="axes_2">
   <g id="patch_7">
    <path d="M 591.545455 384.48 
L 895.909091 384.48 
L 895.909091 51.84 
L 591.545455 51.84 
z
" style="fill:#ffffff;"/>
   </g>
   <g id="matplotlib.axis_3">
    <g id="xtick_10">
     <g id="line2d_16">
      <g>
       <use style="stroke:#000000;stroke-width:0.8;" x="591.545455" xlink:href="#m58f2678095" y="384.48"/>
      </g>
     </g>
     <g id="text_18">
      <!-- −40 -->
      <g transform="translate(580.993111 399.078438)scale(0.1 -0.1)">
       <use xlink:href="#DejaVuSans-8722"/>
       <use x="83.789062" xlink:href="#DejaVuSans-52"/>
       <use x="147.412109" xlink:href="#DejaVuSans-48"/>
      </g>
     </g>
    </g>
    <g id="xtick_11">
     <g id="line2d_17">
      <g>
       <use style="stroke:#000000;stroke-width:0.8;" x="629.590909" xlink:href="#m58f2678095" y="384.48"/>
      </g>
     </g>
     <g id="text_19">
      <!-- −30 -->
      <g transform="translate(619.038565 399.078438)scale(0.1 -0.1)">
       <use xlink:href="#DejaVuSans-8722"/>
       <use x="83.789062" xlink:href="#DejaVuSans-51"/>
       <use x="147.412109" xlink:href="#DejaVuSans-48"/>
      </g>
     </g>
    </g>
    <g id="xtick_12">
     <g id="line2d_18">
      <g>
       <use style="stroke:#000000;stroke-width:0.8;" x="667.636364" xlink:href="#m58f2678095" y="384.48"/>
      </g>
     </g>
     <g id="text_20">
      <!-- −20 -->
      <g transform="translate(657.08402 399.078438)scale(0.1 -0.1)">
       <use xlink:href="#DejaVuSans-8722"/>
       <use x="83.789062" xlink:href="#DejaVuSans-50"/>
       <use x="147.412109" xlink:href="#DejaVuSans-48"/>
      </g>
     </g>
    </g>
    <g id="xtick_13">
     <g id="line2d_19">
      <g>
       <use style="stroke:#000000;stroke-width:0.8;" x="705.681818" xlink:href="#m58f2678095" y="384.48"/>
      </g>
     </g>
     <g id="text_21">
      <!-- −10 -->
      <g transform="translate(695.129474 399.078438)scale(0.1 -0.1)">
       <use xlink:href="#DejaVuSans-8722"/>
       <use x="83.789062" xlink:href="#DejaVuSans-49"/>
       <use x="147.412109" xlink:href="#DejaVuSans-48"/>
      </g>
     </g>
    </g>
    <g id="xtick_14">
     <g id="line2d_20">
      <g>
       <use style="stroke:#000000;stroke-width:0.8;" x="743.727273" xlink:href="#m58f2678095" y="384.48"/>
      </g>
     </g>
     <g id="text_22">
      <!-- 0 -->
      <g transform="translate(740.546023 399.078438)scale(0.1 -0.1)">
       <use xlink:href="#DejaVuSans-48"/>
      </g>
     </g>
    </g>
    <g id="xtick_15">
     <g id="line2d_21">
      <g>
       <use style="stroke:#000000;stroke-width:0.8;" x="781.772727" xlink:href="#m58f2678095" y="384.48"/>
      </g>
     </g>
     <g id="text_23">
      <!-- 10 -->
      <g transform="translate(775.410227 399.078438)scale(0.1 -0.1)">
       <use xlink:href="#DejaVuSans-49"/>
       <use x="63.623047" xlink:href="#DejaVuSans-48"/>
      </g>
     </g>
    </g>
    <g id="xtick_16">
     <g id="line2d_22">
      <g>
       <use style="stroke:#000000;stroke-width:0.8;" x="819.818182" xlink:href="#m58f2678095" y="384.48"/>
      </g>
     </g>
     <g id="text_24">
      <!-- 20 -->
      <g transform="translate(813.455682 399.078438)scale(0.1 -0.1)">
       <use xlink:href="#DejaVuSans-50"/>
       <use x="63.623047" xlink:href="#DejaVuSans-48"/>
      </g>
     </g>
    </g>
    <g id="xtick_17">
     <g id="line2d_23">
      <g>
       <use style="stroke:#000000;stroke-width:0.8;" x="857.863636" xlink:href="#m58f2678095" y="384.48"/>
      </g>
     </g>
     <g id="text_25">
      <!-- 30 -->
      <g transform="translate(851.501136 399.078438)scale(0.1 -0.1)">
       <use xlink:href="#DejaVuSans-51"/>
       <use x="63.623047" xlink:href="#DejaVuSans-48"/>
      </g>
     </g>
    </g>
    <g id="xtick_18">
     <g id="line2d_24">
      <g>
       <use style="stroke:#000000;stroke-width:0.8;" x="895.909091" xlink:href="#m58f2678095" y="384.48"/>
      </g>
     </g>
     <g id="text_26">
      <!-- 40 -->
      <g transform="translate(889.546591 399.078438)scale(0.1 -0.1)">
       <use xlink:href="#DejaVuSans-52"/>
       <use x="63.623047" xlink:href="#DejaVuSans-48"/>
      </g>
     </g>
    </g>
    <g id="text_27">
     <!-- x1 -->
     <g transform="translate(737.586648 412.756563)scale(0.1 -0.1)">
      <use xlink:href="#DejaVuSans-120"/>
      <use x="59.179688" xlink:href="#DejaVuSans-49"/>
     </g>
    </g>
   </g>
   <g id="matplotlib.axis_4">
    <g id="ytick_6">
     <g id="line2d_25">
      <g>
       <use style="stroke:#000000;stroke-width:0.8;" x="591.545455" xlink:href="#mdb1f4f72eb" y="384.48"/>
      </g>
     </g>
     <g id="text_28">
      <!-- −40 -->
      <g transform="translate(563.440767 388.279219)scale(0.1 -0.1)">
       <use xlink:href="#DejaVuSans-8722"/>
       <use x="83.789062" xlink:href="#DejaVuSans-52"/>
       <use x="147.412109" xlink:href="#DejaVuSans-48"/>
      </g>
     </g>
    </g>
    <g id="ytick_7">
     <g id="line2d_26">
      <g>
       <use style="stroke:#000000;stroke-width:0.8;" x="591.545455" xlink:href="#mdb1f4f72eb" y="342.9"/>
      </g>
     </g>
     <g id="text_29">
      <!-- −30 -->
      <g transform="translate(563.440767 346.699219)scale(0.1 -0.1)">
       <use xlink:href="#DejaVuSans-8722"/>
       <use x="83.789062" xlink:href="#DejaVuSans-51"/>
       <use x="147.412109" xlink:href="#DejaVuSans-48"/>
      </g>
     </g>
    </g>
    <g id="ytick_8">
     <g id="line2d_27">
      <g>
       <use style="stroke:#000000;stroke-width:0.8;" x="591.545455" xlink:href="#mdb1f4f72eb" y="301.32"/>
      </g>
     </g>
     <g id="text_30">
      <!-- −20 -->
      <g transform="translate(563.440767 305.119219)scale(0.1 -0.1)">
       <use xlink:href="#DejaVuSans-8722"/>
       <use x="83.789062" xlink:href="#DejaVuSans-50"/>
       <use x="147.412109" xlink:href="#DejaVuSans-48"/>
      </g>
     </g>
    </g>
    <g id="ytick_9">
     <g id="line2d_28">
      <g>
       <use style="stroke:#000000;stroke-width:0.8;" x="591.545455" xlink:href="#mdb1f4f72eb" y="259.74"/>
      </g>
     </g>
     <g id="text_31">
      <!-- −10 -->
      <g transform="translate(563.440767 263.539219)scale(0.1 -0.1)">
       <use xlink:href="#DejaVuSans-8722"/>
       <use x="83.789062" xlink:href="#DejaVuSans-49"/>
       <use x="147.412109" xlink:href="#DejaVuSans-48"/>
      </g>
     </g>
    </g>
    <g id="ytick_10">
     <g id="line2d_29">
      <g>
       <use style="stroke:#000000;stroke-width:0.8;" x="591.545455" xlink:href="#mdb1f4f72eb" y="218.16"/>
      </g>
     </g>
     <g id="text_32">
      <!-- 0 -->
      <g transform="translate(578.182955 221.959219)scale(0.1 -0.1)">
       <use xlink:href="#DejaVuSans-48"/>
      </g>
     </g>
    </g>
    <g id="ytick_11">
     <g id="line2d_30">
      <g>
       <use style="stroke:#000000;stroke-width:0.8;" x="591.545455" xlink:href="#mdb1f4f72eb" y="176.58"/>
      </g>
     </g>
     <g id="text_33">
      <!-- 10 -->
      <g transform="translate(571.820455 180.379219)scale(0.1 -0.1)">
       <use xlink:href="#DejaVuSans-49"/>
       <use x="63.623047" xlink:href="#DejaVuSans-48"/>
      </g>
     </g>
    </g>
    <g id="ytick_12">
     <g id="line2d_31">
      <g>
       <use style="stroke:#000000;stroke-width:0.8;" x="591.545455" xlink:href="#mdb1f4f72eb" y="135"/>
      </g>
     </g>
     <g id="text_34">
      <!-- 20 -->
      <g transform="translate(571.820455 138.799219)scale(0.1 -0.1)">
       <use xlink:href="#DejaVuSans-50"/>
       <use x="63.623047" xlink:href="#DejaVuSans-48"/>
      </g>
     </g>
    </g>
    <g id="ytick_13">
     <g id="line2d_32">
      <g>
       <use style="stroke:#000000;stroke-width:0.8;" x="591.545455" xlink:href="#mdb1f4f72eb" y="93.42"/>
      </g>
     </g>
     <g id="text_35">
      <!-- 30 -->
      <g transform="translate(571.820455 97.219219)scale(0.1 -0.1)">
       <use xlink:href="#DejaVuSans-51"/>
       <use x="63.623047" xlink:href="#DejaVuSans-48"/>
      </g>
     </g>
    </g>
    <g id="ytick_14">
     <g id="line2d_33">
      <g>
       <use style="stroke:#000000;stroke-width:0.8;" x="591.545455" xlink:href="#mdb1f4f72eb" y="51.84"/>
      </g>
     </g>
     <g id="text_36">
      <!-- 40 -->
      <g transform="translate(571.820455 55.639219)scale(0.1 -0.1)">
       <use xlink:href="#DejaVuSans-52"/>
       <use x="63.623047" xlink:href="#DejaVuSans-48"/>
      </g>
     </g>
    </g>
    <g id="text_37">
     <!-- x2 -->
     <g transform="translate(557.36108 224.300625)rotate(-90)scale(0.1 -0.1)">
      <use xlink:href="#DejaVuSans-120"/>
      <use x="59.179688" xlink:href="#DejaVuSans-50"/>
     </g>
    </g>
   </g>
   <g id="LineCollection_1"/>
   <g id="LineCollection_2">
    <path clip-path="url(#pcf46fb16f6)" d="M 742.190083 317.779325 
L 739.115702 317.06993 
L 736.041322 316.246935 
L 732.966942 315.797376 
L 720.669421 314.555487 
L 717.232541 313.92 
L 714.520661 313.010194 
L 711.446281 311.44169 
L 710.212404 310.56 
L 706.539557 307.2 
L 705.297521 306.276478 
L 702.22314 304.581368 
L 699.14876 303.361627 
L 696.07438 302.308404 
L 693 301.133438 
L 691.664909 300.48 
L 689.92562 299.265324 
L 687.640138 297.12 
L 683.77686 291.514562 
L 682.690035 290.4 
L 680.702479 288.896656 
L 677.221221 287.04 
L 674.553719 285.299396 
L 672.477162 283.68 
L 671.04591 280.32 
L 671.522993 276.96 
L 672.173379 273.6 
L 671.179776 270.24 
L 667.549273 266.88 
L 665.330579 265.191678 
L 663.706112 263.52 
L 662.256198 261.278652 
L 661.722892 260.16 
L 660.670858 256.8 
L 659.769236 253.44 
L 659.181818 251.710719 
L 658.451053 250.08 
L 656.107438 246.461338 
L 654.666198 243.36 
L 654.920499 240 
L 655.763497 236.64 
L 656.174894 233.28 
L 655.93843 229.92 
L 654.902482 226.56 
L 651.074569 219.84 
L 651.074569 216.48 
L 653.033058 212.942242 
L 654.902482 209.76 
L 655.93843 206.4 
L 656.174894 203.04 
L 655.763497 199.68 
L 654.920499 196.32 
L 654.666198 192.96 
L 656.239037 189.6 
L 658.451053 186.24 
L 659.181818 184.609281 
L 659.769236 182.88 
L 660.670858 179.52 
L 661.722892 176.16 
L 662.256198 175.041348 
L 663.706112 172.8 
L 665.330579 171.128322 
L 668.404959 168.671082 
L 671.179776 166.08 
L 672.173379 162.72 
L 671.479339 159.089015 
L 671.04591 156 
L 671.479339 154.82724 
L 672.477162 152.64 
L 674.553719 151.020604 
L 677.628099 149.070452 
L 680.702479 147.423344 
L 682.690035 145.92 
L 683.77686 144.805438 
L 686.85124 140.374742 
L 687.640138 139.2 
L 689.92562 137.054676 
L 691.664909 135.84 
L 693 135.186562 
L 696.07438 134.011596 
L 700.474171 132.48 
L 702.22314 131.738632 
L 705.297521 130.043522 
L 706.539557 129.12 
L 710.212404 125.76 
L 711.446281 124.87831 
L 714.520661 123.309806 
L 717.595041 122.308661 
L 720.669421 121.764513 
L 726.818182 121.089618 
L 732.966942 120.522624 
L 736.041322 120.073065 
L 742.190083 118.540675 
L 745.264463 118.540675 
L 748.338843 119.25007 
L 751.413223 120.073065 
L 754.487603 120.522624 
L 766.785124 121.764513 
L 770.222005 122.4 
L 772.933884 123.309806 
L 776.008264 124.87831 
L 777.242141 125.76 
L 780.914988 129.12 
L 782.157025 130.043522 
L 785.231405 131.738632 
L 788.305785 132.958373 
L 791.380165 134.011596 
L 794.454545 135.186562 
L 795.789637 135.84 
L 797.528926 137.054676 
L 799.814408 139.2 
L 803.677686 144.805438 
L 804.76451 145.92 
L 806.752066 147.423344 
L 810.233324 149.28 
L 812.900826 151.020604 
L 814.977384 152.64 
L 816.408635 156 
L 815.931553 159.36 
L 815.281166 162.72 
L 816.27477 166.08 
L 819.905272 169.44 
L 822.123967 171.128322 
L 823.748433 172.8 
L 825.198347 175.041348 
L 825.731653 176.16 
L 826.783687 179.52 
L 827.68531 182.88 
L 828.272727 184.609281 
L 829.003493 186.24 
L 831.347107 189.858662 
L 832.788347 192.96 
L 832.534047 196.32 
L 831.691048 199.68 
L 831.279652 203.04 
L 831.516116 206.4 
L 832.552063 209.76 
L 836.379977 216.48 
L 836.379977 219.84 
L 834.421488 223.377758 
L 832.552063 226.56 
L 831.516116 229.92 
L 831.279652 233.28 
L 831.691048 236.64 
L 832.534047 240 
L 832.788347 243.36 
L 831.215509 246.72 
L 829.003493 250.08 
L 828.272727 251.710719 
L 827.68531 253.44 
L 826.783687 256.8 
L 825.731653 260.16 
L 825.198347 261.278652 
L 823.748433 263.52 
L 822.123967 265.191678 
L 819.049587 267.648918 
L 816.27477 270.24 
L 815.281166 273.6 
L 815.975207 277.230985 
L 816.408635 280.32 
L 815.975207 281.49276 
L 814.977384 283.68 
L 812.900826 285.299396 
L 809.826446 287.249548 
L 806.752066 288.896656 
L 804.76451 290.4 
L 803.677686 291.514562 
L 800.603306 295.945258 
L 799.814408 297.12 
L 797.528926 299.265324 
L 795.789637 300.48 
L 794.454545 301.133438 
L 791.380165 302.308404 
L 786.980374 303.84 
L 785.231405 304.581368 
L 782.157025 306.276478 
L 780.914988 307.2 
L 777.242141 310.56 
L 776.008264 311.44169 
L 772.933884 313.010194 
L 769.859504 314.011339 
L 766.785124 314.555487 
L 760.636364 315.230382 
L 754.487603 315.797376 
L 751.413223 316.246935 
L 745.264463 317.779325 
L 742.190083 317.779325 
L 742.190083 317.779325 
" style="fill:none;stroke:#443983;stroke-width:1.5;"/>
   </g>
   <g id="LineCollection_3">
    <path clip-path="url(#pcf46fb16f6)" d="M 717.595041 358.334369 
L 715.997261 357.6 
L 714.520661 356.744702 
L 711.446281 355.286355 
L 707.870355 354.24 
L 696.07438 351.722753 
L 693 350.622978 
L 689.92562 348.724209 
L 688.313091 347.52 
L 686.85124 346.140549 
L 683.77686 343.680064 
L 680.702479 341.967787 
L 674.553719 339.451254 
L 670.346916 337.44 
L 668.404959 335.809574 
L 666.670382 334.08 
L 664.406397 330.72 
L 662.256198 328.034071 
L 661.515399 327.36 
L 659.181818 325.719099 
L 656.047875 324 
L 653.033058 321.732661 
L 651.871362 320.64 
L 650.380811 317.28 
L 649.772244 313.92 
L 648.393902 310.56 
L 646.884298 308.888886 
L 645.189145 307.2 
L 643.809917 306.204221 
L 640.735537 303.731593 
L 637.661157 300.032082 
L 636.16702 297.12 
L 634.584035 293.76 
L 632.399723 290.4 
L 631.512397 289.347262 
L 628.438017 286.109477 
L 626.529848 283.68 
L 625.545035 280.32 
L 626.174436 273.6 
L 625.602379 270.24 
L 625.363636 269.803274 
L 623.613853 266.88 
L 620.805614 263.52 
L 618.647783 260.16 
L 617.621103 256.8 
L 617.41024 253.44 
L 618.130151 246.72 
L 617.646792 243.36 
L 616.140496 239.669453 
L 615.054451 236.64 
L 614.368326 233.28 
L 614.102974 229.92 
L 614.1508 226.56 
L 614.842105 219.84 
L 614.842105 216.48 
L 614.1508 209.76 
L 614.102974 206.4 
L 614.368326 203.04 
L 615.054451 199.68 
L 616.28805 196.32 
L 617.646792 192.96 
L 618.130151 189.6 
L 617.41024 182.88 
L 617.621103 179.52 
L 618.647783 176.16 
L 619.214876 175.157757 
L 620.805614 172.8 
L 623.613853 169.44 
L 625.602379 166.08 
L 626.174436 162.72 
L 625.545035 156 
L 626.529848 152.64 
L 629.221589 149.28 
L 631.512397 146.972738 
L 632.399723 145.92 
L 634.586777 142.554465 
L 637.661157 136.287918 
L 637.928164 135.84 
L 640.856461 132.48 
L 645.189145 129.12 
L 646.884298 127.431114 
L 648.393902 125.76 
L 649.772244 122.4 
L 650.380811 119.04 
L 651.871362 115.68 
L 653.033058 114.587339 
L 656.107438 112.286999 
L 659.181818 110.600901 
L 661.515399 108.96 
L 662.256198 108.285929 
L 665.330579 104.285823 
L 666.670382 102.24 
L 668.404959 100.510426 
L 670.346916 98.88 
L 671.479339 98.254867 
L 674.553719 96.868746 
L 680.702479 94.352213 
L 684.454937 92.16 
L 686.85124 90.179451 
L 688.313091 88.8 
L 689.92562 87.595791 
L 693.540156 85.44 
L 696.07438 84.597247 
L 699.14876 83.832161 
L 708.371901 81.956611 
L 711.446281 81.033645 
L 714.520661 79.575298 
L 715.997261 78.72 
L 717.595041 77.985631 
L 720.669421 76.947469 
L 723.743802 76.484512 
L 726.818182 76.55097 
L 739.115702 77.91332 
L 742.190083 78.03696 
L 745.264463 78.03696 
L 748.338843 77.91332 
L 754.487603 77.314953 
L 760.636364 76.55097 
L 763.710744 76.484512 
L 766.785124 76.947469 
L 769.859504 77.985631 
L 771.457284 78.72 
L 772.933884 79.575298 
L 776.008264 81.033645 
L 779.58419 82.08 
L 791.380165 84.597247 
L 794.454545 85.697022 
L 797.528926 87.595791 
L 799.141455 88.8 
L 800.603306 90.179451 
L 803.677686 92.639936 
L 806.752066 94.352213 
L 812.900826 96.868746 
L 817.10763 98.88 
L 819.049587 100.510426 
L 820.784164 102.24 
L 823.048149 105.6 
L 825.198347 108.285929 
L 825.939146 108.96 
L 828.272727 110.600901 
L 831.40667 112.32 
L 834.421488 114.587339 
L 835.583183 115.68 
L 837.073734 119.04 
L 837.682302 122.4 
L 839.060644 125.76 
L 840.570248 127.431114 
L 842.2654 129.12 
L 843.644628 130.115779 
L 846.719008 132.588407 
L 849.793388 136.287918 
L 851.287526 139.2 
L 852.87051 142.56 
L 855.054823 145.92 
L 855.942149 146.972738 
L 859.016529 150.210523 
L 860.924697 152.64 
L 861.909511 156 
L 861.280109 162.72 
L 861.852166 166.08 
L 862.090909 166.516726 
L 863.840692 169.44 
L 866.648932 172.8 
L 868.806762 176.16 
L 869.833443 179.52 
L 870.044305 182.88 
L 869.324395 189.6 
L 869.807754 192.96 
L 871.31405 196.650547 
L 872.400094 199.68 
L 873.086219 203.04 
L 873.351571 206.4 
L 873.303745 209.76 
L 872.612441 216.48 
L 872.612441 219.84 
L 873.303745 226.56 
L 873.351571 229.92 
L 873.086219 233.28 
L 872.400094 236.64 
L 871.166496 240 
L 869.807754 243.36 
L 869.324395 246.72 
L 870.044305 253.44 
L 869.833443 256.8 
L 868.806762 260.16 
L 868.239669 261.162243 
L 866.648932 263.52 
L 863.840692 266.88 
L 861.852166 270.24 
L 861.280109 273.6 
L 861.909511 280.32 
L 860.924697 283.68 
L 858.232956 287.04 
L 855.942149 289.347262 
L 855.054823 290.4 
L 852.867769 293.765535 
L 849.793388 300.032082 
L 849.526381 300.48 
L 846.598085 303.84 
L 842.2654 307.2 
L 840.570248 308.888886 
L 839.060644 310.56 
L 837.682302 313.92 
L 837.073734 317.28 
L 835.583183 320.64 
L 834.421488 321.732661 
L 831.347107 324.033001 
L 828.272727 325.719099 
L 825.939146 327.36 
L 825.198347 328.034071 
L 822.123967 332.034177 
L 820.784164 334.08 
L 819.049587 335.809574 
L 817.10763 337.44 
L 815.975207 338.065133 
L 812.900826 339.451254 
L 806.752066 341.967787 
L 802.999608 344.16 
L 800.603306 346.140549 
L 799.141455 347.52 
L 797.528926 348.724209 
L 793.91439 350.88 
L 791.380165 351.722753 
L 788.305785 352.487839 
L 779.082645 354.363389 
L 776.008264 355.286355 
L 772.933884 356.744702 
L 771.457284 357.6 
L 769.859504 358.334369 
L 766.785124 359.372531 
L 763.710744 359.835488 
L 760.636364 359.76903 
L 748.338843 358.40668 
L 745.264463 358.28304 
L 742.190083 358.28304 
L 739.115702 358.40668 
L 732.966942 359.005047 
L 726.818182 359.76903 
L 723.743802 359.835488 
L 720.669421 359.372531 
L 717.595041 358.334369 
L 717.595041 358.334369 
" style="fill:none;stroke:#31688e;stroke-width:1.5;"/>
   </g>
   <g id="LineCollection_4">
    <path clip-path="url(#pcf46fb16f6)" d="M 699.349128 384.48 
L 699.14876 384.420986 
L 696.07438 383.63611 
L 693 382.920799 
L 689.92562 382.15598 
L 686.85124 381.194335 
L 686.655315 381.12 
L 683.77686 379.79841 
L 680.752632 377.76 
L 680.702479 377.723716 
L 677.628099 375.430317 
L 676.223284 374.4 
L 674.553719 373.503457 
L 671.479339 372.09023 
L 668.945235 371.04 
L 668.404959 370.842427 
L 665.330579 369.679176 
L 662.256198 368.190592 
L 661.42552 367.68 
L 659.181818 365.970006 
L 657.512169 364.32 
L 656.107438 362.900293 
L 654.204803 360.96 
L 653.033058 360.043737 
L 649.958678 357.95594 
L 649.380043 357.6 
L 646.884298 356.278384 
L 643.809917 354.57113 
L 643.283585 354.24 
L 640.735537 352.308812 
L 639.225064 350.88 
L 637.661157 348.978125 
L 636.534158 347.52 
L 634.586777 345.106954 
L 633.715586 344.16 
L 631.512397 342.21657 
L 629.582144 340.8 
L 628.438017 339.962353 
L 625.363636 337.699547 
L 625.04337 337.44 
L 622.307858 334.08 
L 622.289256 334.033443 
L 621.040257 330.72 
L 620.109683 327.36 
L 619.214876 325.452608 
L 618.416527 324 
L 616.140496 321.495904 
L 615.349456 320.64 
L 613.066116 318.171917 
L 612.407652 317.28 
L 610.563866 313.92 
L 609.991736 312.628346 
L 609.164701 310.56 
L 607.506764 307.2 
L 606.917355 306.321812 
L 605.013325 303.84 
L 603.842975 302.549835 
L 601.868663 300.48 
L 600.768595 299.024264 
L 599.464615 297.12 
L 598.391009 293.76 
L 598.272837 290.4 
L 598.329935 287.04 
L 597.694215 283.871211 
L 597.651955 283.68 
L 595.749127 280.32 
L 594.619835 278.755729 
L 593.471155 276.96 
L 591.797854 273.6 
L 591.545455 272.804671 
" style="fill:none;stroke:#21918c;stroke-width:1.5;"/>
    <path clip-path="url(#pcf46fb16f6)" d="M 895.909091 272.804671 
L 895.656692 273.6 
L 893.98339 276.96 
L 892.834711 278.755729 
L 891.705418 280.32 
L 889.802591 283.68 
L 889.760331 283.871211 
L 889.12461 287.04 
L 889.181708 290.4 
L 889.063537 293.76 
L 887.98993 297.12 
L 886.68595 299.024264 
L 885.585883 300.48 
L 883.61157 302.549835 
L 882.441221 303.84 
L 880.53719 306.321812 
L 879.947782 307.2 
L 878.289844 310.56 
L 877.46281 312.628346 
L 876.890679 313.92 
L 875.046893 317.28 
L 874.38843 318.171917 
L 872.105089 320.64 
L 871.31405 321.495904 
L 869.038018 324 
L 868.239669 325.452608 
L 867.344862 327.36 
L 866.414288 330.72 
L 865.165289 334.033443 
L 865.146688 334.08 
L 862.411176 337.44 
L 862.090909 337.699547 
L 859.016529 339.962353 
L 857.872402 340.8 
L 855.942149 342.21657 
L 853.738959 344.16 
L 852.867769 345.106954 
L 850.920388 347.52 
L 849.793388 348.978125 
L 848.229481 350.88 
L 846.719008 352.308812 
L 844.17096 354.24 
L 843.644628 354.57113 
L 840.570248 356.278384 
L 838.074502 357.6 
L 837.495868 357.95594 
L 834.421488 360.043737 
L 833.249742 360.96 
L 831.347107 362.900293 
L 829.942376 364.32 
L 828.272727 365.970006 
L 826.029025 367.68 
L 825.198347 368.190592 
L 822.123967 369.679176 
L 819.049587 370.842427 
L 818.50931 371.04 
L 815.975207 372.09023 
L 812.900826 373.503457 
L 811.231262 374.4 
L 809.826446 375.430317 
L 806.752066 377.723716 
L 806.701914 377.76 
L 803.677686 379.79841 
L 800.799231 381.12 
L 800.603306 381.194335 
L 797.528926 382.15598 
L 794.454545 382.920799 
L 791.380165 383.63611 
L 788.305785 384.420986 
L 788.105417 384.48 
" style="fill:none;stroke:#21918c;stroke-width:1.5;"/>
    <path clip-path="url(#pcf46fb16f6)" d="M 591.545455 163.515329 
L 591.797854 162.72 
L 593.471155 159.36 
L 594.619835 157.564271 
L 595.749127 156 
L 597.651955 152.64 
L 597.694215 152.448789 
L 598.329935 149.28 
L 598.272837 145.92 
L 598.391009 142.56 
L 599.464615 139.2 
L 600.768595 137.295736 
L 601.868663 135.84 
L 603.842975 133.770165 
L 605.013325 132.48 
L 606.917355 129.998188 
L 607.506764 129.12 
L 609.164701 125.76 
L 609.991736 123.691654 
L 610.563866 122.4 
L 612.407652 119.04 
L 613.066116 118.148083 
L 615.349456 115.68 
L 616.140496 114.824096 
L 618.416527 112.32 
L 619.214876 110.867392 
L 620.109683 108.96 
L 621.040257 105.6 
L 622.289256 102.286557 
L 622.307858 102.24 
L 625.04337 98.88 
L 625.363636 98.620453 
L 628.438017 96.357647 
L 629.582144 95.52 
L 631.512397 94.10343 
L 633.715586 92.16 
L 634.586777 91.213046 
L 636.534158 88.8 
L 637.661157 87.341875 
L 639.225064 85.44 
L 640.735537 84.011188 
L 643.283585 82.08 
L 643.809917 81.74887 
L 646.884298 80.041616 
L 649.380043 78.72 
L 649.958678 78.36406 
L 653.033058 76.276263 
L 654.204803 75.36 
L 656.107438 73.419707 
L 657.512169 72 
L 659.181818 70.349994 
L 661.42552 68.64 
L 662.256198 68.129408 
L 665.330579 66.640824 
L 668.404959 65.477573 
L 668.945235 65.28 
L 671.479339 64.22977 
L 674.553719 62.816543 
L 676.223284 61.92 
L 677.628099 60.889683 
L 680.702479 58.596284 
L 680.752632 58.56 
L 683.77686 56.52159 
L 686.655315 55.2 
L 686.85124 55.125665 
L 689.92562 54.16402 
L 693 53.399201 
L 696.07438 52.68389 
L 699.14876 51.899014 
L 699.349128 51.84 
" style="fill:none;stroke:#21918c;stroke-width:1.5;"/>
    <path clip-path="url(#pcf46fb16f6)" d="M 788.105417 51.84 
L 788.305785 51.899014 
L 791.380165 52.68389 
L 794.454545 53.399201 
L 797.528926 54.16402 
L 800.603306 55.125665 
L 800.799231 55.2 
L 803.677686 56.52159 
L 806.701914 58.56 
L 806.752066 58.596284 
L 809.826446 60.889683 
L 811.231262 61.92 
L 812.900826 62.816543 
L 815.975207 64.22977 
L 818.50931 65.28 
L 819.049587 65.477573 
L 822.123967 66.640824 
L 825.198347 68.129408 
L 826.029025 68.64 
L 828.272727 70.349994 
L 829.942376 72 
L 831.347107 73.419707 
L 833.249742 75.36 
L 834.421488 76.276263 
L 837.495868 78.36406 
L 838.074502 78.72 
L 840.570248 80.041616 
L 843.644628 81.74887 
L 844.17096 82.08 
L 846.719008 84.011188 
L 848.229481 85.44 
L 849.793388 87.341875 
L 850.920388 88.8 
L 852.867769 91.213046 
L 853.738959 92.16 
L 855.942149 94.10343 
L 857.872402 95.52 
L 859.016529 96.357647 
L 862.090909 98.620453 
L 862.411176 98.88 
L 865.146688 102.24 
L 865.165289 102.286557 
L 866.414288 105.6 
L 867.344862 108.96 
L 868.239669 110.867392 
L 869.038018 112.32 
L 871.31405 114.824096 
L 872.105089 115.68 
L 874.38843 118.148083 
L 875.046893 119.04 
L 876.890679 122.4 
L 877.46281 123.691654 
L 878.289844 125.76 
L 879.947782 129.12 
L 880.53719 129.998188 
L 882.441221 132.48 
L 883.61157 133.770165 
L 885.585883 135.84 
L 886.68595 137.295736 
L 887.98993 139.2 
L 889.063537 142.56 
L 889.181708 145.92 
L 889.12461 149.28 
L 889.760331 152.448789 
L 889.802591 152.64 
L 891.705418 156 
L 892.834711 157.564271 
L 893.98339 159.36 
L 895.656692 162.72 
L 895.909091 163.515329 
" style="fill:none;stroke:#21918c;stroke-width:1.5;"/>
   </g>
   <g id="LineCollection_5">
    <path clip-path="url(#pcf46fb16f6)" d="M 639.66094 384.48 
L 637.661157 383.399154 
L 634.586777 381.144305 
L 634.560046 381.12 
L 631.566513 377.76 
L 631.512397 377.698718 
L 628.641247 374.4 
L 628.438017 374.220905 
L 625.363636 371.778645 
L 624.349413 371.04 
L 622.289256 369.754679 
L 619.214876 367.726834 
L 619.150878 367.68 
L 616.140496 365.082039 
L 615.413618 364.32 
L 613.066116 361.269601 
L 612.841959 360.96 
L 610.294633 357.6 
L 609.991736 357.259253 
L 606.917355 354.351916 
L 606.783258 354.24 
L 603.842975 351.811116 
L 602.719625 350.88 
L 600.768595 348.65432 
L 599.885592 347.52 
L 598.430416 344.16 
L 597.694215 341.481832 
L 597.498835 340.8 
L 596.062623 337.44 
L 594.619835 335.532023 
L 593.456039 334.08 
L 591.545455 332.056128 
" style="fill:none;stroke:#35b779;stroke-width:1.5;"/>
    <path clip-path="url(#pcf46fb16f6)" d="M 895.909091 332.056128 
L 893.998506 334.08 
L 892.834711 335.532023 
L 891.391922 337.44 
L 889.955711 340.8 
L 889.760331 341.481832 
L 889.02413 344.16 
L 887.568953 347.52 
L 886.68595 348.65432 
L 884.73492 350.88 
L 883.61157 351.811116 
L 880.671287 354.24 
L 880.53719 354.351916 
L 877.46281 357.259253 
L 877.159912 357.6 
L 874.612586 360.96 
L 874.38843 361.269601 
L 872.040928 364.32 
L 871.31405 365.082039 
L 868.303668 367.68 
L 868.239669 367.726834 
L 865.165289 369.754679 
L 863.105133 371.04 
L 862.090909 371.778645 
L 859.016529 374.220905 
L 858.813298 374.4 
L 855.942149 377.698718 
L 855.888033 377.76 
L 852.8945 381.12 
L 852.867769 381.144305 
L 849.793388 383.399154 
L 847.793606 384.48 
" style="fill:none;stroke:#35b779;stroke-width:1.5;"/>
    <path clip-path="url(#pcf46fb16f6)" d="M 591.545455 104.263872 
L 593.456039 102.24 
L 594.619835 100.787977 
L 596.062623 98.88 
L 597.498835 95.52 
L 597.694215 94.838168 
L 598.430416 92.16 
L 599.885592 88.8 
L 600.768595 87.66568 
L 602.719625 85.44 
L 603.842975 84.508884 
L 606.783258 82.08 
L 606.917355 81.968084 
L 609.991736 79.060747 
L 610.294633 78.72 
L 612.841959 75.36 
L 613.066116 75.050399 
L 615.413618 72 
L 616.140496 71.237961 
L 619.150878 68.64 
L 619.214876 68.593166 
L 622.289256 66.565321 
L 624.349413 65.28 
L 625.363636 64.541355 
L 628.438017 62.099095 
L 628.641247 61.92 
L 631.512397 58.621282 
L 631.566513 58.56 
L 634.560046 55.2 
L 634.586777 55.175695 
L 637.661157 52.920846 
L 639.66094 51.84 
" style="fill:none;stroke:#35b779;stroke-width:1.5;"/>
    <path clip-path="url(#pcf46fb16f6)" d="M 847.793606 51.84 
L 849.793388 52.920846 
L 852.867769 55.175695 
L 852.8945 55.2 
L 855.888033 58.56 
L 855.942149 58.621282 
L 858.813298 61.92 
L 859.016529 62.099095 
L 862.090909 64.541355 
L 863.105133 65.28 
L 865.165289 66.565321 
L 868.239669 68.593166 
L 868.303668 68.64 
L 871.31405 71.237961 
L 872.040928 72 
L 874.38843 75.050399 
L 874.612586 75.36 
L 877.159912 78.72 
L 877.46281 79.060747 
L 880.53719 81.968084 
L 880.671287 82.08 
L 883.61157 84.508884 
L 884.73492 85.44 
L 886.68595 87.66568 
L 887.568953 88.8 
L 889.02413 92.16 
L 889.760331 94.838168 
L 889.955711 95.52 
L 891.391922 98.88 
L 892.834711 100.787977 
L 893.998506 102.24 
L 895.909091 104.263872 
" style="fill:none;stroke:#35b779;stroke-width:1.5;"/>
   </g>
   <g id="LineCollection_6">
    <path clip-path="url(#pcf46fb16f6)" d="M 604.580956 384.48 
L 603.842975 383.897899 
L 600.768595 381.663675 
L 600.011124 381.12 
L 597.694215 379.367414 
L 595.801939 377.76 
L 594.619835 376.442357 
L 592.973556 374.4 
L 591.545455 372.16036 
" style="fill:none;stroke:#90d743;stroke-width:1.5;"/>
    <path clip-path="url(#pcf46fb16f6)" d="M 895.909091 372.16036 
L 894.480989 374.4 
L 892.834711 376.442357 
L 891.652606 377.76 
L 889.760331 379.367414 
L 887.443422 381.12 
L 886.68595 381.663675 
L 883.61157 383.897899 
L 882.873589 384.48 
" style="fill:none;stroke:#90d743;stroke-width:1.5;"/>
    <path clip-path="url(#pcf46fb16f6)" d="M 591.545455 64.15964 
L 592.973556 61.92 
L 594.619835 59.877643 
L 595.801939 58.56 
L 597.694215 56.952586 
L 600.011124 55.2 
L 600.768595 54.656325 
L 603.842975 52.422101 
L 604.580956 51.84 
" style="fill:none;stroke:#90d743;stroke-width:1.5;"/>
    <path clip-path="url(#pcf46fb16f6)" d="M 882.873589 51.84 
L 883.61157 52.422101 
L 886.68595 54.656325 
L 887.443422 55.2 
L 889.760331 56.952586 
L 891.652606 58.56 
L 892.834711 59.877643 
L 894.480989 61.92 
L 895.909091 64.15964 
" style="fill:none;stroke:#90d743;stroke-width:1.5;"/>
   </g>
   <g id="LineCollection_7"/>
   <g id="patch_8">
    <path d="M 591.545455 384.48 
L 591.545455 51.84 
" style="fill:none;stroke:#000000;stroke-linecap:square;stroke-linejoin:miter;stroke-width:0.8;"/>
   </g>
   <g id="patch_9">
    <path d="M 895.909091 384.48 
L 895.909091 51.84 
" style="fill:none;stroke:#000000;stroke-linecap:square;stroke-linejoin:miter;stroke-width:0.8;"/>
   </g>
   <g id="patch_10">
    <path d="M 591.545455 384.48 
L 895.909091 384.48 
" style="fill:none;stroke:#000000;stroke-linecap:square;stroke-linejoin:miter;stroke-width:0.8;"/>
   </g>
   <g id="patch_11">
    <path d="M 591.545455 51.84 
L 895.909091 51.84 
" style="fill:none;stroke:#000000;stroke-linecap:square;stroke-linejoin:miter;stroke-width:0.8;"/>
   </g>
   <g id="text_38">
    <!-- Zad 1 - wykres dla n=2 -->
    <g transform="translate(673.732585 45.84)scale(0.12 -0.12)">
     <defs>
      <path d="M 4.203125 54.6875 
L 13.1875 54.6875 
L 24.421875 12.015625 
L 35.59375 54.6875 
L 46.1875 54.6875 
L 57.421875 12.015625 
L 68.609375 54.6875 
L 77.59375 54.6875 
L 63.28125 0 
L 52.6875 0 
L 40.921875 44.828125 
L 29.109375 0 
L 18.5 0 
z
" id="DejaVuSans-119"/>
      <path d="M 32.171875 -5.078125 
Q 28.375 -14.84375 24.75 -17.8125 
Q 21.140625 -20.796875 15.09375 -20.796875 
L 7.90625 -20.796875 
L 7.90625 -13.28125 
L 13.1875 -13.28125 
Q 16.890625 -13.28125 18.9375 -11.515625 
Q 21 -9.765625 23.484375 -3.21875 
L 25.09375 0.875 
L 2.984375 54.6875 
L 12.5 54.6875 
L 29.59375 11.921875 
L 46.6875 54.6875 
L 56.203125 54.6875 
z
" id="DejaVuSans-121"/>
      <path d="M 44.28125 53.078125 
L 44.28125 44.578125 
Q 40.484375 46.53125 36.375 47.5 
Q 32.28125 48.484375 27.875 48.484375 
Q 21.1875 48.484375 17.84375 46.4375 
Q 14.5 44.390625 14.5 40.28125 
Q 14.5 37.15625 16.890625 35.375 
Q 19.28125 33.59375 26.515625 31.984375 
L 29.59375 31.296875 
Q 39.15625 29.25 43.1875 25.515625 
Q 47.21875 21.78125 47.21875 15.09375 
Q 47.21875 7.46875 41.1875 3.015625 
Q 35.15625 -1.421875 24.609375 -1.421875 
Q 20.21875 -1.421875 15.453125 -0.5625 
Q 10.6875 0.296875 5.421875 2 
L 5.421875 11.28125 
Q 10.40625 8.6875 15.234375 7.390625 
Q 20.0625 6.109375 24.8125 6.109375 
Q 31.15625 6.109375 34.5625 8.28125 
Q 37.984375 10.453125 37.984375 14.40625 
Q 37.984375 18.0625 35.515625 20.015625 
Q 33.0625 21.96875 24.703125 23.78125 
L 21.578125 24.515625 
Q 13.234375 26.265625 9.515625 29.90625 
Q 5.8125 33.546875 5.8125 39.890625 
Q 5.8125 47.609375 11.28125 51.796875 
Q 16.75 56 26.8125 56 
Q 31.78125 56 36.171875 55.265625 
Q 40.578125 54.546875 44.28125 53.078125 
z
" id="DejaVuSans-115"/>
      <path d="M 9.421875 75.984375 
L 18.40625 75.984375 
L 18.40625 0 
L 9.421875 0 
z
" id="DejaVuSans-108"/>
      <path d="M 54.890625 33.015625 
L 54.890625 0 
L 45.90625 0 
L 45.90625 32.71875 
Q 45.90625 40.484375 42.875 44.328125 
Q 39.84375 48.1875 33.796875 48.1875 
Q 26.515625 48.1875 22.3125 43.546875 
Q 18.109375 38.921875 18.109375 30.90625 
L 18.109375 0 
L 9.078125 0 
L 9.078125 54.6875 
L 18.109375 54.6875 
L 18.109375 46.1875 
Q 21.34375 51.125 25.703125 53.5625 
Q 30.078125 56 35.796875 56 
Q 45.21875 56 50.046875 50.171875 
Q 54.890625 44.34375 54.890625 33.015625 
z
" id="DejaVuSans-110"/>
     </defs>
     <use xlink:href="#DejaVuSans-90"/>
     <use x="68.505859" xlink:href="#DejaVuSans-97"/>
     <use x="129.785156" xlink:href="#DejaVuSans-100"/>
     <use x="193.261719" xlink:href="#DejaVuSans-32"/>
     <use x="225.048828" xlink:href="#DejaVuSans-49"/>
     <use x="288.671875" xlink:href="#DejaVuSans-32"/>
     <use x="320.458984" xlink:href="#DejaVuSans-45"/>
     <use x="356.542969" xlink:href="#DejaVuSans-32"/>
     <use x="388.330078" xlink:href="#DejaVuSans-119"/>
     <use x="470.117188" xlink:href="#DejaVuSans-121"/>
     <use x="529.296875" xlink:href="#DejaVuSans-107"/>
     <use x="587.207031" xlink:href="#DejaVuSans-114"/>
     <use x="626.070312" xlink:href="#DejaVuSans-101"/>
     <use x="687.59375" xlink:href="#DejaVuSans-115"/>
     <use x="739.693359" xlink:href="#DejaVuSans-32"/>
     <use x="771.480469" xlink:href="#DejaVuSans-100"/>
     <use x="834.957031" xlink:href="#DejaVuSans-108"/>
     <use x="862.740234" xlink:href="#DejaVuSans-97"/>
     <use x="924.019531" xlink:href="#DejaVuSans-32"/>
     <use x="955.806641" xlink:href="#DejaVuSans-110"/>
     <use x="1019.185547" xlink:href="#DejaVuSans-61"/>
     <use x="1102.974609" xlink:href="#DejaVuSans-50"/>
    </g>
   </g>
  </g>
  <g id="axes_3">
   <g id="patch_12">
    <path clip-path="url(#p386b88a432)" d="M 914.931818 384.48 
L 914.931818 329.04 
L 914.931818 107.28 
L 914.931818 51.84 
L 931.563818 51.84 
L 931.563818 107.28 
L 931.563818 329.04 
L 931.563818 384.48 
z
" style="fill:#ffffff;stroke:#ffffff;stroke-linejoin:miter;stroke-width:0.01;"/>
   </g>
   <g id="matplotlib.axis_5"/>
   <g id="matplotlib.axis_6">
    <g id="ytick_15">
     <g id="line2d_34">
      <defs>
       <path d="M 0 0 
L 3.5 0 
" id="mffe2f063db" style="stroke:#000000;stroke-width:0.8;"/>
      </defs>
      <g>
       <use style="stroke:#000000;stroke-width:0.8;" x="931.563818" xlink:href="#mffe2f063db" y="384.48"/>
      </g>
     </g>
     <g id="text_39">
      <!-- 0 -->
      <g transform="translate(938.563818 388.279219)scale(0.1 -0.1)">
       <use xlink:href="#DejaVuSans-48"/>
      </g>
     </g>
    </g>
    <g id="ytick_16">
     <g id="line2d_35">
      <g>
       <use style="stroke:#000000;stroke-width:0.8;" x="931.563818" xlink:href="#mffe2f063db" y="329.04"/>
      </g>
     </g>
     <g id="text_40">
      <!-- 15 -->
      <g transform="translate(938.563818 332.839219)scale(0.1 -0.1)">
       <defs>
        <path d="M 10.796875 72.90625 
L 49.515625 72.90625 
L 49.515625 64.59375 
L 19.828125 64.59375 
L 19.828125 46.734375 
Q 21.96875 47.46875 24.109375 47.828125 
Q 26.265625 48.1875 28.421875 48.1875 
Q 40.625 48.1875 47.75 41.5 
Q 54.890625 34.8125 54.890625 23.390625 
Q 54.890625 11.625 47.5625 5.09375 
Q 40.234375 -1.421875 26.90625 -1.421875 
Q 22.3125 -1.421875 17.546875 -0.640625 
Q 12.796875 0.140625 7.71875 1.703125 
L 7.71875 11.625 
Q 12.109375 9.234375 16.796875 8.0625 
Q 21.484375 6.890625 26.703125 6.890625 
Q 35.15625 6.890625 40.078125 11.328125 
Q 45.015625 15.765625 45.015625 23.390625 
Q 45.015625 31 40.078125 35.4375 
Q 35.15625 39.890625 26.703125 39.890625 
Q 22.75 39.890625 18.8125 39.015625 
Q 14.890625 38.140625 10.796875 36.28125 
z
" id="DejaVuSans-53"/>
       </defs>
       <use xlink:href="#DejaVuSans-49"/>
       <use x="63.623047" xlink:href="#DejaVuSans-53"/>
      </g>
     </g>
    </g>
    <g id="ytick_17">
     <g id="line2d_36">
      <g>
       <use style="stroke:#000000;stroke-width:0.8;" x="931.563818" xlink:href="#mffe2f063db" y="273.6"/>
      </g>
     </g>
     <g id="text_41">
      <!-- 30 -->
      <g transform="translate(938.563818 277.399219)scale(0.1 -0.1)">
       <use xlink:href="#DejaVuSans-51"/>
       <use x="63.623047" xlink:href="#DejaVuSans-48"/>
      </g>
     </g>
    </g>
    <g id="ytick_18">
     <g id="line2d_37">
      <g>
       <use style="stroke:#000000;stroke-width:0.8;" x="931.563818" xlink:href="#mffe2f063db" y="218.16"/>
      </g>
     </g>
     <g id="text_42">
      <!-- 45 -->
      <g transform="translate(938.563818 221.959219)scale(0.1 -0.1)">
       <use xlink:href="#DejaVuSans-52"/>
       <use x="63.623047" xlink:href="#DejaVuSans-53"/>
      </g>
     </g>
    </g>
    <g id="ytick_19">
     <g id="line2d_38">
      <g>
       <use style="stroke:#000000;stroke-width:0.8;" x="931.563818" xlink:href="#mffe2f063db" y="162.72"/>
      </g>
     </g>
     <g id="text_43">
      <!-- 60 -->
      <g transform="translate(938.563818 166.519219)scale(0.1 -0.1)">
       <defs>
        <path d="M 33.015625 40.375 
Q 26.375 40.375 22.484375 35.828125 
Q 18.609375 31.296875 18.609375 23.390625 
Q 18.609375 15.53125 22.484375 10.953125 
Q 26.375 6.390625 33.015625 6.390625 
Q 39.65625 6.390625 43.53125 10.953125 
Q 47.40625 15.53125 47.40625 23.390625 
Q 47.40625 31.296875 43.53125 35.828125 
Q 39.65625 40.375 33.015625 40.375 
z
M 52.59375 71.296875 
L 52.59375 62.3125 
Q 48.875 64.0625 45.09375 64.984375 
Q 41.3125 65.921875 37.59375 65.921875 
Q 27.828125 65.921875 22.671875 59.328125 
Q 17.53125 52.734375 16.796875 39.40625 
Q 19.671875 43.65625 24.015625 45.921875 
Q 28.375 48.1875 33.59375 48.1875 
Q 44.578125 48.1875 50.953125 41.515625 
Q 57.328125 34.859375 57.328125 23.390625 
Q 57.328125 12.15625 50.6875 5.359375 
Q 44.046875 -1.421875 33.015625 -1.421875 
Q 20.359375 -1.421875 13.671875 8.265625 
Q 6.984375 17.96875 6.984375 36.375 
Q 6.984375 53.65625 15.1875 63.9375 
Q 23.390625 74.21875 37.203125 74.21875 
Q 40.921875 74.21875 44.703125 73.484375 
Q 48.484375 72.75 52.59375 71.296875 
z
" id="DejaVuSans-54"/>
       </defs>
       <use xlink:href="#DejaVuSans-54"/>
       <use x="63.623047" xlink:href="#DejaVuSans-48"/>
      </g>
     </g>
    </g>
    <g id="ytick_20">
     <g id="line2d_39">
      <g>
       <use style="stroke:#000000;stroke-width:0.8;" x="931.563818" xlink:href="#mffe2f063db" y="107.28"/>
      </g>
     </g>
     <g id="text_44">
      <!-- 75 -->
      <g transform="translate(938.563818 111.079219)scale(0.1 -0.1)">
       <defs>
        <path d="M 8.203125 72.90625 
L 55.078125 72.90625 
L 55.078125 68.703125 
L 28.609375 0 
L 18.3125 0 
L 43.21875 64.59375 
L 8.203125 64.59375 
z
" id="DejaVuSans-55"/>
       </defs>
       <use xlink:href="#DejaVuSans-55"/>
       <use x="63.623047" xlink:href="#DejaVuSans-53"/>
      </g>
     </g>
    </g>
    <g id="ytick_21">
     <g id="line2d_40">
      <g>
       <use style="stroke:#000000;stroke-width:0.8;" x="931.563818" xlink:href="#mffe2f063db" y="51.84"/>
      </g>
     </g>
     <g id="text_45">
      <!-- 90 -->
      <g transform="translate(938.563818 55.639219)scale(0.1 -0.1)">
       <defs>
        <path d="M 10.984375 1.515625 
L 10.984375 10.5 
Q 14.703125 8.734375 18.5 7.8125 
Q 22.3125 6.890625 25.984375 6.890625 
Q 35.75 6.890625 40.890625 13.453125 
Q 46.046875 20.015625 46.78125 33.40625 
Q 43.953125 29.203125 39.59375 26.953125 
Q 35.25 24.703125 29.984375 24.703125 
Q 19.046875 24.703125 12.671875 31.3125 
Q 6.296875 37.9375 6.296875 49.421875 
Q 6.296875 60.640625 12.9375 67.421875 
Q 19.578125 74.21875 30.609375 74.21875 
Q 43.265625 74.21875 49.921875 64.515625 
Q 56.59375 54.828125 56.59375 36.375 
Q 56.59375 19.140625 48.40625 8.859375 
Q 40.234375 -1.421875 26.421875 -1.421875 
Q 22.703125 -1.421875 18.890625 -0.6875 
Q 15.09375 0.046875 10.984375 1.515625 
z
M 30.609375 32.421875 
Q 37.25 32.421875 41.125 36.953125 
Q 45.015625 41.5 45.015625 49.421875 
Q 45.015625 57.28125 41.125 61.84375 
Q 37.25 66.40625 30.609375 66.40625 
Q 23.96875 66.40625 20.09375 61.84375 
Q 16.21875 57.28125 16.21875 49.421875 
Q 16.21875 41.5 20.09375 36.953125 
Q 23.96875 32.421875 30.609375 32.421875 
z
" id="DejaVuSans-57"/>
       </defs>
       <use xlink:href="#DejaVuSans-57"/>
       <use x="63.623047" xlink:href="#DejaVuSans-48"/>
      </g>
     </g>
    </g>
    <g id="text_46">
     <!-- wartość funkcji kosztu -->
     <g transform="translate(963.287256 273.571719)rotate(-90)scale(0.1 -0.1)">
      <defs>
       <path d="M 18.3125 70.21875 
L 18.3125 54.6875 
L 36.8125 54.6875 
L 36.8125 47.703125 
L 18.3125 47.703125 
L 18.3125 18.015625 
Q 18.3125 11.328125 20.140625 9.421875 
Q 21.96875 7.515625 27.59375 7.515625 
L 36.8125 7.515625 
L 36.8125 0 
L 27.59375 0 
Q 17.1875 0 13.234375 3.875 
Q 9.28125 7.765625 9.28125 18.015625 
L 9.28125 47.703125 
L 2.6875 47.703125 
L 2.6875 54.6875 
L 9.28125 54.6875 
L 9.28125 70.21875 
z
" id="DejaVuSans-116"/>
       <path d="M 30.609375 48.390625 
Q 23.390625 48.390625 19.1875 42.75 
Q 14.984375 37.109375 14.984375 27.296875 
Q 14.984375 17.484375 19.15625 11.84375 
Q 23.34375 6.203125 30.609375 6.203125 
Q 37.796875 6.203125 41.984375 11.859375 
Q 46.1875 17.53125 46.1875 27.296875 
Q 46.1875 37.015625 41.984375 42.703125 
Q 37.796875 48.390625 30.609375 48.390625 
z
M 30.609375 56 
Q 42.328125 56 49.015625 48.375 
Q 55.71875 40.765625 55.71875 27.296875 
Q 55.71875 13.875 49.015625 6.21875 
Q 42.328125 -1.421875 30.609375 -1.421875 
Q 18.84375 -1.421875 12.171875 6.21875 
Q 5.515625 13.875 5.515625 27.296875 
Q 5.515625 40.765625 12.171875 48.375 
Q 18.84375 56 30.609375 56 
z
" id="DejaVuSans-111"/>
       <path d="M 35.03125 79.984375 
L 44.75 79.984375 
L 28.84375 61.625 
L 21.359375 61.625 
z
M 44.28125 53.078125 
L 44.28125 44.578125 
Q 40.484375 46.53125 36.375 47.5 
Q 32.28125 48.484375 27.875 48.484375 
Q 21.1875 48.484375 17.84375 46.4375 
Q 14.5 44.390625 14.5 40.28125 
Q 14.5 37.15625 16.890625 35.375 
Q 19.28125 33.59375 26.515625 31.984375 
L 29.59375 31.296875 
Q 39.15625 29.25 43.1875 25.515625 
Q 47.21875 21.78125 47.21875 15.09375 
Q 47.21875 7.46875 41.1875 3.015625 
Q 35.15625 -1.421875 24.609375 -1.421875 
Q 20.21875 -1.421875 15.453125 -0.5625 
Q 10.6875 0.296875 5.421875 2 
L 5.421875 11.28125 
Q 10.40625 8.6875 15.234375 7.390625 
Q 20.0625 6.109375 24.8125 6.109375 
Q 31.15625 6.109375 34.5625 8.28125 
Q 37.984375 10.453125 37.984375 14.40625 
Q 37.984375 18.0625 35.515625 20.015625 
Q 33.0625 21.96875 24.703125 23.78125 
L 21.578125 24.515625 
Q 13.234375 26.265625 9.515625 29.90625 
Q 5.8125 33.546875 5.8125 39.890625 
Q 5.8125 47.609375 11.28125 51.796875 
Q 16.75 56 26.8125 56 
Q 31.78125 56 36.171875 55.265625 
Q 40.578125 54.546875 44.28125 53.078125 
z
" id="DejaVuSans-347"/>
       <path d="M 48.78125 52.59375 
L 48.78125 44.1875 
Q 44.96875 46.296875 41.140625 47.34375 
Q 37.3125 48.390625 33.40625 48.390625 
Q 24.65625 48.390625 19.8125 42.84375 
Q 14.984375 37.3125 14.984375 27.296875 
Q 14.984375 17.28125 19.8125 11.734375 
Q 24.65625 6.203125 33.40625 6.203125 
Q 37.3125 6.203125 41.140625 7.25 
Q 44.96875 8.296875 48.78125 10.40625 
L 48.78125 2.09375 
Q 45.015625 0.34375 40.984375 -0.53125 
Q 36.96875 -1.421875 32.421875 -1.421875 
Q 20.0625 -1.421875 12.78125 6.34375 
Q 5.515625 14.109375 5.515625 27.296875 
Q 5.515625 40.671875 12.859375 48.328125 
Q 20.21875 56 33.015625 56 
Q 37.15625 56 41.109375 55.140625 
Q 45.0625 54.296875 48.78125 52.59375 
z
M 38.53125 79.984375 
L 48.25 79.984375 
L 32.34375 61.625 
L 24.859375 61.625 
z
" id="DejaVuSans-263"/>
       <path d="M 37.109375 75.984375 
L 37.109375 68.5 
L 28.515625 68.5 
Q 23.6875 68.5 21.796875 66.546875 
Q 19.921875 64.59375 19.921875 59.515625 
L 19.921875 54.6875 
L 34.71875 54.6875 
L 34.71875 47.703125 
L 19.921875 47.703125 
L 19.921875 0 
L 10.890625 0 
L 10.890625 47.703125 
L 2.296875 47.703125 
L 2.296875 54.6875 
L 10.890625 54.6875 
L 10.890625 58.5 
Q 10.890625 67.625 15.140625 71.796875 
Q 19.390625 75.984375 28.609375 75.984375 
z
" id="DejaVuSans-102"/>
       <path d="M 8.5 21.578125 
L 8.5 54.6875 
L 17.484375 54.6875 
L 17.484375 21.921875 
Q 17.484375 14.15625 20.5 10.265625 
Q 23.53125 6.390625 29.59375 6.390625 
Q 36.859375 6.390625 41.078125 11.03125 
Q 45.3125 15.671875 45.3125 23.6875 
L 45.3125 54.6875 
L 54.296875 54.6875 
L 54.296875 0 
L 45.3125 0 
L 45.3125 8.40625 
Q 42.046875 3.421875 37.71875 1 
Q 33.40625 -1.421875 27.6875 -1.421875 
Q 18.265625 -1.421875 13.375 4.4375 
Q 8.5 10.296875 8.5 21.578125 
z
M 31.109375 56 
z
" id="DejaVuSans-117"/>
       <path d="M 48.78125 52.59375 
L 48.78125 44.1875 
Q 44.96875 46.296875 41.140625 47.34375 
Q 37.3125 48.390625 33.40625 48.390625 
Q 24.65625 48.390625 19.8125 42.84375 
Q 14.984375 37.3125 14.984375 27.296875 
Q 14.984375 17.28125 19.8125 11.734375 
Q 24.65625 6.203125 33.40625 6.203125 
Q 37.3125 6.203125 41.140625 7.25 
Q 44.96875 8.296875 48.78125 10.40625 
L 48.78125 2.09375 
Q 45.015625 0.34375 40.984375 -0.53125 
Q 36.96875 -1.421875 32.421875 -1.421875 
Q 20.0625 -1.421875 12.78125 6.34375 
Q 5.515625 14.109375 5.515625 27.296875 
Q 5.515625 40.671875 12.859375 48.328125 
Q 20.21875 56 33.015625 56 
Q 37.15625 56 41.109375 55.140625 
Q 45.0625 54.296875 48.78125 52.59375 
z
" id="DejaVuSans-99"/>
       <path d="M 9.421875 54.6875 
L 18.40625 54.6875 
L 18.40625 0 
L 9.421875 0 
z
M 9.421875 75.984375 
L 18.40625 75.984375 
L 18.40625 64.59375 
L 9.421875 64.59375 
z
" id="DejaVuSans-105"/>
      </defs>
      <use xlink:href="#DejaVuSans-119"/>
      <use x="81.787109" xlink:href="#DejaVuSans-97"/>
      <use x="143.066406" xlink:href="#DejaVuSans-114"/>
      <use x="184.179688" xlink:href="#DejaVuSans-116"/>
      <use x="223.388672" xlink:href="#DejaVuSans-111"/>
      <use x="284.570312" xlink:href="#DejaVuSans-347"/>
      <use x="336.669922" xlink:href="#DejaVuSans-263"/>
      <use x="391.650391" xlink:href="#DejaVuSans-32"/>
      <use x="423.4375" xlink:href="#DejaVuSans-102"/>
      <use x="458.642578" xlink:href="#DejaVuSans-117"/>
      <use x="522.021484" xlink:href="#DejaVuSans-110"/>
      <use x="585.400391" xlink:href="#DejaVuSans-107"/>
      <use x="643.310547" xlink:href="#DejaVuSans-99"/>
      <use x="698.291016" xlink:href="#DejaVuSans-106"/>
      <use x="726.074219" xlink:href="#DejaVuSans-105"/>
      <use x="753.857422" xlink:href="#DejaVuSans-32"/>
      <use x="785.644531" xlink:href="#DejaVuSans-107"/>
      <use x="839.929688" xlink:href="#DejaVuSans-111"/>
      <use x="901.111328" xlink:href="#DejaVuSans-115"/>
      <use x="953.210938" xlink:href="#DejaVuSans-122"/>
      <use x="1005.701172" xlink:href="#DejaVuSans-116"/>
      <use x="1044.910156" xlink:href="#DejaVuSans-117"/>
     </g>
    </g>
   </g>
   <g id="LineCollection_8">
    <path clip-path="url(#p386b88a432)" d="M 914.931818 384.48 
L 931.563818 384.48 
" style="fill:none;stroke:#440154;stroke-width:1.5;"/>
    <path clip-path="url(#p386b88a432)" d="M 914.931818 329.04 
L 931.563818 329.04 
" style="fill:none;stroke:#443983;stroke-width:1.5;"/>
    <path clip-path="url(#p386b88a432)" d="M 914.931818 273.6 
L 931.563818 273.6 
" style="fill:none;stroke:#31688e;stroke-width:1.5;"/>
    <path clip-path="url(#p386b88a432)" d="M 914.931818 218.16 
L 931.563818 218.16 
" style="fill:none;stroke:#21918c;stroke-width:1.5;"/>
    <path clip-path="url(#p386b88a432)" d="M 914.931818 162.72 
L 931.563818 162.72 
" style="fill:none;stroke:#35b779;stroke-width:1.5;"/>
    <path clip-path="url(#p386b88a432)" d="M 914.931818 107.28 
L 931.563818 107.28 
" style="fill:none;stroke:#90d743;stroke-width:1.5;"/>
    <path clip-path="url(#p386b88a432)" d="M 914.931818 51.84 
L 931.563818 51.84 
" style="fill:none;stroke:#fde725;stroke-width:1.5;"/>
   </g>
   <g id="patch_13">
    <path d="M 914.931818 384.48 
L 914.931818 329.04 
L 914.931818 107.28 
L 914.931818 51.84 
L 931.563818 51.84 
L 931.563818 107.28 
L 931.563818 329.04 
L 931.563818 384.48 
z
" style="fill:none;stroke:#000000;stroke-linejoin:miter;stroke-width:0.8;"/>
   </g>
  </g>
 </g>
 <defs>
  <clipPath id="p71dfd3dc2b">
   <rect height="332.64" width="380.454545" x="135" y="51.84"/>
  </clipPath>
  <clipPath id="pcf46fb16f6">
   <rect height="332.64" width="304.363636" x="591.545455" y="51.84"/>
  </clipPath>
  <clipPath id="p386b88a432">
   <rect height="332.64" width="16.632" x="914.931818" y="51.84"/>
  </clipPath>
 </defs>
</svg>
